<svg width="24" height="24" viewBox="0 0 24 24" fill="none" xmlns="http://www.w3.org/2000/svg">
<g clip-path="url(#clip0_61_10642)">
<path fill-rule="evenodd" clip-rule="evenodd" d="M18.16 7.78998C17.07 6.86998 15.88 6.65998 15.45 6.65998C14.53 6.65998 13.84 6.99998 13.31 7.27998C13.16 7.35998 13.02 7.42998 12.91 7.47998C13.34 5.83998 14.37 4.36998 15.81 3.40998C16.15 3.17998 16.24 2.71998 16.02 2.38998C15.79 2.04998 15.34 1.95998 15 2.17998C13.73 3.02998 12.73 4.18998 12.08 5.51998C11.2 3.80998 9.40997 2.63998 7.34997 2.63998C6.93997 2.63998 6.60997 2.95998 6.60997 3.37998C6.60997 4.66998 7.06997 5.85998 7.82997 6.77998C7.27997 6.90998 6.52997 7.19998 5.81997 7.79998C4.67997 8.73998 3.71997 10.4 3.71997 13.11C3.71997 15.06 4.35997 17.23 5.35997 18.94C6.33997 20.59 7.81997 22.05 9.60997 22.05C10.36 22.05 10.89 21.79 11.28 21.59L11.3 21.57C11.7 21.36 11.82 21.29 11.98 21.29C12.14 21.29 12.26 21.36 12.66 21.57L12.69 21.59C13.07 21.8 13.61 22.05 14.36 22.05C16.14 22.05 17.62 20.59 18.6 18.94C19.6 17.23 20.25 15.05 20.25 13.11C20.25 10.39 19.29 8.73998 18.14 7.79998L18.16 7.78998ZM11.12 7.14998C9.63997 6.82998 8.47997 5.65998 8.16997 4.18998C9.64997 4.49998 10.81 5.66998 11.12 7.14998ZM17.34 18.18C16.42 19.72 15.32 20.57 14.37 20.57C13.98 20.57 13.71 20.45 13.39 20.27C13.36 20.27 13.33 20.24 13.29 20.22C12.99 20.05 12.54 19.81 11.99 19.81C11.44 19.81 10.99 20.06 10.69 20.22C10.65 20.24 10.62 20.26 10.59 20.27C10.27 20.45 9.99997 20.57 9.61997 20.57C8.65997 20.57 7.54997 19.72 6.64997 18.18C5.75997 16.68 5.19997 14.77 5.19997 13.1C5.19997 10.77 5.99997 9.55998 6.75997 8.91998C7.14997 8.58998 7.56997 8.38998 7.89997 8.26998C8.06997 8.20998 8.20997 8.17998 8.31997 8.14998C8.37997 8.14998 8.42997 8.14998 8.46997 8.12998H8.51997C9.05997 8.12998 9.47997 8.31998 10.02 8.58998C10.05 8.58998 10.08 8.61998 10.12 8.62998C10.58 8.86998 11.18 9.16998 11.9 9.19998H12.01C12.79 9.19998 13.42 8.87998 13.9 8.62998C13.93 8.60998 13.96 8.59998 13.99 8.57998C14.51 8.30998 14.92 8.12998 15.46 8.12998H15.52C15.52 8.12998 15.6 8.12998 15.66 8.14998C15.77 8.17998 15.92 8.20998 16.08 8.26998C16.42 8.38998 16.83 8.57998 17.22 8.91998C17.99 9.55998 18.79 10.77 18.79 13.1C18.79 14.76 18.23 16.68 17.34 18.18Z" fill="#DEA476"/>
</g>
<defs>
<clipPath id="clip0_61_10642">
<rect width="19.98" height="20.1" fill="white" transform="translate(2 2)"/>
</clipPath>
</defs>
</svg>
