<svg width="24" height="24" viewBox="0 0 24 24" fill="none" xmlns="http://www.w3.org/2000/svg">
<g clip-path="url(#clip0_61_10646)">
<path d="M14.28 12.38C14.28 12.01 13.98 11.71 13.61 11.71C11.26 11.71 9.34004 9.79005 9.33004 7.43005C9.33004 7.06005 9.03004 6.76005 8.66004 6.76005C8.29004 6.76005 7.99004 7.06005 7.99004 7.43005C7.99004 9.78005 6.07004 11.7 3.71004 11.71C3.34004 11.71 3.04004 12.01 3.04004 12.38C3.04004 12.75 3.34004 13.05 3.71004 13.05C6.06004 13.05 7.98004 14.97 7.99004 17.33C7.99004 17.7 8.29004 18 8.66004 18C9.03004 18 9.33004 17.7 9.33004 17.33C9.33004 14.98 11.25 13.06 13.61 13.05C13.98 13.05 14.28 12.75 14.28 12.38ZM9.64004 13.36C9.25004 13.75 8.92004 14.19 8.66004 14.67C8.40004 14.2 8.08004 13.76 7.68004 13.36C7.28004 12.96 6.85004 12.64 6.37004 12.38C6.84004 12.12 7.28004 11.8 7.68004 11.4C8.07004 11.01 8.40004 10.57 8.66004 10.09C8.92004 10.56 9.24004 11 9.64004 11.4C10.03 11.79 10.47 12.12 10.95 12.38C10.48 12.64 10.04 12.96 9.64004 13.36ZM20.32 17.3C18.81 17.3 17.59 16.07 17.58 14.56C17.58 14.19 17.28 13.89 16.91 13.89C16.54 13.89 16.24 14.19 16.24 14.56C16.24 16.07 15.01 17.29 13.5 17.3C13.13 17.3 12.83 17.6 12.83 17.97C12.83 18.34 13.13 18.64 13.5 18.64C15.01 18.64 16.23 19.87 16.24 21.38C16.24 21.75 16.54 22.05 16.91 22.05C17.28 22.05 17.58 21.75 17.58 21.38C17.58 19.87 18.81 18.65 20.32 18.64C20.69 18.64 20.99 18.34 20.99 17.97C20.99 17.6 20.69 17.3 20.32 17.3ZM18.08 17.97C17.61 18.28 17.22 18.68 16.91 19.14C16.6 18.67 16.2 18.28 15.74 17.97C16.21 17.66 16.6 17.26 16.91 16.8C17.22 17.27 17.62 17.66 18.08 17.97ZM20.91 6.05005C19.07 6.05005 17.58 4.55005 17.58 2.72005C17.58 2.35005 17.28 2.05005 16.91 2.05005C16.54 2.05005 16.24 2.35005 16.24 2.72005C16.24 4.56005 14.74 6.05005 12.91 6.05005C12.54 6.05005 12.24 6.35005 12.24 6.72005C12.24 7.09005 12.54 7.39005 12.91 7.39005C14.75 7.39005 16.24 8.89005 16.24 10.72C16.24 11.09 16.54 11.39 16.91 11.39C17.28 11.39 17.58 11.09 17.58 10.72C17.58 8.88005 19.08 7.39005 20.91 7.39005C21.28 7.39005 21.58 7.09005 21.58 6.72005C21.58 6.35005 21.28 6.05005 20.91 6.05005ZM18.5 6.72005C17.85 7.12005 17.3 7.66005 16.9 8.32005C16.5 7.67005 15.96 7.12005 15.3 6.72005C15.95 6.32005 16.5 5.78005 16.9 5.12005C17.3 5.77005 17.84 6.32005 18.5 6.72005Z" fill="#548F82" stroke="#548F82" stroke-width="0.1"/>
</g>
<defs>
<clipPath id="clip0_61_10646">
<rect width="18.64" height="20.1" fill="white" transform="translate(3 2)"/>
</clipPath>
</defs>
</svg>
