<svg width="24" height="24" viewBox="0 0 24 24" fill="none" xmlns="http://www.w3.org/2000/svg">
<g clip-path="url(#clip0_61_10650)">
<path d="M18.47 12.1001C18.47 12.1001 18.39 12.1001 18.36 12.1001C19.31 8.86005 17.59 6.48005 17.53 6.30005C17.3 6.40005 15.62 6.73005 14.12 8.32005C13.26 6.49005 12.2 5.88005 12.01 5.68005C11.82 5.87005 10.75 6.50005 9.90002 8.32005C8.39002 6.72005 6.72002 6.40005 6.49002 6.30005C6.42002 6.49005 4.71002 8.84005 5.66002 12.1001C5.62002 12.1001 5.58002 12.1001 5.55002 12.1001C3.56002 12.1001 2.23002 12.9501 2.02002 13.0301C2.10002 13.1901 2.65002 16.3501 6.06002 17.8401C7.93002 18.6501 10.1 18.6301 12.02 17.6201C13.94 18.6201 16.11 18.6501 17.98 17.8401C21.39 16.3601 21.94 13.1901 22.02 13.0301C21.8 12.9501 20.48 12.1001 18.49 12.1001H18.47ZM16.96 7.75005C17.6 9.18005 17.64 10.8101 17.06 12.2901C16.47 13.7701 15.36 14.9001 13.93 15.5101C14.58 14.4301 14.93 13.1801 14.93 11.8901C14.93 11.1401 14.81 10.3501 14.59 9.58005C15.2 8.78005 16.03 8.14005 16.96 7.75005ZM12 7.25005C13.05 8.36005 13.76 10.1801 13.76 11.8901C13.76 13.4401 13.16 14.9001 12.08 15.9901C12.05 15.9901 12.03 15.9901 12 15.9901C11.97 15.9901 11.95 15.9901 11.92 15.9901C10.85 14.9001 10.24 13.4301 10.24 11.8901C10.24 10.1801 10.95 8.36005 12 7.25005ZM7.04002 7.75005C7.97002 8.15005 8.80002 8.78005 9.41002 9.58005C9.19002 10.3501 9.07002 11.1401 9.07002 11.8901C9.07002 13.1901 9.42002 14.4301 10.08 15.5201C8.65002 14.9101 7.54002 13.7801 6.95002 12.2901C6.37002 10.8101 6.41002 9.19005 7.05002 7.75005H7.04002ZM6.51002 16.7601C5.10002 16.1501 4.01002 15.0301 3.44002 13.6601C4.10002 13.4101 4.83002 13.2801 5.53002 13.2801C5.73002 13.2801 5.92002 13.2901 6.12002 13.3101C6.58002 14.2301 7.25002 15.0401 8.05002 15.6801C8.81002 16.2701 9.67002 16.7001 10.61 16.9501C9.25002 17.4101 7.79002 17.3301 6.50002 16.7701L6.51002 16.7601ZM17.49 16.7601C16.22 17.3101 14.75 17.4001 13.38 16.9401C14.33 16.6901 15.19 16.2701 15.95 15.6701C16.76 15.0401 17.42 14.2301 17.89 13.3001C18.09 13.2801 18.28 13.2701 18.48 13.2701C19.19 13.2701 19.91 13.4001 20.57 13.6501C20.01 15.0301 18.91 16.1401 17.5 16.7501L17.49 16.7601Z" fill="#78D3C7"/>
</g>
<defs>
<clipPath id="clip0_61_10650">
<rect width="20" height="20.1" fill="white" transform="translate(2 2)"/>
</clipPath>
</defs>
</svg>
