<svg width="24" height="24" viewBox="0 0 24 24" fill="none" xmlns="http://www.w3.org/2000/svg">
<g clip-path="url(#clip0_61_10651)">
<path fill-rule="evenodd" clip-rule="evenodd" d="M5.95995 9.40998L5.69995 9.14998L5.88995 8.95998C6.09995 8.73998 6.37995 8.62998 6.66995 8.62998H6.77995L6.73995 8.92998V9.00998L6.78995 8.63998C7.11995 8.68998 7.40995 8.85998 7.59995 9.13998C7.85995 9.53998 8.10995 9.91998 8.34995 10.26L8.02995 10.49L8.33995 10.27C8.75995 10.86 9.18995 11.42 9.62995 11.92C10.38 12.81 11.2 13.63 12.09 14.39C12.6 14.84 13.16 15.28 13.75 15.69C14.1 15.94 14.47 16.19 14.87 16.44C15.16 16.63 15.34 16.93 15.38 17.26L15 17.3L15.39 17.25C15.43 17.58 15.31 17.91 15.07 18.15L14.79 17.87L15.06 18.15L14.87 18.34L14.6 18.07L14.88 18.35C14.75 18.48 14.68 18.65 14.68 18.84C14.68 19.03 14.75 19.2 14.88 19.33L14.62 19.59L14.87 19.34L15.89 20.36L15.64 20.61L15.89 20.35C16.16 20.62 16.61 20.62 16.88 20.35L20.28 16.95L20.54 17.21L20.28 16.94C20.41 16.81 20.4799 16.64 20.4799 16.45H20.87C20.87 16.45 20.87 16.45 20.87 16.44H20.4799C20.4799 16.26 20.41 16.08 20.28 15.95L19.26 14.93H19.25C19.19 14.88 19.11 14.83 19.03 14.79C18.95 14.76 18.86 14.74 18.77 14.74C18.67 14.74 18.59 14.76 18.51 14.79C18.42 14.82 18.34 14.88 18.28 14.94L17.99 14.65L18.27 14.94L18.08 15.13C17.85 15.37 17.51 15.49 17.18 15.45C16.85 15.41 16.56 15.22 16.37 14.94C16.12 14.54 15.88 14.17 15.63 13.83L15.96 13.59L15.62 13.83C15.21 13.26 14.78 12.7 14.32 12.18C13.94 11.74 13.54 11.31 13.13 10.9C12.72 10.49 12.29 10.09 11.85 9.70998C11.32 9.24998 10.76 8.81998 10.2 8.40998L10.44 8.05998C10.44 8.05998 10.44 8.05998 10.43 8.05998L10.18 8.39998C9.83995 8.14998 9.46995 7.89998 9.06995 7.64998C8.78995 7.46998 8.59995 7.16998 8.55995 6.83998C8.52995 6.50998 8.63995 6.17998 8.87995 5.93998L9.06995 5.74998L9.31995 5.99998L9.05995 5.73998C9.18995 5.60998 9.25995 5.43998 9.25995 5.24998C9.25995 5.05998 9.18995 4.88998 9.05995 4.75998L9.33995 4.46998L9.05995 4.74998L8.03995 3.72998C7.76995 3.45998 7.31995 3.45998 7.04995 3.72998L3.64995 7.12998C3.51995 7.25998 3.44995 7.42998 3.44995 7.61998C3.44995 7.79998 3.51995 7.97998 3.64995 8.10998L4.66995 9.12998H4.67995C4.73995 9.17998 4.81995 9.22998 4.89995 9.26998C4.97995 9.29998 5.06995 9.31998 5.15995 9.31998C5.25995 9.31998 5.33995 9.29998 5.41995 9.26998C5.50995 9.23998 5.58995 9.17998 5.64995 9.11998L5.91995 9.37998L5.95995 9.40998ZM8.81995 12.64C8.81995 12.64 8.81995 12.64 8.81995 12.63L8.52995 12.88C8.02995 12.31 7.56995 11.72 7.13995 11.12C6.95995 10.87 6.77995 10.61 6.59995 10.34C6.20995 10.66 5.71995 10.84 5.20995 10.84C4.61995 10.83 4.06995 10.61 3.65995 10.19L2.64995 9.17998C1.79995 8.33998 1.79995 6.94998 2.64995 6.09998L6.02995 2.67998C6.87995 1.82998 8.26995 1.82998 9.11995 2.67998L10.14 3.69998L9.86995 3.96998L10.14 3.68998C10.55 4.09998 10.78 4.64998 10.78 5.22998H10.77C10.77 5.73998 10.6 6.23998 10.27 6.62998C10.55 6.80998 10.81 6.98998 11.06 7.16998C11.64 7.56998 12.22 8.01998 12.83 8.53998C13.3 8.94998 13.76 9.36998 14.19 9.79998C14.62 10.24 15.05 10.7 15.45 11.16C15.98 11.77 16.43 12.34 16.84 12.93C17.02 13.19 17.2 13.44 17.38 13.72C17.77 13.4 18.26 13.22 18.77 13.22C19.36 13.23 19.91 13.45 20.32 13.87L21.33 14.88C22.18 15.73 22.18 17.12 21.33 17.97L17.93 21.37C17.56 21.75 17.08 21.96 16.59 22L16.55 22.04H16.39V22.02C15.83 22.02 15.27 21.8 14.84 21.38L13.82 20.35C13.41 19.94 13.18 19.39 13.18 18.81H13.19C13.19 18.3 13.36 17.81 13.69 17.42C13.41 17.24 13.16 17.06 12.9 16.88C12.29 16.44 11.71 15.99 11.14 15.5C10.2 14.69 9.31995 13.81 8.50995 12.87L8.79995 12.62L8.81995 12.64ZM10.2 8.38998L10.43 8.07998H10.42L10.2 8.38998Z" fill="#7CC773"/>
</g>
<defs>
<clipPath id="clip0_61_10651">
<rect width="19.98" height="20.1" fill="white" transform="translate(2 2)"/>
</clipPath>
</defs>
</svg>
