<svg width="24" height="24" viewBox="0 0 24 24" fill="none" xmlns="http://www.w3.org/2000/svg">
<g clip-path="url(#clip0_61_10652)">
<path fill-rule="evenodd" clip-rule="evenodd" d="M14.82 11.42C14.82 9.93 16.03 8.72 17.52 8.72C19.01 8.72 20.22 9.93 20.22 11.42C20.22 12.66 19.38 13.7 18.25 14.02V16.89C18.25 19.71 15.96 22 13.14 22C10.32 22 8.02999 19.71 8.02999 16.89V12.77C5.18999 12.38 2.98999 9.93 2.98999 6.99V3.51C2.98999 3.11 3.31999 2.78 3.71999 2.78H5.24999V2.73C5.24999 2.33 5.57999 2 5.97999 2C6.37999 2 6.70999 2.33 6.70999 2.73V4.29C6.70999 4.69 6.37999 5.02 5.97999 5.02C5.57999 5.02 5.24999 4.69 5.24999 4.29V4.24H4.44999V6.99C4.44999 9.4 6.40999 11.37 8.82999 11.37C11.25 11.37 13.21 9.41 13.21 6.99V4.24H12.36V4.29C12.36 4.69 12.03 5.02 11.63 5.02C11.23 5.02 10.9 4.69 10.9 4.29V2.73C10.9 2.33 11.23 2 11.63 2C12.03 2 12.36 2.33 12.36 2.73V2.78H13.94C14.34 2.78 14.67 3.11 14.67 3.51V6.99C14.67 9.99 12.4 12.47 9.48999 12.79V16.89C9.48999 18.9 11.13 20.54 13.14 20.54C15.15 20.54 16.79 18.9 16.79 16.89V14.02C15.65 13.7 14.82 12.66 14.82 11.42ZM16.28 11.42C16.28 12.1 16.84 12.66 17.52 12.66C18.2 12.66 18.76 12.1 18.76 11.42C18.76 10.74 18.2 10.18 17.52 10.18C16.84 10.18 16.28 10.74 16.28 11.42Z" fill="#DE76B1"/>
</g>
<defs>
<clipPath id="clip0_61_10652">
<rect width="17.23" height="20" fill="white" transform="translate(3 2)"/>
</clipPath>
</defs>
</svg>
