<svg width="24" height="24" viewBox="0 0 24 24" fill="none" xmlns="http://www.w3.org/2000/svg">
<path fill-rule="evenodd" clip-rule="evenodd" d="M3.81006 19.84V21.03H19.2701L20.4001 14.63H19.1301L19.0601 14.8C19.0601 14.8 19.0501 14.83 19.0401 14.85C18.2901 16.78 17.4101 18.05 16.4301 18.68C15.4401 19.33 14.1801 19.66 12.6701 19.66C11.8301 19.66 11.2701 19.56 11.0701 19.43C10.8901 19.32 10.7501 19.06 10.7501 18.52V5.74003C10.7501 4.86003 11.0101 4.70003 11.2201 4.57003C11.2301 4.57003 11.2401 4.56003 11.2501 4.55003C11.3701 4.45003 11.5701 4.38003 11.8501 4.33003C12.1601 4.27003 12.5701 4.24003 13.1101 4.22003H13.3801V3.03003H3.83006V4.22003H4.09006C4.47006 4.24003 4.78006 4.28003 5.02006 4.33003C5.25006 4.38003 5.41006 4.43003 5.50006 4.49003C5.88006 4.71003 6.08006 5.07003 6.09006 5.77003V18.29C6.09006 18.99 5.87006 19.36 5.47006 19.59C5.37006 19.64 5.23006 19.69 5.05006 19.73C4.80006 19.78 4.48006 19.82 4.08006 19.84H3.81006ZM7.08006 19.73H9.68006C9.50006 19.34 9.45006 18.9 9.45006 18.52V5.74003C9.45006 5.23003 9.52006 4.75003 9.73006 4.33003H7.08006C7.08006 4.33003 7.10006 4.37003 7.11006 4.39003C7.32006 4.83003 7.39006 5.30003 7.39006 5.76003V18.31C7.39006 18.78 7.31006 19.26 7.09006 19.71C7.09006 19.71 7.09006 19.73 7.08006 19.74V19.73ZM17.2101 19.73H18.1801L18.3601 18.68C18.0001 19.1 17.6201 19.45 17.2101 19.73Z" fill="#DE7676"/>
</svg>
