<svg width="24" height="24" viewBox="0 0 24 24" fill="none" xmlns="http://www.w3.org/2000/svg">
<path fill-rule="evenodd" clip-rule="evenodd" d="M12.78 15.88L12.53 15.92V17.86H13.75C14.21 17.86 14.58 18.2301 14.58 18.6901C14.58 19.1501 14.21 19.5201 13.75 19.5201H12.53V20.8701C12.53 21.3301 12.16 21.7001 11.7 21.7001C11.24 21.7001 10.87 21.3301 10.87 20.8701V19.5201H9.65002C9.19002 19.5201 8.82002 19.1501 8.82002 18.6901C8.82002 18.2301 9.19002 17.86 9.65002 17.86H10.87V15.92L10.62 15.88C7.34002 15.36 4.87002 12.5 4.87002 9.13005C4.86002 5.37005 7.93002 2.30005 11.7 2.30005C15.47 2.30005 18.53 5.37005 18.53 9.13005C18.53 12.5 16.06 15.35 12.78 15.88ZM6.52002 9.13005C6.52002 11.98 8.84002 14.3 11.7 14.3C14.56 14.3 16.88 11.98 16.88 9.13005C16.88 6.28005 14.55 3.96005 11.7 3.96005C8.85002 3.96005 6.52002 6.28005 6.52002 9.13005Z" fill="#76A9DE"/>
</svg>
