<svg width="24" height="24" viewBox="0 0 24 24" fill="none" xmlns="http://www.w3.org/2000/svg">
<g clip-path="url(#clip0_61_10655)">
<path d="M9.32 17.83C9.73 18.24 10.44 18.24 10.85 17.83C10.85 17.83 11.36 17.32 12.01 16.67C12.66 17.32 13.17 17.83 13.17 17.83C13.57 18.23 14.29 18.24 14.7 17.83C15.12 17.41 15.12 16.72 14.7 16.3L13.54 15.14L14.7 13.98C15.12 13.56 15.12 12.87 14.7 12.45C14.28 12.03 13.59 12.03 13.17 12.45L12.01 13.61L10.85 12.45C10.43 12.03 9.74 12.03 9.32 12.45C8.9 12.87 8.9 13.56 9.32 13.98C9.32 13.98 9.83 14.49 10.48 15.14L9.32 16.3C8.9 16.72 8.9 17.41 9.32 17.83Z" fill="#693F91"/>
<path fill-rule="evenodd" clip-rule="evenodd" d="M12 3.53005C7.29 3.53005 3.48 7.34005 3.48 12.05C3.48 16.76 7.3 20.57 12 20.57C16.7 20.57 20.52 16.75 20.52 12.05C20.52 7.35005 16.71 3.53005 12 3.53005ZM2 12.05C2 6.53005 6.48 2.05005 12 2.05005C17.52 2.05005 22 6.53005 22 12.05C22 17.57 17.52 22.05 12 22.05C6.48 22.05 2 17.57 2 12.05Z" fill="#693F91"/>
<path fill-rule="evenodd" clip-rule="evenodd" d="M8.54001 9.53006C8.31001 9.53006 8.12001 9.72006 8.12001 9.95006H6.64001C6.64001 8.91006 7.49002 8.06006 8.53001 8.06006C9.57001 8.06006 10.42 8.91006 10.42 9.95006H8.94001C8.94001 9.72006 8.75001 9.53006 8.52001 9.53006H8.54001ZM15.46 9.53006C15.23 9.53006 15.04 9.72006 15.04 9.95006H13.56C13.56 8.91006 14.41 8.06006 15.45 8.06006C16.49 8.06006 17.34 8.91006 17.34 9.95006H15.86C15.86 9.72006 15.67 9.53006 15.44 9.53006H15.46Z" fill="#693F91"/>
</g>
<defs>
<clipPath id="clip0_61_10655">
<rect width="20" height="20.1" fill="white" transform="translate(2 2)"/>
</clipPath>
</defs>
</svg>
