<svg width="20" height="20" viewBox="0 0 20 20" fill="none" xmlns="http://www.w3.org/2000/svg">
<path d="M16.1901 5.03555H15.2386C14.4825 2.69395 12.2853 1 9.69211 1C6.52566 1 3.9491 3.52539 3.86652 6.67191H2.99176C1.33945 6.67188 0 8.01133 0 9.66363C0 11.3159 1.33945 12.6554 2.99176 12.6554H16.1901C18.2943 12.6554 20 10.9496 20 8.84547C20 6.74133 18.2942 5.03555 16.1901 5.03555Z" fill="#4B399C"/>
<path d="M11.1878 1.1943C10.2038 1.45418 9.3216 1.9659 8.61434 2.65625C7.5641 3.6809 6.89934 5.09848 6.85812 6.67227H5.98344C4.3309 6.67227 2.99203 8.01176 2.99203 9.66367C2.99203 10.4903 3.32691 11.2381 3.86797 11.7791C4.40902 12.3208 5.1575 12.6557 5.98344 12.6557H2.99203C2.16609 12.6557 1.41762 12.3208 0.876563 11.7791C0.334883 11.2381 0 10.4903 0 9.66367C0 8.0118 1.33949 6.67227 2.99203 6.67227H3.86672C3.90797 5.09848 4.5727 3.68086 5.62297 2.65625C6.6732 1.63102 8.10891 1 9.69211 1C10.2094 1 10.7104 1.06746 11.1878 1.1943Z" fill="#1F2D4F"/>
<path d="M7.87514 7.66076L6.67204 12.6971C6.64286 12.8192 6.73631 12.9364 6.86295 12.9364H8.61133C8.73393 12.9364 8.82648 13.0466 8.80427 13.1661L8.04584 17.2481C8.00591 17.4631 8.29879 17.5698 8.40882 17.3804L11.7738 11.5861C11.8491 11.4564 11.7547 11.2945 11.6038 11.2945H10.2418C10.0966 11.2945 10.0017 11.1436 10.0657 11.0144L11.6605 7.79127C11.7244 7.66204 11.6295 7.51111 11.4843 7.51111H8.06612C8.02194 7.51109 7.97905 7.52585 7.94438 7.55301C7.90972 7.58017 7.88532 7.61814 7.87514 7.66076ZM12.3133 13.7248L11.66 16.4593C11.6563 16.4748 11.6562 16.491 11.6596 16.5065C11.6631 16.5221 11.6701 16.5367 11.6801 16.5492C11.6901 16.5617 11.7028 16.5718 11.7172 16.5787C11.7317 16.5857 11.7476 16.5893 11.7636 16.5893H12.7129C12.7795 16.5893 12.8298 16.6491 12.8177 16.714L12.4059 18.9304C12.3842 19.0471 12.5433 19.1051 12.603 19.0022L14.4301 15.8561C14.471 15.7857 14.4197 15.6978 14.3378 15.6978H13.5983C13.5194 15.6978 13.4679 15.6158 13.5026 15.5457L14.3686 13.7956C14.4033 13.7255 14.3518 13.6435 14.2729 13.6435H12.4169C12.393 13.6435 12.3697 13.6515 12.3509 13.6663C12.332 13.681 12.3188 13.7016 12.3133 13.7248Z" fill="#FFB300"/>
</svg>
