<svg width="20" height="20" viewBox="0 0 20 20" fill="none" xmlns="http://www.w3.org/2000/svg">
<g clip-path="url(#clip0_26_6985)">
<path d="M17.9938 4.9446L17.7267 4.73874L15.4 2.93909C15.075 2.68773 14.7847 2.00081 15.1243 1.76968C15.1285 1.76683 15.1202 1.77249 15.1243 1.76968C15.3409 1.6228 15.945 1.81378 16.1521 1.97394L18.4627 3.76113L18.7045 3.94749C18.9791 4.15991 19.3787 4.13159 19.6038 3.86714C19.8441 3.5848 19.7976 3.16238 19.5077 2.93816L19.2641 2.75034L16.1559 0.346242C16.1559 0.346242 13.7022 -1.35079 10.5173 2.76921C7.33243 6.88921 7.67051 9.52073 5.48684 12.3962C3.30321 15.2717 -0.00487741 16.4843 5.39917e-06 18.0681C0.00121634 18.4635 0.220474 18.8819 0.571373 19.2328C1.33469 19.9961 3.76122 20.3821 5.20637 17.4053C7.13235 13.438 7.5195 13.4634 8.76934 13.2414C9.22758 13.1601 10.0661 13.4986 10.5273 13.7014C10.6834 13.7703 10.8368 13.845 10.9873 13.9255C11.1649 14.0204 11.7865 14.1158 11.9993 13.8121C12.1985 13.5277 12.1254 13.1337 11.8507 12.9213L11.5636 12.6818L9.54196 11.1182C9.33223 10.9559 8.96985 10.4667 9.16387 10.1028C9.30489 9.71925 9.96169 9.89589 10.2849 10.1459L12.3282 11.7264L12.5063 11.8677C12.788 12.0856 13.193 12.0338 13.4108 11.752C13.6286 11.4702 13.5768 11.0651 13.2951 10.8473L13.1153 10.7045L10.5775 8.74155C10.3468 8.56312 10.0853 8.02085 10.2185 7.76136C10.391 7.42523 11.0236 7.5398 11.3225 7.77093L13.8654 9.7378L14.1412 9.94937C14.4229 10.1673 14.8279 10.1155 15.0457 9.83366C15.2635 9.55187 15.2117 9.14679 14.93 8.9289L14.6525 8.71601L11.8785 6.57038C11.6229 6.37269 11.3301 5.83843 11.5148 5.57327C11.7119 5.29038 12.351 5.38898 12.6237 5.59987L15.3882 7.7382L15.6691 7.95421C15.9438 8.16663 16.3433 8.13831 16.5684 7.8739C16.8087 7.59155 16.7623 7.16913 16.4723 6.94491L16.1896 6.72749L13.4628 4.61839C13.1797 4.39941 12.8756 3.78218 13.1223 3.52288C13.1251 3.51991 13.1195 3.52585 13.1223 3.52288C13.3373 3.29734 13.9677 3.46198 14.2141 3.65261L16.9396 5.76073L17.2048 5.96515C17.4865 6.18304 17.8915 6.13124 18.1093 5.84945C18.3273 5.56757 18.2755 5.16249 17.9938 4.9446Z" fill="#FF5F7A"/>
<path d="M8.5001 13.1301C7.42783 13.2883 6.82717 13.3421 4.90119 17.3093C3.64818 19.8903 1.74795 19.9453 0.571426 19.2328C1.63506 20.2786 3.94154 20.6616 5.38674 17.6848C7.31272 13.7175 7.76916 13.6111 9.01901 13.3892C9.47733 13.3078 10.066 13.4987 10.5272 13.7015C10.1006 13.4738 9.16608 13.0318 8.5001 13.1301ZM19.7496 3.12585L19.2641 2.75042C19.554 2.97464 19.6004 3.39706 19.3601 3.67941C19.1355 3.94324 18.7373 3.97195 18.4628 3.76105L18.9464 4.13515C19.221 4.34757 19.6206 4.31925 19.8456 4.05484C20.0859 3.77253 20.0395 3.35011 19.7496 3.12585ZM15.4001 2.93909C15.0751 2.68777 15.0903 2.19199 15.4299 1.96081L15.4424 1.95234C15.5475 1.88092 15.6724 1.84441 15.7994 1.848C15.9264 1.85159 16.0491 1.89509 16.1499 1.97234L15.6666 1.59851C15.5657 1.52053 15.4427 1.47645 15.3152 1.47257C15.1878 1.46869 15.0623 1.50521 14.9569 1.57691L14.9444 1.58538C14.6047 1.81656 14.5896 2.31234 14.9146 2.56367L15.4001 2.93925L15.4001 2.93909ZM18.2124 5.11441L17.7268 4.73874L17.7269 4.73898C18.0086 4.95687 18.0604 5.36195 17.8426 5.64374C17.6252 5.92495 17.2215 5.97703 16.9398 5.76066L17.4236 6.13484C17.7053 6.35273 18.1103 6.30093 18.3281 6.01913C18.5459 5.73738 18.4942 5.3323 18.2124 5.11441ZM13.463 4.61831C13.1799 4.39933 13.1476 3.98288 13.3944 3.72359L13.4028 3.71472C13.6172 3.48976 13.966 3.46214 14.2124 3.6512L13.7287 3.2771C13.4823 3.08648 13.1322 3.11374 12.9172 3.33929L12.9088 3.34816C12.662 3.60745 12.6943 4.0239 12.9774 4.24288L13.463 4.61843V4.61831H13.463ZM16.6753 7.10292L16.1896 6.72726L16.1897 6.72749C16.4796 6.95171 16.526 7.37417 16.2857 7.65648C16.0611 7.92035 15.6629 7.94902 15.3883 7.73812L15.872 8.11222C16.1466 8.32464 16.5462 8.29632 16.7712 8.03191C17.0115 7.7496 16.9651 7.32714 16.6753 7.10292ZM15.1381 9.09148L14.6525 8.71589L14.6525 8.71605C14.9342 8.93394 14.986 9.33902 14.7682 9.62081C14.5508 9.90203 14.1471 9.9541 13.8655 9.73777L14.3492 10.1119C14.631 10.3298 15.0359 10.278 15.2538 9.99624C15.4715 9.71445 15.4197 9.30937 15.1381 9.09148ZM11.8786 6.57035C11.623 6.37265 11.5674 6.00921 11.7521 5.7441L11.7604 5.73214C11.9571 5.44984 12.3494 5.38929 12.622 5.59867L12.1382 5.22445C11.8655 5.01355 11.4719 5.07386 11.2748 5.35671L11.2665 5.36867C11.0818 5.63382 11.1374 5.99726 11.393 6.19492L11.8786 6.5705L11.8786 6.57035ZM10.5776 8.74152C10.4657 8.65502 10.3877 8.53212 10.357 8.39413C10.3263 8.25614 10.3448 8.11174 10.4093 7.98597L10.416 7.97285C10.5882 7.6373 11.0222 7.54019 11.321 7.76976L10.837 7.39542C10.5382 7.16429 10.103 7.26128 9.93049 7.59742L9.92373 7.61054C9.85918 7.73632 9.84067 7.88071 9.87139 8.0187C9.90212 8.15669 9.98016 8.27959 10.092 8.36609L10.5776 8.74171L10.5776 8.74152ZM13.6008 11.08L13.1151 10.7043L13.1153 10.7046C13.397 10.9225 13.4488 11.3275 13.231 11.6093C13.0136 11.8905 12.6099 11.9426 12.3283 11.7263L12.812 12.1004C13.0937 12.3183 13.4987 12.2665 13.7165 11.9847C13.9344 11.703 13.8826 11.2979 13.6008 11.08ZM9.54201 11.1181C9.43981 11.039 9.36546 10.9295 9.32974 10.8053C9.29402 10.6811 9.2988 10.5488 9.34338 10.4275L9.34779 10.4155C9.48858 10.0325 9.96029 9.89636 10.2835 10.1448L9.7994 9.77042C9.47615 9.52042 9.00322 9.65652 8.86225 10.0401L8.85783 10.0521C8.81325 10.1733 8.80847 10.3057 8.84419 10.4298C8.8799 10.554 8.95426 10.6636 9.05647 10.7427L9.54213 11.1183L9.54201 11.1181ZM12.0492 13.0574L11.5636 12.6818L11.5637 12.6819C11.8383 12.8944 11.9115 13.2883 11.7122 13.5727C11.5506 13.8035 11.2497 13.9614 10.9873 13.9255C11.1649 14.0203 11.2748 14.089 11.2748 14.089C11.5647 14.3132 11.9851 14.2518 12.1978 13.9482C12.397 13.6637 12.3239 13.2698 12.0492 13.0574Z" fill="#FB4455"/>
</g>
<defs>
<clipPath id="clip0_26_6985">
<rect width="20" height="20" fill="white"/>
</clipPath>
</defs>
</svg>
