<svg width="32" height="32" viewBox="0 0 32 32" fill="none" xmlns="http://www.w3.org/2000/svg">
<path d="M27.3655 4.63448C33.5448 10.9241 33.5448 21.0759 27.3655 27.3655C21.0759 33.5448 10.9241 33.5448 4.63448 27.3655C-1.54483 21.0759 -1.54483 10.9241 4.63448 4.63448C10.9241 -1.54483 21.0759 -1.54483 27.3655 4.63448ZM26.2621 5.73793C20.6345 0.110345 11.3655 0.110345 5.73793 5.73793C0.110345 11.3655 0.110345 20.6345 5.73793 26.2621C11.3655 32 20.6345 32 26.2621 26.2621C32 20.6345 32 11.3655 26.2621 5.73793Z" fill="url(#paint0_linear_17_1724)"/>
<path d="M13.2413 13.2414L9.931 9.82068L6.51031 13.2414L7.50342 14.3448L9.931 11.9172L12.2482 14.2345L13.2413 13.2414Z" fill="url(#paint1_linear_17_1724)"/>
<path d="M18.7586 13.2414L22.069 9.82068L25.4896 13.2414L24.4965 14.3448L22.069 11.9172L19.7517 14.2345L18.7586 13.2414Z" fill="url(#paint2_linear_17_1724)"/>
<path d="M22.731 15.1172H25.6V15.8897H22.731V15.1172Z" fill="url(#paint3_linear_17_1724)"/>
<path d="M6.28967 15.1172H9.15864V15.8897H6.28967V15.1172Z" fill="url(#paint4_linear_17_1724)"/>
<path d="M12.0276 19.4207H19.9724C21.7379 19.4207 23.1724 20.7448 23.1724 22.5103C23.1724 24.1655 21.7379 25.6 19.9724 25.6H12.0276C10.2621 25.6 8.82758 24.1655 8.82758 22.5103C8.82758 20.7448 10.2621 19.4207 12.0276 19.4207ZM19.9724 20.5241H12.0276C10.9241 20.5241 9.93102 21.4069 9.93102 22.5103C9.93102 23.6138 10.9241 24.4965 12.0276 24.4965H19.9724C21.0759 24.4965 22.069 23.6138 22.069 22.5103C22.069 21.4069 21.0759 20.5241 19.9724 20.5241Z" fill="url(#paint5_linear_17_1724)"/>
<defs>
<linearGradient id="paint0_linear_17_1724" x1="2.8" y1="-1.46508e-06" x2="36.7607" y2="8.14125" gradientUnits="userSpaceOnUse">
<stop stop-color="#B63AB4"/>
<stop offset="1" stop-color="#513B9F"/>
</linearGradient>
<linearGradient id="paint1_linear_17_1724" x1="7.09928" y1="9.82068" x2="13.8008" y2="12.2109" gradientUnits="userSpaceOnUse">
<stop stop-color="#B63AB4"/>
<stop offset="1" stop-color="#513B9F"/>
</linearGradient>
<linearGradient id="paint2_linear_17_1724" x1="19.3476" y1="9.82068" x2="26.049" y2="12.2109" gradientUnits="userSpaceOnUse">
<stop stop-color="#B63AB4"/>
<stop offset="1" stop-color="#513B9F"/>
</linearGradient>
<linearGradient id="paint3_linear_17_1724" x1="22.9821" y1="15.1172" x2="24.7779" y2="16.7163" gradientUnits="userSpaceOnUse">
<stop stop-color="#B63AB4"/>
<stop offset="1" stop-color="#513B9F"/>
</linearGradient>
<linearGradient id="paint4_linear_17_1724" x1="6.54071" y1="15.1172" x2="8.3366" y2="16.7163" gradientUnits="userSpaceOnUse">
<stop stop-color="#B63AB4"/>
<stop offset="1" stop-color="#513B9F"/>
</linearGradient>
<linearGradient id="paint5_linear_17_1724" x1="10.0827" y1="19.4207" x2="22.3746" y2="26.2612" gradientUnits="userSpaceOnUse">
<stop stop-color="#B63AB4"/>
<stop offset="1" stop-color="#513B9F"/>
</linearGradient>
</defs>
</svg>
