<svg width="32" height="32" viewBox="0 0 32 32" fill="none" xmlns="http://www.w3.org/2000/svg">
<path d="M27.3655 4.63448C33.5448 10.9241 33.5448 21.0759 27.3655 27.3655C21.0759 33.5448 10.9241 33.5448 4.63448 27.3655C-1.54483 21.0759 -1.54483 10.9241 4.63448 4.63448C10.9241 -1.54483 21.0759 -1.54483 27.3655 4.63448ZM26.2621 5.73793C20.6345 0.110345 11.3655 0.110345 5.73793 5.73793C0.110345 11.3655 0.110345 20.6345 5.73793 26.2621C11.3655 32 20.6345 32 26.2621 26.2621C32 20.6345 32 11.3655 26.2621 5.73793Z" fill="url(#paint0_linear_47_5664)"/>
<path d="M13.2413 12.3586L9.931 15.7793L6.51031 12.3586L7.50342 11.2552L9.931 13.6828L12.2482 11.3655L13.2413 12.3586Z" fill="url(#paint1_linear_47_5664)"/>
<path d="M18.7586 12.3586L22.069 15.7793L25.4896 12.3586L24.4965 11.2552L22.069 13.6828L19.7517 11.3655L18.7586 12.3586Z" fill="url(#paint2_linear_47_5664)"/>
<path d="M10.8138 6.84137L14.5655 10.5931L13.7931 11.3655L9.93103 7.61378L10.8138 6.84137Z" fill="url(#paint3_linear_47_5664)"/>
<path d="M22.0689 7.61378L18.3172 11.3655L17.5448 10.5931L21.2965 6.84137L22.0689 7.61378Z" fill="url(#paint4_linear_47_5664)"/>
<path d="M11.1448 18.9793H20.8552V20.5241H11.1448V18.9793Z" fill="url(#paint5_linear_47_5664)"/>
<path d="M14.3448 21.2965H17.7655V21.9586H14.3448V21.2965Z" fill="url(#paint6_linear_47_5664)"/>
<defs>
<linearGradient id="paint0_linear_47_5664" x1="2.8" y1="-1.46508e-06" x2="36.7607" y2="8.14125" gradientUnits="userSpaceOnUse">
<stop stop-color="#B63AB4"/>
<stop offset="1" stop-color="#513B9F"/>
</linearGradient>
<linearGradient id="paint1_linear_47_5664" x1="7.09928" y1="11.2552" x2="13.8008" y2="13.6454" gradientUnits="userSpaceOnUse">
<stop stop-color="#B63AB4"/>
<stop offset="1" stop-color="#513B9F"/>
</linearGradient>
<linearGradient id="paint2_linear_47_5664" x1="19.3476" y1="11.2552" x2="26.049" y2="13.6454" gradientUnits="userSpaceOnUse">
<stop stop-color="#B63AB4"/>
<stop offset="1" stop-color="#513B9F"/>
</linearGradient>
<linearGradient id="paint3_linear_47_5664" x1="10.3365" y1="6.84137" x2="15.2418" y2="8.04597" gradientUnits="userSpaceOnUse">
<stop stop-color="#B63AB4"/>
<stop offset="1" stop-color="#513B9F"/>
</linearGradient>
<linearGradient id="paint4_linear_47_5664" x1="17.9407" y1="6.84137" x2="22.742" y2="7.99237" gradientUnits="userSpaceOnUse">
<stop stop-color="#B63AB4"/>
<stop offset="1" stop-color="#513B9F"/>
</linearGradient>
<linearGradient id="paint5_linear_47_5664" x1="11.9945" y1="18.9793" x2="15.3265" y2="24.0001" gradientUnits="userSpaceOnUse">
<stop stop-color="#B63AB4"/>
<stop offset="1" stop-color="#513B9F"/>
</linearGradient>
<linearGradient id="paint6_linear_47_5664" x1="14.6442" y1="21.2965" x2="16.1591" y2="23.1729" gradientUnits="userSpaceOnUse">
<stop stop-color="#B63AB4"/>
<stop offset="1" stop-color="#513B9F"/>
</linearGradient>
</defs>
</svg>
