<svg width="32" height="32" viewBox="0 0 32 32" fill="none" xmlns="http://www.w3.org/2000/svg">
<path d="M27.3655 4.63448C33.5448 10.9241 33.5448 21.0759 27.3655 27.3655C21.0759 33.5448 10.9241 33.5448 4.63448 27.3655C-1.54483 21.0759 -1.54483 10.9241 4.63448 4.63448C10.9241 -1.54483 21.0759 -1.54483 27.3655 4.63448ZM26.2621 5.73793C20.6345 0.110345 11.3655 0.110345 5.73793 5.73793C0.110345 11.3655 0.110345 20.6345 5.73793 26.2621C11.3655 32 20.6345 32 26.2621 26.2621C32 20.6345 32 11.3655 26.2621 5.73793Z" fill="url(#paint0_linear_17_1753)"/>
<path d="M16 20.6222C9.95557 20.6222 9.95557 25.2444 9.95557 25.2444H22.0445C22.0445 25.2444 22.0445 20.6222 16 20.6222Z" fill="url(#paint1_linear_17_1753)"/>
<path d="M26.8729 12.0178C25.8898 10.7072 24.3879 9.95557 22.752 9.95557C21.1161 9.95557 19.6142 10.7072 18.6311 12.0178C18.3954 12.3321 18.459 12.7776 18.773 13.0133C19.0884 13.2491 19.5335 13.1851 19.7686 12.8711C20.4807 11.9221 21.568 11.3778 22.752 11.3778C23.936 11.3778 25.0233 11.9221 25.7355 12.8711C25.8752 13.0574 26.0886 13.1556 26.3051 13.1556C26.4534 13.1556 26.603 13.1093 26.731 13.0133C27.045 12.7776 27.1086 12.3321 26.8729 12.0178Z" fill="url(#paint2_linear_17_1753)"/>
<path d="M12.224 12.8711C12.3638 13.0574 12.5775 13.1556 12.7936 13.1556C12.9419 13.1556 13.0919 13.1093 13.2199 13.0133C13.5339 12.7776 13.5979 12.3317 13.3622 12.0178C12.3791 10.7072 10.8772 9.95557 9.24127 9.95557C7.60536 9.95557 6.1035 10.7072 5.12038 12.0178C4.88465 12.3321 4.94865 12.7776 5.26261 13.0133C5.57656 13.2487 6.02243 13.1851 6.25816 12.8711C6.96998 11.9221 8.05727 11.3778 9.24127 11.3778C10.4253 11.3778 11.5122 11.9221 12.224 12.8711Z" fill="url(#paint3_linear_17_1753)"/>
<path d="M11.0222 16.7111C11.0222 17.3003 11.4997 17.7778 12.0889 17.7778C12.678 17.7778 13.1556 17.3003 13.1556 16.7111C13.1556 16.122 12.0889 14.5778 12.0889 14.5778C12.0889 14.5778 11.0222 16.122 11.0222 16.7111Z" fill="url(#paint4_linear_17_1753)"/>
<defs>
<linearGradient id="paint0_linear_17_1753" x1="2.8" y1="-1.46508e-06" x2="36.7607" y2="8.14125" gradientUnits="userSpaceOnUse">
<stop stop-color="#B63AB4"/>
<stop offset="1" stop-color="#513B9F"/>
</linearGradient>
<linearGradient id="paint1_linear_17_1753" x1="11.0133" y1="20.6222" x2="20.752" y2="26.7281" gradientUnits="userSpaceOnUse">
<stop stop-color="#B63AB4"/>
<stop offset="1" stop-color="#513B9F"/>
</linearGradient>
<linearGradient id="paint2_linear_17_1753" x1="19.2348" y1="9.95557" x2="26.0309" y2="14.2966" gradientUnits="userSpaceOnUse">
<stop stop-color="#B63AB4"/>
<stop offset="1" stop-color="#513B9F"/>
</linearGradient>
<linearGradient id="paint3_linear_17_1753" x1="5.7242" y1="9.95557" x2="12.5202" y2="14.2964" gradientUnits="userSpaceOnUse">
<stop stop-color="#B63AB4"/>
<stop offset="1" stop-color="#513B9F"/>
</linearGradient>
<linearGradient id="paint4_linear_17_1753" x1="11.2089" y1="14.5778" x2="13.5434" y2="14.9509" gradientUnits="userSpaceOnUse">
<stop stop-color="#B63AB4"/>
<stop offset="1" stop-color="#513B9F"/>
</linearGradient>
</defs>
</svg>
