<svg width="20" height="20" viewBox="0 0 20 20" fill="none" xmlns="http://www.w3.org/2000/svg">
<g clip-path="url(#clip0_26_6999)">
<path d="M9.89949 0.000898452C9.93289 0.000429694 9.96676 0 10.0002 0C10.0336 0 10.0674 0.000429694 10.1008 0.000898452C15.5774 0.0544931 20.0003 4.51085 20.0003 10.0002C20.0003 15.4895 15.5774 19.9458 10.1008 19.9994C10.0674 19.9999 10.0336 20.0003 10.0002 20.0003C9.96676 20.0003 9.93289 19.9999 9.89949 19.9994C5.65063 19.9304 1.3433 15.4798 1.3433 10.0002C1.3433 4.5205 5.65063 0.0698839 9.89949 0.000898452Z" fill="#FFCC3D"/>
<path d="M6.39217 7.37744C7.08581 7.37744 7.65008 7.94171 7.65008 8.63535H5.13426C5.13426 7.94179 5.69856 7.37744 6.39217 7.37744ZM13.6081 7.37744C14.3018 7.37744 14.8661 7.94171 14.8661 8.63535H12.3502C12.3502 7.94179 12.9145 7.37744 13.6081 7.37744Z" fill="#FFBB02"/>
<path d="M9.89949 0.000976562C4.42292 0.0545712 -5.32958e-07 4.51093 -5.32958e-07 10.0002C-5.32958e-07 15.4895 4.42292 19.9459 9.89949 19.9995C5.65064 19.9305 2.22246 15.4799 2.22246 10.0002C2.22246 4.52058 5.65064 0.069962 9.89949 0.000976562Z" fill="#FFBB02"/>
<path d="M16.4618 11.5452C16.0369 11.5452 15.6925 11.2008 15.6925 10.7759C15.6925 10.3511 16.0369 10.0067 16.4618 10.0067C16.8866 10.0067 17.231 10.3511 17.231 10.7759C17.231 11.2008 16.8866 11.5452 16.4618 11.5452Z" fill="#FF7A2F"/>
<path d="M10.0001 15.1679C11.732 15.1679 13.3472 14.3082 14.3208 12.8683C14.369 12.7959 14.3867 12.7073 14.3699 12.6219C14.3531 12.5365 14.3032 12.4611 14.2311 12.4124C14.159 12.3636 14.0705 12.3454 13.985 12.3616C13.8994 12.3778 13.8238 12.4272 13.7746 12.499C12.9238 13.7573 11.5127 14.5085 10.0001 14.5085C8.48748 14.5085 7.07648 13.7573 6.22568 12.4991C6.20144 12.4632 6.17036 12.4324 6.13423 12.4086C6.0981 12.3847 6.05763 12.3682 6.01511 12.36C5.9726 12.3518 5.92889 12.352 5.88647 12.3607C5.84405 12.3694 5.80376 12.3864 5.7679 12.4106C5.73203 12.4349 5.70129 12.4659 5.67744 12.5021C5.65358 12.5382 5.63707 12.5787 5.62886 12.6212C5.62065 12.6637 5.62089 12.7074 5.62957 12.7498C5.63825 12.7922 5.65521 12.8325 5.67946 12.8684C6.65307 14.3083 8.26829 15.1679 10.0001 15.1679ZM5.07348 8.96502C5.16092 8.96502 5.24478 8.93028 5.30661 8.86845C5.36843 8.80662 5.40317 8.72276 5.40317 8.63532C5.40317 8.08996 5.84689 7.64628 6.39221 7.64628C6.93753 7.64628 7.38125 8.08992 7.38125 8.63532C7.38125 8.8174 7.52883 8.96502 7.71094 8.96502C7.89305 8.96502 8.04063 8.8174 8.04063 8.63532C8.04063 7.7264 7.30121 6.98694 6.39225 6.98694C5.48329 6.98694 4.74386 7.72636 4.74386 8.63532C4.74385 8.67862 4.75236 8.72149 4.76892 8.76149C4.78548 8.80149 4.80976 8.83784 4.84036 8.86846C4.87097 8.89908 4.90732 8.92336 4.94731 8.93993C4.98731 8.9565 5.03018 8.96502 5.07348 8.96502ZM12.2894 8.96502C12.3769 8.96502 12.4607 8.93028 12.5225 8.86845C12.5844 8.80662 12.6191 8.72276 12.6191 8.63532C12.6191 8.08996 13.0627 7.64628 13.6081 7.64628C14.1535 7.64628 14.5972 8.08992 14.5972 8.63532C14.5972 8.72276 14.6319 8.80662 14.6937 8.86845C14.7556 8.93028 14.8394 8.96502 14.9269 8.96502C15.0143 8.96502 15.0982 8.93028 15.16 8.86845C15.2218 8.80662 15.2566 8.72276 15.2566 8.63532C15.2566 7.7264 14.5171 6.98694 13.6082 6.98694C12.6992 6.98694 11.9598 7.72636 11.9598 8.63532C11.9598 8.67862 11.9683 8.72149 11.9849 8.76149C12.0014 8.80149 12.0257 8.83783 12.0563 8.86845C12.0869 8.89906 12.1233 8.92335 12.1633 8.93992C12.2033 8.95649 12.2461 8.96502 12.2894 8.96502Z" fill="#804E30"/>
<path d="M9.34081 16.4865H10.6595C10.7469 16.4865 10.8308 16.4518 10.8926 16.39C10.9545 16.3281 10.9892 16.2443 10.9892 16.1568C10.9892 16.0694 10.9545 15.9855 10.8926 15.9237C10.8308 15.8619 10.7469 15.8271 10.6595 15.8271H9.34081C9.1587 15.8271 9.01112 15.9748 9.01112 16.1568C9.01112 16.3389 9.1587 16.4865 9.34081 16.4865Z" fill="#FFBB02"/>
<path d="M3.53853 11.5452C3.1137 11.5452 2.7693 11.2008 2.7693 10.7759C2.7693 10.3511 3.1137 10.0067 3.53853 10.0067C3.96337 10.0067 4.30776 10.3511 4.30776 10.7759C4.30776 11.2008 3.96337 11.5452 3.53853 11.5452Z" fill="#FF7A2F"/>
</g>
<defs>
<clipPath id="clip0_26_6999">
<rect width="20" height="20" fill="white"/>
</clipPath>
</defs>
</svg>
