<svg width="32" height="32" viewBox="0 0 32 32" fill="none" xmlns="http://www.w3.org/2000/svg">
<path d="M27.3655 4.63448C33.5448 10.9241 33.5448 21.0759 27.3655 27.3655C21.0759 33.5448 10.9241 33.5448 4.63448 27.3655C-1.54483 21.0759 -1.54483 10.9241 4.63448 4.63448C10.9241 -1.54483 21.0759 -1.54483 27.3655 4.63448ZM26.2621 5.73793C20.6345 0.110345 11.3655 0.110345 5.73793 5.73793C0.110345 11.3655 0.110345 20.6345 5.73793 26.2621C11.3655 32 20.6345 32 26.2621 26.2621C32 20.6345 32 11.3655 26.2621 5.73793Z" fill="url(#paint0_linear_17_1763)"/>
<path d="M8.71722 8.49655L12.1379 11.8069L8.71722 15.2276L7.61377 14.2345L10.0414 11.8069L7.72411 9.48965L8.71722 8.49655Z" fill="url(#paint1_linear_17_1763)"/>
<path d="M23.2828 8.49655L19.8621 11.8069L23.2828 15.2276L24.3862 14.2345L21.9586 11.8069L24.2759 9.48965L23.2828 8.49655Z" fill="url(#paint2_linear_17_1763)"/>
<path d="M16 24.0552C17.3407 24.0552 18.4276 22.9683 18.4276 21.6276C18.4276 20.2869 17.3407 19.2 16 19.2C14.6593 19.2 13.5724 20.2869 13.5724 21.6276C13.5724 22.9683 14.6593 24.0552 16 24.0552Z" fill="url(#paint3_linear_17_1763)"/>
<defs>
<linearGradient id="paint0_linear_17_1763" x1="2.8" y1="-1.46508e-06" x2="36.7607" y2="8.14125" gradientUnits="userSpaceOnUse">
<stop stop-color="#B63AB4"/>
<stop offset="1" stop-color="#513B9F"/>
</linearGradient>
<linearGradient id="paint1_linear_17_1763" x1="8.00963" y1="8.49655" x2="12.9584" y2="9.29393" gradientUnits="userSpaceOnUse">
<stop stop-color="#B63AB4"/>
<stop offset="1" stop-color="#513B9F"/>
</linearGradient>
<linearGradient id="paint2_linear_17_1763" x1="20.2579" y1="8.49655" x2="25.2067" y2="9.29393" gradientUnits="userSpaceOnUse">
<stop stop-color="#B63AB4"/>
<stop offset="1" stop-color="#513B9F"/>
</linearGradient>
<linearGradient id="paint3_linear_17_1763" x1="13.9972" y1="19.2" x2="19.1499" y2="20.4352" gradientUnits="userSpaceOnUse">
<stop stop-color="#B63AB4"/>
<stop offset="1" stop-color="#513B9F"/>
</linearGradient>
</defs>
</svg>
