<svg width="32" height="32" viewBox="0 0 32 32" fill="none" xmlns="http://www.w3.org/2000/svg">
<g clip-path="url(#clip0_8995_1814)">
<path d="M7.50035 32H23.1904C23.5504 32 23.8404 31.71 23.8404 31.35V4.63002C23.8404 4.27002 23.5504 3.98002 23.1904 3.98002H18.8304V0.67002C18.8304 0.31002 18.5404 0.0200195 18.1804 0.0200195H12.5204C12.1604 0.0200195 11.8704 0.31002 11.8704 0.67002V3.97002H7.51035C7.15035 3.97002 6.86035 4.26002 6.86035 4.62002V31.34C6.86035 31.7 7.15035 31.99 7.51035 31.99L7.50035 32ZM13.1604 1.32002H17.5204V3.97002H13.1604V1.32002ZM8.15035 5.28002H22.5304V30.7H8.15035V5.28002Z" fill="url(#paint0_linear_8995_1814)"/>
<path d="M21.0607 6.2002H9.6207C9.2607 6.2002 8.9707 6.4902 8.9707 6.8502V10.8302C8.9707 11.1902 9.2607 11.4802 9.6207 11.4802H21.0607C21.4207 11.4802 21.7107 11.1902 21.7107 10.8302V6.8502C21.7107 6.4902 21.4207 6.2002 21.0607 6.2002ZM20.4007 10.1702H10.2707V7.5002H20.4007V10.1702Z" fill="url(#paint1_linear_8995_1814)"/>
<path d="M21.0607 12.2998H9.6207C9.2607 12.2998 8.9707 12.5898 8.9707 12.9498V16.9298C8.9707 17.2898 9.2607 17.5798 9.6207 17.5798H21.0607C21.4207 17.5798 21.7107 17.2898 21.7107 16.9298V12.9498C21.7107 12.5898 21.4207 12.2998 21.0607 12.2998ZM20.4007 16.2698H10.2707V13.5998H20.4007V16.2698Z" fill="url(#paint2_linear_8995_1814)"/>
<path d="M21.0607 18.3999H9.6207C9.2607 18.3999 8.9707 18.6899 8.9707 19.0499V23.0299C8.9707 23.3899 9.2607 23.6799 9.6207 23.6799H21.0607C21.4207 23.6799 21.7107 23.3899 21.7107 23.0299V19.0499C21.7107 18.6899 21.4207 18.3999 21.0607 18.3999ZM20.4007 22.3699H10.2707V19.6999H20.4007V22.3699Z" fill="url(#paint3_linear_8995_1814)"/>
<path d="M21.0607 24.5H9.6207C9.2607 24.5 8.9707 24.79 8.9707 25.15V29.13C8.9707 29.49 9.2607 29.78 9.6207 29.78H21.0607C21.4207 29.78 21.7107 29.49 21.7107 29.13V25.15C21.7107 24.79 21.4207 24.5 21.0607 24.5ZM20.4007 28.47H10.2707V25.8H20.4007V28.47Z" fill="url(#paint4_linear_8995_1814)"/>
</g>
<defs>
<linearGradient id="paint0_linear_8995_1814" x1="8.3461" y1="0.0200181" x2="27.0983" y2="2.40687" gradientUnits="userSpaceOnUse">
<stop stop-color="#B63AB4"/>
<stop offset="1" stop-color="#513B9F"/>
</linearGradient>
<linearGradient id="paint1_linear_8995_1814" x1="10.0855" y1="6.2002" x2="20.7986" y2="12.397" gradientUnits="userSpaceOnUse">
<stop stop-color="#B63AB4"/>
<stop offset="1" stop-color="#513B9F"/>
</linearGradient>
<linearGradient id="paint2_linear_8995_1814" x1="10.0855" y1="12.2998" x2="20.7986" y2="18.4966" gradientUnits="userSpaceOnUse">
<stop stop-color="#B63AB4"/>
<stop offset="1" stop-color="#513B9F"/>
</linearGradient>
<linearGradient id="paint3_linear_8995_1814" x1="10.0855" y1="18.3999" x2="20.7986" y2="24.5967" gradientUnits="userSpaceOnUse">
<stop stop-color="#B63AB4"/>
<stop offset="1" stop-color="#513B9F"/>
</linearGradient>
<linearGradient id="paint4_linear_8995_1814" x1="10.0855" y1="24.5" x2="20.7986" y2="30.6968" gradientUnits="userSpaceOnUse">
<stop stop-color="#B63AB4"/>
<stop offset="1" stop-color="#513B9F"/>
</linearGradient>
<clipPath id="clip0_8995_1814">
<rect width="32" height="32" fill="white"/>
</clipPath>
</defs>
</svg>
