<svg width="32" height="32" viewBox="0 0 32 32" fill="none" xmlns="http://www.w3.org/2000/svg">
<g clip-path="url(#clip0_8995_1798)">
<path d="M7.97008 31.8898H23.5701C23.9301 31.8898 24.2201 31.5998 24.2201 31.2398V4.66984C24.2201 4.30984 23.9301 4.01984 23.5701 4.01984H19.2401V0.739844C19.2401 0.379844 18.9501 0.0898438 18.5901 0.0898438H12.9601C12.6001 0.0898438 12.3101 0.379844 12.3101 0.739844V4.02984H7.98008C7.62008 4.02984 7.33008 4.31984 7.33008 4.67984V31.2498C7.33008 31.6098 7.62008 31.8998 7.98008 31.8998L7.97008 31.8898ZM13.6001 1.38984H17.9301V4.02984H13.6001V1.38984ZM8.62008 5.31984H22.9201V30.5898H8.62008V5.31984Z" fill="url(#paint0_linear_8995_1798)"/>
<path d="M21.4497 24.4297H10.0797C9.71969 24.4297 9.42969 24.7197 9.42969 25.0797V29.0297C9.42969 29.3897 9.71969 29.6797 10.0797 29.6797H21.4497C21.8097 29.6797 22.0997 29.3897 22.0997 29.0297V25.0797C22.0997 24.7197 21.8097 24.4297 21.4497 24.4297ZM20.7997 28.3797H10.7297V25.7297H20.7997V28.3797Z" fill="url(#paint1_linear_8995_1798)"/>
</g>
<defs>
<linearGradient id="paint0_linear_8995_1798" x1="8.80795" y1="0.0898423" x2="27.4607" y2="2.46408" gradientUnits="userSpaceOnUse">
<stop stop-color="#B63AB4"/>
<stop offset="1" stop-color="#513B9F"/>
</linearGradient>
<linearGradient id="paint1_linear_8995_1798" x1="10.5383" y1="24.4297" x2="21.1916" y2="30.593" gradientUnits="userSpaceOnUse">
<stop stop-color="#B63AB4"/>
<stop offset="1" stop-color="#513B9F"/>
</linearGradient>
<clipPath id="clip0_8995_1798">
<rect width="32" height="32" fill="white"/>
</clipPath>
</defs>
</svg>
