<svg width="32" height="32" viewBox="0 0 32 32" fill="none" xmlns="http://www.w3.org/2000/svg">
<path d="M26.5931 13.7024C26.5931 13.6628 26.5535 13.6628 26.5535 13.6229L18.1294 1.82126C17.7472 1.30488 17.1427 1 16.5002 1C15.8577 1 15.2532 1.3049 14.8709 1.82126L6.44687 13.6229C6.44687 13.6625 6.40723 13.6625 6.40723 13.7024C5.47201 15.317 4.98645 17.1525 5.00029 19.0182C5.01442 20.8838 5.52748 22.7116 6.48649 24.3119C7.8239 26.6937 9.96617 28.5208 12.5292 29.4655C15.0923 30.4099 17.9079 30.4099 20.4708 29.4655C23.0338 28.5209 25.1761 26.6938 26.5135 24.3119C27.4726 22.7115 27.9856 20.8838 27.9997 19.0182C28.0136 17.1525 27.5283 15.317 26.5931 13.7024Z" fill="url(#paint0_linear_2_1281)"/>
<defs>
<linearGradient id="paint0_linear_2_1281" x1="7.0125" y1="0.999999" x2="31.9343" y2="5.7101" gradientUnits="userSpaceOnUse">
<stop stop-color="#B63AB4"/>
<stop offset="1" stop-color="#513B9F"/>
</linearGradient>
</defs>
</svg>
