<svg width="20" height="20" viewBox="0 0 20 20" fill="none" xmlns="http://www.w3.org/2000/svg">
<path d="M15.0091 18.1643L14.9182 19.2437C14.8478 19.6252 14.515 19.9021 14.1266 19.9021L13.0927 19.9999H5.43735C5.04903 19.9999 4.71621 19.723 4.64578 19.3416L4.30371 17.4949C4.49242 17.9263 5.13606 17.9257 5.62379 17.9257L14.3387 17.8121C14.8261 17.8121 15.0091 18.1643 15.0091 18.1643Z" fill="white"/>
<path d="M17.0483 6.4098C16.5953 6.80566 16.1337 12.0328 15.6106 14.8578L15.1674 17.3348C14.9787 17.7657 14.8507 18.2179 14.3634 18.2179H5.40884C4.9211 18.2179 4.49173 17.9262 4.30301 17.4948L3.83098 14.9463C3.28284 11.985 2.90302 8.9949 2.69336 5.99054C4.36473 4.63171 7.62334 4.75897 9.77225 5.94691C9.83745 5.98312 9.90342 6.01812 9.96944 6.05195C11.101 6.63624 12.1584 6.88906 13.3918 6.88906C14.6389 6.88906 15.8008 6.80953 17.0447 6.41187C17.0459 6.41101 17.0471 6.41058 17.0483 6.4098Z" fill="#B5DBFD"/>
<path d="M15.4697 17.4956L15.1281 19.3415C15.0576 19.723 14.7248 19.9998 14.3365 19.9998H13.0928V18.218L13.2772 18.2147L14.407 18.0847C14.8943 18.0847 14.9695 17.8915 15.4697 17.4956Z" fill="#E8EDF2"/>
<path d="M17.0487 6.41024C17.0475 6.41106 17.0463 6.41145 17.0451 6.41223C15.9123 7.00219 14.6672 7.29876 13.4201 7.29876C12.1673 7.29903 10.9328 6.99918 9.81969 6.4243C9.75337 6.3904 9.68763 6.35539 9.6225 6.31926C9.46058 6.2299 9.29563 6.14615 9.12793 6.06817C11.2024 4.24578 15.361 3.95035 17.0487 6.41024Z" fill="#8DCAFC"/>
<path d="M16.9749 0.586956C16.9749 2.58091 16.9178 4.54103 17.0489 6.41006C14.7741 4.93361 11.5785 4.82615 9.12815 6.06799C7.08791 5.12111 4.74423 5.09857 2.69391 5.99073C2.56471 4.14244 2.50004 2.29022 2.5 0.437424C2.5 0.316681 2.5491 0.207228 2.62797 0.127969C2.66861 0.0873446 2.71685 0.0551313 2.76995 0.0331729C2.82305 0.0112144 2.87996 -5.81079e-05 2.93742 2.25242e-07H15.9616L16.5375 0.149532C16.7793 0.149532 16.9749 0.345509 16.9749 0.586956Z" fill="white"/>
<path d="M17.0488 6.41016C16.8339 9.27353 16.4642 12.1232 15.9414 14.9466L15.4693 17.4959C15.2806 17.9269 14.8513 18.2182 14.3639 18.2182H13.0762C13.5635 18.2182 13.9929 17.9269 14.1816 17.4959L14.6536 14.9466C15.1432 12.3024 15.4985 9.63514 15.718 6.955C16.164 6.49543 16.5374 6.41012 17.0452 6.41215C17.0464 6.41137 17.0476 6.41094 17.0488 6.41016Z" fill="#8DCAFC"/>
<path d="M17.0496 6.40992C17.0484 6.41074 17.0472 6.41113 17.0459 6.41191C16.6212 6.63327 16.1769 6.81499 15.7188 6.95476C15.7341 6.77328 15.7481 6.59179 15.7618 6.40988C15.7759 6.22316 15.7891 6.00789 15.802 5.76964C16.4391 5.57238 17.0068 5.5096 17.0496 6.40992Z" fill="#64B9FC"/>
<path d="M17.2738 0.437424C17.2738 2.43138 17.199 4.42377 17.0493 6.41006C16.6577 6.15612 16.2392 5.94244 15.8018 5.76983C15.8802 4.30584 15.9334 1.96942 15.9619 0H16.8364C17.0782 0 17.2738 0.195977 17.2738 0.437424Z" fill="#E8EDF2"/>
<path d="M8.94965 16.7494C9.52752 16.7494 9.99598 16.2809 9.99598 15.7031C9.99598 15.1252 9.52752 14.6567 8.94965 14.6567C8.37178 14.6567 7.90332 15.1252 7.90332 15.7031C7.90332 16.2809 8.37178 16.7494 8.94965 16.7494Z" fill="#8DCAFC"/>
<path d="M12.608 13.1884C13.0414 13.1884 13.3927 12.837 13.3927 12.4036C13.3927 11.9702 13.0414 11.6189 12.608 11.6189C12.1746 11.6189 11.8232 11.9702 11.8232 12.4036C11.8232 12.837 12.1746 13.1884 12.608 13.1884Z" fill="#8DCAFC"/>
<path d="M8.86438 10.9597C9.19776 10.9597 9.46801 10.6895 9.46801 10.3561C9.46801 10.0227 9.19776 9.75244 8.86438 9.75244C8.531 9.75244 8.26074 10.0227 8.26074 10.3561C8.26074 10.6895 8.531 10.9597 8.86438 10.9597Z" fill="#8DCAFC"/>
<path d="M6.07727 8.50537C6.41065 8.50537 6.6809 8.23511 6.6809 7.90173C6.6809 7.56835 6.41065 7.2981 6.07727 7.2981C5.74389 7.2981 5.47363 7.56835 5.47363 7.90173C5.47363 8.23511 5.74389 8.50537 6.07727 8.50537Z" fill="#8DCAFC"/>
</svg>
