<svg width="32" height="32" viewBox="0 0 32 32" fill="none" xmlns="http://www.w3.org/2000/svg">
<g clip-path="url(#clip0_8995_1858)">
<path d="M15.8604 31.88C24.2704 31.88 31.7804 25.16 31.7804 15.96C31.7804 6.76004 24.6604 0.0400391 15.8604 0.0400391C7.06043 0.0400391 -0.0595703 7.30004 -0.0595703 15.96C-0.0595703 24.62 7.05043 31.88 15.8604 31.88ZM15.8604 1.04004C19.7904 1.04004 23.3204 2.53004 26.0104 5.02004C24.0704 6.71004 20.1904 7.81004 15.8604 7.81004C11.5304 7.81004 7.65043 6.72004 5.71043 5.02004C8.40043 2.53004 11.9304 1.04004 15.8604 1.04004ZM5.01043 5.71004C7.10043 7.60004 11.2804 8.79004 15.8604 8.79004C20.4404 8.79004 24.6204 7.60004 26.7104 5.71004C27.4104 6.46004 28.0504 7.30004 28.6004 8.20004C28.6004 10.89 22.7804 13.18 15.8604 13.18C11.9804 13.18 3.22043 11.94 3.12043 8.20004C3.67043 7.30004 4.31043 6.51004 5.01043 5.71004ZM1.68043 20.59C1.23043 19.15 0.93043 17.6 0.93043 16.01C2.42043 17.9 5.71043 19.44 10.2304 20.19H10.3304C10.5804 20.19 10.7804 20.04 10.8304 19.79C10.8804 19.54 10.6804 19.24 10.4304 19.24C4.91043 18.29 1.13043 16.11 1.08043 13.82C1.28043 12.28 1.73043 10.83 2.42043 9.49004C3.71043 12.23 9.14043 14.22 15.8504 14.22C22.5604 14.22 27.9904 12.23 29.2804 9.49004C29.9304 10.83 30.3704 12.33 30.6204 13.87C30.5704 17 23.8004 19.64 15.8404 19.64C14.8004 19.64 13.8004 19.59 12.8104 19.49C12.5104 19.44 12.3104 19.69 12.2604 19.94C12.2604 20.24 12.4604 20.44 12.7104 20.49C13.7104 20.59 14.8004 20.64 15.8404 20.64C22.8504 20.64 28.6804 18.75 30.7704 16.11C30.7704 17.6 30.5204 19.05 30.1204 20.39C29.0804 23.13 22.9604 25.22 15.8404 25.22C9.02043 25.22 2.95043 23.23 1.66043 20.59H1.68043ZM15.8604 26.21C21.3804 26.21 26.2604 24.97 28.9404 23.13C26.4004 27.76 21.4804 30.89 15.8604 30.89C10.2404 30.89 5.31043 27.76 2.78043 23.13C5.52043 25.02 10.4404 26.21 15.8604 26.21Z" fill="url(#paint0_linear_8995_1858)"/>
</g>
<defs>
<linearGradient id="paint0_linear_8995_1858" x1="2.72643" y1="0.0400376" x2="36.5173" y2="8.14058" gradientUnits="userSpaceOnUse">
<stop stop-color="#B63AB4"/>
<stop offset="1" stop-color="#513B9F"/>
</linearGradient>
<clipPath id="clip0_8995_1858">
<rect width="32" height="32" fill="white"/>
</clipPath>
</defs>
</svg>
