<svg width="20" height="20" viewBox="0 0 20 20" fill="none" xmlns="http://www.w3.org/2000/svg">
<g clip-path="url(#clip0_8995_2211)">
<path d="M16.1623 0.546875H3.83773C1.7182 0.546875 0 2.26508 0 4.38457V12.6396C0 14.6903 1.60855 16.3653 3.63273 16.4718V18.0626C3.63273 19.1486 4.82355 19.8141 5.74852 19.245L10.2465 16.4773H16.1622C18.2818 16.4773 20 14.7591 20 12.6396V4.38457C20 2.26508 18.2818 0.546875 16.1623 0.546875Z" fill="#B438B2"/>
<path d="M5.7618 19.2366L5.74852 19.245C4.82375 19.8141 3.63301 19.1485 3.63301 18.0627V16.472C1.60848 16.3654 0 14.6905 0 12.6395V4.38469C0 2.26516 1.71832 0.546875 3.83781 0.546875H5.31871C3.19918 0.546875 1.4809 2.2652 1.4809 4.38469V12.6394C1.4809 14.6905 3.08977 16.3654 5.11391 16.472V18.0627C5.11387 18.5775 5.38148 18.998 5.7618 19.2366Z" fill="#513B9F"/>
<path d="M5.50504 10.2147C6.34758 10.2147 7.03059 9.53166 7.03059 8.68912C7.03059 7.84658 6.34758 7.16357 5.50504 7.16357C4.6625 7.16357 3.97949 7.84658 3.97949 8.68912C3.97949 9.53166 4.6625 10.2147 5.50504 10.2147Z" fill="#F9F6F9"/>
<path d="M6.05395 10.1129C5.87886 10.1805 5.69273 10.215 5.50504 10.2147C4.66238 10.2147 3.97949 9.53178 3.97949 8.68912C3.97949 7.84686 4.66238 7.16357 5.50504 7.16357C5.69859 7.16357 5.88371 7.19939 6.05395 7.26537C5.4825 7.48549 5.07687 8.04002 5.07687 8.68912C5.07687 9.33822 5.48254 9.89275 6.05395 10.1129Z" fill="#DDDAEC"/>
<path d="M10.0002 10.2147C10.8427 10.2147 11.5257 9.53166 11.5257 8.68912C11.5257 7.84658 10.8427 7.16357 10.0002 7.16357C9.15762 7.16357 8.47461 7.84658 8.47461 8.68912C8.47461 9.53166 9.15762 10.2147 10.0002 10.2147Z" fill="#F9F6F9"/>
<path d="M10.5491 10.1129C10.374 10.1805 10.1879 10.215 10.0002 10.2147C9.1575 10.2147 8.47461 9.53178 8.47461 8.68912C8.47461 7.84686 9.1575 7.16357 10.0002 7.16357C10.1937 7.16357 10.3788 7.19939 10.5491 7.26537C9.97762 7.48549 9.57199 8.04002 9.57199 8.68912C9.57199 9.33822 9.97762 9.89275 10.5491 10.1129Z" fill="#DDDAEC"/>
<path d="M14.4953 10.2147C15.3378 10.2147 16.0208 9.53166 16.0208 8.68912C16.0208 7.84658 15.3378 7.16357 14.4953 7.16357C13.6527 7.16357 12.9697 7.84658 12.9697 8.68912C12.9697 9.53166 13.6527 10.2147 14.4953 10.2147Z" fill="#F9F6F9"/>
<path d="M15.0442 10.1129C14.8691 10.1805 14.683 10.215 14.4953 10.2147C13.6526 10.2147 12.9697 9.53178 12.9697 8.68912C12.9697 7.84686 13.6526 7.16357 14.4953 7.16357C14.6888 7.16357 14.8739 7.19939 15.0442 7.26537C14.4727 7.48549 14.0671 8.04002 14.0671 8.68912C14.0671 9.33822 14.4727 9.89275 15.0442 10.1129Z" fill="#DDDAEC"/>
</g>
<defs>
<clipPath id="clip0_8995_2211">
<rect width="20" height="20" fill="white"/>
</clipPath>
</defs>
</svg>
