<svg width="32" height="32" viewBox="0 0 32 32" fill="none" xmlns="http://www.w3.org/2000/svg">
<g clip-path="url(#clip0_8995_33404)">
<path d="M15.9796 2.46997C8.48965 2.46997 2.38965 8.55997 2.38965 16.06C2.38965 23.56 8.47965 29.65 15.9796 29.65C23.4796 29.65 29.5696 23.56 29.5696 16.06C29.5696 8.55997 23.4696 2.46997 15.9796 2.46997ZM15.9796 28.61C9.05965 28.61 3.42965 22.98 3.42965 16.06C3.42965 9.13997 9.05965 3.50997 15.9796 3.50997C22.8996 3.50997 28.5296 9.13997 28.5296 16.06C28.5296 22.98 22.8996 28.61 15.9796 28.61Z" fill="url(#paint0_linear_8995_33404)"/>
<path d="M27.3102 4.72003C24.2802 1.70003 20.2602 0.0300293 15.9802 0.0300293C11.7002 0.0300293 7.6702 1.70003 4.6502 4.73003C1.6302 7.76003 -0.0498047 11.78 -0.0498047 16.06C-0.0498047 20.34 1.6202 24.37 4.6402 27.39C7.6702 30.42 11.6902 32.08 15.9702 32.08C20.2502 32.08 24.2802 30.41 27.3002 27.39C30.3302 24.36 31.9902 20.34 31.9902 16.06C31.9902 11.78 30.3202 7.75003 27.2902 4.72003H27.3102ZM15.9802 31.05C7.72019 31.05 0.990195 24.33 0.990195 16.06C0.990195 7.79003 7.72019 1.07003 15.9802 1.07003C24.2402 1.07003 30.9702 7.79003 30.9702 16.06C30.9702 24.33 24.2502 31.05 15.9802 31.05Z" fill="url(#paint1_linear_8995_33404)"/>
</g>
<defs>
<linearGradient id="paint0_linear_8995_33404" x1="4.7679" y1="2.46997" x2="33.6132" y2="9.38495" gradientUnits="userSpaceOnUse">
<stop stop-color="#B63AB4"/>
<stop offset="1" stop-color="#513B9F"/>
</linearGradient>
<linearGradient id="paint1_linear_8995_33404" x1="2.7537" y1="0.0300278" x2="36.758" y2="8.17919" gradientUnits="userSpaceOnUse">
<stop stop-color="#B63AB4"/>
<stop offset="1" stop-color="#513B9F"/>
</linearGradient>
<clipPath id="clip0_8995_33404">
<rect width="32" height="32" fill="white"/>
</clipPath>
</defs>
</svg>
