<svg width="32" height="32" viewBox="0 0 32 32" fill="none" xmlns="http://www.w3.org/2000/svg">
<path d="M4.84606 8.2383C2.90707 8.2383 0 5.58383 0 3.63454C0 1.55126 1.59678 0 3.87685 0C6.09165 0 7.26909 1.44151 7.26909 3.63454C7.26909 6.3481 6.60854 8.2383 4.84606 8.2383ZM4.84606 7.26909C5.79631 7.26909 6.29987 5.82809 6.29987 3.63454C6.29987 1.93844 5.5082 0.969211 3.87685 0.969211C2.12589 0.969211 0.969211 2.09291 0.969211 3.63454C0.969211 5.0279 3.42368 7.26909 4.84606 7.26909ZM27.72 4.12208C28.8382 6.09033 28.4882 7.69603 26.957 10.6354C25.9485 12.5714 25.6841 13.2165 25.6841 14.0536C25.6841 14.9124 26.3631 15.6942 28.051 16.9729C28.1383 17.0391 28.23 17.108 28.3433 17.193C28.4013 17.2364 28.4911 17.3036 28.6399 17.415C31.0737 19.2379 31.984 20.2448 31.984 21.8073C31.984 26.8422 29.7982 31.6917 25.7186 31.9827C23.5018 32.1409 22.1544 31.223 20.0786 28.7901C19.9868 28.6824 19.6746 28.3146 19.6344 28.2672C18.0867 26.4485 17.159 25.6343 15.8327 25.1726C14.4344 24.6858 13.3191 24.8174 10.8645 25.5189C9.9149 25.7902 9.52382 25.8942 9.00352 25.9995C7.09891 26.3849 5.58311 26.1792 4.08046 25.1097C2.49622 23.9822 2.2687 22.548 3.21831 21.026C3.93323 19.8802 5.24836 18.7265 7.20146 17.3756C7.63182 17.078 8.07455 16.7829 8.63349 16.4184C8.67604 16.3907 9.65844 15.7532 9.91006 15.5874C11.0335 14.847 11.5568 13.5491 12.3632 10.2067L12.3759 10.1537C13.3476 6.12566 14.0118 4.63174 15.812 3.91151C18.5609 2.81167 20.3693 2.22924 22.1921 2.00394C24.771 1.68518 26.6852 2.3008 27.72 4.12208ZM26.8772 4.60083C26.0711 3.18182 24.5419 2.69006 22.311 2.96581C20.5963 3.17774 18.8461 3.74148 16.172 4.81139C14.8019 5.35955 14.2062 6.69935 13.3181 10.381L13.3053 10.434C12.4335 14.0478 11.864 15.4604 10.4434 16.3966C10.1884 16.5647 9.20292 17.2042 9.16293 17.2302C8.61073 17.5904 8.17476 17.8809 7.75279 18.1728C5.90253 19.4525 4.66528 20.5379 4.0406 21.5391C3.35371 22.64 3.49012 23.5 4.64244 24.3201C5.90219 25.2166 7.14911 25.3859 8.81127 25.0495C9.29783 24.951 9.67373 24.8512 10.5981 24.587C13.238 23.8326 14.5027 23.6833 16.1513 24.2572C17.6903 24.793 18.7184 25.6954 20.3725 27.6391C20.4135 27.6874 20.7251 28.0546 20.816 28.1611C22.7075 30.378 23.8341 31.1455 25.6496 31.016C29.0399 30.7741 31.0148 26.3926 31.0148 21.8073C31.0148 20.6846 30.231 19.8177 28.0589 18.1908C27.9106 18.0798 27.8204 18.0123 27.7621 17.9686C27.6475 17.8827 27.5546 17.8128 27.4657 17.7454C25.5308 16.2796 24.7149 15.3402 24.7149 14.0536C24.7149 12.992 25.0039 12.2869 26.0975 10.1876C27.4861 7.52179 27.7774 6.18529 26.8772 4.60083Z" fill="url(#paint0_linear_8995_33084)"/>
<defs>
<linearGradient id="paint0_linear_8995_33084" x1="2.7986" y1="-1.46508e-06" x2="36.7441" y2="8.13354" gradientUnits="userSpaceOnUse">
<stop stop-color="#B63AB4"/>
<stop offset="1" stop-color="#513B9F"/>
</linearGradient>
</defs>
</svg>
