<svg width="20" height="20" viewBox="0 0 20 20" fill="none" xmlns="http://www.w3.org/2000/svg">
<path d="M3.91122 7.44482H16.0391V11.9015H3.91122V7.44482Z" fill="#B438B2"/>
<path d="M2.85727 15.3462H1.40389C0.628554 15.3462 0 14.5457 0 13.5582V5.78804C0 4.80055 0.628554 4 1.40389 4H2.85727C3.63261 4 4.26116 4.80055 4.26116 5.78804V13.5581C4.26112 14.5457 3.63261 15.3462 2.85727 15.3462ZM18.5464 15.3462H17.093C16.3177 15.3462 15.6891 14.5456 15.6891 13.5581V5.78804C15.6891 4.80055 16.3177 4 17.093 4H18.5464C19.3217 4 19.9503 4.80055 19.9503 5.78804V13.5581C19.9503 14.5457 19.3217 15.3462 18.5464 15.3462Z" fill="#513B9F"/>
<path d="M20 5.84446V13.5018C20 14.5202 19.3516 15.3461 18.5516 15.3461H17.8517C18.6517 15.3461 19.3001 14.5202 19.3001 13.5018V5.84446C19.3001 4.8261 18.6517 4.00024 17.8517 4.00024H18.5516C19.3516 4.00029 20 4.8261 20 5.84446ZM4.31074 5.84446V13.5018C4.31074 14.5202 3.66231 15.3461 2.86235 15.3461H2.16249C2.96245 15.3461 3.61088 14.5202 3.61088 13.5018V5.84446C3.61088 4.8261 2.96245 4.00024 2.16249 4.00024H2.86235C3.66235 4.00029 4.31074 4.8261 4.31074 5.84446Z" fill="#1F2D4F"/>
<path d="M5.74994 7.44482H7.35793V11.9015H5.74994V7.44482ZM12.5436 7.44482H14.1516V11.9015H12.5436V7.44482Z" fill="#FFCC3D"/>
<path d="M13.4519 7.44482H14.1516V11.9015H13.4519V7.44482ZM6.65824 7.44482H7.35791V11.9015H6.65824V7.44482Z" fill="#F89F4F"/>
</svg>
