<svg width="32" height="32" viewBox="0 0 32 32" fill="none" xmlns="http://www.w3.org/2000/svg">
<g clip-path="url(#clip0_8995_33361)">
<path d="M16.0498 0.0500488C7.24984 0.0500488 0.0898438 7.21005 0.0898438 16C0.0898438 24.79 7.24984 31.9501 16.0398 31.9501C24.8298 31.9501 31.9898 24.79 31.9898 16C31.9898 7.21005 24.8398 0.0500488 16.0498 0.0500488ZM16.0498 1.70005C19.6998 1.70005 23.0298 3.07005 25.5598 5.33005L23.0498 7.84005C22.1098 7.32005 21.0598 7.03005 19.9598 7.03005C18.5298 7.03005 17.1698 7.50005 16.0598 8.37005C14.9498 7.50005 13.5898 7.03005 12.1598 7.03005C10.4598 7.03005 8.86984 7.69005 7.66984 8.89005C6.46984 10.09 5.80984 11.68 5.80984 13.38C5.80984 15.08 6.46984 16.67 7.66984 17.8701L10.3498 20.55L5.38984 25.51C3.13984 22.98 1.75984 19.65 1.75984 16C1.73984 8.12005 8.15984 1.70005 16.0498 1.70005ZM23.2698 10.05C24.1598 10.94 24.6498 12.12 24.6498 13.37C24.6498 14.62 24.1598 15.8 23.2698 16.6901L17.0698 22.89C16.5098 23.45 15.5898 23.45 15.0198 22.89L12.6598 20.5301L23.1998 9.99005C23.1998 9.99005 23.2398 10.02 23.2598 10.04L23.2698 10.05ZM11.4998 19.38L8.81984 16.7001C7.92984 15.8101 7.43984 14.63 7.43984 13.38C7.43984 12.13 7.92984 10.95 8.81984 10.06C9.70984 9.17005 10.8898 8.68005 12.1398 8.68005C13.3898 8.68005 14.5698 9.17005 15.4598 10.06C15.7798 10.38 16.2998 10.38 16.6298 10.06C17.5198 9.17005 18.6998 8.68005 19.9498 8.68005C20.5998 8.68005 21.2298 8.81005 21.8098 9.07005L11.4998 19.38ZM16.0498 30.3C12.3998 30.3 9.06984 28.93 6.53984 26.67L11.4998 21.71L13.8598 24.07C14.4598 24.67 15.2598 24.98 16.0498 24.98C16.8398 24.98 17.6398 24.68 18.2398 24.07L24.4398 17.8701C25.6398 16.67 26.2998 15.08 26.2998 13.38C26.2998 11.68 25.6398 10.09 24.4398 8.89005C24.4198 8.87005 24.3998 8.86005 24.3798 8.84005L26.7198 6.50005C28.9698 9.03005 30.3498 12.36 30.3498 16.01C30.3498 23.9 23.9298 30.31 16.0498 30.31V30.3Z" fill="url(#paint0_linear_8995_33361)"/>
</g>
<defs>
<linearGradient id="paint0_linear_8995_33361" x1="2.88109" y1="0.0500474" x2="36.7356" y2="8.16586" gradientUnits="userSpaceOnUse">
<stop stop-color="#B63AB4"/>
<stop offset="1" stop-color="#513B9F"/>
</linearGradient>
<clipPath id="clip0_8995_33361">
<rect width="32" height="32" fill="white"/>
</clipPath>
</defs>
</svg>
