<svg width="32" height="32" viewBox="0 0 32 32" fill="none" xmlns="http://www.w3.org/2000/svg">
<path fill-rule="evenodd" clip-rule="evenodd" d="M22.73 6.25988H21.76C21.52 6.25988 21.32 6.05988 21.32 5.81988C21.32 5.57988 21.52 5.37988 21.76 5.37988H24.42C24.66 5.37988 24.86 5.57988 24.86 5.81988C24.86 6.05988 24.66 6.25988 24.42 6.25988H23.7L21.85 10.4799L23.53 13.7499C24.22 13.4899 24.97 13.3399 25.75 13.3399C29.17 13.3399 31.95 16.1199 31.95 19.5399C31.95 22.9599 29.17 25.7399 25.75 25.7399C22.33 25.7399 19.79 23.1999 19.56 19.9799H17.66C17.51 19.9999 17.35 19.9499 17.25 19.8299L10.08 11.2199L8.94004 13.9499C11.02 14.9499 12.46 17.0799 12.46 19.5399C12.46 22.9599 9.68004 25.7399 6.26004 25.7399C2.84004 25.7399 0.0400391 22.9799 0.0400391 19.5599C0.0400391 16.1399 2.82004 13.3599 6.24004 13.3599C6.89004 13.3599 7.52004 13.4599 8.10004 13.6499L10.45 8.04988H8.45004C8.45004 8.04988 8.42004 8.04988 8.41004 8.04988C8.36004 8.04988 8.32004 8.02988 8.27004 8.00988L6.91004 7.41988C6.69004 7.31988 6.58004 7.05988 6.68004 6.83988C6.78004 6.61988 7.04004 6.50988 7.26004 6.60988L8.54004 7.15988H11.11C11.36 7.15988 11.55 7.35988 11.55 7.59988C11.55 7.63988 11.55 7.66988 11.54 7.69988C11.54 7.72988 11.52 7.76988 11.51 7.79988L10.67 9.80988H21.17L22.72 6.25988H22.73ZM20.53 19.9999C20.76 22.6799 23.01 24.7899 25.75 24.7899C28.64 24.7899 30.99 22.4399 30.99 19.5499C30.99 16.6599 28.64 14.3099 25.75 14.3099C25.13 14.3099 24.53 14.4199 23.97 14.6199L26.38 19.3299C26.49 19.5499 26.41 19.8099 26.19 19.9299C26.15 19.9499 26.12 19.9599 26.08 19.9699C26.03 19.9899 25.98 19.9999 25.93 19.9999H20.53ZM7.74004 14.5299C7.27004 14.3899 6.77004 14.3199 6.25004 14.3199C3.36004 14.3199 1.01004 16.6699 1.01004 19.5599C1.01004 22.4499 3.36004 24.7999 6.25004 24.7999C9.14004 24.7999 11.49 22.4499 11.49 19.5599C11.49 17.4999 10.3 15.7199 8.57004 14.8599L6.51004 19.7699C6.42004 19.9999 6.16004 20.0999 5.93004 20.0099C5.70004 19.9199 5.60004 19.6599 5.69004 19.4299L7.74004 14.5399V14.5299ZM23.16 14.9999C21.7 15.8299 20.67 17.3499 20.52 19.1099H25.26L23.15 14.9999H23.16ZM22.72 14.1399L21.39 11.5399L18.07 19.1199H19.56C19.71 16.9799 20.95 15.1399 22.73 14.1499L22.72 14.1399ZM10.78 10.6899L17.34 18.5699L20.79 10.6899H10.78Z" fill="url(#paint0_linear_8995_1888)"/>
<defs>
<linearGradient id="paint0_linear_8995_1888" x1="2.83216" y1="5.37988" x2="34.2135" y2="17.1705" gradientUnits="userSpaceOnUse">
<stop stop-color="#B63AB4"/>
<stop offset="1" stop-color="#513B9F"/>
</linearGradient>
</defs>
</svg>
