<svg width="32" height="32" viewBox="0 0 32 32" fill="none" xmlns="http://www.w3.org/2000/svg">
<path d="M31.2204 14.47H23.0604C22.1304 14.47 21.2704 14.93 20.7504 15.71C20.2304 16.49 20.1404 17.48 20.5104 18.35C20.7604 18.95 20.9304 19.59 20.9904 20.26C21.1404 21.72 20.6804 23.18 19.7504 24.28C18.8804 25.3 17.6904 25.9 16.3904 25.97C15.0204 26.05 13.7104 25.57 12.7104 24.63C11.7104 23.69 11.1604 22.41 11.1604 21.04C11.1604 20.11 11.3604 19.17 11.7404 18.31C12.1104 17.47 12.0304 16.5 11.5204 15.73C11.0004 14.94 10.1304 14.46 9.19043 14.46H0.97043C0.54043 14.46 0.19043 14.81 0.19043 15.24C0.19043 15.67 0.54043 16.02 0.97043 16.02H9.18043C9.59043 16.02 9.98043 16.23 10.2004 16.58C10.4204 16.92 10.4504 17.32 10.3004 17.68C9.84043 18.74 9.59043 19.9 9.59043 21.04C9.59043 22.82 10.3304 24.55 11.6304 25.77C12.8504 26.92 14.4204 27.54 16.0904 27.54C16.2204 27.54 16.3504 27.54 16.4804 27.53C18.2104 27.43 19.8004 26.63 20.9504 25.29C22.1604 23.87 22.7504 21.98 22.5604 20.09C22.4804 19.26 22.2704 18.47 21.9604 17.73C21.7904 17.34 21.8304 16.92 22.0604 16.57C22.2904 16.23 22.6504 16.03 23.0604 16.03H31.2204C31.6504 16.03 32.0004 15.68 32.0004 15.25C32.0004 14.82 31.6504 14.47 31.2204 14.47Z" fill="url(#paint0_linear_8995_33229)"/>
<path d="M16.0904 24.45C17.9904 24.45 19.5304 22.91 19.5304 21.01C19.5304 19.11 18.5204 15.25 16.0904 15.25C13.6604 15.25 12.6504 19.11 12.6504 21.01C12.6504 22.91 14.1904 24.45 16.0904 24.45Z" fill="url(#paint1_linear_8995_33229)"/>
<path d="M16.0896 10.7199C16.5196 10.7199 16.8696 10.3699 16.8696 9.93994V7.46994C16.8696 7.03994 16.5196 6.68994 16.0896 6.68994C15.6596 6.68994 15.3096 7.03994 15.3096 7.46994V9.93994C15.3096 10.3699 15.6596 10.7199 16.0896 10.7199Z" fill="url(#paint2_linear_8995_33229)"/>
<path d="M20.1099 12.47C20.3099 12.47 20.5099 12.39 20.6599 12.24L22.4099 10.49C22.7199 10.18 22.7199 9.68996 22.4099 9.37996C22.0999 9.06996 21.6099 9.06996 21.2999 9.37996L19.5499 11.13C19.2399 11.44 19.2399 11.93 19.5499 12.24C19.6999 12.39 19.8999 12.47 20.0999 12.47H20.1099Z" fill="url(#paint3_linear_8995_33229)"/>
<path d="M11.5198 12.24C11.6698 12.39 11.8698 12.47 12.0698 12.47C12.2698 12.47 12.4698 12.39 12.6198 12.24C12.9298 11.93 12.9298 11.44 12.6198 11.13L10.8698 9.37996C10.5598 9.06996 10.0698 9.06996 9.75984 9.37996C9.44984 9.68996 9.44984 10.18 9.75984 10.49L11.5098 12.24H11.5198Z" fill="url(#paint4_linear_8995_33229)"/>
<defs>
<linearGradient id="paint0_linear_8995_33229" x1="2.9738" y1="14.46" x2="29.6171" y2="29.9931" gradientUnits="userSpaceOnUse">
<stop stop-color="#B63AB4"/>
<stop offset="1" stop-color="#513B9F"/>
</linearGradient>
<linearGradient id="paint1_linear_8995_33229" x1="13.2524" y1="15.25" x2="20.7331" y2="16.5911" gradientUnits="userSpaceOnUse">
<stop stop-color="#B63AB4"/>
<stop offset="1" stop-color="#513B9F"/>
</linearGradient>
<linearGradient id="paint2_linear_8995_33229" x1="15.4461" y1="6.68994" x2="17.1818" y2="6.85102" gradientUnits="userSpaceOnUse">
<stop stop-color="#B63AB4"/>
<stop offset="1" stop-color="#513B9F"/>
</linearGradient>
<linearGradient id="paint3_linear_8995_33229" x1="19.6083" y1="9.14746" x2="23.1368" y2="9.99396" gradientUnits="userSpaceOnUse">
<stop stop-color="#B63AB4"/>
<stop offset="1" stop-color="#513B9F"/>
</linearGradient>
<linearGradient id="paint4_linear_8995_33229" x1="9.81828" y1="9.14746" x2="13.3467" y2="9.99395" gradientUnits="userSpaceOnUse">
<stop stop-color="#B63AB4"/>
<stop offset="1" stop-color="#513B9F"/>
</linearGradient>
</defs>
</svg>
