<svg width="32" height="32" viewBox="0 0 32 32" fill="none" xmlns="http://www.w3.org/2000/svg">
<path fill-rule="evenodd" clip-rule="evenodd" d="M9.23008 1.21001C9.25008 1.30001 9.27008 1.38001 9.29008 1.47001C9.31008 1.55001 9.29008 1.59001 9.21008 1.62001C8.91008 1.74001 8.62008 1.87001 8.33008 2.02001C8.08008 2.14001 7.84008 2.28001 7.60008 2.42001C7.37008 2.56001 7.14008 2.71001 6.92008 2.87001C6.71008 3.02001 6.51008 3.18001 6.32008 3.34001C5.93008 3.67001 5.55008 4.03001 5.21008 4.41001C4.98008 4.66001 4.75008 4.93001 4.54008 5.20001C4.33008 5.47001 4.13008 5.76001 3.95008 6.05001C3.69008 6.46001 3.45008 6.90001 3.24008 7.34001C3.13008 7.57001 3.03008 7.80001 2.94008 8.04001C2.87008 8.22001 2.81008 8.39001 2.75008 8.57001C2.72008 8.66001 2.67008 8.68001 2.58008 8.65001C2.50008 8.62001 2.42008 8.59001 2.34008 8.56001C2.26008 8.53001 2.24008 8.48001 2.27008 8.40001C2.35008 8.16001 2.44008 7.91001 2.54008 7.67001C2.60008 7.53001 2.66008 7.39001 2.72008 7.25001C2.92008 6.80001 3.15008 6.37001 3.41008 5.95001C3.79008 5.33001 4.22008 4.75001 4.70008 4.21001C4.82008 4.08001 4.93008 3.95001 5.05008 3.83001C5.35008 3.52001 5.67008 3.22001 6.00008 2.94001C6.41008 2.60001 6.83008 2.29001 7.28008 2.01001C7.46008 1.90001 7.64008 1.80001 7.82008 1.70001C8.17008 1.51001 8.52008 1.35001 8.89008 1.19001C8.95008 1.17001 9.00008 1.14001 9.06008 1.12001C9.15008 1.08001 9.21008 1.12001 9.23008 1.21001ZM8.14008 3.48001C8.17008 3.56001 8.21008 3.64001 8.24008 3.72001C8.27008 3.79001 8.26008 3.84001 8.19008 3.88001C8.16008 3.90001 8.13008 3.92001 8.10008 3.94001C7.86008 4.10001 7.62008 4.27001 7.39008 4.46001C7.24008 4.58001 7.09008 4.71001 6.95008 4.84001C6.78008 5.00001 6.61008 5.17001 6.44008 5.34001C6.27008 5.52001 6.10008 5.71001 5.94008 5.90001C5.76008 6.11001 5.60008 6.33001 5.44008 6.56001C5.29008 6.78001 5.14008 7.00001 5.01008 7.23001C5.01008 7.23001 5.01008 7.25001 5.00008 7.25001C4.95008 7.33001 4.90008 7.34001 4.82008 7.29001C4.75008 7.24001 4.68008 7.20001 4.60008 7.15001C4.53008 7.10001 4.51008 7.05001 4.56008 6.97001C4.60008 6.90001 4.64008 6.83001 4.68008 6.76001C4.84008 6.49001 5.02008 6.23001 5.21008 5.98001C5.40008 5.72001 5.60008 5.47001 5.82008 5.23001C6.00008 5.02001 6.19008 4.82001 6.39008 4.63001C6.57008 4.45001 6.76008 4.28001 6.95008 4.12001C7.10008 4.00001 7.25008 3.88001 7.40008 3.76001C7.58008 3.63001 7.76008 3.50001 7.94008 3.39001C8.03008 3.34001 8.08008 3.35001 8.12008 3.45001L8.14008 3.48001ZM7.84008 24.35C10.2801 23.63 12.7301 22.91 15.1701 22.19C15.1101 21.9 15.0501 21.6 15.0001 21.3C14.9201 20.8 14.8601 20.29 14.8401 19.79C14.8201 19.45 14.8201 19.11 14.8401 18.76C14.8501 18.43 14.8801 18.09 14.9101 17.76C14.9501 17.32 15.0101 16.88 15.0601 16.45C15.1101 16.08 15.1601 15.71 15.2001 15.34C15.2201 15.17 15.2401 15 15.2501 14.84C15.3101 14.21 15.3301 13.59 15.3201 12.96C15.3201 12.55 15.2901 12.14 15.2501 11.74C15.2201 11.45 15.1801 11.17 15.1301 10.88C15.0301 10.34 14.8901 9.80001 14.7101 9.28001C14.6201 9.01001 14.5101 8.75001 14.3901 8.50001C14.2801 8.25001 14.1501 8.00001 14.0101 7.76001C13.8801 7.53001 13.7301 7.32001 13.5701 7.11001C13.4401 6.94001 13.3001 6.78001 13.1501 6.62001C12.9901 6.46001 12.8301 6.31001 12.6501 6.18001C12.5601 6.11001 12.4601 6.04001 12.3601 5.98001C12.2301 5.90001 12.1001 5.83001 11.9601 5.76001C11.6601 5.62001 11.3401 5.52001 11.0201 5.45001C10.7001 5.39001 10.3701 5.36001 10.0401 5.37001C9.88008 5.37001 9.73008 5.39001 9.57008 5.42001C9.44008 5.44001 9.31008 5.47001 9.19008 5.51001C8.95008 5.58001 8.71008 5.67001 8.48008 5.78001C8.28008 5.88001 8.09008 5.99001 7.90008 6.12001C7.67008 6.28001 7.46008 6.45001 7.25008 6.64001C6.99008 6.88001 6.76008 7.14001 6.55008 7.42001C6.38008 7.65001 6.22008 7.88001 6.07008 8.13001C5.92008 8.38001 5.79008 8.64001 5.67008 8.91001C5.44008 9.42001 5.26008 9.95001 5.12008 10.5C5.05008 10.79 4.99008 11.09 4.95008 11.38C4.87008 11.89 4.84008 12.41 4.84008 12.93C4.84008 13.31 4.85008 13.69 4.88008 14.07C4.91008 14.42 4.95008 14.77 5.00008 15.12C5.07008 15.59 5.15008 16.06 5.24008 16.52C5.37008 17.17 5.52008 17.81 5.69008 18.45C5.78008 18.81 5.88008 19.16 5.99008 19.52C6.10008 19.87 6.21008 20.23 6.32008 20.58C6.53008 21.22 6.76008 21.84 7.01008 22.46C7.27008 23.1 7.55008 23.73 7.84008 24.35ZM26.1501 19.05C23.7101 18.33 21.2601 17.61 18.8201 16.89C18.8801 16.6 18.9401 16.3 18.9901 16C19.0701 15.5 19.1301 14.99 19.1501 14.49C19.1701 14.15 19.1701 13.81 19.1501 13.47C19.1401 13.14 19.1101 12.8 19.0801 12.47C19.0401 12.03 18.9801 11.59 18.9301 11.15C18.8801 10.78 18.8301 10.41 18.7901 10.04C18.7701 9.87001 18.7501 9.70001 18.7401 9.54001C18.6801 8.91001 18.6601 8.29001 18.6701 7.66001C18.6701 7.25001 18.7001 6.84001 18.7401 6.44001C18.7701 6.15001 18.8101 5.86001 18.8601 5.58001C18.9601 5.04001 19.1001 4.50001 19.2801 3.98001C19.3701 3.71001 19.4801 3.45001 19.6001 3.19001C19.7101 2.94001 19.8401 2.69001 19.9801 2.46001C20.1101 2.23001 20.2601 2.02001 20.4201 1.81001C20.5501 1.64001 20.6901 1.48001 20.8401 1.32001C21.0001 1.16001 21.1601 1.01001 21.3401 0.88001C21.4301 0.81001 21.5301 0.74001 21.6301 0.68001C21.7601 0.60001 21.9001 0.53001 22.0301 0.46001C22.3301 0.32001 22.6501 0.22001 22.9701 0.15001C23.2901 0.0900102 23.6201 0.0600102 23.9401 0.0700102C24.1001 0.0700102 24.2501 0.0900102 24.4101 0.12001C24.5401 0.14001 24.6701 0.17001 24.7901 0.21001C25.0301 0.28001 25.2701 0.37001 25.5001 0.48001C25.7001 0.58001 25.8901 0.69001 26.0801 0.82001C26.3101 0.98001 26.5201 1.15001 26.7301 1.34001C26.9901 1.58001 27.2201 1.84001 27.4301 2.12001C27.6001 2.35001 27.7601 2.58001 27.9101 2.83001C28.0601 3.08001 28.1901 3.34001 28.3101 3.61001C28.5401 4.12001 28.7201 4.65001 28.8601 5.20001C28.9301 5.49001 28.9901 5.79001 29.0301 6.08001C29.1101 6.59001 29.1401 7.11001 29.1401 7.63001C29.1401 8.01001 29.1301 8.39001 29.1001 8.77001C29.0701 9.12001 29.0301 9.47001 28.9801 9.82001C28.9101 10.29 28.8301 10.76 28.7401 11.22C28.6101 11.87 28.4601 12.51 28.2901 13.15C28.2001 13.51 28.1001 13.86 27.9901 14.22C27.8801 14.57 27.7701 14.93 27.6601 15.28C27.4501 15.91 27.2201 16.54 26.9701 17.16C26.7101 17.8 26.4301 18.43 26.1401 19.05H26.1501ZM25.7501 18.14C23.7201 17.54 21.7001 16.95 19.6701 16.35C19.7201 16.05 19.7701 15.75 19.8001 15.46C19.8401 15.08 19.8701 14.69 19.8901 14.3C19.8901 13.99 19.8901 13.69 19.8901 13.38C19.8801 12.99 19.8401 12.59 19.8001 12.2C19.7701 11.86 19.7201 11.53 19.6801 11.2C19.6501 11 19.6301 10.79 19.6001 10.59C19.5601 10.29 19.5301 10 19.4901 9.70001C19.4401 9.22001 19.4101 8.74001 19.4001 8.26001C19.4001 7.88001 19.4001 7.49001 19.4201 7.11001C19.4501 6.59001 19.5101 6.07001 19.6101 5.55001C19.6801 5.18001 19.7801 4.81001 19.9001 4.45001C19.9701 4.22001 20.0601 3.99001 20.1501 3.76001C20.2601 3.50001 20.3801 3.25001 20.5101 3.01001C20.6201 2.82001 20.7301 2.63001 20.8501 2.46001C21.0401 2.20001 21.2401 1.95001 21.4801 1.73001C21.6401 1.58001 21.8101 1.45001 21.9901 1.33001C22.2001 1.20001 22.4301 1.09001 22.6701 1.01001C22.8801 0.94001 23.1001 0.89001 23.3201 0.86001C23.5201 0.83001 23.7201 0.82001 23.9201 0.83001C24.0401 0.83001 24.1701 0.85001 24.2901 0.87001C24.4601 0.90001 24.6301 0.94001 24.7901 1.00001C24.9501 1.06001 25.1001 1.12001 25.2401 1.20001C25.3801 1.27001 25.5201 1.35001 25.6501 1.44001C25.8101 1.55001 25.9601 1.66001 26.1001 1.79001C26.2701 1.94001 26.4301 2.09001 26.5701 2.26001C26.7201 2.43001 26.8601 2.60001 26.9801 2.78001C27.2401 3.14001 27.4601 3.54001 27.6401 3.94001C27.8001 4.30001 27.9401 4.68001 28.0501 5.07001C28.1301 5.34001 28.1901 5.62001 28.2401 5.89001C28.3001 6.20001 28.3401 6.52001 28.3601 6.84001C28.3901 7.17001 28.3901 7.50001 28.3901 7.83001C28.3901 8.14001 28.3701 8.45001 28.3501 8.76001C28.3301 9.04001 28.3001 9.32001 28.2601 9.59001C28.2101 9.97001 28.1501 10.34 28.0801 10.72C28.0201 11.04 27.9501 11.36 27.8801 11.68C27.8201 11.94 27.7601 12.19 27.7001 12.44C27.5901 12.87 27.4801 13.3 27.3601 13.72C27.1501 14.43 26.9201 15.14 26.6701 15.84C26.3901 16.62 26.0701 17.39 25.7301 18.14H25.7501ZM8.23008 23.44C10.2601 22.84 12.2801 22.25 14.3101 21.65C14.2601 21.35 14.2101 21.05 14.1801 20.76C14.1401 20.37 14.1101 19.99 14.0901 19.6C14.0901 19.29 14.0901 18.99 14.0901 18.68C14.1101 18.29 14.1401 17.9 14.1801 17.5C14.2101 17.16 14.2601 16.83 14.3001 16.5C14.3301 16.3 14.3501 16.09 14.3801 15.89C14.4201 15.59 14.4501 15.3 14.4901 15C14.5401 14.52 14.5701 14.04 14.5801 13.56C14.5801 13.18 14.5801 12.79 14.5601 12.41C14.5301 11.89 14.4701 11.37 14.3701 10.85C14.3001 10.48 14.2001 10.11 14.0901 9.75001C14.0101 9.52001 13.9301 9.29001 13.8401 9.06001C13.7301 8.80001 13.6101 8.55001 13.4801 8.31001C13.3701 8.12001 13.2601 7.93001 13.1401 7.76001C12.9501 7.50001 12.7501 7.25001 12.5101 7.03001C12.3501 6.88001 12.1801 6.75001 12.0001 6.63001C11.7901 6.50001 11.5601 6.39001 11.3201 6.31001C11.1101 6.24001 10.8901 6.19001 10.6701 6.16001C10.4701 6.13001 10.2701 6.12001 10.0601 6.13001C9.94008 6.13001 9.81008 6.15001 9.69008 6.17001C9.52008 6.20001 9.35008 6.24001 9.19008 6.30001C9.03008 6.36001 8.88008 6.42001 8.74008 6.50001C8.60008 6.57001 8.46008 6.66001 8.33008 6.74001C8.17008 6.85001 8.02008 6.96001 7.88008 7.09001C7.71008 7.24001 7.55008 7.39001 7.41008 7.56001C7.26008 7.73001 7.12008 7.90001 7.00008 8.08001C6.74008 8.44001 6.52008 8.84001 6.34008 9.24001C6.18008 9.61001 6.04008 9.98001 5.93008 10.37C5.85008 10.64 5.79008 10.92 5.74008 11.19C5.68008 11.5 5.64008 11.82 5.62008 12.14C5.59008 12.47 5.59008 12.8 5.59008 13.13C5.59008 13.44 5.61008 13.75 5.63008 14.06C5.65008 14.34 5.68008 14.62 5.72008 14.89C5.77008 15.27 5.83008 15.64 5.90008 16.02C5.96008 16.34 6.03008 16.66 6.10008 16.98C6.16008 17.23 6.22008 17.49 6.28008 17.74C6.39008 18.17 6.50008 18.6 6.62008 19.02C6.83008 19.73 7.06008 20.44 7.31008 21.13C7.59008 21.91 7.91008 22.68 8.25008 23.43L8.23008 23.44ZM8.49008 27.15C8.93008 28.41 9.51008 29.5 10.4201 30.48C11.2101 31.33 12.4801 32.25 13.7701 31.86C15.0801 31.46 15.6101 29.96 15.7601 28.78C15.9401 27.43 15.7801 26.2 15.4101 24.92C15.3501 24.72 15.2601 24.64 15.0501 24.7C12.9201 25.39 10.7901 26.07 8.66008 26.76C8.46008 26.83 8.42008 26.95 8.49008 27.15ZM9.29008 27.21C9.41008 27.53 9.55008 27.84 9.70008 28.14C9.80008 28.35 9.92008 28.55 10.0301 28.75C10.1401 28.94 10.2601 29.12 10.3801 29.3C10.5001 29.47 10.6301 29.64 10.7601 29.8C10.8501 29.91 10.9501 30.02 11.0501 30.12C11.1201 30.19 11.1801 30.26 11.2501 30.33C11.3801 30.46 11.5201 30.57 11.6601 30.69C11.7901 30.79 11.9201 30.88 12.0701 30.97C12.1901 31.04 12.3201 31.11 12.4501 31.16C12.5701 31.21 12.6901 31.25 12.8201 31.28C12.8601 31.28 12.8901 31.3 12.9301 31.3C12.9801 31.3 13.0201 31.32 13.0701 31.32C13.1601 31.32 13.2401 31.33 13.3301 31.32C13.4101 31.32 13.4801 31.3 13.5601 31.28C13.6301 31.26 13.7001 31.23 13.7701 31.2C13.8401 31.16 13.9101 31.12 13.9701 31.08C14.0501 31.02 14.1201 30.96 14.1801 30.89C14.2601 30.81 14.3301 30.72 14.3901 30.63C14.4701 30.52 14.5401 30.4 14.6001 30.28C14.6601 30.17 14.7101 30.05 14.7501 29.93C14.7801 29.84 14.8101 29.76 14.8401 29.67C14.8901 29.49 14.9401 29.32 14.9701 29.14C15.0201 28.9 15.0501 28.66 15.0601 28.42C15.0801 28.21 15.0801 28 15.0801 27.79C15.0801 27.57 15.0701 27.35 15.0501 27.14C15.0301 26.91 15.0001 26.68 14.9701 26.45C14.9201 26.11 14.8501 25.77 14.7601 25.44C12.9301 26.03 11.1001 26.62 9.27008 27.21H9.29008ZM25.5101 21.84C25.0801 23.06 24.5201 24.08 23.6101 25C22.8101 25.81 21.5801 26.58 20.3401 26.2C19.0901 25.81 18.5101 24.47 18.3201 23.31C18.1101 22.02 18.2401 20.84 18.6001 19.6C18.6601 19.4 18.7601 19.34 18.9501 19.4C21.0801 20.09 23.2101 20.78 25.3401 21.46C25.5301 21.52 25.5801 21.63 25.5101 21.83V21.84ZM24.7101 21.87C24.6001 22.17 24.4601 22.46 24.3201 22.74C24.2201 22.94 24.1101 23.13 24.0001 23.31C23.8901 23.48 23.7801 23.66 23.6601 23.82C23.5401 23.98 23.4201 24.14 23.2901 24.29C23.2001 24.39 23.1101 24.49 23.0101 24.59C22.9401 24.65 22.8801 24.72 22.8101 24.78C22.6801 24.9 22.5501 25.01 22.4101 25.11C22.2801 25.2 22.1501 25.29 22.0101 25.37C21.8901 25.44 21.7601 25.5 21.6301 25.55C21.5101 25.59 21.3901 25.63 21.2701 25.66C21.2301 25.66 21.2001 25.67 21.1601 25.68C21.1101 25.68 21.0701 25.69 21.0201 25.7C20.9301 25.7 20.8501 25.7 20.7601 25.7C20.6801 25.7 20.6101 25.68 20.5301 25.66C20.4601 25.64 20.3901 25.61 20.3201 25.58C20.2501 25.55 20.1801 25.5 20.1101 25.46C20.0301 25.4 19.9601 25.34 19.9001 25.28C19.8201 25.2 19.7501 25.11 19.6801 25.03C19.6001 24.92 19.5301 24.81 19.4701 24.69C19.4101 24.58 19.3601 24.47 19.3101 24.36C19.2801 24.28 19.2501 24.19 19.2201 24.11C19.1601 23.94 19.1201 23.77 19.0801 23.61C19.0301 23.38 19.0001 23.16 18.9701 22.93C18.9501 22.73 18.9401 22.53 18.9401 22.33C18.9401 22.12 18.9401 21.92 18.9601 21.71C18.9701 21.49 19.0001 21.27 19.0301 21.05C19.0801 20.73 19.1401 20.41 19.2201 20.1C21.0501 20.69 22.8801 21.28 24.7101 21.87Z" fill="url(#paint0_linear_8995_1896)"/>
<defs>
<linearGradient id="paint0_linear_8995_1896" x1="4.60912" y1="0.0681138" x2="33.5949" y2="5.92689" gradientUnits="userSpaceOnUse">
<stop stop-color="#B63AB4"/>
<stop offset="1" stop-color="#513B9F"/>
</linearGradient>
</defs>
</svg>
