<svg width="32" height="32" viewBox="0 0 32 32" fill="none" xmlns="http://www.w3.org/2000/svg">
<g clip-path="url(#clip0_8995_33409)">
<path d="M7.60008 -0.0800534C5.63008 -0.0800534 3.66008 0.669947 2.15008 2.17995C-0.859922 5.18995 -0.859922 10.0699 2.15008 13.0799L3.78008 14.7099C4.28008 15.2299 5.06008 14.4599 4.54008 13.9599L2.91008 12.3299C0.300078 9.71995 0.300078 5.53995 2.91008 2.92995C5.51008 0.329947 9.69008 0.329947 12.3001 2.92995L15.1601 5.78995L2.15008 18.7899C-0.859922 21.7999 -0.859922 26.6799 2.15008 29.6899C5.16008 32.6999 10.0401 32.6999 13.0501 29.6899L15.9101 26.8299L18.7701 29.6899C21.7801 32.6999 26.6601 32.6999 29.6701 29.6899C32.6801 26.6799 32.6801 21.7999 29.6701 18.7899L28.0401 17.1599C27.5601 16.6799 26.7701 17.3999 27.2801 17.9099L28.9101 19.5399C31.5201 22.1499 31.5201 26.3199 28.9101 28.9299C26.3001 31.5399 22.1301 31.5399 19.5201 28.9299L16.6601 26.0699L29.6601 13.0699C32.6701 10.0599 32.7001 5.20995 29.6601 2.16995C26.5501 -0.940053 21.7201 -0.790053 18.7401 2.18995L15.9001 5.02995L13.0401 2.16995C11.5401 0.669947 9.57008 -0.0800534 7.60008 -0.0800534ZM28.9101 2.93995C31.5001 5.59995 31.5201 9.71995 28.9101 12.3299L12.2901 28.9399C9.68008 31.5499 5.51008 31.5499 2.90008 28.9399C0.290078 26.3299 0.290078 22.1499 2.90008 19.5499L19.5101 2.94995C22.2601 0.199947 26.5501 0.509947 28.9101 2.92995V2.93995ZM6.83008 4.18995C6.54008 4.18995 6.30008 4.42995 6.30008 4.71995C6.30008 5.00995 6.54008 5.24995 6.83008 5.24995C7.12008 5.24995 7.36008 5.00995 7.36008 4.71995C7.36008 4.42995 7.12008 4.18995 6.83008 4.18995ZM24.9901 4.18995C24.7001 4.18995 24.4601 4.42995 24.4601 4.71995C24.4601 5.00995 24.7001 5.24995 24.9901 5.24995C25.2801 5.24995 25.5201 5.00995 25.5201 4.71995C25.5201 4.42995 25.2801 4.18995 24.9901 4.18995ZM10.0401 5.25995C9.75008 5.25995 9.51008 5.49995 9.51008 5.78995C9.51008 6.07995 9.75008 6.31995 10.0401 6.31995C10.3301 6.31995 10.5701 6.07995 10.5701 5.78995C10.5701 5.49995 10.3301 5.25995 10.0401 5.25995ZM21.7801 5.25995C21.4901 5.25995 21.2501 5.49995 21.2501 5.78995C21.2501 6.07995 21.4901 6.31995 21.7801 6.31995C22.0701 6.31995 22.3101 6.07995 22.3101 5.78995C22.3101 5.49995 22.0701 5.25995 21.7801 5.25995ZM4.70008 6.32995C4.41008 6.32995 4.17008 6.56995 4.17008 6.85995C4.17008 7.14995 4.41008 7.38995 4.70008 7.38995C4.99008 7.38995 5.23008 7.14995 5.23008 6.85995C5.23008 6.56995 4.99008 6.32995 4.70008 6.32995ZM27.1201 6.32995C26.8301 6.32995 26.5901 6.56995 26.5901 6.85995C26.5901 7.14995 26.8301 7.38995 27.1201 7.38995C27.4101 7.38995 27.6501 7.14995 27.6501 6.85995C27.6501 6.56995 27.4101 6.32995 27.1201 6.32995ZM7.90008 7.38995C7.61008 7.38995 7.37008 7.62995 7.37008 7.91995C7.37008 8.20995 7.61008 8.44995 7.90008 8.44995C8.19008 8.44995 8.43008 8.20995 8.43008 7.91995C8.43008 7.62995 8.19008 7.38995 7.90008 7.38995ZM23.9201 7.38995C23.6301 7.38995 23.3901 7.62995 23.3901 7.91995C23.3901 8.20995 23.6301 8.44995 23.9201 8.44995C24.2101 8.44995 24.4501 8.20995 24.4501 7.91995C24.4501 7.62995 24.2101 7.38995 23.9201 7.38995ZM16.9101 8.30995L8.28008 16.9399C7.66008 17.5599 7.66008 18.5899 8.28008 19.2099L12.6401 23.5699C13.2601 24.1899 14.2901 24.1899 14.9101 23.5699L23.5401 14.9399C24.1601 14.3199 24.1601 13.2899 23.5401 12.6699L19.1801 8.30995C18.5201 7.64995 17.5201 7.69995 16.9101 8.30995ZM18.4201 9.05995L22.7801 13.4199C23.0001 13.6399 23.0001 13.9599 22.7801 14.1799L14.1501 22.8099C13.9301 23.0299 13.6101 23.0299 13.3901 22.8099L9.03008 18.4499C8.81008 18.2299 8.81008 17.9099 9.03008 17.6899L17.6601 9.05995C17.8601 8.85995 18.2101 8.84995 18.4201 9.05995ZM5.76008 9.52995C5.47008 9.52995 5.23008 9.76995 5.23008 10.0599C5.23008 10.3499 5.47008 10.5899 5.76008 10.5899C6.05008 10.5899 6.29008 10.3499 6.29008 10.0599C6.29008 9.76995 6.05008 9.52995 5.76008 9.52995ZM26.0501 9.52995C25.7601 9.52995 25.5201 9.76995 25.5201 10.0599C25.5201 10.3499 25.7601 10.5899 26.0501 10.5899C26.3401 10.5899 26.5801 10.3499 26.5801 10.0599C26.5801 9.76995 26.3401 9.52995 26.0501 9.52995ZM17.5101 11.6699C17.2201 11.6699 16.9801 11.9099 16.9801 12.1999C16.9801 12.4899 17.2201 12.7299 17.5101 12.7299C17.8001 12.7299 18.0401 12.4899 18.0401 12.1999C18.0401 11.9099 17.8001 11.6699 17.5101 11.6699ZM19.6501 13.7999C19.3601 13.7999 19.1201 14.0399 19.1201 14.3299C19.1201 14.6199 19.3601 14.8599 19.6501 14.8599C19.9401 14.8599 20.1801 14.6199 20.1801 14.3299C20.1801 14.0399 19.9401 13.7999 19.6501 13.7999ZM14.8401 14.3299C14.5501 14.3299 14.3101 14.5699 14.3101 14.8599C14.3101 15.1499 14.5501 15.3899 14.8401 15.3899C15.1301 15.3899 15.3701 15.1499 15.3701 14.8599C15.3701 14.5699 15.1301 14.3299 14.8401 14.3299ZM16.9801 16.4699C16.6901 16.4699 16.4501 16.7099 16.4501 16.9999C16.4501 17.2899 16.6901 17.5299 16.9801 17.5299C17.2701 17.5299 17.5101 17.2899 17.5101 16.9999C17.5101 16.7099 17.2701 16.4699 16.9801 16.4699ZM12.1701 16.9999C11.8801 16.9999 11.6401 17.2399 11.6401 17.5299C11.6401 17.8199 11.8801 18.0599 12.1701 18.0599C12.4601 18.0599 12.7001 17.8199 12.7001 17.5299C12.7001 17.2399 12.4601 16.9999 12.1701 16.9999ZM14.3101 19.1399C14.0201 19.1399 13.7801 19.3799 13.7801 19.6699C13.7801 19.9599 14.0201 20.1999 14.3101 20.1999C14.6001 20.1999 14.8401 19.9599 14.8401 19.6699C14.8401 19.3799 14.6001 19.1399 14.3101 19.1399ZM5.76008 21.2799C5.47008 21.2799 5.23008 21.5199 5.23008 21.8099C5.23008 22.0999 5.47008 22.3399 5.76008 22.3399C6.05008 22.3399 6.29008 22.0999 6.29008 21.8099C6.29008 21.5199 6.05008 21.2799 5.76008 21.2799ZM26.0501 21.2799C25.7601 21.2799 25.5201 21.5199 25.5201 21.8099C25.5201 22.0999 25.7601 22.3399 26.0501 22.3399C26.3401 22.3399 26.5801 22.0999 26.5801 21.8099C26.5801 21.5199 26.3401 21.2799 26.0501 21.2799ZM7.90008 23.4099C7.61008 23.4099 7.37008 23.6499 7.37008 23.9399C7.37008 24.2299 7.61008 24.4699 7.90008 24.4699C8.19008 24.4699 8.43008 24.2299 8.43008 23.9399C8.43008 23.6499 8.19008 23.4099 7.90008 23.4099ZM23.9201 23.4099C23.6301 23.4099 23.3901 23.6499 23.3901 23.9399C23.3901 24.2299 23.6301 24.4699 23.9201 24.4699C24.2101 24.4699 24.4501 24.2299 24.4501 23.9399C24.4501 23.6499 24.2101 23.4099 23.9201 23.4099ZM4.70008 24.4799C4.41008 24.4799 4.17008 24.7199 4.17008 25.0099C4.17008 25.2999 4.41008 25.5399 4.70008 25.5399C4.99008 25.5399 5.23008 25.2999 5.23008 25.0099C5.23008 24.7199 4.99008 24.4799 4.70008 24.4799ZM27.1201 24.4799C26.8301 24.4799 26.5901 24.7199 26.5901 25.0099C26.5901 25.2999 26.8301 25.5399 27.1201 25.5399C27.4101 25.5399 27.6501 25.2999 27.6501 25.0099C27.6501 24.7199 27.4101 24.4799 27.1201 24.4799ZM10.0401 25.5499C9.75008 25.5499 9.51008 25.7899 9.51008 26.0799C9.51008 26.3699 9.75008 26.6099 10.0401 26.6099C10.3301 26.6099 10.5701 26.3699 10.5701 26.0799C10.5701 25.7899 10.3301 25.5499 10.0401 25.5499ZM21.7801 25.5499C21.4901 25.5499 21.2501 25.7899 21.2501 26.0799C21.2501 26.3699 21.4901 26.6099 21.7801 26.6099C22.0701 26.6099 22.3101 26.3699 22.3101 26.0799C22.3101 25.7899 22.0701 25.5499 21.7801 25.5499ZM6.83008 26.6199C6.54008 26.6199 6.30008 26.8599 6.30008 27.1499C6.30008 27.4399 6.54008 27.6799 6.83008 27.6799C7.12008 27.6799 7.36008 27.4399 7.36008 27.1499C7.36008 26.8599 7.12008 26.6199 6.83008 26.6199ZM24.9901 26.6199C24.7001 26.6199 24.4601 26.8599 24.4601 27.1499C24.4601 27.4399 24.7001 27.6799 24.9901 27.6799C25.2801 27.6799 25.5201 27.4399 25.5201 27.1499C25.5201 26.8599 25.2801 26.6199 24.9901 26.6199Z" fill="url(#paint0_linear_8995_33409)"/>
</g>
<defs>
<linearGradient id="paint0_linear_8995_33409" x1="2.69575" y1="-0.10425" x2="36.6967" y2="8.04273" gradientUnits="userSpaceOnUse">
<stop stop-color="#B63AB4"/>
<stop offset="1" stop-color="#513B9F"/>
</linearGradient>
<clipPath id="clip0_8995_33409">
<rect width="32" height="32" fill="white"/>
</clipPath>
</defs>
</svg>
