<svg width="20" height="20" viewBox="0 0 20 20" fill="none" xmlns="http://www.w3.org/2000/svg">
<g clip-path="url(#clip0_25_6927)">
<path d="M9.71827 18.5857H9.71789L7.77469 19.4401L5.83111 18.5857L3.88754 19.4401L1.94396 18.5857L0 19.4357V0L1.94358 0.858856L3.88716 0.00436546L5.83073 0.858856L7.77431 0.00436546L9.71751 0.858856H9.71789L18.0672 10.5461L9.71827 18.5857Z" fill="#FBE100"/>
<path d="M19.4358 0.00875999V19.4445L17.4922 18.5857L15.5486 19.4402L13.605 18.5857L11.6614 19.4402L9.71825 18.5857H9.71787V0.858885L11.6611 0.00439453L13.6046 0.858885L15.5482 0.00439453L17.4918 0.858885L19.4358 0.00875999Z" fill="#FEB600"/>
<path d="M12.0185 9.72225L9.71792 17.0107C5.69259 17.0107 2.4295 13.7476 2.4295 9.72225C2.4295 5.69692 5.69259 2.43384 9.71792 2.43384L12.0185 9.72225Z" fill="#FFF5F5"/>
<path d="M17.0063 9.72225C17.0063 13.7476 13.7432 17.0107 9.71787 17.0107V2.43384C13.7432 2.43384 17.0063 5.69692 17.0063 9.72225Z" fill="#E1E9F0"/>
<path d="M12.9733 7.83411C12.9733 6.03895 11.513 4.57861 9.71786 4.57861C7.92271 4.57861 6.46236 6.03895 6.46236 7.83411C6.46236 9.43452 7.62396 10.7681 9.14845 11.0384V12.3799H8.13908V13.5187H9.14845V14.9039H10.2873V13.5187H11.2966V12.3799H10.2873V11.0384C11.8118 10.7681 12.9733 9.43452 12.9733 7.83411ZM9.71786 9.9504C8.55095 9.9504 7.60118 9.00101 7.60118 7.83411C7.60118 6.66682 8.55095 5.71743 9.71786 5.71743C10.8848 5.71743 11.8345 6.66682 11.8345 7.83411C11.8345 9.00101 10.8848 9.9504 9.71786 9.9504Z" fill="#5E5573"/>
<path d="M10.2873 11.0384V12.3799H11.2966V13.5187H10.2873V14.9039H9.71787V9.9504C10.8848 9.9504 11.8345 9.00101 11.8345 7.83411C11.8345 6.66682 10.8848 5.71743 9.71787 5.71743V4.57861C11.513 4.57861 12.9734 6.03895 12.9734 7.83411C12.9734 9.43452 11.8118 10.7681 10.2873 11.0384Z" fill="#43395A"/>
</g>
<defs>
<clipPath id="clip0_25_6927">
<rect width="20" height="20" fill="white"/>
</clipPath>
</defs>
</svg>
