<svg width="32" height="32" viewBox="0 0 32 32" fill="none" xmlns="http://www.w3.org/2000/svg">
<path d="M15.6697 15.8687C14.5067 15.907 13.3425 15.8856 12.1817 15.8047C7.02967 15.4492 4.28478 14.2687 4.32033 13.7532C4.32033 13.6323 4.67589 13.2589 6.17633 12.9781C6.27063 12.9611 6.35433 12.9073 6.409 12.8287C6.46368 12.75 6.48486 12.6528 6.46789 12.5585C6.45092 12.4642 6.39718 12.3805 6.3185 12.3258C6.23981 12.2712 6.14263 12.25 6.04833 12.2669C4.45189 12.5656 3.65189 13.0314 3.60922 13.6892C3.49189 15.4669 9.13456 16.2989 12.1426 16.4981C12.9568 16.5514 13.7532 16.5798 14.5248 16.5798C14.9266 16.5798 15.3177 16.5798 15.7017 16.5585C15.796 16.5585 15.8864 16.521 15.9531 16.4544C16.0198 16.3877 16.0572 16.2972 16.0572 16.2029C16.0546 16.1553 16.0423 16.1086 16.0212 16.0657C16.0001 16.0229 15.9706 15.9847 15.9344 15.9535C15.8983 15.9223 15.8562 15.8987 15.8107 15.8842C15.7652 15.8696 15.7172 15.8644 15.6697 15.8687Z" fill="url(#paint0_linear_8995_33090)"/>
<path d="M8.34149 12.736H8.36283C8.56549 12.736 8.77172 12.7147 8.98505 12.704C9.07935 12.704 9.16978 12.6666 9.23646 12.5999C9.30314 12.5332 9.3406 12.4428 9.3406 12.3485C9.3406 12.2542 9.30314 12.1637 9.23646 12.0971C9.16978 12.0304 9.07935 11.9929 8.98505 11.9929L8.34505 12.0214C8.25075 12.0242 8.16144 12.0644 8.09676 12.133C8.03208 12.2017 7.99733 12.2933 8.00016 12.3876C8.00299 12.4819 8.04316 12.5712 8.11184 12.6359C8.18052 12.7006 8.27208 12.7353 8.36638 12.7325L8.34149 12.736Z" fill="url(#paint1_linear_8995_33090)"/>
<path d="M28.7253 14.9431C29.0653 14.4409 29.2508 13.85 29.2587 13.2436C29.2587 9.74489 22.8302 7 14.6276 7C6.42489 7 0 9.75911 0 13.2436C0 16.728 6.42489 19.4871 14.6276 19.4871C15.3387 19.4871 16.0889 19.4622 16.8284 19.416C17.5929 21.3751 20.6684 22.7689 24.32 22.7689C28.6258 22.7689 32 20.8809 32 18.4702C32 17.0373 30.784 15.7396 28.7253 14.9431ZM24.32 22.0542C20.8676 22.0542 17.9022 20.7173 17.4222 18.9467L17.344 18.6658H17.0524C16.2418 18.7262 15.424 18.7547 14.6276 18.7547C7.08622 18.776 0.711111 16.2444 0.711111 13.2436C0.711111 10.2427 7.08622 7.71111 14.6276 7.71111C22.1689 7.71111 28.5476 10.2462 28.5476 13.2436C28.5254 13.8536 28.2916 14.4369 27.8862 14.8933L27.5591 15.2916L28.0498 15.4551C30.048 16.12 31.2889 17.2756 31.2889 18.4702C31.2889 20.4258 28.0889 22.0578 24.32 22.0578V22.0542Z" fill="url(#paint2_linear_8995_33090)"/>
<path d="M5.09945 21.0347C3.41056 21.0347 2.08789 21.8204 2.08789 22.8124C2.08789 23.8044 3.41056 24.5902 5.09945 24.5902C6.78834 24.5902 8.111 23.8044 8.111 22.8124C8.111 21.8204 6.78834 21.0347 5.09945 21.0347ZM5.09945 23.8969C3.74478 23.8969 2.799 23.328 2.799 22.8302C2.799 22.3324 3.74478 21.7636 5.09945 21.7636C6.45411 21.7636 7.39989 22.3289 7.39989 22.8302C7.39989 23.3316 6.45767 23.8969 5.09945 23.8969Z" fill="url(#paint3_linear_8995_33090)"/>
<defs>
<linearGradient id="paint0_linear_8995_33090" x1="4.69678" y1="12.2612" x2="14.1526" y2="18.796" gradientUnits="userSpaceOnUse">
<stop stop-color="#B63AB4"/>
<stop offset="1" stop-color="#513B9F"/>
</linearGradient>
<linearGradient id="paint1_linear_8995_33090" x1="8.1173" y1="11.9929" x2="9.38475" y2="12.5411" gradientUnits="userSpaceOnUse">
<stop stop-color="#B63AB4"/>
<stop offset="1" stop-color="#513B9F"/>
</linearGradient>
<linearGradient id="paint2_linear_8995_33090" x1="2.8" y1="7" x2="31.8397" y2="21.1272" gradientUnits="userSpaceOnUse">
<stop stop-color="#B63AB4"/>
<stop offset="1" stop-color="#513B9F"/>
</linearGradient>
<linearGradient id="paint3_linear_8995_33090" x1="2.61491" y1="21.0347" x2="8.41749" y2="23.3911" gradientUnits="userSpaceOnUse">
<stop stop-color="#B63AB4"/>
<stop offset="1" stop-color="#513B9F"/>
</linearGradient>
</defs>
</svg>
