<svg width="32" height="32" viewBox="0 0 32 32" fill="none" xmlns="http://www.w3.org/2000/svg">
<g clip-path="url(#clip0_8995_1883)">
<path d="M24.0795 12.5101L26.0195 7.60009C26.5395 6.28009 26.4995 4.88009 25.8995 3.66009C25.3095 2.46009 24.2595 1.59009 22.9395 1.20009L21.0795 0.660088C19.8195 0.290088 18.1495 0.0900879 16.3795 0.0900879C14.6095 0.0900879 12.9395 0.290088 11.6795 0.660088L9.81953 1.20009C8.49953 1.59009 7.43953 2.46009 6.85953 3.66009C6.25953 4.88009 6.21953 6.28009 6.73953 7.60009L8.67953 12.5101C5.86953 14.8601 4.26953 18.3101 4.26953 22.0201C4.26953 22.1001 4.26953 22.1801 4.26953 22.2601C4.26953 22.2901 4.26953 22.3301 4.26953 22.3601C4.26953 22.4001 4.26953 22.4301 4.26953 22.4701C4.26953 22.4701 4.26953 22.4901 4.26953 22.5001V22.5201C4.26953 22.5201 4.26953 22.5401 4.26953 22.5501V22.5901C4.26953 22.5901 4.26953 22.6201 4.26953 22.6401C4.26953 22.6901 4.26953 22.7501 4.26953 22.8001C4.26953 22.8601 4.26953 22.9201 4.27953 22.9801V23.1501C4.27953 23.1501 4.29953 23.2001 4.29953 23.2201C4.29953 23.2501 4.29953 23.2801 4.29953 23.3101C4.29953 23.3101 4.29953 23.3401 4.29953 23.3501V23.3701L4.31953 23.5101C4.31953 23.5101 4.31953 23.5401 4.31953 23.5601C4.31953 23.5601 4.31953 23.6301 4.32953 23.6701C4.32953 23.7001 4.32953 23.7301 4.33953 23.7701C4.34953 23.8601 4.35953 23.9401 4.37953 24.0201C4.37953 24.0201 4.37953 24.0501 4.37953 24.0601L4.39953 24.1601C4.39953 24.1601 4.39953 24.2001 4.39953 24.2201C4.39953 24.2401 4.39953 24.2601 4.40953 24.2901L4.42953 24.3801C4.42953 24.3801 4.44953 24.4701 4.45953 24.5101C5.01953 27.1001 6.22953 29.0801 8.03953 30.4001C9.93953 31.7801 11.9995 32.0701 13.3995 32.0701H19.2395C20.6295 32.0701 22.6895 31.7801 24.5995 30.4001C26.4195 29.0801 27.6195 27.1001 28.1895 24.5101C28.1895 24.4701 28.2095 24.4201 28.2195 24.3801V24.3601C28.2195 24.3601 28.2395 24.2601 28.2495 24.2101L28.2795 24.0501C28.2795 24.0501 28.2795 24.0301 28.2795 24.0201C28.2895 23.9301 28.3095 23.8501 28.3195 23.7601C28.3195 23.7601 28.3195 23.6901 28.3295 23.6601C28.3295 23.6201 28.3295 23.5901 28.3395 23.5501C28.3395 23.5301 28.3395 23.5201 28.3395 23.5001C28.3395 23.4501 28.3495 23.4001 28.3495 23.3601C28.3495 23.3401 28.3495 23.3301 28.3495 23.3101C28.3495 23.2701 28.3495 23.2401 28.3595 23.2001V23.1701C28.3595 23.1701 28.3595 23.1401 28.3595 23.1201V22.9601C28.3595 22.9601 28.3695 22.9601 28.3695 22.9501C28.3695 22.9201 28.3695 22.9001 28.3695 22.8701C28.3695 22.8401 28.3695 22.8101 28.3695 22.7901C28.3695 22.7401 28.3695 22.6901 28.3695 22.6401C28.3695 22.6401 28.3695 22.5601 28.3695 22.5201C28.3695 22.5001 28.3695 22.4701 28.3695 22.4501V22.3601C28.3695 22.3601 28.3695 22.3201 28.3695 22.3101C28.3695 22.3001 28.3695 22.2801 28.3695 22.2701C28.3695 22.1901 28.3695 22.1101 28.3695 22.0301C28.3695 18.3201 26.7695 14.8701 23.9595 12.5201L24.0795 12.5101ZM7.61953 4.03009C8.09953 3.05009 8.96953 2.33009 10.0595 2.02009L11.9195 1.48009C13.0995 1.14009 14.6895 0.950088 16.3795 0.950088C18.0695 0.950088 19.6595 1.14009 20.8395 1.48009L22.6995 2.02009C23.7895 2.34009 24.6595 3.05009 25.1395 4.03009C25.6295 5.03009 25.6595 6.19009 25.2295 7.28009L23.3795 11.9601C23.3795 11.9601 23.3595 11.9401 23.3495 11.9401C23.2695 11.8801 23.1795 11.8201 23.0995 11.7701C23.0795 11.7501 23.0495 11.7401 23.0295 11.7201C22.9295 11.6601 22.8395 11.5901 22.7395 11.5301C22.7395 11.5301 22.7195 11.5201 22.7095 11.5101C22.6195 11.4501 22.5295 11.4001 22.4295 11.3401C22.3995 11.3201 22.3795 11.3101 22.3495 11.2901C22.2495 11.2301 22.1495 11.1701 22.0395 11.1201C21.9595 11.0801 21.8695 11.0301 21.7895 10.9901C21.7595 10.9801 21.7295 10.9601 21.7095 10.9501C21.6495 10.9201 21.5895 10.8901 21.5295 10.8601C21.5195 10.8601 21.4995 10.8501 21.4895 10.8401L22.5995 8.04009C22.9495 7.17009 22.9195 6.24009 22.5195 5.43009C22.1295 4.63009 21.4295 4.06009 20.5595 3.80009L19.3895 3.46009C18.5795 3.23009 17.5195 3.10009 16.3895 3.10009C15.2595 3.10009 14.1895 3.23009 13.3795 3.46009L12.2095 3.80009C11.3295 4.06009 10.6395 4.63009 10.2495 5.43009C9.84953 6.24009 9.82953 7.17009 10.1695 8.04009L11.2795 10.8401C11.2795 10.8401 11.2495 10.8501 11.2395 10.8601C11.1795 10.8901 11.1195 10.9201 11.0595 10.9501C11.0295 10.9601 10.9995 10.9801 10.9795 10.9901C10.8995 11.0301 10.8095 11.0801 10.7295 11.1201C10.6295 11.1801 10.5295 11.2301 10.4195 11.2901C10.3895 11.3001 10.3695 11.3201 10.3395 11.3401C10.2495 11.3901 10.1495 11.4501 10.0595 11.5101C10.0595 11.5101 10.0395 11.5201 10.0295 11.5301C9.92953 11.5901 9.82953 11.6601 9.73953 11.7201C9.71953 11.7401 9.68953 11.7501 9.66953 11.7701C9.58953 11.8301 9.49953 11.8901 9.41953 11.9501C9.40953 11.9501 9.39953 11.9601 9.38953 11.9701L7.53953 7.29009C7.10953 6.19009 7.13953 5.04009 7.62953 4.04009L7.61953 4.03009ZM16.3795 9.70009C14.8795 9.70009 13.4295 9.97009 12.0495 10.5101L10.9495 7.73009C10.6895 7.08009 10.7095 6.40009 10.9995 5.81009C11.2795 5.23009 11.7895 4.81009 12.4395 4.63009L13.6095 4.29009C14.3395 4.08009 15.3195 3.96009 16.3795 3.96009C17.4395 3.96009 18.4195 4.08009 19.1495 4.29009L20.3195 4.63009C20.9595 4.82009 21.4695 5.24009 21.7595 5.82009C22.0495 6.41009 22.0695 7.09009 21.8095 7.74009L20.7095 10.5201C19.3295 9.98009 17.8795 9.71009 16.3795 9.71009V9.70009ZM27.6395 22.2401C27.6395 22.2401 27.6395 22.2801 27.6395 22.2901V22.4301C27.6395 22.4301 27.6395 22.4301 27.6395 22.4401C27.6395 22.4501 27.6395 22.4601 27.6395 22.4701C27.6395 22.4701 27.6395 22.4701 27.6395 22.4801C27.6395 22.5101 27.6395 22.5401 27.6395 22.5701C27.6395 22.6301 27.6395 22.6701 27.6395 22.7201C27.6395 22.7501 27.6395 22.7701 27.6395 22.8001C27.6395 22.8301 27.6395 22.8601 27.6395 22.8901L27.6195 23.1201C27.6195 23.1201 27.6195 23.1201 27.6195 23.1301C27.6195 23.1501 27.6195 23.1801 27.6195 23.2001V23.2201V23.2501C27.6195 23.2901 27.6195 23.3301 27.6095 23.3701V23.3901C27.6095 23.3901 27.6095 23.4101 27.6095 23.4201C27.6095 23.4501 27.6095 23.4901 27.5995 23.5201C27.5995 23.5201 27.5995 23.5201 27.5995 23.5301C27.5995 23.5501 27.5995 23.5701 27.5995 23.6001C27.5895 23.7001 27.5795 23.7801 27.5595 23.8701V23.8901L27.5395 24.0201C27.5395 24.0601 27.5295 24.1001 27.5195 24.1501V24.1701C27.5195 24.1701 27.4995 24.2501 27.4895 24.2801C26.0995 30.6701 20.9295 31.1701 19.3795 31.1701H13.5395C11.9895 31.1701 6.81953 30.6701 5.42953 24.2801C5.42953 24.2401 5.41953 24.2101 5.40953 24.1701L5.38953 24.0801C5.38953 24.0801 5.38953 24.0301 5.37953 24.0101C5.37953 24.0101 5.37953 23.9901 5.37953 23.9801L5.35953 23.8801C5.35953 23.8801 5.35953 23.8601 5.35953 23.8501C5.34953 23.7701 5.33953 23.6901 5.31953 23.6101C5.31953 23.5901 5.31953 23.5601 5.31953 23.5401C5.31953 23.5401 5.31953 23.5301 5.31953 23.5201C5.31953 23.4901 5.31953 23.4601 5.30953 23.4301V23.4101C5.30953 23.4101 5.30953 23.3901 5.30953 23.3701V23.3801L5.28953 23.2401C5.28953 23.2401 5.28953 23.2201 5.28953 23.2101V23.1901C5.28953 23.1901 5.28953 23.1401 5.28953 23.1201C5.28953 23.1201 5.28953 23.1001 5.28953 23.0901C5.28953 23.0701 5.28953 23.0501 5.28953 23.0401V22.8701C5.26953 22.8201 5.26953 22.7601 5.25953 22.7001C5.25953 22.6601 5.25953 22.6101 5.25953 22.5701C5.25953 22.5701 5.25953 22.5601 5.25953 22.5501V22.5101C5.25953 22.5101 5.25953 22.4801 5.25953 22.4701C5.25953 22.4701 5.25953 22.4501 5.25953 22.4401V22.4201C5.25953 22.4201 5.25953 22.4001 5.25953 22.3901C5.25953 22.3701 5.25953 22.3401 5.25953 22.3201C5.25953 22.3201 5.25953 22.3101 5.25953 22.3001C5.25953 22.2701 5.25953 22.2501 5.25953 22.2201C5.25953 22.2201 5.25953 22.2201 5.25953 22.2101C5.25953 22.1401 5.25953 22.0601 5.25953 21.9901C5.25953 18.4301 6.83953 15.1401 9.58953 12.9501C10.1095 12.5401 10.6695 12.1701 11.2595 11.8501C11.3595 11.7901 11.4695 11.7401 11.5695 11.6901C11.7295 11.6101 11.8895 11.5301 12.0595 11.4601C12.0795 11.4601 12.0995 11.4401 12.1195 11.4301C13.5095 10.8301 14.9895 10.5201 16.5195 10.5201C18.0495 10.5201 19.5295 10.8301 20.9195 11.4301C21.2095 11.5601 21.4995 11.7001 21.7795 11.8501C21.8495 11.8901 21.9295 11.9301 21.9995 11.9701C22.1295 12.0401 22.2595 12.1201 22.3795 12.2001C22.4695 12.2501 22.5495 12.3101 22.6295 12.3601C22.9095 12.5401 23.1795 12.7401 23.4395 12.9501C26.1895 15.1401 27.7695 18.4401 27.7695 21.9901C27.7695 22.0601 27.7695 22.1401 27.7695 22.2101L27.6395 22.2401Z" fill="url(#paint0_linear_8995_1883)"/>
<path d="M19.3305 14.57C18.3905 14.19 17.4005 13.99 16.3805 13.99C12.0205 13.99 8.48047 17.59 8.48047 22.02C8.48047 23.84 9.09047 25.62 10.2105 27.04C10.2905 27.15 10.4205 27.2 10.5505 27.2C10.6405 27.2 10.7405 27.17 10.8105 27.11C11.0005 26.96 11.0305 26.7 10.8805 26.51C9.87047 25.22 9.33047 23.67 9.33047 22.02C9.33047 18.06 12.4905 14.84 16.3805 14.84C17.2905 14.84 18.1705 15.01 19.0105 15.35C19.2305 15.44 19.4805 15.33 19.5705 15.12C19.6605 14.9 19.5505 14.65 19.3405 14.56L19.3305 14.57Z" fill="url(#paint1_linear_8995_1883)"/>
</g>
<defs>
<linearGradient id="paint0_linear_8995_1883" x1="6.37828" y1="0.0900864" x2="32.5699" y2="4.82178" gradientUnits="userSpaceOnUse">
<stop stop-color="#B63AB4"/>
<stop offset="1" stop-color="#513B9F"/>
</linearGradient>
<linearGradient id="paint1_linear_8995_1883" x1="9.45361" y1="13.99" x2="21.4464" y2="16.4105" gradientUnits="userSpaceOnUse">
<stop stop-color="#B63AB4"/>
<stop offset="1" stop-color="#513B9F"/>
</linearGradient>
<clipPath id="clip0_8995_1883">
<rect width="32" height="32" fill="white"/>
</clipPath>
</defs>
</svg>
