<svg width="32" height="32" viewBox="0 0 32 32" fill="none" xmlns="http://www.w3.org/2000/svg">
<g clip-path="url(#clip0_8995_1862)">
<path d="M28.0902 17.8501V12.9501C28.0902 6.27009 22.6602 0.840088 15.9902 0.840088C9.32023 0.840088 3.88023 6.27009 3.88023 12.9401V17.8401C1.60023 18.7901 -0.00976562 21.0301 -0.00976562 23.6401C-0.00976562 26.9501 2.57023 29.6601 5.83023 29.8901V30.4501C5.83023 30.6901 6.02024 30.8801 6.26023 30.8801H8.21023C8.45023 30.8801 8.64023 30.6901 8.64023 30.4501V28.9001C9.75023 28.7001 10.5802 27.7301 10.5802 26.5601V20.7201C10.5802 19.5601 9.74024 18.5901 8.64023 18.3801V16.8301C8.64023 16.5901 8.45023 16.4001 8.21023 16.4001H6.26023C6.02024 16.4001 5.83023 16.5901 5.83023 16.8301V17.3901C5.46023 17.4201 5.10023 17.4701 4.75023 17.5601V12.9401C4.75023 7.79009 10.9002 3.65009 15.9902 3.65009C21.0802 3.65009 27.2302 7.80009 27.2302 12.9401V17.5601C26.8802 17.4701 26.5202 17.4201 26.1502 17.3901V16.8301C26.1502 16.5901 25.9602 16.4001 25.7202 16.4001H23.7802C23.5402 16.4001 23.3502 16.5901 23.3502 16.8301V18.3801C22.2502 18.5801 21.4102 19.5501 21.4102 20.7201V26.5601C21.4102 27.7201 22.2502 28.6901 23.3502 28.9001V30.4501C23.3502 30.6901 23.5402 30.8801 23.7802 30.8801H25.7202C25.9602 30.8801 26.1502 30.6901 26.1502 30.4501V29.8901C29.4102 29.6701 31.9902 26.9501 31.9902 23.6401C31.9902 21.0301 30.3802 18.7801 28.1002 17.8401L28.0902 17.8501ZM9.72023 20.7301V26.5701C9.72023 27.2501 9.26023 27.8201 8.64023 28.0101V19.2901C9.26023 19.4801 9.72023 20.0501 9.72023 20.7301ZM6.69023 17.2701H7.77023V30.0201H6.69023V17.2701ZM5.82023 18.2601V29.0201C3.04023 28.8001 0.850234 26.4701 0.850234 23.6401C0.850234 20.8101 3.04023 18.4801 5.82023 18.2601ZM15.9902 2.78009C12.6202 2.78009 8.92023 4.39009 6.51023 6.93009C8.51023 3.79009 12.0102 1.71009 15.9902 1.71009C19.9702 1.71009 23.4802 3.80009 25.4802 6.93009C23.0702 4.40009 19.3702 2.78009 15.9902 2.78009ZM22.2602 26.5601V20.7201C22.2602 20.0401 22.7202 19.4701 23.3402 19.2801V28.0001C22.7202 27.8101 22.2602 27.2401 22.2602 26.5601ZM25.2802 30.0201H24.2002V17.2701H25.2802V30.0201ZM26.1502 29.0301V18.2701C28.9302 18.4901 31.1202 20.8201 31.1202 23.6501C31.1202 26.4801 28.9302 28.8101 26.1502 29.0301Z" fill="url(#paint0_linear_8995_1862)"/>
</g>
<defs>
<linearGradient id="paint0_linear_8995_1862" x1="2.79023" y1="0.840087" x2="36.504" y2="9.44948" gradientUnits="userSpaceOnUse">
<stop stop-color="#B63AB4"/>
<stop offset="1" stop-color="#513B9F"/>
</linearGradient>
<clipPath id="clip0_8995_1862">
<rect width="32" height="32" fill="white"/>
</clipPath>
</defs>
</svg>
