<svg width="32" height="32" viewBox="0 0 32 32" fill="none" xmlns="http://www.w3.org/2000/svg">
<path d="M30.5396 15.7199C31.8496 12.2699 31.0296 8.2999 28.3996 5.6599C24.9096 2.1699 19.3396 1.9899 15.6296 5.1099C11.9196 1.9799 6.34961 2.1599 2.85961 5.6599C1.07961 7.4499 0.0996094 9.8199 0.0996094 12.3499C0.0996094 14.8799 1.07961 17.2499 2.86961 19.0299L12.5396 28.6999C13.3896 29.5499 14.5196 29.9799 15.6396 29.9799C16.7596 29.9799 17.8896 29.5499 18.7396 28.6999L19.4996 27.9399L20.7096 29.1499C21.2496 29.6899 21.9696 29.9899 22.7396 29.9899C23.5096 29.9899 24.2196 29.6899 24.7596 29.1499L30.2996 23.6199C31.3896 22.5299 31.9896 21.0799 31.9896 19.5399C31.9896 18.1299 31.4796 16.7899 30.5496 15.7399L30.5396 15.7199ZM17.5396 27.5099C16.4896 28.5599 14.7696 28.5599 13.7196 27.5099L4.04961 17.8399C2.57961 16.3699 1.76961 14.4199 1.76961 12.3499C1.76961 10.2799 2.57961 8.3199 4.04961 6.8599C5.51961 5.3999 7.54961 4.5899 9.53961 4.5899C11.5296 4.5899 13.5196 5.3499 15.0296 6.8599C15.3596 7.1899 15.8896 7.1899 16.2196 6.8599C19.2496 3.8299 24.1796 3.8299 27.2096 6.8599C29.2296 8.8799 29.9596 11.8799 29.1596 14.5699C29.0896 14.5299 29.0296 14.4999 28.9596 14.4599C28.9096 14.4299 28.8696 14.4099 28.8196 14.3799C28.6996 14.3199 28.5696 14.2599 28.4396 14.1999C28.4196 14.1999 28.4096 14.1799 28.3896 14.1799C28.2396 14.1199 28.0996 14.0699 27.9496 14.0199C27.9096 14.0099 27.8696 13.9999 27.8196 13.9799C27.7096 13.9499 27.5996 13.9199 27.4996 13.8899C27.4496 13.8799 27.3896 13.8699 27.3396 13.8599C27.2396 13.8399 27.1396 13.8199 27.0396 13.8099C26.9796 13.8099 26.9296 13.7899 26.8696 13.7899C26.7696 13.7799 26.6696 13.7699 26.5696 13.7599C26.5096 13.7599 26.4596 13.7599 26.3996 13.7599C26.2896 13.7599 26.1796 13.7599 26.0796 13.7599C26.0296 13.7599 25.9896 13.7599 25.9396 13.7599C25.7896 13.7599 25.6396 13.7799 25.4796 13.7999C25.3296 13.8199 25.1696 13.8499 25.0196 13.8799C24.9796 13.8799 24.9296 13.8999 24.8896 13.9099C24.7796 13.9399 24.6696 13.9599 24.5696 13.9899C24.5196 14.0099 24.4596 14.0199 24.4096 14.0399C24.3096 14.0699 24.2196 14.1099 24.1196 14.1399C24.0696 14.1599 24.0096 14.1799 23.9596 14.2099C23.8696 14.2499 23.7796 14.2899 23.6796 14.3399C23.6296 14.3699 23.5796 14.3899 23.5296 14.4199C23.4296 14.4699 23.3396 14.5299 23.2396 14.5799C23.1996 14.6099 23.1496 14.6299 23.1096 14.6599C22.9796 14.7499 22.8396 14.8399 22.7096 14.9399C21.7096 14.1799 20.4996 13.7699 19.2196 13.7699C17.6796 13.7699 16.2296 14.3699 15.1496 15.4599C14.0596 16.5499 13.4596 17.9899 13.4596 19.5299C13.4596 21.0699 14.0596 22.5199 15.1496 23.6099L18.2896 26.7499L17.5296 27.5099H17.5396ZM29.0996 22.4199L23.5596 27.9599C23.3396 28.1799 23.0396 28.3099 22.7296 28.3099C22.4096 28.3099 22.1096 28.1899 21.8896 27.9599L20.0896 26.1599L16.3596 22.4299C15.5896 21.6599 15.1596 20.6299 15.1596 19.5299C15.1596 18.4399 15.5896 17.4099 16.3596 16.6399C17.1296 15.8699 18.1596 15.4399 19.2496 15.4399C20.3396 15.4399 21.3696 15.8699 22.1396 16.6399C22.4696 16.9699 22.9996 16.9699 23.3296 16.6399C23.4296 16.5399 23.5296 16.4499 23.6296 16.3699C25.1996 15.0799 27.4796 15.1299 28.9896 16.5299L29.1096 16.6399C29.8796 17.4099 30.3096 18.4399 30.3096 19.5299C30.3096 20.6199 29.8896 21.6499 29.1096 22.4299L29.0996 22.4199Z" fill="url(#paint0_linear_8995_33365)"/>
<defs>
<linearGradient id="paint0_linear_8995_33365" x1="2.88998" y1="2.89111" x2="36.0405" y2="12.2432" gradientUnits="userSpaceOnUse">
<stop stop-color="#B63AB4"/>
<stop offset="1" stop-color="#513B9F"/>
</linearGradient>
</defs>
</svg>
