<svg width="20" height="20" viewBox="0 0 20 20" fill="none" xmlns="http://www.w3.org/2000/svg">
<g clip-path="url(#clip0_25_6915)">
<path d="M9.97556 0C5.07291 0 1.04047 3.98662 0.555557 9.09533L0.773714 10.1312C0.773714 15.7265 4.74602 20 9.97556 20C12.0485 20 15.1902 19.0139 16.9195 17.019C18.4864 15.2115 19.4444 12.791 19.4444 10.1312C19.4444 4.53592 15.2051 0 9.97556 0Z" fill="#FFCC3D"/>
<path d="M9.72222 0C4.65106 0.0535985 0.555554 4.51028 0.555554 9.99998C0.555554 15.4897 4.65106 19.9464 9.72222 20C5.78789 19.931 2.61349 15.48 2.61349 9.99998C2.61349 4.51993 5.78789 0.0689904 9.72222 0Z" fill="#FFBB02"/>
<path d="M6.89523 13.7866C6.62543 13.7866 6.47296 14.088 6.62359 14.3118C7.35362 15.3967 8.59002 16.1117 9.99609 16.1117C11.4022 16.1117 12.6385 15.3967 13.3686 14.3118C13.5192 14.088 13.3667 13.7866 13.097 13.7866H6.89523Z" fill="white"/>
<path d="M7.30111 4.49694C6.21108 4.40212 5.26035 4.99916 4.80819 5.89152C4.35602 4.99916 3.40529 4.40212 2.31526 4.49694C2.13118 4.51278 1.9495 4.54954 1.77374 4.6065C0.611267 4.98406 0.300972 6.749 0.300972 7.48088C0.300972 10.3186 3.61225 12.1914 4.76889 12.7179L5.46851 12.7168C6.85683 11.912 9.32762 9.94894 9.59982 7.48088C9.7613 6.01655 8.76878 4.62462 7.30111 4.49694Z" fill="#FF5F7A"/>
<path d="M0.674093 7.14977C0.562237 6.13572 1.00564 5.15621 1.77429 4.60742C0.613464 4.98602 -0.123482 6.20695 0.0171412 7.4818C0.3282 10.3024 3.51091 12.4634 4.66759 12.9899C4.71187 13.0102 4.76004 13.0208 4.80878 13.0208C4.85752 13.0208 4.90568 13.0102 4.94996 12.9899C5.09456 12.924 5.27078 12.8327 5.4691 12.7177C4.27598 12.1646 0.982941 9.9495 0.674093 7.14977Z" fill="#FB4455"/>
<path d="M17.6842 4.49694C16.5941 4.40212 15.6434 4.99916 15.1912 5.89152C14.7391 4.99916 13.7883 4.40212 12.6983 4.49694C12.5142 4.51278 12.3326 4.54954 12.1568 4.6065C10.9943 4.98406 10.684 6.749 10.684 7.48088C10.684 10.3186 13.9953 12.1914 15.152 12.7179L15.8516 12.7168C17.2399 11.912 19.7107 9.94894 19.9829 7.48088C20.1443 6.01655 19.1518 4.62462 17.6842 4.49694Z" fill="#FF5F7A"/>
<path d="M11.0564 7.14977C10.9445 6.13572 11.3879 5.15621 12.1566 4.60742C10.9957 4.98602 10.2588 6.20695 10.3994 7.4818C10.7105 10.3024 13.8932 12.4634 15.0499 12.9899C15.0941 13.0102 15.1423 13.0208 15.191 13.0208C15.2398 13.0208 15.2879 13.0102 15.3322 12.9899C15.4768 12.924 15.653 12.8327 15.8514 12.7177C14.6583 12.1647 11.3652 9.9495 11.0564 7.14977Z" fill="#FB4455"/>
</g>
<defs>
<clipPath id="clip0_25_6915">
<rect width="20" height="20" fill="white"/>
</clipPath>
</defs>
</svg>
