<svg width="32" height="32" viewBox="0 0 32 32" fill="none" xmlns="http://www.w3.org/2000/svg">
<g clip-path="url(#clip0_8995_33417)">
<path fill-rule="evenodd" clip-rule="evenodd" d="M16.0901 10.34C12.4701 10.34 9.40012 11.4 7.64012 12.86C6.71012 13.63 6.21012 14.46 6.08012 15.24C6.26012 16.08 7.11012 17.1 8.89012 17.95C10.7101 18.83 13.2501 19.4 16.0901 19.4C18.9301 19.4 21.4701 18.83 23.2901 17.95C25.0701 17.09 25.9201 16.08 26.1001 15.24C25.9601 14.45 25.4701 13.63 24.5401 12.86C22.7801 11.39 19.7101 10.34 16.0901 10.34ZM6.29012 10.67C8.64012 8.86004 12.2101 7.79004 16.0801 7.79004C19.9501 7.79004 23.5301 8.87004 25.8701 10.67C29.6901 11.3 32.0401 13.75 32.0401 16.09C32.0401 18.97 30.0501 21.39 27.2301 23.02C24.3801 24.67 20.4801 25.67 16.0701 25.67C11.6601 25.67 7.75012 24.67 4.91012 23.02C2.11012 21.39 0.120117 18.97 0.120117 16.09C0.120117 13.75 2.48012 11.3 6.29012 10.67ZM3.62012 14.52C2.93012 15.13 2.68012 15.77 2.68012 16.09C2.68012 17.68 3.80012 19.41 6.21012 20.81C8.59012 22.19 12.0301 23.11 16.0901 23.11C20.1501 23.11 23.5901 22.19 25.9701 20.81C28.3801 19.41 29.5001 17.68 29.5001 16.09C29.5001 15.77 29.2501 15.13 28.5601 14.52C28.6101 14.72 28.6401 14.92 28.6601 15.12C28.6701 15.22 28.6701 15.32 28.6601 15.43C28.3801 17.59 26.5701 19.22 24.4001 20.27C22.1701 21.35 19.2401 21.97 16.0901 21.97C12.9401 21.97 10.0101 21.34 7.78012 20.27C5.61012 19.22 3.80012 17.59 3.52012 15.43C3.51012 15.33 3.51012 15.23 3.52012 15.12C3.54012 14.92 3.58012 14.71 3.62012 14.52ZM18.5101 12.9C18.6901 12.22 19.3901 11.81 20.0701 12C21.1901 12.3 22.2101 12.73 22.9601 13.23C23.3301 13.47 23.7001 13.78 23.9701 14.14C24.2301 14.49 24.5301 15.08 24.3401 15.79C24.1601 16.47 23.4601 16.88 22.7801 16.69C22.2501 16.55 21.8901 16.09 21.8401 15.57C21.7801 15.52 21.6901 15.44 21.5601 15.36C21.0901 15.05 20.3401 14.71 19.4101 14.46C18.7301 14.28 18.3201 13.58 18.5101 12.9Z" fill="url(#paint0_linear_8995_33417)"/>
</g>
<defs>
<linearGradient id="paint0_linear_8995_33417" x1="2.91312" y1="7.79004" x2="33.1902" y2="20.7477" gradientUnits="userSpaceOnUse">
<stop stop-color="#B63AB4"/>
<stop offset="1" stop-color="#513B9F"/>
</linearGradient>
<clipPath id="clip0_8995_33417">
<rect width="32" height="32" fill="white"/>
</clipPath>
</defs>
</svg>
