<svg width="32" height="32" viewBox="0 0 32 32" fill="none" xmlns="http://www.w3.org/2000/svg">
<g clip-path="url(#clip0_8995_33224)">
<path d="M23.7498 -0.0100098H9.55977C9.55977 -0.0100098 9.47976 -0.0100098 9.44977 -9.76585e-06C4.22977 0.0599902 0.00976562 4.31999 0.00976562 9.53999C0.00976562 9.68999 0.00976562 9.86999 0.0397656 10.05V31.45C0.0397656 31.45 0.0397656 31.45 0.0397656 31.47C0.0397656 31.49 0.0397656 31.51 0.0397656 31.53C0.0397656 31.55 0.0397656 31.56 0.0397656 31.58C0.0397656 31.6 0.0397656 31.61 0.0497656 31.63C0.0497656 31.65 0.0597656 31.67 0.0697656 31.68C0.0697656 31.68 0.0697656 31.68 0.0697656 31.69C0.0697656 31.69 0.0697656 31.69 0.0797656 31.71C0.0997656 31.74 0.119766 31.77 0.139766 31.8C0.139766 31.8 0.149766 31.81 0.159766 31.82C0.189766 31.85 0.219766 31.88 0.259766 31.9C0.259766 31.9 0.279766 31.9 0.289766 31.91C0.319766 31.93 0.349766 31.94 0.379766 31.95C0.389766 31.95 0.399766 31.95 0.409766 31.95C0.449766 31.95 0.489766 31.97 0.529766 31.97C0.529766 31.97 0.529766 31.97 0.539766 31.97C0.569766 31.97 0.609766 31.97 0.639766 31.96C0.639766 31.96 0.659766 31.96 0.669766 31.96C0.699766 31.96 0.719766 31.94 0.749766 31.93C0.749766 31.93 0.749766 31.93 0.759766 31.93L3.09977 30.76L5.43977 31.93C5.43977 31.93 5.47977 31.94 5.49977 31.95C5.50977 31.95 5.52977 31.96 5.53977 31.96C5.57977 31.97 5.62977 31.98 5.66977 31.98C5.66977 31.98 5.75977 31.98 5.79977 31.96C5.80977 31.96 5.82977 31.96 5.83977 31.95C5.85977 31.95 5.87977 31.94 5.89977 31.93L8.23977 30.76L10.5798 31.93C10.5798 31.93 10.6198 31.94 10.6398 31.95C10.6498 31.95 10.6698 31.96 10.6798 31.96C10.7198 31.97 10.7698 31.98 10.8098 31.98C10.8098 31.98 10.8998 31.98 10.9398 31.96C10.9498 31.96 10.9698 31.96 10.9798 31.95C10.9998 31.95 11.0198 31.94 11.0398 31.93L13.3798 30.76L15.7198 31.93H15.7398C15.7498 31.93 15.7698 31.93 15.7798 31.94C15.7998 31.94 15.8198 31.95 15.8398 31.96C15.8598 31.96 15.8798 31.96 15.8998 31.96C15.9098 31.96 15.9298 31.96 15.9398 31.96C15.9798 31.96 16.0298 31.96 16.0698 31.94C16.0698 31.94 16.0698 31.94 16.0798 31.94C16.2898 31.88 16.4498 31.68 16.4498 31.45V16.5H23.6598C28.2098 16.5 31.9098 12.8 31.9098 8.23999C31.9098 3.67999 28.2898 -0.0100098 23.7498 -0.0100098ZM9.54977 1.02999C9.54977 1.02999 9.61977 1.02999 9.64977 1.02999H19.7598C17.2198 2.43999 15.4998 5.14999 15.4998 8.24999C15.4998 8.29999 15.4998 8.35999 15.4998 8.40999V30.63L13.6698 29.71C13.6698 29.71 13.6498 29.71 13.6398 29.7C13.6198 29.7 13.6098 29.69 13.5898 29.68C13.5698 29.68 13.5598 29.68 13.5398 29.67C13.5198 29.67 13.5098 29.67 13.4898 29.67C13.4698 29.67 13.4598 29.67 13.4398 29.67C13.4198 29.67 13.3998 29.67 13.3898 29.67C13.3798 29.67 13.3598 29.67 13.3498 29.67C13.3298 29.67 13.3098 29.67 13.2898 29.68C13.2798 29.68 13.2598 29.69 13.2498 29.7C13.2398 29.7 13.2198 29.7 13.2098 29.71L10.8698 30.88L8.52977 29.71C8.52977 29.71 8.50977 29.71 8.49977 29.7C8.47976 29.7 8.46977 29.69 8.44977 29.68C8.42976 29.68 8.41977 29.68 8.39977 29.67C8.37976 29.67 8.36977 29.67 8.34977 29.67C8.32977 29.67 8.31977 29.67 8.29977 29.67C8.27977 29.67 8.25977 29.67 8.24977 29.67C8.23977 29.67 8.21977 29.67 8.20977 29.67C8.18976 29.67 8.16977 29.67 8.15977 29.68C8.14977 29.68 8.12977 29.69 8.11977 29.7C8.10977 29.7 8.09977 29.7 8.07977 29.71L5.73977 30.88L3.39977 29.71C3.39977 29.71 3.37977 29.71 3.36977 29.7C3.34977 29.7 3.33977 29.69 3.31977 29.68C3.29977 29.67 3.28977 29.68 3.26977 29.67C3.24977 29.67 3.23977 29.67 3.21977 29.67C3.19977 29.67 3.18977 29.67 3.16977 29.67C3.14977 29.67 3.12977 29.67 3.11977 29.67C3.10977 29.67 3.08977 29.67 3.07977 29.67C3.05977 29.67 3.03977 29.67 3.01977 29.68C3.00977 29.68 2.98977 29.69 2.97977 29.7C2.96977 29.7 2.94977 29.7 2.93977 29.71L1.10977 30.62V9.53999C1.10977 9.48999 1.10977 9.43999 1.08977 9.38999C1.12977 4.76999 4.90977 1.02999 9.54977 1.02999ZM16.5298 15.47V12.25C17.2798 13.6 18.3998 14.72 19.7598 15.47H16.5298ZM23.7498 15.47C19.7998 15.47 16.5798 12.27 16.5398 8.32999V8.24999C16.5398 8.24999 16.5398 8.22999 16.5398 8.21999C16.5498 4.24999 19.7898 1.01999 23.7598 1.01999C27.7298 1.01999 30.9798 4.25999 30.9798 8.23999C30.9798 12.22 27.7398 15.46 23.7598 15.46L23.7498 15.47Z" fill="url(#paint0_linear_8995_33224)"/>
<path d="M23.7498 6.01001C22.5198 6.01001 21.5098 7.01001 21.5098 8.25001C21.5098 9.49001 22.5098 10.49 23.7498 10.49C24.9898 10.49 25.9898 9.49001 25.9898 8.25001C25.9898 7.01001 24.9898 6.01001 23.7498 6.01001ZM23.7498 9.45001C23.0898 9.45001 22.5498 8.91001 22.5498 8.25001C22.5498 7.59001 23.0898 7.05001 23.7498 7.05001C24.4098 7.05001 24.9498 7.59001 24.9498 8.25001C24.9498 8.91001 24.4098 9.45001 23.7498 9.45001Z" fill="url(#paint1_linear_8995_33224)"/>
</g>
<defs>
<linearGradient id="paint0_linear_8995_33224" x1="2.80102" y1="-0.0100112" x2="36.6659" y2="8.08544" gradientUnits="userSpaceOnUse">
<stop stop-color="#B63AB4"/>
<stop offset="1" stop-color="#513B9F"/>
</linearGradient>
<linearGradient id="paint1_linear_8995_33224" x1="21.9018" y1="6.01001" x2="26.6563" y2="7.14978" gradientUnits="userSpaceOnUse">
<stop stop-color="#B63AB4"/>
<stop offset="1" stop-color="#513B9F"/>
</linearGradient>
<clipPath id="clip0_8995_33224">
<rect width="32" height="32" fill="white"/>
</clipPath>
</defs>
</svg>
