<svg width="32" height="32" viewBox="0 0 32 32" fill="none" xmlns="http://www.w3.org/2000/svg">
<path d="M20.3304 1.66012C20.4304 1.34012 20.5504 1.03012 20.6904 0.730117C20.7604 0.600117 20.7504 0.450117 20.6804 0.320117C20.6104 0.200117 20.4704 0.120117 20.3304 0.120117H9.96043C9.73043 0.120117 9.55043 0.310117 9.55043 0.540117C9.55043 0.600117 9.57043 0.670117 9.60043 0.720117C9.74043 1.02012 9.87043 1.33012 9.96043 1.65012C10.7504 4.20012 9.43043 6.55012 7.88043 8.70012C4.58043 13.3001 4.34043 19.0901 6.94043 31.6501C6.98043 31.8401 7.15043 31.9801 7.34043 31.9801H22.9404C23.1304 31.9801 23.3004 31.8401 23.3404 31.6501C25.9404 19.0901 25.7004 13.3001 22.4004 8.70012C20.8504 6.55012 19.5304 4.20012 20.3204 1.65012L20.3304 1.66012ZM22.6104 31.1801H15.5004C15.5304 31.1201 15.5504 31.0501 15.5504 30.9701V21.0401L17.8904 19.3401C18.0704 19.2001 18.1104 18.9501 17.9704 18.7701C17.8404 18.5901 17.5904 18.5501 17.4004 18.6801L15.1304 20.3301L12.8604 18.6801C12.6804 18.5501 12.4204 18.5801 12.2904 18.7701C12.1604 18.9601 12.1904 19.2101 12.3804 19.3401L14.7204 21.0401V30.9701C14.7204 31.0401 14.7304 31.1101 14.7604 31.1801H7.66043C5.19043 19.1201 5.41043 13.5301 8.53043 9.19012C10.1204 6.98012 11.6204 4.31012 10.7204 1.41012C10.6704 1.24012 10.6104 1.07012 10.5604 0.930117H19.6904C19.6404 1.07012 19.5804 1.23012 19.5304 1.40012C18.6304 4.30012 20.1304 6.97012 21.7204 9.18012C24.8404 13.5201 25.0604 19.1101 22.5904 31.1701L22.6104 31.1801Z" fill="url(#paint0_linear_8995_33241)"/>
<path d="M15.1397 6.07007C11.7297 6.07007 8.96973 8.83007 8.96973 12.2401C8.96973 15.6501 11.7297 18.4101 15.1397 18.4101C18.5497 18.4101 21.3097 15.6501 21.3097 12.2401C21.3097 8.83007 18.5497 6.07007 15.1397 6.07007ZM15.1397 6.89007C18.0697 6.89007 20.4497 9.25007 20.4897 12.1801H19.5897L18.6697 10.8901C18.5897 10.7801 18.4597 10.7201 18.3297 10.7201C18.1997 10.7201 18.0697 10.7901 17.9997 10.9001L16.5497 13.1001L15.2997 10.3201C15.2097 10.1101 14.9697 10.0201 14.7597 10.1101C14.6697 10.1501 14.5997 10.2201 14.5597 10.3001L13.1697 13.0901L12.2097 11.0701C12.1097 10.8701 11.8697 10.7801 11.6697 10.8801C11.6097 10.9101 11.5497 10.9501 11.5097 11.0101L10.6797 12.1701H9.79973C9.83973 9.24007 12.2197 6.89007 15.1497 6.88007L15.1397 6.89007ZM15.1397 17.6001C12.4697 17.6001 10.2197 15.6301 9.83973 12.9901H10.8797C11.0097 12.9901 11.1397 12.9301 11.2097 12.8201L11.7597 12.0501L12.7797 14.2001C12.8497 14.3401 12.9897 14.4301 13.1397 14.4301C13.2897 14.4301 13.4397 14.3501 13.5097 14.2101L14.8897 11.4501L16.0897 14.1201C16.1797 14.3301 16.4197 14.4201 16.6297 14.3201C16.6997 14.2901 16.7597 14.2401 16.7997 14.1701L18.3297 11.8501L19.0297 12.8301C19.1097 12.9401 19.2297 13.0001 19.3597 13.0001H20.4197C20.0397 15.6401 17.7897 17.6001 15.1197 17.6101L15.1397 17.6001Z" fill="url(#paint1_linear_8995_33241)"/>
<defs>
<linearGradient id="paint0_linear_8995_33241" x1="6.9196" y1="0.120116" x2="28.7936" y2="3.40023" gradientUnits="userSpaceOnUse">
<stop stop-color="#B63AB4"/>
<stop offset="1" stop-color="#513B9F"/>
</linearGradient>
<linearGradient id="paint1_linear_8995_33241" x1="10.0495" y1="6.07007" x2="23.1456" y2="9.20954" gradientUnits="userSpaceOnUse">
<stop stop-color="#B63AB4"/>
<stop offset="1" stop-color="#513B9F"/>
</linearGradient>
</defs>
</svg>
