<svg width="32" height="32" viewBox="0 0 32 32" fill="none" xmlns="http://www.w3.org/2000/svg">
<g clip-path="url(#clip0_8995_33369)">
<path d="M28.4395 15.7301C29.7295 12.7701 29.1095 9.29005 26.7695 6.95005C23.8295 4.01005 19.1395 3.86005 16.0195 6.49005C12.8995 3.85005 8.20953 4.01005 5.26953 6.95005C2.92953 9.29005 2.30953 12.7701 3.59953 15.7301C2.75953 15.9101 1.96953 16.3201 1.34953 16.9401C0.489531 17.7901 0.0195312 18.9201 0.0195312 20.1201C0.0195312 21.3201 0.489531 22.4501 1.33953 23.3001L5.59953 27.5601C6.03953 28.0001 6.61953 28.2201 7.19953 28.2201C7.77953 28.2201 8.35953 28.0001 8.79953 27.5601L11.7095 24.6501L13.4095 26.3501C14.1295 27.0701 15.0695 27.4301 16.0195 27.4301C16.9695 27.4301 17.9095 27.0701 18.6295 26.3501L20.3295 24.6501L23.2395 27.5601C23.6795 28.0001 24.2595 28.2201 24.8395 28.2201C25.4195 28.2201 25.9995 28.0001 26.4395 27.5601L30.6995 23.3001C31.5495 22.4501 32.0195 21.3201 32.0195 20.1201C32.0195 18.9201 31.5495 17.7901 30.6995 16.9401C30.0795 16.3201 29.2895 15.9101 28.4495 15.7301H28.4395ZM7.79953 26.5601C7.46953 26.8901 6.92953 26.8901 6.59953 26.5601L2.33953 22.3001C1.75953 21.7201 1.43953 20.9401 1.43953 20.1201C1.43953 19.3001 1.75953 18.5201 2.33953 17.9401C2.91953 17.3601 3.70953 17.0401 4.51953 17.0401C4.56953 17.0401 4.60953 17.0401 4.65953 17.0401C5.42953 17.0801 6.15953 17.4001 6.69953 17.9401C6.82953 18.0701 7.00953 18.1501 7.19953 18.1501C7.38953 18.1501 7.56953 18.0801 7.69953 17.9401C8.27953 17.3601 9.04953 17.0401 9.87953 17.0401C10.6995 17.0401 11.4795 17.3601 12.0595 17.9401C12.6395 18.5201 12.9595 19.2901 12.9595 20.1201C12.9595 20.2201 12.9595 20.3301 12.9495 20.4301C12.8795 21.1401 12.5695 21.8001 12.0595 22.3101L11.2095 23.1601L7.79953 26.5701V26.5601ZM17.6295 25.3501C16.7395 26.2401 15.2995 26.2401 14.4095 25.3501L12.7095 23.6501L13.0595 23.3001C13.9095 22.4501 14.3795 21.3201 14.3795 20.1201C14.3795 18.9201 13.9095 17.7901 13.0595 16.9401C12.2095 16.0901 11.0795 15.6201 9.87953 15.6201C8.89953 15.6201 7.96953 15.9301 7.19953 16.5101C7.05953 16.4101 6.91953 16.3201 6.76953 16.2301C6.73953 16.2201 6.71953 16.2001 6.68953 16.1901C6.54953 16.1101 6.39953 16.0401 6.24953 15.9801C6.21953 15.9701 6.18953 15.9601 6.15953 15.9401C6.00953 15.8801 5.84953 15.8301 5.68953 15.7801C5.66953 15.7801 5.65953 15.7801 5.63953 15.7701C5.47953 15.7301 5.32953 15.7001 5.15953 15.6801C5.13953 15.6801 5.12953 15.6801 5.11953 15.6801C3.75953 13.1501 4.19953 10.0201 6.25953 7.96005C8.80953 5.41005 12.9595 5.41005 15.5095 7.96005C15.7895 8.24005 16.2295 8.24005 16.5095 7.96005C19.0595 5.41005 23.2095 5.41005 25.7595 7.96005C27.8195 10.0201 28.2595 13.1501 26.8995 15.6801C26.8895 15.6801 26.8695 15.6801 26.8595 15.6801C26.6995 15.7001 26.5395 15.7401 26.3795 15.7801C26.3595 15.7801 26.3495 15.7801 26.3295 15.7901C26.1695 15.8301 26.0095 15.8901 25.8595 15.9501C25.8295 15.9601 25.7995 15.9701 25.7695 15.9901C25.6195 16.0501 25.4695 16.1201 25.3295 16.2001C25.2995 16.2101 25.2795 16.2301 25.2495 16.2401C25.0995 16.3301 24.9595 16.4201 24.8195 16.5201C24.0495 15.9501 23.1195 15.6301 22.1395 15.6301C20.9395 15.6301 19.8095 16.1001 18.9595 16.9501C18.1095 17.8001 17.6395 18.9301 17.6395 20.1301C17.6395 20.2801 17.6395 20.4301 17.6595 20.5801C17.7595 21.6101 18.2095 22.5701 18.9595 23.3201L19.3095 23.6701L17.6095 25.3701L17.6295 25.3501ZM29.6995 22.3001L25.4395 26.5601C25.1095 26.8901 24.5695 26.8901 24.2395 26.5601L20.8295 23.1501L19.9795 22.3001C19.3995 21.7201 19.0795 20.9401 19.0795 20.1201C19.0795 19.3001 19.3995 18.5201 19.9795 17.9401C20.5595 17.3601 21.3395 17.0401 22.1595 17.0401C22.9795 17.0401 23.7595 17.3601 24.3395 17.9401C24.4695 18.0701 24.6495 18.1501 24.8395 18.1501C25.0295 18.1501 25.2095 18.0801 25.3395 17.9401C25.4795 17.8001 25.6195 17.6801 25.7795 17.5701C26.2495 17.2501 26.7995 17.0601 27.3795 17.0401C28.2495 17.0001 29.0895 17.3301 29.6995 17.9401C30.2795 18.5201 30.5995 19.2901 30.5995 20.1201C30.5995 20.9401 30.2795 21.7201 29.6995 22.3001Z" fill="url(#paint0_linear_8995_33369)"/>
</g>
<defs>
<linearGradient id="paint0_linear_8995_33369" x1="2.81953" y1="4.62109" x2="35.2997" y2="15.1793" gradientUnits="userSpaceOnUse">
<stop stop-color="#B63AB4"/>
<stop offset="1" stop-color="#513B9F"/>
</linearGradient>
<clipPath id="clip0_8995_33369">
<rect width="32" height="32" fill="white"/>
</clipPath>
</defs>
</svg>
