<svg width="32" height="32" viewBox="0 0 32 32" fill="none" xmlns="http://www.w3.org/2000/svg">
<g clip-path="url(#clip0_8995_33286)">
<path d="M16 0.280029C7.27996 0.280029 0.209961 7.35003 0.209961 16.07C0.209961 24.79 7.27996 31.86 16 31.86C24.72 31.86 31.79 24.79 31.79 16.07C31.78 7.35003 24.72 0.290029 16 0.280029ZM16 30.71C7.90996 30.71 1.35996 24.15 1.35996 16.07C1.35996 7.99003 7.90996 1.43003 16 1.43003C24.09 1.43003 30.64 7.99003 30.64 16.07C30.64 24.15 24.08 30.7 16 30.71ZM9.18996 14.68C10.57 14.64 11.66 13.48 11.61 12.1C11.59 11.41 11.29 10.76 10.77 10.31L6.61996 12.4C6.73996 13.72 7.85996 14.72 9.18996 14.69V14.68ZM8.12996 12.24C8.53996 12.23 8.87996 12.55 8.88996 12.96C8.89996 13.37 8.57996 13.71 8.16996 13.72C7.75996 13.73 7.41996 13.41 7.40996 13C7.40996 12.59 7.71996 12.26 8.12996 12.24ZM20.39 12.1C20.34 13.48 21.42 14.64 22.8 14.69C24.13 14.74 25.27 13.73 25.38 12.4L21.23 10.31C20.71 10.76 20.4 11.41 20.39 12.1ZM23.87 12.24C24.28 12.25 24.6 12.59 24.59 13C24.58 13.41 24.24 13.73 23.83 13.72C23.42 13.71 23.1 13.37 23.11 12.96C23.12 12.55 23.46 12.23 23.87 12.24ZM16.01 22.52C15.7 22.52 15.4 22.53 15.1 22.56L6.48996 13.96C5.55996 13.03 4.04996 13.03 3.10996 13.96L3.00996 14.06C2.07996 14.99 2.07996 16.5 3.00996 17.43L10.28 24.7C10.06 24.92 9.86996 25.17 9.70996 25.44C9.54996 25.71 9.63996 26.07 9.90996 26.23C9.99996 26.28 10.1 26.31 10.2 26.31C10.4 26.31 10.59 26.2 10.69 26.03C10.8 25.84 10.93 25.67 11.08 25.51C11.34 25.22 11.63 24.97 11.96 24.77C12.17 24.63 12.4 24.5 12.63 24.4C13.01 24.22 13.41 24.07 13.81 23.96C14.09 23.88 14.38 23.82 14.67 23.78C15.11 23.71 15.55 23.68 16 23.68C16.07 23.68 16.14 23.68 16.2 23.68C18.41 23.73 20.43 24.64 21.27 25.99C21.44 26.26 21.79 26.34 22.06 26.17C22.33 26 22.41 25.65 22.24 25.38C21.15 23.65 18.7 22.53 15.99 22.53L16.01 22.52ZM12.91 23.04L5.43996 15.57C5.21996 15.35 4.84996 15.35 4.62996 15.57C4.40996 15.8 4.40996 16.16 4.62996 16.39L11.79 23.54C11.57 23.66 11.35 23.79 11.15 23.95L3.81996 16.62C3.33996 16.14 3.33996 15.35 3.81996 14.87L3.91996 14.77C4.14996 14.54 4.46996 14.41 4.78996 14.41C5.11996 14.41 5.42996 14.54 5.66996 14.77L13.7 22.8C13.43 22.86 13.16 22.94 12.9 23.04H12.91Z" fill="url(#paint0_linear_8995_33286)"/>
</g>
<defs>
<linearGradient id="paint0_linear_8995_33286" x1="2.97321" y1="0.280028" x2="36.4881" y2="8.31443" gradientUnits="userSpaceOnUse">
<stop stop-color="#B63AB4"/>
<stop offset="1" stop-color="#513B9F"/>
</linearGradient>
<clipPath id="clip0_8995_33286">
<rect width="32" height="32" fill="white"/>
</clipPath>
</defs>
</svg>
