<svg width="32" height="32" viewBox="0 0 32 32" fill="none" xmlns="http://www.w3.org/2000/svg">
<g clip-path="url(#clip0_8995_1774)">
<path d="M25.41 25.5302H6.65004C3.00004 25.5302 0.0400391 22.5702 0.0400391 18.9202C0.0400391 15.5302 2.57004 12.7402 5.88004 12.3602C6.46004 10.1402 8.63004 8.59023 11.02 8.95023C12.93 6.75023 15.67 5.49023 18.59 5.49023C23.19 5.49023 27.12 8.55023 28.28 12.9602C30.57 14.0602 32.03 16.3602 32.03 18.9202C32.03 22.5702 29.06 25.5302 25.41 25.5302ZM10.35 10.1902C8.70004 10.1902 7.28004 11.4202 7.06004 13.0602L6.98004 13.5902L6.44004 13.6102C3.58004 13.7202 1.33004 16.0602 1.33004 18.9202C1.33004 21.7802 3.72004 24.2402 6.65004 24.2402H25.41C28.34 24.2402 30.73 21.8502 30.73 18.9202C30.73 16.7702 29.45 14.8502 27.47 14.0102L27.16 13.8802L27.09 13.5602C26.18 9.57024 22.68 6.78023 18.58 6.78023C15.92 6.78023 13.44 7.98024 11.77 10.0602L11.51 10.3802L11.11 10.2902C10.85 10.2302 10.59 10.2002 10.34 10.2002L10.35 10.1902Z" fill="url(#paint0_linear_8995_1774)"/>
</g>
<defs>
<linearGradient id="paint0_linear_8995_1774" x1="2.83916" y1="5.49023" x2="34.1544" y2="17.4738" gradientUnits="userSpaceOnUse">
<stop stop-color="#B63AB4"/>
<stop offset="1" stop-color="#513B9F"/>
</linearGradient>
<clipPath id="clip0_8995_1774">
<rect width="32" height="32" fill="white"/>
</clipPath>
</defs>
</svg>
