<svg width="32" height="32" viewBox="0 0 32 32" fill="none" xmlns="http://www.w3.org/2000/svg">
<g clip-path="url(#clip0_8995_1778)">
<path d="M21.9297 3.28979C19.6297 3.28979 17.4097 4.05979 15.6397 5.45979C15.1697 5.33979 14.6697 5.27979 14.1297 5.27979C11.5797 5.27979 9.26973 6.99979 8.46973 9.42979H6.02973C2.74973 9.42979 -0.0302734 12.4498 -0.0302734 16.0298V16.2898C-0.0302734 19.8998 2.79973 23.0698 6.03973 23.0698H9.62973C9.93973 23.0698 10.1997 22.8098 10.1997 22.4998C10.1997 22.1898 9.94973 21.9298 9.62973 21.9298H6.03973C3.40973 21.9298 1.10973 19.2898 1.10973 16.2898V16.0298C1.10973 13.0698 3.36973 10.5598 6.03973 10.5598H8.90973C9.16973 10.5598 9.39973 10.3798 9.45973 10.1298C9.97973 8.00979 11.9897 6.40979 14.1397 6.40979C14.6697 6.40979 15.1597 6.47978 15.5997 6.61979C15.7897 6.67979 15.9897 6.63979 16.1397 6.50979C17.7397 5.15979 19.7897 4.41979 21.9297 4.41979C26.8397 4.41979 30.8297 8.31979 30.8297 13.1098C30.8297 15.3398 29.9697 17.4598 28.4197 19.0698C28.3697 19.1198 28.3297 19.1698 28.3097 19.2198C27.5797 19.9498 26.7497 20.5498 25.8497 20.9998C25.5697 21.1398 25.4497 21.4798 25.5897 21.7598C25.7297 22.0398 26.0697 22.1598 26.3497 22.0198C27.4197 21.4898 28.3897 20.7798 29.2297 19.8998C29.2697 19.8598 29.2997 19.8098 29.3297 19.7598C31.0297 17.9498 31.9697 15.5898 31.9697 13.1098C31.9697 7.68979 27.4697 3.27979 21.9297 3.27979V3.28979Z" fill="url(#paint0_linear_8995_1778)"/>
<path d="M22.1197 19.0902H19.8497V14.2302C19.8497 13.2602 19.4097 12.9902 19.1497 12.9102C18.8897 12.8302 18.3597 12.8202 17.8097 13.6302L16.3397 15.7602L15.9497 16.3502C15.4597 17.0902 14.8497 18.0102 14.4297 18.6102L13.0497 20.6802C12.6697 21.2402 12.5897 21.8402 12.8497 22.3202C13.0997 22.7902 13.6097 23.0602 14.2597 23.0602H16.4397V27.6002C16.4397 28.6002 16.9497 28.8702 17.1697 28.9302C17.2297 28.9502 17.3197 28.9702 17.4197 28.9702C17.6997 28.9702 18.1197 28.8402 18.5297 28.2302L20.0597 26.1102C20.4797 25.4802 21.1197 24.5402 21.6297 23.7902L23.3397 21.3102C23.8397 20.5702 23.6897 20.0302 23.5597 19.7802C23.4197 19.5202 23.0497 19.0802 22.1297 19.0802L22.1197 19.0902ZM22.3997 20.6802L20.6797 23.1702C20.1697 23.9202 19.5197 24.8702 19.1097 25.4802L17.5797 27.6002C17.5797 27.6002 17.5797 27.6102 17.5697 27.6202V22.5102C17.5697 22.2002 17.3197 21.9402 16.9997 21.9402H14.2497C13.9997 21.9402 13.8697 21.8702 13.8397 21.8102C13.7997 21.7302 13.8197 21.5602 13.9797 21.3302L15.3597 19.2602C15.7697 18.6602 16.3797 17.7402 16.8797 16.9902L18.6997 14.3402V19.6702C18.6997 19.9802 18.9497 20.2402 19.2697 20.2402H22.1097C22.3997 20.2402 22.5197 20.3102 22.5297 20.3302C22.5297 20.3502 22.5297 20.4802 22.3797 20.6902L22.3997 20.6802Z" fill="url(#paint1_linear_8995_1778)"/>
</g>
<defs>
<linearGradient id="paint0_linear_8995_1778" x1="2.76973" y1="3.27978" x2="33.9908" y2="15.3821" gradientUnits="userSpaceOnUse">
<stop stop-color="#B63AB4"/>
<stop offset="1" stop-color="#513B9F"/>
</linearGradient>
<linearGradient id="paint1_linear_8995_1778" x1="13.6597" y1="12.875" x2="25.6699" y2="14.8406" gradientUnits="userSpaceOnUse">
<stop stop-color="#B63AB4"/>
<stop offset="1" stop-color="#513B9F"/>
</linearGradient>
<clipPath id="clip0_8995_1778">
<rect width="32" height="32" fill="white"/>
</clipPath>
</defs>
</svg>
