<svg width="32" height="32" viewBox="0 0 32 32" fill="none" xmlns="http://www.w3.org/2000/svg">
<path d="M27.3655 4.63448C33.5448 10.9241 33.5448 21.0759 27.3655 27.3655C21.0759 33.5448 10.9241 33.5448 4.63448 27.3655C-1.54483 21.0759 -1.54483 10.9241 4.63448 4.63448C10.9241 -1.54483 21.0759 -1.54483 27.3655 4.63448ZM26.2621 5.73793C20.6345 0.110345 11.3655 0.110345 5.73793 5.73793C0.110345 11.3655 0.110345 20.6345 5.73793 26.2621C11.3655 32 20.6345 32 26.2621 26.2621C32 20.6345 32 11.3655 26.2621 5.73793Z" fill="url(#paint0_linear_2_1643)"/>
<path d="M13.2414 13.2414L9.93104 9.82068L6.51035 13.2414L7.50345 14.3448L9.93104 11.9172L12.2483 14.2345L13.2414 13.2414Z" fill="url(#paint1_linear_2_1643)"/>
<path d="M18.7586 13.2414L22.069 9.82068L25.4897 13.2414L24.4966 14.3448L22.069 11.9172L19.7517 14.2345L18.7586 13.2414Z" fill="url(#paint2_linear_2_1643)"/>
<path d="M9.15863 21.0759C8.71725 21.9586 9.93104 22.6207 10.4828 21.8483C10.7035 21.4069 11.0345 20.9655 11.4759 20.7448C12.3586 20.1931 13.4621 20.1931 14.3448 20.7448C14.7862 20.9655 15.1172 21.4069 15.3379 21.8483C15.669 22.2896 16.331 22.2896 16.6621 21.8483C16.8828 21.4069 17.2138 20.9655 17.6552 20.7448C18.5379 20.1931 19.6414 20.1931 20.5241 20.7448C20.9655 20.9655 21.2966 21.4069 21.5172 21.8483C22.069 22.6207 23.2828 21.9586 22.8414 21.0759C22.5104 20.4138 21.9586 19.8621 21.2966 19.531C19.9724 18.6483 18.3172 18.6483 16.8828 19.531C16.5517 19.6414 16.331 19.9724 16 20.1931C15.7793 19.9724 15.4483 19.6414 15.1172 19.531C13.7931 18.6483 12.0276 18.6483 10.7035 19.531C10.0414 19.8621 9.48966 20.4138 9.15863 21.0759Z" fill="url(#paint3_linear_2_1643)"/>
<path d="M22.731 15.1172H25.6V15.8897H22.731V15.1172Z" fill="url(#paint4_linear_2_1643)"/>
<path d="M6.28966 15.1172H9.15862V15.8897H6.28966V15.1172Z" fill="url(#paint5_linear_2_1643)"/>
<defs>
<linearGradient id="paint0_linear_2_1643" x1="2.8" y1="-1.46508e-06" x2="36.7607" y2="8.14125" gradientUnits="userSpaceOnUse">
<stop stop-color="#B63AB4"/>
<stop offset="1" stop-color="#513B9F"/>
</linearGradient>
<linearGradient id="paint1_linear_2_1643" x1="7.09931" y1="9.82068" x2="13.8008" y2="12.2109" gradientUnits="userSpaceOnUse">
<stop stop-color="#B63AB4"/>
<stop offset="1" stop-color="#513B9F"/>
</linearGradient>
<linearGradient id="paint2_linear_2_1643" x1="19.3476" y1="9.82068" x2="26.0491" y2="12.2109" gradientUnits="userSpaceOnUse">
<stop stop-color="#B63AB4"/>
<stop offset="1" stop-color="#513B9F"/>
</linearGradient>
<linearGradient id="paint3_linear_2_1643" x1="10.2777" y1="18.869" x2="18.0495" y2="26.6531" gradientUnits="userSpaceOnUse">
<stop stop-color="#B63AB4"/>
<stop offset="1" stop-color="#513B9F"/>
</linearGradient>
<linearGradient id="paint4_linear_2_1643" x1="22.9821" y1="15.1172" x2="24.778" y2="16.7163" gradientUnits="userSpaceOnUse">
<stop stop-color="#B63AB4"/>
<stop offset="1" stop-color="#513B9F"/>
</linearGradient>
<linearGradient id="paint5_linear_2_1643" x1="6.54069" y1="15.1172" x2="8.33658" y2="16.7163" gradientUnits="userSpaceOnUse">
<stop stop-color="#B63AB4"/>
<stop offset="1" stop-color="#513B9F"/>
</linearGradient>
</defs>
</svg>
