<svg width="32" height="32" viewBox="0 0 32 32" fill="none" xmlns="http://www.w3.org/2000/svg">
<path d="M27.3655 4.63448C33.5448 10.9241 33.5448 21.0759 27.3655 27.3655C21.0759 33.5448 10.9241 33.5448 4.63448 27.3655C-1.54483 21.0759 -1.54483 10.9241 4.63448 4.63448C10.9241 -1.54483 21.0759 -1.54483 27.3655 4.63448ZM26.2621 5.73793C20.6345 0.110345 11.3655 0.110345 5.73793 5.73793C0.110345 11.3655 0.110345 20.6345 5.73793 26.2621C11.3655 32 20.6345 32 26.2621 26.2621C32 20.6345 32 11.3655 26.2621 5.73793Z" fill="url(#paint0_linear_17_1744)"/>
<path d="M9.48968 19.0897L11.1449 21.1862L13.4621 18.4276L15.8897 21.2966L18.4276 18.2069L20.8552 21.0759L22.5104 19.0897L23.6138 19.9724L20.8552 23.2828L18.4276 20.4138L15.8897 23.5035L13.4621 20.7448L11.1449 23.3931L8.38623 20.0828L9.48968 19.0897Z" fill="url(#paint1_linear_17_1744)"/>
<path d="M12.3587 10.2621L8.49659 14.1241L4.63452 10.2621L5.62762 9.26895L8.49659 12.0276L11.2552 9.26895L12.3587 10.2621Z" fill="url(#paint2_linear_17_1744)"/>
<path d="M19.4207 10.2621L23.2827 14.1241L27.1448 10.2621L26.0413 9.26895L23.2827 12.0276L20.4138 9.26895L19.4207 10.2621Z" fill="url(#paint3_linear_17_1744)"/>
<defs>
<linearGradient id="paint0_linear_17_1744" x1="2.8" y1="-1.46508e-06" x2="36.7607" y2="8.14125" gradientUnits="userSpaceOnUse">
<stop stop-color="#B63AB4"/>
<stop offset="1" stop-color="#513B9F"/>
</linearGradient>
<linearGradient id="paint1_linear_17_1744" x1="9.71864" y1="18.2069" x2="21.3045" y2="26.192" gradientUnits="userSpaceOnUse">
<stop stop-color="#B63AB4"/>
<stop offset="1" stop-color="#513B9F"/>
</linearGradient>
<linearGradient id="paint2_linear_17_1744" x1="5.31038" y1="9.26895" x2="12.8781" y2="12.1552" gradientUnits="userSpaceOnUse">
<stop stop-color="#B63AB4"/>
<stop offset="1" stop-color="#513B9F"/>
</linearGradient>
<linearGradient id="paint3_linear_17_1744" x1="20.0965" y1="9.26895" x2="27.6643" y2="12.1552" gradientUnits="userSpaceOnUse">
<stop stop-color="#B63AB4"/>
<stop offset="1" stop-color="#513B9F"/>
</linearGradient>
</defs>
</svg>
