<svg width="32" height="32" viewBox="0 0 32 32" fill="none" xmlns="http://www.w3.org/2000/svg">
<g clip-path="url(#clip0_8995_1879)">
<path d="M31.7202 23.12C31.7202 23.12 31.6802 23.08 31.6802 23.03C31.6802 23.03 31.6802 22.99 31.6402 22.99C31.4702 22.77 31.1602 22.64 30.4702 22.3C27.8702 21.13 21.0302 18.06 20.1602 9.00005V8.96005C20.0702 8.44005 19.6802 8.05005 19.2102 7.92005C18.7302 7.79005 18.2102 7.96005 17.9102 8.35005C16.7402 9.82005 14.6202 11.47 12.4102 11.3C10.6802 11.17 9.16024 9.96005 7.91024 7.71005C7.61024 7.15005 7.00024 6.80005 6.31024 6.80005C5.40024 6.80005 4.53024 7.28005 4.06024 8.10005C3.67024 8.88005 3.11024 9.75005 2.54024 10.61C2.06024 11.39 1.54024 12.17 1.15024 12.86L0.240241 14.42C-0.0597589 14.98 -0.149759 15.63 0.0702411 16.24C0.240241 16.85 0.630241 17.32 1.15024 17.58C1.37024 17.71 3.53024 19.01 13.6202 24.81C18.2502 27.5 21.8102 28.0201 26.4002 28.0201C29.1302 28.0201 30.9002 27.33 31.6802 25.9C32.2902 24.86 32.0302 23.69 31.7202 23.13V23.12ZM5.22024 8.74005C5.44024 8.39005 5.87024 8.18005 6.26024 8.18005C6.56024 8.18005 6.65024 8.35005 6.69024 8.40005C8.21024 11.04 10.0702 12.51 12.2802 12.69C14.9702 12.91 17.4302 11.13 18.8602 9.35005C19.8602 18.79 27.0502 22.26 29.7302 23.47C28.9902 23.82 27.9102 24.21 26.6102 24.25C21.5402 24.42 17.4302 21.82 13.8302 19.53L13.5302 19.31C11.2302 17.92 6.38024 15.07 2.70024 12.94C3.00024 12.42 3.35024 11.86 3.70024 11.29C4.26024 10.42 4.83024 9.51005 5.22024 8.73005V8.74005ZM26.4002 26.67C21.9402 26.67 18.6902 26.19 14.3202 23.64C3.79024 17.66 1.88024 16.45 1.84024 16.45L1.80024 16.41C1.58024 16.28 1.41024 16.11 1.37024 15.85C1.28024 15.59 1.33024 15.33 1.46024 15.11L2.02024 14.11C5.70024 16.28 10.5502 19.09 12.8002 20.48L13.1002 20.7C16.7802 23.04 20.9002 25.64 26.1402 25.64H26.6602C28.4402 25.6 29.8702 24.99 30.6902 24.51C30.6902 24.77 30.6502 25.0301 30.4702 25.2901C29.9502 26.2001 28.5602 26.68 26.4002 26.68V26.67Z" fill="url(#paint0_linear_8995_1879)"/>
</g>
<defs>
<linearGradient id="paint0_linear_8995_1879" x1="2.75715" y1="6.80005" x2="34.5962" y2="18.3468" gradientUnits="userSpaceOnUse">
<stop stop-color="#B63AB4"/>
<stop offset="1" stop-color="#513B9F"/>
</linearGradient>
<clipPath id="clip0_8995_1879">
<rect width="32" height="32" fill="white"/>
</clipPath>
</defs>
</svg>
