<svg width="32" height="32" viewBox="0 0 32 32" fill="none" xmlns="http://www.w3.org/2000/svg">
<path d="M22.1637 11.4116C22.1534 11.403 22.1409 11.4 22.1293 11.3927C22.1102 11.3799 22.092 11.3686 22.0708 11.3604C22.0514 11.3524 22.0322 11.3478 22.0117 11.3439C21.9909 11.3399 21.9704 11.3369 21.9493 11.3369C21.9281 11.3369 21.9076 11.3399 21.8868 11.3439C21.8664 11.3478 21.8475 11.3524 21.8277 11.3604C21.8069 11.3686 21.7887 11.3799 21.7696 11.3927C21.7583 11.4 21.7454 11.403 21.7352 11.4119C15.9294 16.3568 13.517 22.1706 15.2815 26.9629C16.3905 29.9758 19.0701 32 21.9496 32C24.8281 32 27.507 29.9761 28.6164 26.9642C30.3812 22.1716 27.9692 16.3571 22.1637 11.4116ZM27.9963 26.7359C26.9827 29.4895 24.5526 31.3396 21.9496 31.3396C19.346 31.3396 16.9155 29.4888 15.9013 26.7349C14.258 22.2717 16.5194 16.817 21.9496 12.1014C27.3792 16.8177 29.6395 22.2723 27.9963 26.7359Z" fill="url(#paint0_linear_8995_33074)"/>
<path d="M21.6191 29.0734C21.6191 29.2561 21.7668 29.4037 21.9495 29.4037C24.6407 29.4037 26.8303 26.699 26.8303 23.3746C26.8303 23.1919 26.6827 23.0442 26.5 23.0442C26.3173 23.0442 26.1696 23.1919 26.1696 23.3746C26.1696 26.3346 24.2766 28.743 21.9495 28.743C21.7668 28.743 21.6191 28.8907 21.6191 29.0734Z" fill="url(#paint1_linear_8995_33074)"/>
<path d="M6.55584 15.8562C6.54526 15.8472 6.53238 15.8443 6.52148 15.837C6.50232 15.8244 6.48415 15.8132 6.46366 15.805C6.44384 15.797 6.42468 15.7924 6.4042 15.7884C6.38338 15.7845 6.3629 15.7815 6.34176 15.7815C6.32062 15.7815 6.30046 15.7845 6.27965 15.7884C6.25884 15.7924 6.23968 15.797 6.21985 15.805C6.19904 15.8132 6.18087 15.8248 6.16204 15.8373C6.15081 15.8446 6.13792 15.8476 6.12768 15.8565C2.7084 18.7683 1.29179 22.2028 2.33773 25.044C3.00209 26.8484 4.61097 28.0609 6.34176 28.0609C8.07155 28.0609 9.6801 26.8487 10.3445 25.0446C11.3907 22.2035 9.97413 18.7687 6.55584 15.8562ZM9.72437 24.816C9.15515 26.3618 7.7957 27.3998 6.34143 27.3998C4.8865 27.3998 3.52671 26.3611 2.95749 24.8153C2.03313 22.3046 3.30041 19.2312 6.34143 16.5499C9.38211 19.2318 10.6487 22.3056 9.72437 24.816Z" fill="url(#paint2_linear_8995_33074)"/>
<path d="M6.01074 26.222C6.01074 26.4047 6.15875 26.5524 6.34111 26.5524C7.98104 26.5524 9.31506 24.9191 9.31506 22.9114C9.31506 22.7287 9.16705 22.5811 8.98469 22.5811C8.80233 22.5811 8.65433 22.7287 8.65433 22.9114C8.65433 24.555 7.61665 25.8916 6.34111 25.8916C6.15875 25.8916 6.01074 26.0397 6.01074 26.222Z" fill="url(#paint3_linear_8995_33074)"/>
<path d="M18.12 12.0666C19.4827 8.36552 17.628 3.88312 13.1585 0.074993C13.1483 0.0660731 13.1354 0.0630998 13.1242 0.0558318C13.1053 0.0432779 13.0868 0.0317151 13.0664 0.0234559C13.0465 0.0155272 13.027 0.0105717 13.0066 0.00693769C12.9857 0.00264293 12.9656 0 12.9441 0C12.923 0 12.9028 0.0029733 12.882 0.00693769C12.8612 0.0109021 12.8417 0.0155272 12.8219 0.0234559C12.8011 0.0317151 12.7829 0.0432779 12.7641 0.0555014C12.7528 0.0627695 12.74 0.0657428 12.7297 0.0746626C8.25987 3.88279 6.40421 8.36486 7.76663 12.0656C8.62691 14.4023 10.7075 15.9722 12.9441 15.9722C15.1797 15.9722 17.26 14.4026 18.12 12.0666ZM12.9441 15.3115C10.9831 15.3115 9.15186 13.9153 8.38673 11.8373C7.14588 8.4676 8.85222 4.34662 12.9441 0.769421C17.0354 4.34695 18.741 8.46826 17.4999 11.8383C16.7351 13.9157 14.9042 15.3115 12.9441 15.3115Z" fill="url(#paint4_linear_8995_33074)"/>
<path d="M16.4277 8.9624C16.245 8.9624 16.0973 9.11041 16.0973 9.29277C16.0973 11.5158 14.683 13.3249 12.9446 13.3249C12.7623 13.3249 12.6143 13.4729 12.6143 13.6552C12.6143 13.8376 12.7623 13.9856 12.9446 13.9856C15.0474 13.9856 16.758 11.8805 16.758 9.29277C16.758 9.11041 16.6104 8.9624 16.4277 8.9624Z" fill="url(#paint5_linear_8995_33074)"/>
<defs>
<linearGradient id="paint0_linear_8995_33074" x1="15.9808" y1="11.3369" x2="31.7732" y2="13.9878" gradientUnits="userSpaceOnUse">
<stop stop-color="#B63AB4"/>
<stop offset="1" stop-color="#513B9F"/>
</linearGradient>
<linearGradient id="paint1_linear_8995_33074" x1="22.0751" y1="23.0442" x2="27.7061" y2="24.1503" gradientUnits="userSpaceOnUse">
<stop stop-color="#B63AB4"/>
<stop offset="1" stop-color="#513B9F"/>
</linearGradient>
<linearGradient id="paint2_linear_8995_33074" x1="2.75971" y1="15.7815" x2="12.2315" y2="17.387" gradientUnits="userSpaceOnUse">
<stop stop-color="#B63AB4"/>
<stop offset="1" stop-color="#513B9F"/>
</linearGradient>
<linearGradient id="paint3_linear_8995_33074" x1="6.29987" y1="22.5811" x2="9.86628" y2="23.2924" gradientUnits="userSpaceOnUse">
<stop stop-color="#B63AB4"/>
<stop offset="1" stop-color="#513B9F"/>
</linearGradient>
<linearGradient id="paint4_linear_8995_33074" x1="8.31081" y1="-7.31267e-07" x2="20.5663" y2="2.06579" gradientUnits="userSpaceOnUse">
<stop stop-color="#B63AB4"/>
<stop offset="1" stop-color="#513B9F"/>
</linearGradient>
<linearGradient id="paint5_linear_8995_33074" x1="12.9768" y1="8.9624" x2="17.4522" y2="9.84743" gradientUnits="userSpaceOnUse">
<stop stop-color="#B63AB4"/>
<stop offset="1" stop-color="#513B9F"/>
</linearGradient>
</defs>
</svg>
