<svg width="32" height="32" viewBox="0 0 32 32" fill="none" xmlns="http://www.w3.org/2000/svg">
<g clip-path="url(#clip0_8995_33205)">
<path d="M6.12957 15.1901H11.1296C11.5196 15.1901 11.8396 15.5101 11.8396 15.9001C11.8396 16.2901 11.5196 16.6101 11.1296 16.6101H6.12957C5.73957 16.6101 5.41957 16.2901 5.41957 15.9001C5.41957 15.5101 5.73957 15.1901 6.12957 15.1901ZM21.1196 16.6201H26.1196C26.5096 16.6201 26.8296 16.3001 26.8296 15.9101C26.8296 15.5201 26.5096 15.2001 26.1196 15.2001H21.1196C20.7296 15.2001 20.4096 15.5201 20.4096 15.9101C20.4096 16.3001 20.7296 16.6201 21.1196 16.6201ZM16.1196 -0.149912C13.6196 -0.149912 11.2696 0.420088 9.15957 1.46009C9.44957 2.25009 10.1196 2.82009 10.9396 3.03009C12.5496 2.35009 14.2896 2.00009 16.1096 2.00009C23.7796 2.00009 30.0296 8.24009 30.0296 15.9201C30.0296 23.6001 23.7896 29.8401 16.1096 29.8401C8.42957 29.8401 2.20957 23.5801 2.20957 15.9101C2.20957 14.0901 2.56957 12.3401 3.20957 10.7401C3.02957 9.92009 2.41957 9.24009 1.63957 8.96009C0.63957 11.0501 0.0695703 13.4101 0.0695703 15.9101C0.0695703 24.7601 7.26957 31.9601 16.1196 31.9601C24.9696 31.9601 32.1796 24.7501 32.1796 15.9001C32.1796 7.05009 24.9696 -0.149912 16.1196 -0.149912ZM12.1996 21.9701C11.8096 21.9701 11.4896 22.2901 11.4896 22.6801C11.4896 23.0701 11.8096 23.3901 12.1996 23.3901H20.0496C20.4396 23.3901 20.7596 23.0701 20.7596 22.6801C20.7596 22.2901 20.4396 21.9701 20.0496 21.9701H12.1996ZM0.77957 5.56009C1.23957 5.56009 1.70957 5.49009 2.13957 5.38009C3.77957 4.92009 5.09957 3.60009 5.56957 1.95009C5.70957 1.49009 5.77957 1.02009 5.77957 0.560088C5.77957 0.350088 5.66957 0.130088 5.52957 0.0200879C5.38957 -0.0899121 5.23957 -0.159912 5.06957 -0.159912C4.67957 -0.159912 4.35957 0.160088 4.35957 0.550088C4.35957 2.51009 2.74957 4.12009 0.78957 4.12009C0.39957 4.12009 0.0795703 4.44009 0.0795703 4.83009C0.0795703 5.01009 0.14957 5.15009 0.25957 5.29009C0.36957 5.43009 0.57957 5.54009 0.79957 5.54009L0.77957 5.56009ZM0.77957 7.70009C2.73957 7.70009 4.34957 9.31009 4.34957 11.2701C4.34957 11.6601 4.66957 11.9801 5.05957 11.9801C5.23957 11.9801 5.37957 11.9101 5.51957 11.8001C5.65957 11.6601 5.76957 11.4801 5.76957 11.2601C5.76957 10.8001 5.69957 10.3301 5.58957 9.90009C4.97957 7.79009 3.05957 6.26009 0.76957 6.26009C0.37957 6.26009 0.0595703 6.58009 0.0595703 6.97009C0.0595703 7.36009 0.37957 7.68009 0.76957 7.68009L0.77957 7.70009ZM10.1296 5.38009C10.5596 5.49009 11.0196 5.56009 11.4896 5.56009C11.6996 5.56009 11.9196 5.45009 12.0296 5.31009C12.1396 5.20009 12.2096 5.02009 12.2096 4.85009C12.2096 4.46009 11.8896 4.14009 11.4996 4.14009C9.53957 4.14009 7.92957 2.53009 7.92957 0.570088C7.92957 0.180088 7.60957 -0.139912 7.21957 -0.139912C6.82957 -0.139912 6.50957 0.180088 6.50957 0.570088C6.50957 2.85009 8.03957 4.78009 10.1496 5.39009L10.1296 5.38009ZM7.19957 11.9801C7.58957 11.9801 7.90957 11.6601 7.90957 11.2701C7.90957 9.31009 9.51957 7.70009 11.4796 7.70009C11.8696 7.70009 12.1896 7.38009 12.1896 6.99009C12.1896 6.60009 11.8696 6.28009 11.4796 6.28009C8.72957 6.28009 6.47957 8.53009 6.47957 11.2801C6.47957 11.6701 6.79957 11.9901 7.18957 11.9901L7.19957 11.9801Z" fill="url(#paint0_linear_8995_33205)"/>
</g>
<defs>
<linearGradient id="paint0_linear_8995_33205" x1="2.87007" y1="-0.159914" x2="36.9581" y2="8.01187" gradientUnits="userSpaceOnUse">
<stop stop-color="#B63AB4"/>
<stop offset="1" stop-color="#513B9F"/>
</linearGradient>
<clipPath id="clip0_8995_33205">
<rect width="32" height="32" fill="white"/>
</clipPath>
</defs>
</svg>
