<svg width="32" height="32" viewBox="0 0 32 32" fill="none" xmlns="http://www.w3.org/2000/svg">
<g clip-path="url(#clip0_47_5684)">
<path d="M12.9692 32.3325C12.8451 32.3322 12.7251 32.2877 12.6307 32.2069C12.5364 32.1262 12.4738 32.0146 12.4542 31.892C12.2477 30.589 12.0217 28.0918 12.8351 26.003C13.0363 25.4907 13.336 25.0374 13.6861 24.513C13.8698 24.2367 14.0596 23.9517 14.2594 23.6225C14.332 23.5056 14.4478 23.4221 14.5816 23.3901C14.7154 23.3581 14.8564 23.3802 14.974 23.4515C15.0917 23.5229 15.1764 23.6378 15.2098 23.7712C15.2433 23.9047 15.2227 24.0459 15.1526 24.1643C14.9414 24.5123 14.7362 24.8201 14.5551 25.0917C14.2259 25.5852 13.9664 25.9748 13.8088 26.3812C13.2797 27.7405 13.1617 29.6891 13.4856 31.7283C13.4964 31.7961 13.4937 31.8653 13.4777 31.932C13.4618 31.9987 13.4328 32.0615 13.3925 32.117C13.3522 32.1725 13.3014 32.2195 13.2429 32.2554C13.1844 32.2912 13.1194 32.3151 13.0517 32.3258C13.0244 32.3304 12.9969 32.3326 12.9692 32.3325Z" fill="url(#paint0_linear_47_5684)"/>
<path d="M29.4842 32.4172C29.3494 32.4171 29.2198 32.3648 29.1227 32.2713C29.0255 32.1778 28.9684 32.0503 28.9632 31.9156L28.7392 26.2117C28.7365 26.1325 28.7514 26.0538 28.7828 25.981C31.1707 20.5414 29.3467 13.831 29.3273 13.7639C29.3017 13.6712 29.3021 13.5733 29.3283 13.4809C29.3546 13.3884 29.4057 13.3049 29.4762 13.2395C32.3952 10.5478 30.4753 7.41024 28.2591 4.42687C26.4324 1.9652 25.6278 -0.207447 25.5915 -0.298645C25.568 -0.363017 25.5573 -0.431399 25.5602 -0.499886C25.5631 -0.568373 25.5794 -0.635624 25.6083 -0.697799C25.6371 -0.759973 25.678 -0.815855 25.7284 -0.862252C25.7789 -0.908649 25.838 -0.944654 25.9024 -0.96821C25.9667 -0.991767 26.0351 -1.00241 26.1036 -0.999542C26.1721 -0.996671 26.2393 -0.980338 26.3015 -0.951477C26.3637 -0.922616 26.4196 -0.881791 26.466 -0.831333C26.5124 -0.780875 26.5484 -0.721773 26.5719 -0.657401C26.58 -0.636613 27.3632 1.47099 29.0946 3.80123C30.7885 6.07714 33.9066 10.2769 30.4116 13.786C30.7144 15.0868 30.9113 16.4099 31.0004 17.7424C31.1566 19.9928 31.0674 23.2914 29.7873 26.2895L30.0066 31.8747C30.0118 32.013 29.962 32.1478 29.8679 32.2494C29.7739 32.351 29.6433 32.4111 29.505 32.4165L29.4842 32.4172Z" fill="url(#paint1_linear_47_5684)"/>
<path d="M15.3607 5.9509C15.3382 5.951 15.3158 5.94943 15.2936 5.9462C15.2255 5.93752 15.1599 5.91549 15.1003 5.88138C15.0408 5.84728 14.9886 5.80177 14.9467 5.74745C14.9047 5.69314 14.8739 5.63108 14.856 5.56485C14.8381 5.49862 14.8335 5.4295 14.8423 5.36147C15.3151 1.69009 16.5717 -0.284742 16.6254 -0.367222C16.7024 -0.47947 16.8202 -0.557205 16.9537 -0.58387C17.0872 -0.610536 17.2259 -0.584026 17.3401 -0.509986C17.4544 -0.435946 17.5352 -0.320226 17.5654 -0.187473C17.5956 -0.0547191 17.5728 0.0845779 17.5018 0.200752C17.4904 0.218187 16.3176 2.07835 15.8777 5.49826C15.8609 5.62353 15.7993 5.73847 15.7042 5.82172C15.6091 5.90497 15.487 5.95087 15.3607 5.9509Z" fill="url(#paint2_linear_47_5684)"/>
<path d="M16.98 19.646C16.9001 19.6464 16.8213 19.6284 16.7495 19.5935C16.6777 19.5587 16.6149 19.5078 16.5658 19.4449C16.5167 19.382 16.4827 19.3086 16.4664 19.2305C16.4501 19.1524 16.4519 19.0715 16.4717 18.9942C16.937 17.1964 16.5629 15.1049 16.1659 12.8853C16.0901 12.4595 16.011 12.0189 15.9372 11.5744C15.9193 11.4399 15.9543 11.3038 16.0349 11.1947C16.1155 11.0856 16.2353 11.0122 16.3691 10.9899C16.5029 10.9676 16.6401 10.9982 16.7517 11.0752C16.8633 11.1523 16.9406 11.2697 16.9672 11.4027C17.0403 11.8406 17.1181 12.2785 17.1939 12.7016C17.6116 15.0338 18.0053 17.2373 17.4822 19.2564C17.4531 19.3676 17.3881 19.4661 17.2973 19.5365C17.2064 19.607 17.0949 19.6455 16.98 19.646Z" fill="url(#paint3_linear_47_5684)"/>
<path d="M14.706 24.4158C14.6314 24.4157 14.5578 24.3998 14.4899 24.369C14.4221 24.3383 14.3615 24.2934 14.3123 24.2375L10.7208 20.1242C10.6804 20.0775 10.6484 20.0242 10.6262 19.9666L7.79438 12.544C7.44971 11.6408 7.75683 10.6477 8.57627 10.0146L8.58565 10.0073L18.1815 2.92671C18.2932 2.84882 18.4308 2.81758 18.5651 2.83964C18.6995 2.86171 18.8199 2.93534 18.9007 3.04486C18.9816 3.15438 19.0165 3.29113 18.998 3.426C18.9795 3.56087 18.9091 3.68319 18.8018 3.76694L9.21264 10.8441C8.76201 11.1949 8.59303 11.7031 8.77207 12.1712L11.571 19.5072L14.5504 22.9191C14.9655 21.9931 15.4738 21.1387 16.2536 20.6647C16.297 20.6383 16.344 20.6184 16.3931 20.6056L18.5336 20.0484C18.7629 19.8901 18.8957 19.5891 18.8588 19.4147C18.8521 19.3832 18.8333 19.2947 18.6254 19.2558L16.2852 19.8372C16.2087 19.8565 16.1289 19.8581 16.0518 19.8419L13.676 19.3416C13.5729 19.3201 13.4787 19.2678 13.4059 19.1916C13.3331 19.1155 13.2851 19.0191 13.2683 18.9151L12.2698 12.8009C12.2499 12.6786 12.2742 12.5532 12.3382 12.4471C12.4021 12.341 12.5017 12.261 12.6191 12.2215L20.3502 9.63309C20.4803 9.59346 20.6208 9.60619 20.7418 9.66858C20.8627 9.73096 20.9545 9.83808 20.9977 9.96713C21.0409 10.0962 21.032 10.237 20.9729 10.3596C20.9138 10.4822 20.8092 10.5769 20.6814 10.6235L13.3722 13.0711L14.2439 18.3934L16.1524 18.7958L18.4732 18.2191C18.5315 18.2045 18.5919 18.2002 18.6516 18.2063C19.3054 18.2734 19.7661 18.6429 19.8834 19.1995C20.0216 19.8566 19.6427 20.6258 19.0016 20.9892C18.962 21.0116 18.9196 21.0287 18.8756 21.0402L16.7378 21.5961C16.0511 22.0554 15.5978 23.0774 15.1955 24.0879C15.1623 24.1709 15.1083 24.244 15.0388 24.3003C14.9693 24.3565 14.8866 24.394 14.7985 24.4091C14.7679 24.4139 14.7369 24.4162 14.706 24.4158Z" fill="url(#paint4_linear_47_5684)"/>
<path d="M29.2609 26.7133H13.3201C13.2515 26.7133 13.1835 26.6998 13.1202 26.6735C13.0568 26.6473 12.9992 26.6088 12.9507 26.5603C12.9022 26.5118 12.8637 26.4542 12.8375 26.3908C12.8112 26.3275 12.7977 26.2595 12.7977 26.1909C12.7977 26.1223 12.8112 26.0544 12.8375 25.991C12.8637 25.9276 12.9022 25.8701 12.9507 25.8216C12.9992 25.773 13.0568 25.7346 13.1202 25.7083C13.1835 25.6821 13.2515 25.6686 13.3201 25.6686H29.2609C29.3994 25.6686 29.5323 25.7236 29.6303 25.8216C29.7282 25.9195 29.7833 26.0524 29.7833 26.1909C29.7833 26.3295 29.7282 26.4623 29.6303 26.5603C29.5323 26.6583 29.3994 26.7133 29.2609 26.7133Z" fill="url(#paint5_linear_47_5684)"/>
<path d="M5.78891 22.8078C5.71591 22.8078 5.64372 22.7925 5.57701 22.7629L0.311016 20.4226C0.199759 20.3734 0.109157 20.287 0.0548674 20.1782C0.000578023 20.0694 -0.0139867 19.945 0.0136906 19.8266C0.0413679 19.7081 0.109548 19.6031 0.206447 19.5296C0.303346 19.4561 0.422874 19.4188 0.544375 19.4241L3.37418 19.5401L3.37016 16.8068C3.37007 16.7134 3.39504 16.6217 3.44247 16.5412C3.4899 16.4607 3.55805 16.3944 3.63982 16.3492C3.72159 16.304 3.81399 16.2815 3.90739 16.2842C4.00078 16.2868 4.09175 16.3145 4.17082 16.3643L9.67889 19.8358C9.7806 19.9002 9.85694 19.9978 9.895 20.112C9.93305 20.2262 9.93049 20.3501 9.88775 20.4626C9.845 20.5752 9.76469 20.6695 9.66041 20.7296C9.55613 20.7898 9.43427 20.8121 9.31544 20.7927L6.15236 20.2683L6.30994 22.2438C6.31559 22.3157 6.3063 22.3879 6.28267 22.456C6.25905 22.5241 6.22159 22.5865 6.17265 22.6395C6.12371 22.6924 6.06436 22.7346 5.99831 22.7634C5.93227 22.7923 5.86098 22.8078 5.78891 22.8078ZM3.23672 20.5795L5.19948 21.4512L5.05866 19.6856C5.05235 19.6068 5.06405 19.5275 5.09287 19.4539C5.12169 19.3802 5.16688 19.3141 5.22502 19.2605C5.28315 19.2069 5.35272 19.1672 5.42845 19.1444C5.50419 19.1216 5.58411 19.1164 5.66217 19.129L6.93626 19.3396L4.41826 17.753V20.0833C4.41803 20.1532 4.40377 20.2223 4.37631 20.2866C4.34886 20.351 4.30877 20.4091 4.25843 20.4576C4.20809 20.5061 4.14852 20.5441 4.08325 20.5691C4.01798 20.5942 3.94834 20.6059 3.87845 20.6036L3.23672 20.5795Z" fill="url(#paint6_linear_47_5684)"/>
<path d="M4.22436 31.3998C4.12531 31.3997 4.02833 31.3715 3.94473 31.3184C3.86112 31.2653 3.79434 31.1895 3.75217 31.0999C3.70999 31.0102 3.69417 30.9105 3.70653 30.8122C3.7189 30.7139 3.75895 30.6212 3.82202 30.5448L5.62652 28.3621L3.44784 26.7125C3.37344 26.6559 3.3156 26.5804 3.28035 26.4938C3.2451 26.4072 3.23373 26.3127 3.24743 26.2203C3.26113 26.1278 3.2994 26.0407 3.35824 25.968C3.41708 25.8954 3.49434 25.8399 3.58195 25.8072L9.67945 23.5233C9.79227 23.4813 9.91612 23.4796 10.0301 23.5184C10.144 23.5573 10.241 23.6342 10.3047 23.7364C10.3685 23.8385 10.395 23.9595 10.3797 24.0789C10.3645 24.1983 10.3086 24.3088 10.2213 24.3917L7.88836 26.5952L9.5554 27.6647C9.63158 27.7136 9.69374 27.7815 9.73581 27.8616C9.77787 27.9417 9.79838 28.0314 9.79534 28.1219C9.7923 28.2124 9.7658 28.3005 9.71845 28.3776C9.6711 28.4548 9.60451 28.5183 9.52522 28.5619L4.47582 31.3361C4.39872 31.3782 4.31221 31.4001 4.22436 31.3998ZM4.83391 26.4517L6.69139 27.8599C6.74745 27.9025 6.79433 27.956 6.82922 28.0171C6.86411 28.0783 6.88629 28.1459 6.89443 28.2158C6.90257 28.2858 6.89651 28.3566 6.8766 28.4242C6.85669 28.4917 6.82334 28.5545 6.77856 28.6089L6.36884 29.1044L8.25114 28.0697L6.76113 27.1128C6.69439 27.0701 6.63828 27.0126 6.59705 26.9449C6.55582 26.8772 6.53056 26.801 6.52319 26.7221C6.51582 26.6432 6.52654 26.5636 6.55452 26.4894C6.5825 26.4153 6.62702 26.3485 6.68468 26.2941L7.62348 25.4083L4.83391 26.4517Z" fill="url(#paint7_linear_47_5684)"/>
<path d="M12.9692 32.3325C12.8451 32.3322 12.7251 32.2877 12.6307 32.2069C12.5364 32.1262 12.4738 32.0146 12.4542 31.892C12.2477 30.589 12.0217 28.0918 12.8351 26.003C13.0363 25.4907 13.336 25.0374 13.6861 24.513C13.8698 24.2367 14.0596 23.9517 14.2594 23.6225C14.332 23.5056 14.4478 23.4221 14.5816 23.3901C14.7154 23.3581 14.8564 23.3802 14.974 23.4515C15.0917 23.5229 15.1764 23.6378 15.2098 23.7712C15.2433 23.9047 15.2227 24.0459 15.1526 24.1643C14.9414 24.5123 14.7362 24.8201 14.5551 25.0917C14.2259 25.5852 13.9664 25.9748 13.8088 26.3812C13.2797 27.7405 13.1617 29.6891 13.4856 31.7283C13.4964 31.7961 13.4937 31.8653 13.4777 31.932C13.4618 31.9987 13.4328 32.0615 13.3925 32.117C13.3522 32.1725 13.3014 32.2195 13.2429 32.2554C13.1844 32.2912 13.1194 32.3151 13.0517 32.3258C13.0244 32.3304 12.9969 32.3326 12.9692 32.3325Z" stroke="url(#paint8_linear_47_5684)" stroke-width="0.5"/>
<path d="M29.4842 32.4172C29.3494 32.4171 29.2198 32.3648 29.1227 32.2713C29.0255 32.1778 28.9684 32.0503 28.9632 31.9156L28.7392 26.2117C28.7365 26.1325 28.7514 26.0538 28.7828 25.981C31.1707 20.5414 29.3467 13.831 29.3273 13.7639C29.3017 13.6712 29.3021 13.5733 29.3283 13.4809C29.3546 13.3884 29.4057 13.3049 29.4762 13.2395C32.3952 10.5478 30.4753 7.41024 28.2591 4.42687C26.4324 1.9652 25.6278 -0.207447 25.5915 -0.298645C25.568 -0.363017 25.5573 -0.431399 25.5602 -0.499886C25.5631 -0.568373 25.5794 -0.635624 25.6083 -0.697799C25.6371 -0.759973 25.678 -0.815855 25.7284 -0.862252C25.7789 -0.908649 25.838 -0.944654 25.9024 -0.96821C25.9667 -0.991767 26.0351 -1.00241 26.1036 -0.999542C26.1721 -0.996671 26.2393 -0.980338 26.3015 -0.951477C26.3637 -0.922616 26.4196 -0.881791 26.466 -0.831333C26.5124 -0.780875 26.5484 -0.721773 26.5719 -0.657401C26.58 -0.636613 27.3632 1.47099 29.0946 3.80123C30.7885 6.07714 33.9066 10.2769 30.4116 13.786C30.7144 15.0868 30.9113 16.4099 31.0004 17.7424C31.1566 19.9928 31.0674 23.2914 29.7873 26.2895L30.0066 31.8747C30.0118 32.013 29.962 32.1478 29.8679 32.2494C29.7739 32.351 29.6433 32.4111 29.505 32.4165L29.4842 32.4172Z" stroke="url(#paint9_linear_47_5684)" stroke-width="0.5"/>
<path d="M15.3607 5.9509C15.3382 5.951 15.3158 5.94943 15.2936 5.9462C15.2255 5.93752 15.1599 5.91549 15.1003 5.88138C15.0408 5.84728 14.9886 5.80177 14.9467 5.74745C14.9047 5.69314 14.8739 5.63108 14.856 5.56485C14.8381 5.49862 14.8335 5.4295 14.8423 5.36147C15.3151 1.69009 16.5717 -0.284742 16.6254 -0.367222C16.7024 -0.47947 16.8202 -0.557205 16.9537 -0.58387C17.0872 -0.610536 17.2259 -0.584026 17.3401 -0.509986C17.4544 -0.435946 17.5352 -0.320226 17.5654 -0.187473C17.5956 -0.0547191 17.5728 0.0845779 17.5018 0.200752C17.4904 0.218187 16.3176 2.07835 15.8777 5.49826C15.8609 5.62353 15.7993 5.73847 15.7042 5.82172C15.6091 5.90497 15.487 5.95087 15.3607 5.9509Z" stroke="url(#paint10_linear_47_5684)" stroke-width="0.5"/>
<path d="M16.98 19.646C16.9001 19.6464 16.8213 19.6284 16.7495 19.5935C16.6777 19.5587 16.6149 19.5078 16.5658 19.4449C16.5167 19.382 16.4827 19.3086 16.4664 19.2305C16.4501 19.1524 16.4519 19.0715 16.4717 18.9942C16.937 17.1964 16.5629 15.1049 16.1659 12.8853C16.0901 12.4595 16.011 12.0189 15.9372 11.5744C15.9193 11.4399 15.9543 11.3038 16.0349 11.1947C16.1155 11.0856 16.2353 11.0122 16.3691 10.9899C16.5029 10.9676 16.6401 10.9982 16.7517 11.0752C16.8633 11.1523 16.9406 11.2697 16.9672 11.4027C17.0403 11.8406 17.1181 12.2785 17.1939 12.7016C17.6116 15.0338 18.0053 17.2373 17.4822 19.2564C17.4531 19.3676 17.3881 19.4661 17.2973 19.5365C17.2064 19.607 17.0949 19.6455 16.98 19.646Z" stroke="url(#paint11_linear_47_5684)" stroke-width="0.5"/>
<path d="M14.706 24.4158C14.6314 24.4157 14.5578 24.3998 14.4899 24.369C14.4221 24.3383 14.3615 24.2934 14.3123 24.2375L10.7208 20.1242C10.6804 20.0775 10.6484 20.0242 10.6262 19.9666L7.79438 12.544C7.44971 11.6408 7.75683 10.6477 8.57627 10.0146L8.58565 10.0073L18.1815 2.92671C18.2932 2.84882 18.4308 2.81758 18.5651 2.83964C18.6995 2.86171 18.8199 2.93534 18.9007 3.04486C18.9816 3.15438 19.0165 3.29113 18.998 3.426C18.9795 3.56087 18.9091 3.68319 18.8018 3.76694L9.21264 10.8441C8.76201 11.1949 8.59303 11.7031 8.77207 12.1712L11.571 19.5072L14.5504 22.9191C14.9655 21.9931 15.4738 21.1387 16.2536 20.6647C16.297 20.6383 16.344 20.6184 16.3931 20.6056L18.5336 20.0484C18.7629 19.8901 18.8957 19.5891 18.8588 19.4147C18.8521 19.3832 18.8333 19.2947 18.6254 19.2558L16.2852 19.8372C16.2087 19.8565 16.1289 19.8581 16.0518 19.8419L13.676 19.3416C13.5729 19.3201 13.4787 19.2678 13.4059 19.1916C13.3331 19.1155 13.2851 19.0191 13.2683 18.9151L12.2698 12.8009C12.2499 12.6786 12.2742 12.5532 12.3382 12.4471C12.4021 12.341 12.5017 12.261 12.6191 12.2215L20.3502 9.63309C20.4803 9.59346 20.6208 9.60619 20.7418 9.66858C20.8627 9.73096 20.9545 9.83808 20.9977 9.96713C21.0409 10.0962 21.032 10.237 20.9729 10.3596C20.9138 10.4822 20.8092 10.5769 20.6814 10.6235L13.3722 13.0711L14.2439 18.3934L16.1524 18.7958L18.4732 18.2191C18.5315 18.2045 18.5919 18.2002 18.6516 18.2063C19.3054 18.2734 19.7661 18.6429 19.8834 19.1995C20.0216 19.8566 19.6427 20.6258 19.0016 20.9892C18.962 21.0116 18.9196 21.0287 18.8756 21.0402L16.7378 21.5961C16.0511 22.0554 15.5978 23.0774 15.1955 24.0879C15.1623 24.1709 15.1083 24.244 15.0388 24.3003C14.9693 24.3565 14.8866 24.394 14.7985 24.4091C14.7679 24.4139 14.7369 24.4162 14.706 24.4158Z" stroke="url(#paint12_linear_47_5684)" stroke-width="0.5"/>
<path d="M29.2609 26.7133H13.3201C13.2515 26.7133 13.1835 26.6998 13.1202 26.6735C13.0568 26.6473 12.9992 26.6088 12.9507 26.5603C12.9022 26.5118 12.8637 26.4542 12.8375 26.3908C12.8112 26.3275 12.7977 26.2595 12.7977 26.1909C12.7977 26.1223 12.8112 26.0544 12.8375 25.991C12.8637 25.9276 12.9022 25.8701 12.9507 25.8216C12.9992 25.773 13.0568 25.7346 13.1202 25.7083C13.1835 25.6821 13.2515 25.6686 13.3201 25.6686H29.2609C29.3994 25.6686 29.5323 25.7236 29.6303 25.8216C29.7282 25.9195 29.7833 26.0524 29.7833 26.1909C29.7833 26.3295 29.7282 26.4623 29.6303 26.5603C29.5323 26.6583 29.3994 26.7133 29.2609 26.7133Z" stroke="url(#paint13_linear_47_5684)" stroke-width="0.5"/>
<path d="M5.78891 22.8078C5.71591 22.8078 5.64372 22.7925 5.57701 22.7629L0.311016 20.4226C0.199759 20.3734 0.109157 20.287 0.0548674 20.1782C0.000578023 20.0694 -0.0139867 19.945 0.0136906 19.8266C0.0413679 19.7081 0.109548 19.6031 0.206447 19.5296C0.303346 19.4561 0.422874 19.4188 0.544375 19.4241L3.37418 19.5401L3.37016 16.8068C3.37007 16.7134 3.39504 16.6217 3.44247 16.5412C3.4899 16.4607 3.55805 16.3944 3.63982 16.3492C3.72159 16.304 3.81399 16.2815 3.90739 16.2842C4.00078 16.2868 4.09175 16.3145 4.17082 16.3643L9.67889 19.8358C9.7806 19.9002 9.85694 19.9978 9.895 20.112C9.93305 20.2262 9.93049 20.3501 9.88775 20.4626C9.845 20.5752 9.76469 20.6695 9.66041 20.7296C9.55613 20.7898 9.43427 20.8121 9.31544 20.7927L6.15236 20.2683L6.30994 22.2438C6.31559 22.3157 6.3063 22.3879 6.28267 22.456C6.25905 22.5241 6.22159 22.5865 6.17265 22.6395C6.12371 22.6924 6.06436 22.7346 5.99831 22.7634C5.93227 22.7923 5.86098 22.8078 5.78891 22.8078ZM3.23672 20.5795L5.19948 21.4512L5.05866 19.6856C5.05235 19.6068 5.06405 19.5275 5.09287 19.4539C5.12169 19.3802 5.16688 19.3141 5.22502 19.2605C5.28315 19.2069 5.35272 19.1672 5.42845 19.1444C5.50419 19.1216 5.58411 19.1164 5.66217 19.129L6.93626 19.3396L4.41826 17.753V20.0833C4.41803 20.1532 4.40377 20.2223 4.37631 20.2866C4.34886 20.351 4.30877 20.4091 4.25843 20.4576C4.20809 20.5061 4.14852 20.5441 4.08325 20.5691C4.01798 20.5942 3.94834 20.6059 3.87845 20.6036L3.23672 20.5795Z" stroke="url(#paint14_linear_47_5684)" stroke-width="0.5"/>
<path d="M4.22436 31.3998C4.12531 31.3997 4.02833 31.3715 3.94473 31.3184C3.86112 31.2653 3.79434 31.1895 3.75217 31.0999C3.70999 31.0102 3.69417 30.9105 3.70653 30.8122C3.7189 30.7139 3.75895 30.6212 3.82202 30.5448L5.62652 28.3621L3.44784 26.7125C3.37344 26.6559 3.3156 26.5804 3.28035 26.4938C3.2451 26.4072 3.23373 26.3127 3.24743 26.2203C3.26113 26.1278 3.2994 26.0407 3.35824 25.968C3.41708 25.8954 3.49434 25.8399 3.58195 25.8072L9.67945 23.5233C9.79227 23.4813 9.91612 23.4796 10.0301 23.5184C10.144 23.5573 10.241 23.6342 10.3047 23.7364C10.3685 23.8385 10.395 23.9595 10.3797 24.0789C10.3645 24.1983 10.3086 24.3088 10.2213 24.3917L7.88836 26.5952L9.5554 27.6647C9.63158 27.7136 9.69374 27.7815 9.73581 27.8616C9.77787 27.9417 9.79838 28.0314 9.79534 28.1219C9.7923 28.2124 9.7658 28.3005 9.71845 28.3776C9.6711 28.4548 9.60451 28.5183 9.52522 28.5619L4.47582 31.3361C4.39872 31.3782 4.31221 31.4001 4.22436 31.3998ZM4.83391 26.4517L6.69139 27.8599C6.74745 27.9025 6.79433 27.956 6.82922 28.0171C6.86411 28.0783 6.88629 28.1459 6.89443 28.2158C6.90257 28.2858 6.89651 28.3566 6.8766 28.4242C6.85669 28.4917 6.82334 28.5545 6.77856 28.6089L6.36884 29.1044L8.25114 28.0697L6.76113 27.1128C6.69439 27.0701 6.63828 27.0126 6.59705 26.9449C6.55582 26.8772 6.53056 26.801 6.52319 26.7221C6.51582 26.6432 6.52654 26.5636 6.55452 26.4894C6.5825 26.4153 6.62702 26.3485 6.68468 26.2941L7.62348 25.4083L4.83391 26.4517Z" stroke="url(#paint15_linear_47_5684)" stroke-width="0.5"/>
</g>
<defs>
<linearGradient id="paint0_linear_47_5684" x1="2.8" y1="-1" x2="36.9146" y2="6.83133" gradientUnits="userSpaceOnUse">
<stop stop-color="#B63AB4"/>
<stop offset="1" stop-color="#513B9F"/>
</linearGradient>
<linearGradient id="paint1_linear_47_5684" x1="2.8" y1="-1" x2="36.9146" y2="6.83133" gradientUnits="userSpaceOnUse">
<stop stop-color="#B63AB4"/>
<stop offset="1" stop-color="#513B9F"/>
</linearGradient>
<linearGradient id="paint2_linear_47_5684" x1="2.8" y1="-1" x2="36.9146" y2="6.83133" gradientUnits="userSpaceOnUse">
<stop stop-color="#B63AB4"/>
<stop offset="1" stop-color="#513B9F"/>
</linearGradient>
<linearGradient id="paint3_linear_47_5684" x1="2.8" y1="-1" x2="36.9146" y2="6.83133" gradientUnits="userSpaceOnUse">
<stop stop-color="#B63AB4"/>
<stop offset="1" stop-color="#513B9F"/>
</linearGradient>
<linearGradient id="paint4_linear_47_5684" x1="2.8" y1="-1" x2="36.9146" y2="6.83133" gradientUnits="userSpaceOnUse">
<stop stop-color="#B63AB4"/>
<stop offset="1" stop-color="#513B9F"/>
</linearGradient>
<linearGradient id="paint5_linear_47_5684" x1="2.8" y1="-1" x2="36.9146" y2="6.83133" gradientUnits="userSpaceOnUse">
<stop stop-color="#B63AB4"/>
<stop offset="1" stop-color="#513B9F"/>
</linearGradient>
<linearGradient id="paint6_linear_47_5684" x1="2.8" y1="-1" x2="36.9146" y2="6.83133" gradientUnits="userSpaceOnUse">
<stop stop-color="#B63AB4"/>
<stop offset="1" stop-color="#513B9F"/>
</linearGradient>
<linearGradient id="paint7_linear_47_5684" x1="2.8" y1="-1" x2="36.9146" y2="6.83133" gradientUnits="userSpaceOnUse">
<stop stop-color="#B63AB4"/>
<stop offset="1" stop-color="#513B9F"/>
</linearGradient>
<linearGradient id="paint8_linear_47_5684" x1="2.8" y1="-1" x2="36.9146" y2="6.83133" gradientUnits="userSpaceOnUse">
<stop stop-color="#B63AB4"/>
<stop offset="1" stop-color="#513B9F"/>
</linearGradient>
<linearGradient id="paint9_linear_47_5684" x1="2.8" y1="-1" x2="36.9146" y2="6.83133" gradientUnits="userSpaceOnUse">
<stop stop-color="#B63AB4"/>
<stop offset="1" stop-color="#513B9F"/>
</linearGradient>
<linearGradient id="paint10_linear_47_5684" x1="2.8" y1="-1" x2="36.9146" y2="6.83133" gradientUnits="userSpaceOnUse">
<stop stop-color="#B63AB4"/>
<stop offset="1" stop-color="#513B9F"/>
</linearGradient>
<linearGradient id="paint11_linear_47_5684" x1="2.8" y1="-1" x2="36.9146" y2="6.83133" gradientUnits="userSpaceOnUse">
<stop stop-color="#B63AB4"/>
<stop offset="1" stop-color="#513B9F"/>
</linearGradient>
<linearGradient id="paint12_linear_47_5684" x1="2.8" y1="-1" x2="36.9146" y2="6.83133" gradientUnits="userSpaceOnUse">
<stop stop-color="#B63AB4"/>
<stop offset="1" stop-color="#513B9F"/>
</linearGradient>
<linearGradient id="paint13_linear_47_5684" x1="2.8" y1="-1" x2="36.9146" y2="6.83133" gradientUnits="userSpaceOnUse">
<stop stop-color="#B63AB4"/>
<stop offset="1" stop-color="#513B9F"/>
</linearGradient>
<linearGradient id="paint14_linear_47_5684" x1="2.8" y1="-1" x2="36.9146" y2="6.83133" gradientUnits="userSpaceOnUse">
<stop stop-color="#B63AB4"/>
<stop offset="1" stop-color="#513B9F"/>
</linearGradient>
<linearGradient id="paint15_linear_47_5684" x1="2.8" y1="-1" x2="36.9146" y2="6.83133" gradientUnits="userSpaceOnUse">
<stop stop-color="#B63AB4"/>
<stop offset="1" stop-color="#513B9F"/>
</linearGradient>
<clipPath id="clip0_47_5684">
<rect width="32" height="32" fill="white"/>
</clipPath>
</defs>
</svg>
