<svg width="32" height="32" viewBox="0 0 32 32" fill="none" xmlns="http://www.w3.org/2000/svg">
<path d="M10.8138 19.6414C12.2483 20.9655 14.1241 21.6276 16 21.6276C17.8759 21.6276 19.7517 20.9655 21.1862 19.6414L20.4138 18.7586C19.2 19.9724 17.5448 20.5241 16 20.5241C14.4552 20.5241 12.8 19.9724 11.5862 18.7586L10.8138 19.6414Z" fill="url(#paint0_linear_2_1713)"/>
<path d="M27.3655 4.63448C33.5448 10.9241 33.5448 21.0759 27.3655 27.3655C21.0759 33.5448 10.9241 33.5448 4.63448 27.3655C-1.54483 21.0759 -1.54483 10.9241 4.63448 4.63448C10.9241 -1.54483 21.0759 -1.54483 27.3655 4.63448ZM26.2621 5.73793C20.6345 0.110345 11.3655 0.110345 5.73793 5.73793C0.110345 11.3655 0.110345 20.6345 5.73793 26.2621C11.3655 32 20.6345 32 26.2621 26.2621C32 20.6345 32 11.3655 26.2621 5.73793Z" fill="url(#paint1_linear_2_1713)"/>
<path d="M13.2413 12.3586L9.931 15.7793L6.51031 12.3586L7.50342 11.2552L9.931 13.6828L12.2482 11.3655L13.2413 12.3586Z" fill="url(#paint2_linear_2_1713)"/>
<path d="M18.7586 12.3586L22.069 15.7793L25.4896 12.3586L24.4965 11.2552L22.069 13.6828L19.7517 11.3655L18.7586 12.3586Z" fill="url(#paint3_linear_2_1713)"/>
<path d="M10.8138 6.84137L14.5655 10.5931L13.7931 11.3655L9.93103 7.61378L10.8138 6.84137Z" fill="url(#paint4_linear_2_1713)"/>
<path d="M22.0689 7.61378L18.3172 11.3655L17.5448 10.5931L21.2965 6.84137L22.0689 7.61378Z" fill="url(#paint5_linear_2_1713)"/>
<defs>
<linearGradient id="paint0_linear_2_1713" x1="11.7214" y1="18.7586" x2="18.3687" y2="24.5198" gradientUnits="userSpaceOnUse">
<stop stop-color="#B63AB4"/>
<stop offset="1" stop-color="#513B9F"/>
</linearGradient>
<linearGradient id="paint1_linear_2_1713" x1="2.8" y1="-1.46508e-06" x2="36.7607" y2="8.14125" gradientUnits="userSpaceOnUse">
<stop stop-color="#B63AB4"/>
<stop offset="1" stop-color="#513B9F"/>
</linearGradient>
<linearGradient id="paint2_linear_2_1713" x1="7.09928" y1="11.2552" x2="13.8008" y2="13.6454" gradientUnits="userSpaceOnUse">
<stop stop-color="#B63AB4"/>
<stop offset="1" stop-color="#513B9F"/>
</linearGradient>
<linearGradient id="paint3_linear_2_1713" x1="19.3476" y1="11.2552" x2="26.049" y2="13.6454" gradientUnits="userSpaceOnUse">
<stop stop-color="#B63AB4"/>
<stop offset="1" stop-color="#513B9F"/>
</linearGradient>
<linearGradient id="paint4_linear_2_1713" x1="10.3365" y1="6.84137" x2="15.2418" y2="8.04597" gradientUnits="userSpaceOnUse">
<stop stop-color="#B63AB4"/>
<stop offset="1" stop-color="#513B9F"/>
</linearGradient>
<linearGradient id="paint5_linear_2_1713" x1="17.9407" y1="6.84137" x2="22.742" y2="7.99237" gradientUnits="userSpaceOnUse">
<stop stop-color="#B63AB4"/>
<stop offset="1" stop-color="#513B9F"/>
</linearGradient>
</defs>
</svg>
