<svg width="32" height="32" viewBox="0 0 32 32" fill="none" xmlns="http://www.w3.org/2000/svg">
<g clip-path="url(#clip0_8995_33220)">
<path d="M15.9502 -0.0300293C24.7702 -0.0300293 31.9202 7.10997 31.9202 15.93C31.9202 24.75 24.7702 31.89 15.9602 31.89C7.15023 31.89 -0.00976562 24.75 -0.00976562 15.93C-0.00976562 7.10997 7.13023 -0.0300293 15.9502 -0.0300293ZM15.9502 1.64997C8.06023 1.64997 1.67023 8.03997 1.67023 15.93C1.67023 23.82 8.06023 30.21 15.9502 30.21C23.8402 30.21 30.2302 23.82 30.2302 15.93C30.2302 8.03997 23.8402 1.64997 15.9502 1.64997ZM21.7902 17.34C21.9402 17.78 21.7002 18.26 21.2602 18.4C19.9202 18.85 19.3102 19.65 19.3102 20.96C19.3102 21.27 19.4902 21.63 19.9002 22.05C20.2302 22.38 20.2302 22.91 19.9002 23.24C19.5702 23.57 19.0402 23.57 18.7102 23.24C18.1302 22.66 17.7702 22.04 17.6602 21.39C17.2802 21.11 16.7102 20.97 15.9402 20.97C15.1702 20.97 14.6102 21.12 14.2202 21.39C14.1202 22.04 13.7602 22.66 13.1802 23.24C12.8502 23.57 12.3202 23.57 11.9902 23.24C11.6602 22.91 11.6602 22.38 11.9902 22.05C12.4002 21.64 12.5802 21.28 12.5802 20.96C12.5802 19.65 11.9802 18.84 10.6302 18.4C10.1902 18.25 9.95024 17.78 10.1002 17.34C10.2502 16.9 10.7202 16.66 11.1602 16.81C12.6902 17.32 13.6802 18.27 14.0702 19.59C14.6102 19.39 15.2402 19.29 15.9402 19.29C16.6402 19.29 17.2702 19.39 17.8102 19.59C18.1902 18.27 19.1802 17.32 20.7102 16.81C21.1502 16.66 21.6302 16.9 21.7702 17.34H21.7902ZM10.9102 10.05C11.3202 10.05 11.6702 10.35 11.7402 10.74V10.89L11.7502 14.25C11.7502 14.71 11.3702 15.09 10.9102 15.09C10.5002 15.09 10.1502 14.79 10.0802 14.4V14.25L10.0702 10.89C10.0702 10.43 10.4502 10.05 10.9102 10.05ZM20.9902 10.05C21.4002 10.05 21.7502 10.35 21.8202 10.74V10.89L21.8302 14.25C21.8302 14.71 21.4502 15.09 20.9902 15.09C20.5802 15.09 20.2302 14.79 20.1602 14.4V14.25L20.1502 10.89C20.1502 10.43 20.5302 10.05 20.9902 10.05ZM18.0102 5.14997C18.4002 4.88997 18.9202 4.99997 19.1802 5.37997C20.1402 6.81997 21.5502 7.52997 23.5202 7.52997C23.9802 7.52997 24.3602 7.90997 24.3602 8.36997C24.3602 8.82997 23.9802 9.20997 23.5202 9.20997C21.0102 9.20997 19.0602 8.23997 17.7802 6.31997C17.5202 5.92997 17.6302 5.40997 18.0102 5.14997ZM13.9002 5.14997C14.2902 5.40997 14.3902 5.92997 14.1302 6.31997C12.8502 8.23997 10.9002 9.20997 8.39023 9.20997C7.93023 9.20997 7.55023 8.82997 7.55023 8.36997C7.55023 7.90997 7.93023 7.52997 8.39023 7.52997C10.3602 7.52997 11.7702 6.81997 12.7302 5.37997C12.9902 4.98997 13.5102 4.88997 13.9002 5.14997Z" fill="url(#paint0_linear_8995_33220)"/>
</g>
<defs>
<linearGradient id="paint0_linear_8995_33220" x1="2.78411" y1="-0.0300308" x2="36.6693" y2="8.09568" gradientUnits="userSpaceOnUse">
<stop stop-color="#B63AB4"/>
<stop offset="1" stop-color="#513B9F"/>
</linearGradient>
<clipPath id="clip0_8995_33220">
<rect width="32" height="32" fill="white"/>
</clipPath>
</defs>
</svg>
