<svg width="32" height="32" viewBox="0 0 32 32" fill="none" xmlns="http://www.w3.org/2000/svg">
<path d="M16.0104 30.6001C15.7404 30.6001 15.5204 30.5601 15.3004 30.4701C3.09035 25.6001 -1.02965 16.5201 0.300355 9.71008C1.18035 4.93008 4.59036 1.83008 9.02036 1.83008C11.2804 1.83008 13.6704 2.67008 16.0104 4.31008C18.3604 2.72008 20.7504 1.88008 22.9604 1.88008C27.3404 1.88008 30.7504 4.93008 31.7204 9.67008C33.0504 16.4401 28.9304 25.4701 16.7604 30.4301C16.4904 30.5601 16.2304 30.6101 16.0104 30.6101V30.6001ZM9.02036 3.60008C5.52036 3.60008 2.78035 6.12008 2.03035 10.0601C0.830355 16.1701 4.69036 24.3101 15.9704 28.8301H16.1004C27.3004 24.2301 31.1504 16.0801 30.0004 10.0601C29.2004 6.12008 26.5504 3.69008 23.0104 3.69008C21.0204 3.69008 18.8004 4.53008 16.5904 6.12008L15.9704 6.47008L15.4404 6.07008C13.2704 4.48008 11.0604 3.59008 9.02036 3.59008V3.60008Z" fill="url(#paint0_linear_8995_33328)"/>
<path d="M19.8098 12.23C19.4598 11.88 18.9198 11.88 18.5698 12.23L16.0498 14.75L13.5298 12.23C13.1798 11.88 12.6398 11.88 12.2898 12.23C11.9398 12.58 11.9398 13.12 12.2898 13.47L14.8098 15.99L12.2898 18.51C11.9398 18.86 11.9398 19.4 12.2898 19.75C12.4698 19.93 12.6898 20.02 12.9098 20.02C13.1298 20.02 13.3498 19.93 13.5298 19.75L16.0498 17.23L18.5698 19.75C18.7498 19.93 18.9698 20.02 19.1898 20.02C19.4098 20.02 19.6298 19.93 19.8098 19.75C20.1598 19.4 20.1598 18.86 19.8098 18.51L17.2898 15.99L19.8098 13.47C20.1598 13.12 20.1598 12.54 19.8098 12.23Z" fill="url(#paint1_linear_8995_33328)"/>
<defs>
<linearGradient id="paint0_linear_8995_33328" x1="2.85257" y1="1.83008" x2="36.2897" y2="10.7142" gradientUnits="userSpaceOnUse">
<stop stop-color="#B63AB4"/>
<stop offset="1" stop-color="#513B9F"/>
</linearGradient>
<linearGradient id="paint1_linear_8995_33328" x1="12.7313" y1="11.9675" x2="21.2701" y2="14.0126" gradientUnits="userSpaceOnUse">
<stop stop-color="#B63AB4"/>
<stop offset="1" stop-color="#513B9F"/>
</linearGradient>
</defs>
</svg>
