<svg width="32" height="32" viewBox="0 0 32 32" fill="none" xmlns="http://www.w3.org/2000/svg">
<path fill-rule="evenodd" clip-rule="evenodd" d="M16.0021 0C7.17214 0 0 7.16783 0 15.9978C0 24.8279 7.17214 32 16.0021 32C24.8322 32 32 24.8279 32 15.9978C32 7.16783 24.8322 0 16.0021 0ZM16.0021 1.10453C24.2358 1.10453 30.9009 7.76418 30.9009 15.9978C30.9009 24.2315 24.2358 30.8966 16.0021 30.8966C7.76849 30.8966 1.10452 24.2315 1.10452 15.9978C1.10452 7.76418 7.76849 1.10453 16.0021 1.10453ZM16.0021 4.89224C9.87404 4.89224 4.89548 9.86973 4.89547 15.9978C4.89547 18.0518 5.46522 20.0682 6.54095 21.8179C6.58846 21.8931 6.65345 21.9557 6.73038 22.0003C6.80731 22.045 6.8939 22.0704 6.98276 22.0744C6.99493 22.0759 7.00715 22.077 7.01939 22.0777C7.04437 22.0761 7.06921 22.0728 7.09375 22.0679C7.1173 22.0658 7.1407 22.0622 7.16379 22.057C7.17841 22.0515 7.19279 22.0454 7.2069 22.0387C7.23861 22.0279 7.26927 22.0141 7.29849 21.9977C7.33016 21.9782 7.35977 21.9554 7.38685 21.9298C7.39305 21.9253 7.39916 21.9207 7.40516 21.9159L21.8987 7.41803C21.9061 7.41105 21.9133 7.40386 21.9203 7.39647C21.9442 7.3723 21.9658 7.34597 21.9849 7.31782C21.9905 7.31148 21.9959 7.30501 22.0012 7.29842C22.0395 7.23676 22.0653 7.16814 22.077 7.09649C22.0888 7.02484 22.0863 6.95158 22.0697 6.8809C22.053 6.81023 22.0226 6.74352 21.9802 6.68462C21.9377 6.62572 21.8841 6.57577 21.8223 6.53764C20.0723 5.4617 18.0564 4.89224 16.0021 4.89224ZM16.0021 5.99569C17.6168 5.99569 19.2047 6.38679 20.6304 7.13039L7.13039 20.6261C6.38771 19.2004 6 17.6122 6 15.9978C6 10.4661 10.4704 5.99569 16.0021 5.99569ZM24.9785 9.91918C24.8871 9.92206 24.7978 9.94761 24.7187 9.99352C24.7144 9.99528 24.7101 9.99708 24.7058 9.99894C24.6686 10.0221 24.6342 10.0496 24.6035 10.0808C24.5979 10.0861 24.5925 10.0914 24.5872 10.0969L10.0937 24.5904L10.0883 24.5959C10.082 24.6036 10.0759 24.6115 10.07 24.6196C10.0451 24.6447 10.0228 24.6721 10.0032 24.7015C10.0021 24.7043 10.001 24.7072 9.99993 24.71C9.92557 24.8348 9.90345 24.9839 9.93835 25.1249C9.97325 25.266 10.0624 25.3875 10.1863 25.4633C11.9361 26.539 13.9481 27.1087 16.0021 27.1087C22.1302 27.1087 27.1088 22.1258 27.1088 15.9977C27.1088 13.9435 26.5393 11.9319 25.4633 10.182C25.4612 10.1791 25.459 10.1763 25.4568 10.1735C25.4354 10.1403 25.4105 10.1096 25.3825 10.0818C25.3821 10.0815 25.3828 10.0822 25.3825 10.0818C25.3524 10.053 25.318 10.0267 25.2822 10.0053C25.2776 10.0017 25.273 9.99804 25.2683 9.9945C25.2676 9.99414 25.2669 9.99378 25.2662 9.99342C25.2255 9.97042 25.182 9.95267 25.1369 9.94062C25.1316 9.93839 25.1262 9.93623 25.1208 9.93416C25.0794 9.92502 25.0371 9.92068 24.9948 9.92123C24.9894 9.92046 24.9838 9.9198 24.9785 9.91918ZM24.8696 11.3739C25.6132 12.7988 26.0054 14.3832 26.0054 15.9978C26.0054 21.5296 21.5339 26.0054 16.0022 26.0054C14.3879 26.0054 12.7995 25.614 11.3739 24.8707L24.8696 11.3739Z" fill="url(#paint0_linear_8995_33113)"/>
<defs>
<linearGradient id="paint0_linear_8995_33113" x1="2.8" y1="-1.46508e-06" x2="36.7607" y2="8.14125" gradientUnits="userSpaceOnUse">
<stop stop-color="#B63AB4"/>
<stop offset="1" stop-color="#513B9F"/>
</linearGradient>
</defs>
</svg>
