<svg width="32" height="32" viewBox="0 0 32 32" fill="none" xmlns="http://www.w3.org/2000/svg">
<g clip-path="url(#clip0_8995_1805)">
<path d="M7.60973 31.8901H23.1797C23.5397 31.8901 23.8297 31.6001 23.8297 31.2401V4.72014C23.8297 4.36014 23.5397 4.07014 23.1797 4.07014H18.8597V0.790137C18.8597 0.430137 18.5697 0.140137 18.2097 0.140137H12.5897C12.2297 0.140137 11.9397 0.430137 11.9397 0.790137V4.07014H7.61973C7.25973 4.07014 6.96973 4.36014 6.96973 4.72014V31.2501C6.96973 31.6101 7.25973 31.9001 7.61973 31.9001L7.60973 31.8901ZM13.2297 1.44014H17.5497V4.07014H13.2297V1.44014ZM8.25973 5.37014H22.5297V30.6001H8.25973V5.37014Z" fill="url(#paint0_linear_8995_1805)"/>
<path d="M21.0693 12.3301H9.71934C9.35934 12.3301 9.06934 12.6201 9.06934 12.9801V16.9301C9.06934 17.2901 9.35934 17.5801 9.71934 17.5801H21.0693C21.4293 17.5801 21.7193 17.2901 21.7193 16.9301V12.9801C21.7193 12.6201 21.4293 12.3301 21.0693 12.3301ZM20.4193 16.2801H10.3593V13.6301H20.4193V16.2801Z" fill="url(#paint1_linear_8995_1805)"/>
<path d="M21.0693 18.3901H9.71934C9.35934 18.3901 9.06934 18.6801 9.06934 19.0401V22.9901C9.06934 23.3501 9.35934 23.6401 9.71934 23.6401H21.0693C21.4293 23.6401 21.7193 23.3501 21.7193 22.9901V19.0401C21.7193 18.6801 21.4293 18.3901 21.0693 18.3901ZM20.4193 22.3301H10.3593V19.6801H20.4193V22.3301Z" fill="url(#paint2_linear_8995_1805)"/>
<path d="M21.0693 24.4399H9.71934C9.35934 24.4399 9.06934 24.7299 9.06934 25.0899V29.0399C9.06934 29.3999 9.35934 29.6899 9.71934 29.6899H21.0693C21.4293 29.6899 21.7193 29.3999 21.7193 29.0399V25.0899C21.7193 24.7299 21.4293 24.4399 21.0693 24.4399ZM20.4193 28.3899H10.3593V25.7399H20.4193V28.3899Z" fill="url(#paint3_linear_8995_1805)"/>
</g>
<defs>
<linearGradient id="paint0_linear_8995_1805" x1="8.44498" y1="0.140135" x2="27.0647" y2="2.50969" gradientUnits="userSpaceOnUse">
<stop stop-color="#B63AB4"/>
<stop offset="1" stop-color="#513B9F"/>
</linearGradient>
<linearGradient id="paint1_linear_8995_1805" x1="10.1762" y1="12.3301" x2="20.8211" y2="18.4788" gradientUnits="userSpaceOnUse">
<stop stop-color="#B63AB4"/>
<stop offset="1" stop-color="#513B9F"/>
</linearGradient>
<linearGradient id="paint2_linear_8995_1805" x1="10.1762" y1="18.3901" x2="20.8211" y2="24.5389" gradientUnits="userSpaceOnUse">
<stop stop-color="#B63AB4"/>
<stop offset="1" stop-color="#513B9F"/>
</linearGradient>
<linearGradient id="paint3_linear_8995_1805" x1="10.1762" y1="24.4399" x2="20.8211" y2="30.5887" gradientUnits="userSpaceOnUse">
<stop stop-color="#B63AB4"/>
<stop offset="1" stop-color="#513B9F"/>
</linearGradient>
<clipPath id="clip0_8995_1805">
<rect width="32" height="32" fill="white"/>
</clipPath>
</defs>
</svg>
