<svg width="32" height="32" viewBox="0 0 32 32" fill="none" xmlns="http://www.w3.org/2000/svg">
<g clip-path="url(#clip0_8995_1900)">
<path d="M21.0302 10.4301C18.0802 10.4301 16.3502 9.61009 14.5202 8.74009C13.3002 8.16009 12.0302 7.56009 10.2602 7.14009C5.81019 6.08009 1.12019 8.60009 1.07019 8.63009C0.730194 8.82009 0.300194 8.69009 0.110194 8.35009C-0.0798057 8.01009 0.0501943 7.58009 0.390194 7.39009C0.600194 7.28009 5.61019 4.59009 10.5802 5.77009C12.4902 6.22009 13.8902 6.89009 15.1202 7.47009C17.0302 8.38009 18.6902 9.17009 21.8402 9.00009C26.9702 8.73009 30.8702 5.74009 30.9102 5.71009C31.2202 5.47009 31.6602 5.53009 31.9002 5.83009C32.1402 6.14009 32.0902 6.58009 31.7802 6.82009C31.6102 6.95009 27.5002 10.1201 21.9202 10.4101C21.6102 10.4301 21.3102 10.4301 21.0302 10.4301Z" fill="url(#paint0_linear_8995_1900)"/>
<path d="M21.0302 15.9099C18.0802 15.9099 16.3502 15.0899 14.5202 14.2199C13.3002 13.6399 12.0302 13.0399 10.2602 12.6199C5.81019 11.5599 1.12019 14.0799 1.07019 14.1099C0.730194 14.2999 0.300194 14.1699 0.110194 13.8299C-0.0798057 13.4899 0.0501943 13.0599 0.390194 12.8699C0.600194 12.7499 5.61019 10.0699 10.5802 11.2499C12.4902 11.6999 13.8902 12.3699 15.1202 12.9499C17.0302 13.8599 18.6902 14.6499 21.8402 14.4799C26.9702 14.2099 30.8702 11.2199 30.9102 11.1899C31.2202 10.9499 31.6602 10.9999 31.9002 11.3099C32.1402 11.6199 32.0902 12.0599 31.7802 12.2999C31.6102 12.4299 27.5002 15.5999 21.9202 15.8899C21.6102 15.9099 21.3102 15.9099 21.0302 15.9099Z" fill="url(#paint1_linear_8995_1900)"/>
<path d="M21.0302 21.3901C18.0802 21.3901 16.3502 20.5701 14.5202 19.7001C13.3002 19.1201 12.0302 18.5201 10.2602 18.1001C5.81019 17.0401 1.12019 19.5601 1.07019 19.5901C0.730194 19.7801 0.300194 19.6501 0.110194 19.3101C-0.0798057 18.9701 0.0501943 18.5401 0.390194 18.3501C0.600194 18.2301 5.61019 15.5501 10.5802 16.7301C12.4902 17.1801 13.8902 17.8501 15.1202 18.4301C17.0302 19.3401 18.6902 20.1301 21.8402 19.9601C26.9702 19.6901 30.8702 16.7001 30.9102 16.6701C31.2202 16.4301 31.6602 16.4901 31.9002 16.7901C32.1402 17.1001 32.0902 17.5401 31.7802 17.7801C31.6102 17.9101 27.5002 21.0801 21.9202 21.3701C21.6102 21.3901 21.3102 21.3901 21.0302 21.3901Z" fill="url(#paint2_linear_8995_1900)"/>
<path d="M21.0302 26.8701C18.0802 26.8701 16.3502 26.0501 14.5202 25.1801C13.3002 24.6001 12.0302 24.0001 10.2602 23.5801C5.81019 22.5201 1.12019 25.0401 1.07019 25.0701C0.730194 25.2601 0.300194 25.1301 0.110194 24.7901C-0.0798057 24.4501 0.0501943 24.0201 0.390194 23.8301C0.600194 23.7101 5.61019 21.0301 10.5802 22.2101C12.4902 22.6601 13.8902 23.3301 15.1202 23.9101C17.0302 24.8201 18.6902 25.6101 21.8402 25.4401C26.9702 25.1701 30.8702 22.1801 30.9102 22.1501C31.2202 21.9101 31.6602 21.9601 31.9002 22.2701C32.1402 22.5801 32.0902 23.0201 31.7802 23.2601C31.6102 23.3901 27.5002 26.5601 21.9202 26.8501C21.6102 26.8701 21.3102 26.8701 21.0302 26.8701Z" fill="url(#paint3_linear_8995_1900)"/>
</g>
<defs>
<linearGradient id="paint0_linear_8995_1900" x1="2.82499" y1="5.47144" x2="13.4043" y2="21.8528" gradientUnits="userSpaceOnUse">
<stop stop-color="#B63AB4"/>
<stop offset="1" stop-color="#513B9F"/>
</linearGradient>
<linearGradient id="paint1_linear_8995_1900" x1="2.82499" y1="10.9504" x2="13.4067" y2="27.3329" gradientUnits="userSpaceOnUse">
<stop stop-color="#B63AB4"/>
<stop offset="1" stop-color="#513B9F"/>
</linearGradient>
<linearGradient id="paint2_linear_8995_1900" x1="2.82499" y1="16.4307" x2="13.4067" y2="32.8131" gradientUnits="userSpaceOnUse">
<stop stop-color="#B63AB4"/>
<stop offset="1" stop-color="#513B9F"/>
</linearGradient>
<linearGradient id="paint3_linear_8995_1900" x1="2.82499" y1="21.9106" x2="13.4067" y2="38.2931" gradientUnits="userSpaceOnUse">
<stop stop-color="#B63AB4"/>
<stop offset="1" stop-color="#513B9F"/>
</linearGradient>
<clipPath id="clip0_8995_1900">
<rect width="32" height="32" fill="white"/>
</clipPath>
</defs>
</svg>
