<svg width="32" height="32" viewBox="0 0 32 32" fill="none" xmlns="http://www.w3.org/2000/svg">
<path d="M13.0497 20.2299L11.4697 19.1199L20.0997 6.75994L21.6797 7.86994C21.8797 8.02994 22.1597 8.10994 22.3897 8.10994C22.7897 8.10994 23.1797 7.90994 23.4197 7.59994L23.4997 7.47994C23.6997 7.19994 23.7797 6.88994 23.6997 6.52994C23.6597 6.28994 23.5397 6.08994 23.3797 5.89994C23.5397 5.81994 23.6597 5.69994 23.7397 5.57994L23.8197 5.45994C24.0197 5.17994 24.0997 4.86994 24.0197 4.50994C23.9797 4.18994 23.7797 3.87994 23.5097 3.71994L23.2697 3.55994C23.3897 3.47994 23.5097 3.35994 23.6297 3.23994L23.7097 3.11994C23.9097 2.83994 23.9897 2.52994 23.9097 2.16994C23.8697 1.84994 23.6697 1.53994 23.3997 1.37994L22.0097 0.429941C21.8097 0.269941 21.5297 0.189941 21.2997 0.189941C20.8997 0.189941 20.5097 0.389941 20.2697 0.699941L20.1897 0.819941C20.1097 0.939941 20.0297 1.09994 19.9897 1.25994L19.7897 1.09994C19.5897 0.939941 19.3097 0.859941 19.0797 0.859941C18.6797 0.859941 18.2897 1.05994 18.0497 1.36994L17.9697 1.48994C17.8897 1.64994 17.8097 1.76994 17.7697 1.96994C17.6097 1.88994 17.4497 1.88994 17.2897 1.88994C16.8897 1.88994 16.4997 2.08994 16.2597 2.39994V2.51994C15.8597 3.06994 16.0197 3.86994 16.5797 4.25994L18.1597 5.36994L9.48972 17.7299L7.90972 16.6199C7.70972 16.4599 7.42972 16.3799 7.19972 16.3799C6.79972 16.3799 6.40972 16.5799 6.16972 16.8899L6.08972 17.0099C5.72972 17.4899 5.80972 18.1599 6.20972 18.5499C6.04972 18.6299 5.92972 18.7499 5.84972 18.8699L5.76972 18.9899C5.56972 19.2699 5.48972 19.5799 5.56972 19.9399C5.60972 20.2599 5.80972 20.5699 6.07972 20.7299L6.31972 20.8899C6.19972 20.9699 6.07972 21.0899 5.95972 21.2099L5.87972 21.3299C5.67972 21.6099 5.59972 21.9199 5.67972 22.2799C5.71972 22.5999 5.91972 22.9099 6.18972 23.0699L7.57972 24.0199C7.77972 24.1799 8.05972 24.2599 8.28972 24.2599C8.68972 24.2599 9.07972 24.0599 9.31972 23.7499L9.39972 23.6299C9.47972 23.5099 9.55972 23.3499 9.59972 23.1899L9.79972 23.3499C9.99972 23.5099 10.2797 23.5899 10.5097 23.5899C10.9097 23.5899 11.2997 23.3899 11.5397 23.0799L11.6197 22.9599C11.6997 22.7999 11.7797 22.6799 11.8197 22.4799C11.9797 22.5599 12.1397 22.5599 12.2997 22.5599C12.6997 22.5599 13.0897 22.3599 13.3297 22.0499L13.4097 21.9299C13.6097 21.6499 13.6897 21.3399 13.6097 20.9799C13.5297 20.6999 13.3297 20.4299 13.0597 20.2299H13.0497ZM20.9297 1.25994L21.0097 1.13994C21.0897 1.01994 21.2497 0.939941 21.3697 0.939941C21.4497 0.939941 21.5697 0.979941 21.6497 1.01994L23.0397 1.96994C23.1597 2.04994 23.1997 2.12994 23.2397 2.24994C23.2797 2.36994 23.2397 2.48994 23.1597 2.60994L23.0797 2.72994C22.9197 2.92994 22.6397 2.96994 22.4497 2.84994L21.0597 1.89994C20.9397 1.81994 20.8997 1.73994 20.8597 1.61994C20.8197 1.49994 20.8597 1.37994 20.9397 1.25994H20.9297ZM18.6697 1.96994L18.7497 1.84994C18.8297 1.72994 18.9897 1.64994 19.1097 1.64994C19.1897 1.64994 19.3097 1.68994 19.3897 1.72994L23.1097 4.33994C23.2297 4.41994 23.2697 4.49994 23.3097 4.61994C23.3497 4.73994 23.3097 4.85994 23.2297 4.97994L23.1497 5.09994C23.0297 5.29994 22.7097 5.33994 22.5197 5.21994L18.7997 2.60994C18.6797 2.52994 18.6397 2.44994 18.5997 2.32994C18.5997 2.20994 18.6397 2.08994 18.6797 1.96994H18.6697ZM16.8897 2.99994L16.9697 2.87994C17.0497 2.75994 17.2097 2.67994 17.3297 2.67994C17.4097 2.67994 17.5297 2.71994 17.6097 2.75994L22.7597 6.35994C22.8797 6.43994 22.9197 6.51994 22.9597 6.63994C22.9997 6.75994 22.9597 6.87994 22.8797 6.99994L22.7997 7.11994C22.6797 7.31994 22.3597 7.35994 22.1697 7.23994L17.0197 3.63994C16.8197 3.47994 16.7797 3.19994 16.8997 3.00994L16.8897 2.99994ZM18.7897 5.84994L19.4997 6.32994L10.8297 18.6899L10.1197 18.2099L18.7897 5.84994ZM8.68972 23.2399L8.60972 23.3599C8.52972 23.4799 8.36972 23.5599 8.24972 23.5599C8.16972 23.5599 8.04972 23.5199 7.96972 23.4799L6.57972 22.5299C6.45972 22.4499 6.41972 22.3699 6.37972 22.2499C6.33972 22.1299 6.37972 22.0099 6.45972 21.8899L6.53972 21.7699C6.61972 21.6499 6.77972 21.5699 6.89972 21.5699C6.97972 21.5699 7.09972 21.6099 7.17972 21.6499L8.56972 22.5999C8.68972 22.6799 8.72972 22.7599 8.76972 22.8799C8.80972 23.0399 8.76972 23.1599 8.68972 23.2399ZM10.9497 22.5699L10.8697 22.6899C10.7897 22.8099 10.6297 22.8899 10.5097 22.8899C10.4297 22.8899 10.3097 22.8499 10.2297 22.8099L9.07972 21.9799L8.40972 21.4999L6.54972 20.1899C6.42972 20.1099 6.38972 20.0299 6.34972 19.9099C6.30972 19.7899 6.34972 19.6699 6.42972 19.5499L6.50972 19.4299C6.58972 19.3099 6.74972 19.2299 6.86972 19.2299C6.94972 19.2299 7.06972 19.2699 7.14972 19.3099L9.00972 20.6199L10.8697 21.9299C10.9897 22.0099 11.0297 22.0899 11.0697 22.2099C11.0297 22.3299 10.9897 22.4499 10.9497 22.5699ZM12.7297 21.5399L12.6497 21.6599C12.5697 21.7799 12.4097 21.8599 12.2897 21.8599C12.2097 21.8599 12.0897 21.8199 12.0097 21.7799L11.2997 21.2699L9.39972 19.9599L6.82972 18.1399C6.62972 17.9799 6.58972 17.6999 6.70972 17.5099L6.78972 17.3899C6.86972 17.2699 7.02972 17.1899 7.14972 17.1899C7.22972 17.1899 7.34972 17.2299 7.42972 17.2699L12.5797 20.8699C12.6997 20.9499 12.7397 21.0299 12.7797 21.1499C12.8197 21.3099 12.8197 21.4299 12.7397 21.5499L12.7297 21.5399Z" fill="url(#paint0_linear_8995_1866)"/>
<path d="M24.89 26.05H22.04V19.08H24.89C25.56 19.08 26.12 18.53 26.12 17.85C26.12 17.17 25.57 16.62 24.89 16.62C24.93 16.5 24.97 16.34 24.97 16.18C24.97 15.51 24.42 14.95 23.74 14.95H22.99C23.03 14.83 23.07 14.67 23.07 14.51C23.07 13.84 22.52 13.28 21.84 13.28H18.99C18.32 13.28 17.76 13.83 17.76 14.51C17.76 14.67 17.8 14.83 17.84 14.95H17.09C16.42 14.95 15.86 15.5 15.86 16.18C15.86 16.34 15.9 16.5 15.94 16.62C15.27 16.62 14.71 17.17 14.71 17.85C14.71 18.53 15.26 19.08 15.94 19.08H18.79V26.05H15.94C15.27 26.05 14.71 26.6 14.71 27.28C14.71 27.96 15.26 28.51 15.94 28.51C15.9 28.63 15.86 28.79 15.86 28.95C15.86 29.62 16.41 30.18 17.09 30.18H17.84C17.8 30.3 17.76 30.46 17.76 30.62C17.76 31.29 18.31 31.85 18.99 31.85H21.84C22.51 31.85 23.07 31.3 23.07 30.62C23.07 30.46 23.03 30.3 22.99 30.18H23.74C24.41 30.18 24.97 29.63 24.97 28.95C24.97 28.79 24.93 28.63 24.89 28.51C25.56 28.51 26.12 27.96 26.12 27.28C26.12 26.6 25.57 26.05 24.89 26.05ZM18.59 14.53C18.59 14.29 18.79 14.09 19.03 14.09H21.88C22.12 14.09 22.32 14.29 22.32 14.53C22.32 14.77 22.12 14.97 21.88 14.97H19.03C18.79 14.97 18.59 14.77 18.59 14.53ZM16.69 16.19C16.69 15.95 16.89 15.75 17.13 15.75H23.74C23.98 15.75 24.18 15.95 24.18 16.19C24.18 16.43 23.98 16.63 23.74 16.63H17.13C16.89 16.63 16.69 16.43 16.69 16.19ZM15.54 17.85C15.54 17.61 15.74 17.41 15.98 17.41H24.89C25.13 17.41 25.33 17.61 25.33 17.85C25.33 18.09 25.13 18.29 24.89 18.29H15.98C15.74 18.29 15.54 18.09 15.54 17.85ZM19.62 19.08H21.24V26.05H19.62V19.08ZM22.28 30.61C22.28 30.85 22.08 31.05 21.84 31.05H18.99C18.75 31.05 18.55 30.85 18.55 30.61C18.55 30.37 18.75 30.17 18.99 30.17H21.84C22.08 30.17 22.28 30.37 22.28 30.61ZM24.18 28.94C24.18 29.18 23.98 29.38 23.74 29.38H17.09C16.85 29.38 16.65 29.18 16.65 28.94C16.65 28.7 16.85 28.5 17.09 28.5H23.74C23.98 28.5 24.18 28.7 24.18 28.94ZM24.89 27.71H15.98C15.74 27.71 15.54 27.51 15.54 27.27C15.54 27.03 15.74 26.83 15.98 26.83H24.89C25.13 26.83 25.33 27.03 25.33 27.27C25.33 27.51 25.13 27.71 24.89 27.71Z" fill="url(#paint1_linear_8995_1866)"/>
<defs>
<linearGradient id="paint0_linear_8995_1866" x1="7.1588" y1="0.18994" x2="27.2504" y2="3.89411" gradientUnits="userSpaceOnUse">
<stop stop-color="#B63AB4"/>
<stop offset="1" stop-color="#513B9F"/>
</linearGradient>
<linearGradient id="paint1_linear_8995_1866" x1="15.7083" y1="13.28" x2="28.2414" y2="15.1261" gradientUnits="userSpaceOnUse">
<stop stop-color="#B63AB4"/>
<stop offset="1" stop-color="#513B9F"/>
</linearGradient>
</defs>
</svg>
