<svg width="20" height="20" viewBox="0 0 20 20" fill="none" xmlns="http://www.w3.org/2000/svg">
<path d="M16.9187 4.80559V17.144H5.28947V4.80559C5.28947 2.15163 7.44073 0 10.0947 0H12.1135C14.7675 0 16.9187 2.15163 16.9187 4.80559Z" fill="#513B9F"/>
<path d="M12.1135 0H11.3106C13.9646 0 16.1158 2.15167 16.1158 4.80559V17.144H16.9187V4.80559C16.9187 2.15163 14.7675 0 12.1135 0Z" fill="#35296C"/>
<path d="M17.5005 8.03451V8.14115C17.5005 8.90292 16.8828 9.52062 16.1206 9.52062H15.7427L15.717 9.41801L15.3842 8.08441L15.717 6.75765L15.7427 6.65503H16.1206C16.8828 6.65503 17.5005 7.27278 17.5005 8.03451Z" fill="#FFDFCF"/>
<path d="M17.5005 8.03451V8.14115C17.5005 8.90292 16.8828 9.52062 16.1206 9.52062H15.7427L15.717 9.41801C16.2329 9.21197 16.6972 8.71781 16.6972 8.14115V8.03451C16.6972 7.45785 16.2329 6.96368 15.717 6.75765L15.7427 6.65503H16.1206C16.8828 6.65503 17.5005 7.27278 17.5005 8.03451Z" fill="#FFCEBF"/>
<path d="M6.45046 9.5205H6.07259C5.3107 9.5205 4.69308 8.90288 4.69308 8.14099V8.03455C4.69308 7.27265 5.3107 6.65503 6.07259 6.65503H6.45046L6.81819 8.08779L6.45046 9.5205Z" fill="#FFDFCF"/>
<path d="M6.07264 6.65507C5.92427 6.65507 5.78149 6.67877 5.64757 6.72211V9.4535C5.78487 9.49797 5.92831 9.52059 6.07264 9.52054H6.4505L6.81823 8.08779L6.4505 6.65503H6.07264V6.65507Z" fill="#FFCEBF"/>
<path d="M19.14 20H16.4707L11.1041 19.555L5.73741 20H3.06819C2.73009 20 2.48091 19.6838 2.55998 19.3551L2.82067 18.2709C3.12896 16.9874 4.27685 16.0826 5.59697 16.0826H16.6112C17.9313 16.0826 19.0792 16.9874 19.3875 18.2709L19.6482 19.3551C19.7273 19.6838 19.4781 20 19.14 20Z" fill="#FFDFCF"/>
<path d="M5.83783 13.0516C4.76431 13.4068 4.29995 13.8712 3.94474 14.9447C3.8481 15.2368 3.4384 15.2368 3.34173 14.9447C2.98651 13.8712 2.52211 13.4068 1.44863 13.0516C1.15655 12.955 1.15655 12.5453 1.44863 12.4486C2.52215 12.0934 2.98651 11.629 3.34173 10.5555C3.43836 10.2634 3.84806 10.2634 3.94474 10.5555C4.29995 11.629 4.76436 12.0934 5.83783 12.4486C6.12987 12.5453 6.12987 12.955 5.83783 13.0516Z" fill="#F5DE46"/>
<path d="M4.01707 7.51505C3.31422 7.74761 3.0102 8.05163 2.77764 8.75448C2.71438 8.94569 2.44613 8.94569 2.38287 8.75448C2.1503 8.05163 1.84628 7.74761 1.14343 7.51505C0.952216 7.45178 0.952216 7.18354 1.14343 7.12027C1.84628 6.88771 2.1503 6.58369 2.38287 5.88084C2.44613 5.68962 2.71438 5.68962 2.77764 5.88084C3.0102 6.58369 3.31422 6.88771 4.01707 7.12027C4.20829 7.18354 4.20829 7.45174 4.01707 7.51505Z" fill="#ECC52E"/>
<path d="M19.3876 18.2709C19.0793 16.9874 17.9314 16.0826 16.6113 16.0826H15.8083C17.1284 16.0826 18.2763 16.9874 18.5846 18.2709L18.8363 19.3177C18.9101 19.6246 18.7175 19.9323 18.4092 20H19.14C19.4781 20 19.7273 19.6838 19.6482 19.3551L19.3876 18.2709Z" fill="#FFCEBF"/>
<path d="M13.8312 16.0824C13.4586 16.0824 13.1566 15.7804 13.1566 15.4078V13.3588H9.05165V15.4078C9.05165 15.7804 8.7496 16.0824 8.37704 16.0824L11.1041 16.4127L13.8312 16.0824Z" fill="#FFDFCF"/>
<path d="M13.1566 15.4078V13.3588H12.3536V15.4078C12.3536 15.7804 12.6557 16.0824 13.0282 16.0824H13.8312C13.4586 16.0824 13.1566 15.7804 13.1566 15.4078Z" fill="#FFCEBF"/>
<path d="M15.7427 6.65502V9.91269C15.7427 11.6743 14.6781 13.1873 13.1567 13.8429C12.6376 14.0667 12.0652 14.1906 11.4643 14.1906H10.7286C10.1333 14.1906 9.5662 14.0691 9.05144 13.8493C7.52242 13.1969 6.45063 11.68 6.45063 9.91269V6.65502L9.0792 6.27913C9.38378 6.23567 9.67225 6.1153 9.91739 5.92939C10.1625 5.74348 10.3562 5.49816 10.4802 5.21659L10.8426 4.39434C10.9397 4.17398 11.2525 4.1743 11.3492 4.39482L11.7078 5.21293C11.8315 5.49538 12.0252 5.74157 12.2707 5.92815C12.5162 6.11474 12.8052 6.23553 13.1105 6.27909L15.7427 6.65502Z" fill="#FFDFCF"/>
<path d="M13.1105 6.27909C12.8053 6.23553 12.5162 6.11474 12.2707 5.92815C12.0253 5.74157 11.8315 5.49538 11.7079 5.21293L11.3492 4.39482C11.2525 4.1743 10.9398 4.17398 10.8427 4.39434L10.694 4.73176L10.9049 5.21297C11.0286 5.49542 11.2223 5.74161 11.4678 5.92819C11.7133 6.11478 12.0023 6.23557 12.3076 6.27913L14.4163 6.58029C14.5616 6.60104 14.6945 6.67351 14.7907 6.78437C14.8868 6.89524 14.9398 7.03708 14.9398 7.18384V9.91273C14.9398 11.6744 13.8752 13.1873 12.3538 13.8429C11.8443 14.0625 11.2835 14.1857 10.6949 14.1903C10.7061 14.1904 10.7174 14.1907 10.7286 14.1907H11.4644C12.0652 14.1907 12.6376 14.0667 13.1568 13.8429C14.6782 13.1873 15.7427 11.6744 15.7427 9.91273V6.65506L13.1105 6.27909Z" fill="#FFCEBF"/>
<path d="M16.4708 18.8517V19.9999H5.73746V18.8517C5.73746 18.4791 6.03947 18.1771 6.41202 18.1771H15.7962C16.1688 18.1771 16.4708 18.4791 16.4708 18.8517Z" fill="#F7F9FA"/>
<path d="M15.7962 18.1771H14.9932C15.3658 18.1771 15.6678 18.4791 15.6678 18.8517V19.9999H16.4707V18.8517C16.4708 18.4792 16.1688 18.1771 15.7962 18.1771Z" fill="#E8EDF2"/>
<path d="M11.1742 12.296C10.9135 12.296 10.6683 12.1944 10.4838 12.01C10.4234 11.9496 10.3711 11.8815 10.3285 11.8074C10.2886 11.738 10.278 11.6556 10.2988 11.5783C10.3197 11.501 10.3704 11.4352 10.4398 11.3953C10.4741 11.3755 10.512 11.3627 10.5513 11.3576C10.5907 11.3525 10.6306 11.3552 10.6688 11.3655C10.7071 11.3759 10.743 11.3936 10.7744 11.4178C10.8058 11.442 10.8321 11.4721 10.8518 11.5065C10.868 11.5346 10.8878 11.5603 10.9107 11.5832C10.9452 11.6179 10.9863 11.6455 11.0315 11.6642C11.0767 11.683 11.1252 11.6926 11.1742 11.6924C11.2397 11.6923 11.304 11.675 11.3607 11.6422C11.4174 11.6094 11.4645 11.5624 11.4974 11.5058C11.5381 11.4376 11.6039 11.3883 11.6807 11.3683C11.7575 11.3484 11.8391 11.3595 11.9078 11.3992C11.9764 11.439 12.0267 11.5042 12.0477 11.5807C12.0687 11.6572 12.0587 11.7389 12.0198 11.8081C11.8456 12.1091 11.5215 12.296 11.1742 12.296Z" fill="#FFB09E"/>
<path d="M13.791 9.04879C13.711 9.04879 13.6342 9.01699 13.5776 8.96039C13.521 8.90379 13.4892 8.82702 13.4892 8.74698V8.33245C13.4892 8.16573 13.6243 8.03064 13.791 8.03064C13.9577 8.03064 14.0928 8.16573 14.0928 8.33245V8.74698C14.0928 8.82702 14.061 8.90379 14.0044 8.96039C13.9478 9.01699 13.8711 9.04879 13.791 9.04879ZM8.42876 9.04879C8.34871 9.04879 8.27194 9.01699 8.21534 8.96039C8.15874 8.90379 8.12695 8.82702 8.12695 8.74698V8.33245C8.12695 8.16573 8.26208 8.03064 8.42876 8.03064C8.59544 8.03064 8.73057 8.16573 8.73057 8.33245V8.74698C8.73057 8.82702 8.69877 8.90379 8.64217 8.96039C8.58557 9.01699 8.5088 9.04879 8.42876 9.04879Z" fill="#1F2D4F"/>
</svg>
