<svg width="20" height="20" viewBox="0 0 20 20" fill="none" xmlns="http://www.w3.org/2000/svg">
<path d="M14.479 16.4519C17.1079 16.4519 19.8624 14.34 19.8624 10.9172C19.1741 7.51511 16.0541 4.88016 14.9051 4.01013C14.7823 3.91718 14.6325 3.86692 14.4785 3.86702C14.3246 3.86712 14.1748 3.91757 14.0522 4.01068C12.9026 4.88112 9.78375 7.51594 9.09552 10.9177C9.09552 14.4507 11.8502 16.4519 14.479 16.4519ZM0.194885 7.01556C0.194885 9.53942 2.16701 10.927 3.89142 10.927C5.61583 10.927 7.58796 9.27742 7.58796 7.01556L7.5892 7.01501C6.99311 4.93234 5.17176 3.31133 4.32836 2.65125C4.20424 2.55362 4.051 2.50038 3.89308 2.5C3.73517 2.49963 3.58168 2.55215 3.45709 2.64919C2.6148 3.30803 0.790973 4.93056 0.194336 7.01542L0.194885 7.01556Z" fill="#8DEAF5"/>
<path d="M3.89139 9.69122C2.16698 9.69122 0.705527 8.56908 0.19485 7.01562C0.0725014 7.44309 0 7.88923 0 8.35129C0 10.5004 1.74226 12.2425 3.89139 12.2425C6.04052 12.2425 7.78264 10.5003 7.78264 8.35129C7.78264 7.88923 7.71014 7.44309 7.58779 7.01562C7.07725 8.56908 5.6158 9.69122 3.89139 9.69122ZM14.4789 15.2161C11.8483 15.2161 9.64887 13.3757 9.09425 10.9125C9.00427 11.3515 8.95859 11.7984 8.95789 12.2465C8.95789 15.2958 11.4297 17.7676 14.4789 17.7676C17.528 17.7676 20 15.2958 20 12.2465C19.9993 11.7984 19.9536 11.3515 19.8637 10.9125C19.309 13.3757 17.1096 15.2161 14.4789 15.2161Z" fill="#81D1DB"/>
</svg>
