<svg width="20" height="20" viewBox="0 0 20 20" fill="none" xmlns="http://www.w3.org/2000/svg">
<g clip-path="url(#clip0_8995_2132)">
<path d="M14.7343 5.20557H17.7298C19.0735 5.20557 20.123 6.29612 19.9884 7.55239L18.8607 18.0805C18.7437 19.1703 17.7674 20.0001 16.6017 20.0001H3.39828C2.23263 20.0001 1.25629 19.1703 1.13969 18.0805L0.0116397 7.55239C-0.122957 6.29612 0.926937 5.20557 2.27066 5.20557H5.26611" fill="#891987"/>
<path d="M14.1204 5.27783H16.991C18.2788 5.27783 19.2845 6.32211 19.1555 7.52506L18.0749 17.6064C17.9627 18.6499 17.0271 19.4445 15.91 19.4445H3.25668C2.1396 19.4445 1.20394 18.6499 1.09221 17.6064L0.0111548 7.52506C-0.117834 6.32211 0.888315 5.27783 2.17605 5.27783H5.04669" fill="#B438B2"/>
<rect x="2.5" y="11.1111" width="15" height="1.38889" rx="0.694445" fill="#4B399C"/>
<rect x="2.77734" y="13.6111" width="14.4444" height="1.38889" rx="0.694445" fill="#4B399C"/>
<rect x="3.33301" y="16.1111" width="13.3333" height="1.38889" rx="0.694445" fill="#4B399C"/>
<path d="M10.0003 10.0006C12.7619 10.0006 15.0006 7.76186 15.0006 5.00028C15.0006 2.2387 12.7619 0 10.0003 0C7.2387 0 5 2.2387 5 5.00028C5 7.76186 7.2387 10.0006 10.0003 10.0006Z" fill="#FFB300"/>
<path d="M13.5599 4.74669C13.5599 5.67948 13.2093 6.53014 12.6328 7.17463C12.3287 6.8347 11.9627 6.55219 11.5513 6.3456C11.0595 6.09841 10.5042 5.95891 9.91616 5.95891C8.8364 5.95891 7.86609 6.42862 7.19904 7.17467C6.62295 6.53014 6.27246 5.67948 6.27246 4.74673C6.27246 3.0158 7.47893 1.56699 9.09728 1.19572C9.10522 1.19352 9.11363 1.19175 9.12157 1.18997C9.38245 1.13201 9.64892 1.10285 9.91616 1.10303C11.9283 1.10299 13.5599 2.73413 13.5599 4.74669Z" fill="#F5F2FC"/>
<path d="M12.0043 5.00019C12.0043 5.57408 11.8719 6.11663 11.6353 6.5991C11.1435 6.35191 10.5882 6.2124 10.0001 6.2124C8.92038 6.2124 7.95007 6.68211 7.28302 7.42817C6.70693 6.78364 6.35645 5.93298 6.35645 5.00023C6.35645 3.2693 7.56292 1.82049 9.18126 1.44922C10.7983 1.82134 12.0043 3.26972 12.0043 5.00019Z" fill="#EDEBF5"/>
<path d="M12.7168 7.75923C12.6702 7.75922 12.6242 7.74939 12.5816 7.73036C12.5391 7.71134 12.5011 7.68356 12.47 7.64883C11.8419 6.94638 10.9417 6.5435 10.0001 6.5435C9.05832 6.5435 8.15793 6.94638 7.52984 7.64883C7.49878 7.68357 7.46074 7.71135 7.41821 7.73038C7.37568 7.7494 7.32961 7.75923 7.28301 7.75923C7.23642 7.75922 7.19035 7.74938 7.14782 7.73035C7.1053 7.71132 7.06726 7.68353 7.03621 7.64879C6.38473 6.92045 6.02481 5.97739 6.02539 5.00019C6.02539 2.8085 7.8085 1.02539 10.0002 1.02539C12.1919 1.02539 13.975 2.8085 13.975 5.00019C13.9756 5.97752 13.6155 6.92069 12.9636 7.64887C12.9325 7.68358 12.8945 7.71135 12.852 7.73037C12.8095 7.74938 12.7634 7.75921 12.7168 7.75923ZM10.0001 5.88131C11.0002 5.88131 11.9614 6.25998 12.6915 6.93155C13.0959 6.3688 13.3132 5.69321 13.3128 5.00023C13.3128 3.17365 11.8267 1.68762 10.0001 1.68762C8.17357 1.68762 6.68754 3.17365 6.68754 5.00023C6.68713 5.69313 6.90432 6.36867 7.30846 6.93151C8.03863 6.25998 8.99989 5.88131 10.0001 5.88131Z" fill="#FFCC3D"/>
<path d="M10.0005 5.33133C9.93534 5.33134 9.8716 5.31211 9.81728 5.27605C9.76297 5.23999 9.72051 5.18871 9.69521 5.12862L8.98904 3.45113C8.95559 3.37031 8.95547 3.27954 8.98872 3.19864C9.02198 3.11774 9.08589 3.05328 9.16651 3.01934C9.24712 2.98541 9.33789 2.98475 9.41899 3.01752C9.50009 3.05028 9.56493 3.11381 9.59935 3.19422L10.3055 4.87171C10.3267 4.92204 10.3351 4.97682 10.33 5.03118C10.3249 5.08555 10.3065 5.1378 10.2763 5.1833C10.2461 5.2288 10.2051 5.26612 10.157 5.29195C10.1089 5.31778 10.0551 5.3313 10.0005 5.33133Z" fill="#1F2D4F"/>
</g>
<defs>
<clipPath id="clip0_8995_2132">
<rect width="20" height="20" fill="white"/>
</clipPath>
</defs>
</svg>
