<svg width="32" height="32" viewBox="0 0 32 32" fill="none" xmlns="http://www.w3.org/2000/svg">
<path d="M7.66992 2.64003V29.28C7.66992 30.72 8.83992 31.89 10.2799 31.89H21.7899C23.2299 31.89 24.3999 30.72 24.3999 29.28V2.64003C24.3999 1.20003 23.2299 0.0300293 21.7899 0.0300293H10.2799C8.83992 0.0300293 7.66992 1.20003 7.66992 2.64003ZM21.7799 0.550029C22.9399 0.550029 23.8799 1.49003 23.8799 2.65003V29.29C23.8799 30.45 22.9399 31.39 21.7799 31.39H10.2699C9.10992 31.39 8.16992 30.45 8.16992 29.29V2.64003C8.16992 1.48003 9.10992 0.540029 10.2699 0.540029H21.7799V0.550029ZM14.7099 29.4C14.7099 30.13 15.2999 30.72 16.0299 30.72C16.7599 30.72 17.3499 30.13 17.3499 29.4C17.3499 28.67 16.7599 28.08 16.0299 28.08C15.2999 28.08 14.7099 28.67 14.7099 29.4ZM16.8399 29.4C16.8399 29.85 16.4799 30.21 16.0299 30.21C15.5799 30.21 15.2199 29.85 15.2199 29.4C15.2199 28.95 15.5799 28.59 16.0299 28.59C16.4799 28.59 16.8399 28.95 16.8399 29.4ZM9.38992 29.4C9.38992 30.13 9.97992 30.72 10.7099 30.72C11.4399 30.72 12.0299 30.13 12.0299 29.4C12.0299 28.67 11.4399 28.08 10.7099 28.08C9.97992 28.08 9.38992 28.67 9.38992 29.4ZM11.5199 29.4C11.5199 29.85 11.1599 30.21 10.7099 30.21C10.2599 30.21 9.89992 29.85 9.89992 29.4C9.89992 28.95 10.2599 28.59 10.7099 28.59C11.1599 28.59 11.5199 28.95 11.5199 29.4ZM12.0299 25.56C12.0299 24.83 11.4399 24.24 10.7099 24.24C9.97992 24.24 9.38992 24.83 9.38992 25.56C9.38992 26.29 9.97992 26.88 10.7099 26.88C11.4399 26.88 12.0299 26.29 12.0299 25.56ZM9.89992 25.56C9.89992 25.11 10.2599 24.75 10.7099 24.75C11.1599 24.75 11.5199 25.11 11.5199 25.56C11.5199 26.01 11.1599 26.37 10.7099 26.37C10.2599 26.37 9.89992 26.01 9.89992 25.56ZM12.0299 21.72C12.0299 20.99 11.4399 20.4 10.7099 20.4C9.97992 20.4 9.38992 20.99 9.38992 21.72C9.38992 22.45 9.97992 23.04 10.7099 23.04C11.4399 23.04 12.0299 22.45 12.0299 21.72ZM9.89992 21.72C9.89992 21.27 10.2599 20.91 10.7099 20.91C11.1599 20.91 11.5199 21.27 11.5199 21.72C11.5199 22.17 11.1599 22.53 10.7099 22.53C10.2599 22.53 9.89992 22.17 9.89992 21.72ZM12.0299 17.88C12.0299 17.15 11.4399 16.56 10.7099 16.56C9.97992 16.56 9.38992 17.15 9.38992 17.88C9.38992 18.61 9.97992 19.2 10.7099 19.2C11.4399 19.2 12.0299 18.61 12.0299 17.88ZM9.89992 17.88C9.89992 17.43 10.2599 17.07 10.7099 17.07C11.1599 17.07 11.5199 17.43 11.5199 17.88C11.5199 18.33 11.1599 18.69 10.7099 18.69C10.2599 18.69 9.89992 18.33 9.89992 17.88ZM12.0299 14.04C12.0299 13.31 11.4399 12.72 10.7099 12.72C9.97992 12.72 9.38992 13.31 9.38992 14.04C9.38992 14.77 9.97992 15.36 10.7099 15.36C11.4399 15.36 12.0299 14.77 12.0299 14.04ZM9.89992 14.04C9.89992 13.59 10.2599 13.23 10.7099 13.23C11.1599 13.23 11.5199 13.59 11.5199 14.04C11.5199 14.49 11.1599 14.85 10.7099 14.85C10.2599 14.85 9.89992 14.49 9.89992 14.04ZM12.0299 10.2C12.0299 9.47003 11.4399 8.88003 10.7099 8.88003C9.97992 8.88003 9.38992 9.47003 9.38992 10.2C9.38992 10.93 9.97992 11.52 10.7099 11.52C11.4399 11.52 12.0299 10.93 12.0299 10.2ZM9.89992 10.2C9.89992 9.75003 10.2599 9.39003 10.7099 9.39003C11.1599 9.39003 11.5199 9.75003 11.5199 10.2C11.5199 10.65 11.1599 11.01 10.7099 11.01C10.2599 11.01 9.89992 10.65 9.89992 10.2ZM9.38992 6.36003C9.38992 7.09003 9.97992 7.68003 10.7099 7.68003C11.4399 7.68003 12.0299 7.09003 12.0299 6.36003C12.0299 5.63003 11.4399 5.04003 10.7099 5.04003C9.97992 5.04003 9.38992 5.63003 9.38992 6.36003ZM11.5199 6.36003C11.5199 6.81003 11.1599 7.17003 10.7099 7.17003C10.2599 7.17003 9.89992 6.81003 9.89992 6.36003C9.89992 5.91003 10.2599 5.55003 10.7099 5.55003C11.1599 5.55003 11.5199 5.91003 11.5199 6.36003ZM9.38992 2.52003C9.38992 3.25003 9.97992 3.84003 10.7099 3.84003C11.4399 3.84003 12.0299 3.25003 12.0299 2.52003C12.0299 1.79003 11.4399 1.20003 10.7099 1.20003C9.97992 1.20003 9.38992 1.79003 9.38992 2.52003ZM11.5199 2.52003C11.5199 2.97003 11.1599 3.33003 10.7099 3.33003C10.2599 3.33003 9.89992 2.97003 9.89992 2.52003C9.89992 2.07003 10.2599 1.71003 10.7099 1.71003C11.1599 1.71003 11.5199 2.07003 11.5199 2.52003ZM20.0299 29.4C20.0299 30.13 20.6199 30.72 21.3499 30.72C22.0799 30.72 22.6699 30.13 22.6699 29.4C22.6699 28.67 22.0799 28.08 21.3499 28.08C20.6199 28.08 20.0299 28.67 20.0299 29.4ZM22.1599 29.4C22.1599 29.85 21.7999 30.21 21.3499 30.21C20.8999 30.21 20.5399 29.85 20.5399 29.4C20.5399 28.95 20.8999 28.59 21.3499 28.59C21.7999 28.59 22.1599 28.95 22.1599 29.4ZM20.0299 25.56C20.0299 26.29 20.6199 26.88 21.3499 26.88C22.0799 26.88 22.6699 26.29 22.6699 25.56C22.6699 24.83 22.0799 24.24 21.3499 24.24C20.6199 24.24 20.0299 24.83 20.0299 25.56ZM22.1599 25.56C22.1599 26.01 21.7999 26.37 21.3499 26.37C20.8999 26.37 20.5399 26.01 20.5399 25.56C20.5399 25.11 20.8999 24.75 21.3499 24.75C21.7999 24.75 22.1599 25.11 22.1599 25.56ZM20.0299 21.72C20.0299 22.45 20.6199 23.04 21.3499 23.04C22.0799 23.04 22.6699 22.45 22.6699 21.72C22.6699 20.99 22.0799 20.4 21.3499 20.4C20.6199 20.4 20.0299 20.99 20.0299 21.72ZM22.1599 21.72C22.1599 22.17 21.7999 22.53 21.3499 22.53C20.8999 22.53 20.5399 22.17 20.5399 21.72C20.5399 21.27 20.8999 20.91 21.3499 20.91C21.7999 20.91 22.1599 21.27 22.1599 21.72ZM20.0299 17.88C20.0299 18.61 20.6199 19.2 21.3499 19.2C22.0799 19.2 22.6699 18.61 22.6699 17.88C22.6699 17.15 22.0799 16.56 21.3499 16.56C20.6199 16.56 20.0299 17.15 20.0299 17.88ZM22.1599 17.88C22.1599 18.33 21.7999 18.69 21.3499 18.69C20.8999 18.69 20.5399 18.33 20.5399 17.88C20.5399 17.43 20.8999 17.07 21.3499 17.07C21.7999 17.07 22.1599 17.43 22.1599 17.88ZM20.0299 14.04C20.0299 14.77 20.6199 15.36 21.3499 15.36C22.0799 15.36 22.6699 14.77 22.6699 14.04C22.6699 13.31 22.0799 12.72 21.3499 12.72C20.6199 12.72 20.0299 13.31 20.0299 14.04ZM22.1599 14.04C22.1599 14.49 21.7999 14.85 21.3499 14.85C20.8999 14.85 20.5399 14.49 20.5399 14.04C20.5399 13.59 20.8999 13.23 21.3499 13.23C21.7999 13.23 22.1599 13.59 22.1599 14.04ZM20.0299 10.2C20.0299 10.93 20.6199 11.52 21.3499 11.52C22.0799 11.52 22.6699 10.93 22.6699 10.2C22.6699 9.47003 22.0799 8.88003 21.3499 8.88003C20.6199 8.88003 20.0299 9.47003 20.0299 10.2ZM22.1599 10.2C22.1599 10.65 21.7999 11.01 21.3499 11.01C20.8999 11.01 20.5399 10.65 20.5399 10.2C20.5399 9.75003 20.8999 9.39003 21.3499 9.39003C21.7999 9.39003 22.1599 9.75003 22.1599 10.2ZM20.0299 6.36003C20.0299 7.09003 20.6199 7.68003 21.3499 7.68003C22.0799 7.68003 22.6699 7.09003 22.6699 6.36003C22.6699 5.63003 22.0799 5.04003 21.3499 5.04003C20.6199 5.04003 20.0299 5.63003 20.0299 6.36003ZM22.1599 6.36003C22.1599 6.81003 21.7999 7.17003 21.3499 7.17003C20.8999 7.17003 20.5399 6.81003 20.5399 6.36003C20.5399 5.91003 20.8999 5.55003 21.3499 5.55003C21.7999 5.55003 22.1599 5.91003 22.1599 6.36003ZM20.0299 2.52003C20.0299 3.25003 20.6199 3.84003 21.3499 3.84003C22.0799 3.84003 22.6699 3.25003 22.6699 2.52003C22.6699 1.79003 22.0799 1.20003 21.3499 1.20003C20.6199 1.20003 20.0299 1.79003 20.0299 2.52003ZM22.1599 2.52003C22.1599 2.97003 21.7999 3.33003 21.3499 3.33003C20.8999 3.33003 20.5399 2.97003 20.5399 2.52003C20.5399 2.07003 20.8999 1.71003 21.3499 1.71003C21.7999 1.71003 22.1599 2.07003 22.1599 2.52003ZM14.0999 29.85C14.0999 30.18 13.7099 30.35 13.4699 30.13L12.9699 29.68C12.7999 29.53 12.7999 29.26 12.9699 29.11L13.4699 28.66C13.7199 28.44 14.0999 28.62 14.0999 28.94V29.84V29.85ZM13.1799 25.06C13.3299 24.89 13.5999 24.89 13.7499 25.06L14.1999 25.56C14.4199 25.81 14.2399 26.19 13.9199 26.19H13.0199C12.6899 26.19 12.5199 25.8 12.7399 25.56L13.1899 25.06H13.1799ZM13.1799 21.22C13.3299 21.05 13.5999 21.05 13.7499 21.22L14.1999 21.72C14.4199 21.97 14.2399 22.35 13.9199 22.35H13.0199C12.6899 22.35 12.5199 21.96 12.7399 21.72L13.1899 21.22H13.1799ZM13.1799 17.38C13.3299 17.21 13.5999 17.21 13.7499 17.38L14.1999 17.88C14.4199 18.13 14.2399 18.51 13.9199 18.51H13.0199C12.6899 18.51 12.5199 18.12 12.7399 17.88L13.1899 17.38H13.1799ZM13.1799 13.54C13.3299 13.37 13.5999 13.37 13.7499 13.54L14.1999 14.04C14.4199 14.29 14.2399 14.67 13.9199 14.67H13.0199C12.6899 14.67 12.5199 14.28 12.7399 14.04L13.1899 13.54H13.1799ZM13.1799 9.70003C13.3299 9.53003 13.5999 9.53003 13.7499 9.70003L14.1999 10.2C14.4199 10.45 14.2399 10.83 13.9199 10.83H13.0199C12.6899 10.83 12.5199 10.44 12.7399 10.2L13.1899 9.70003H13.1799ZM13.9099 7.00003H13.0099C12.6799 7.00003 12.5099 6.61003 12.7299 6.37003L13.1799 5.87003C13.3299 5.70003 13.5999 5.70003 13.7499 5.87003L14.1999 6.37003C14.4199 6.62003 14.2399 7.00003 13.9199 7.00003H13.9099ZM18.8699 6.87003C18.7199 7.04003 18.4499 7.04003 18.2999 6.87003L17.8499 6.37003C17.6299 6.12003 17.8099 5.74003 18.1299 5.74003H19.0299C19.3599 5.74003 19.5299 6.13003 19.3099 6.37003L18.8599 6.87003H18.8699ZM18.8699 10.71C18.7199 10.88 18.4499 10.88 18.2999 10.71L17.8499 10.21C17.6299 9.96003 17.8099 9.58003 18.1299 9.58003H19.0299C19.3599 9.58003 19.5299 9.97003 19.3099 10.21L18.8599 10.71H18.8699ZM18.8699 14.55C18.7199 14.72 18.4499 14.72 18.2999 14.55L17.8499 14.05C17.6299 13.8 17.8099 13.42 18.1299 13.42H19.0299C19.3599 13.42 19.5299 13.81 19.3099 14.05L18.8599 14.55H18.8699ZM18.8699 18.39C18.7199 18.56 18.4499 18.56 18.2999 18.39L17.8499 17.89C17.6299 17.64 17.8099 17.26 18.1299 17.26H19.0299C19.3599 17.26 19.5299 17.65 19.3099 17.89L18.8599 18.39H18.8699ZM18.8699 22.23C18.7199 22.4 18.4499 22.4 18.2999 22.23L17.8499 21.73C17.6299 21.48 17.8099 21.1 18.1299 21.1H19.0299C19.3599 21.1 19.5299 21.49 19.3099 21.73L18.8599 22.23H18.8699ZM18.8699 26.07C18.7199 26.24 18.4499 26.24 18.2999 26.07L17.8499 25.57C17.6299 25.32 17.8099 24.94 18.1299 24.94H19.0299C19.3599 24.94 19.5299 25.33 19.3099 25.57L18.8599 26.07H18.8699ZM14.7099 2.52003C14.7099 3.25003 15.2999 3.84003 16.0299 3.84003C16.7599 3.84003 17.3499 3.25003 17.3499 2.52003C17.3499 1.79003 16.7599 1.20003 16.0299 1.20003C15.2999 1.20003 14.7099 1.79003 14.7099 2.52003ZM16.8399 2.52003C16.8399 2.97003 16.4799 3.33003 16.0299 3.33003C15.5799 3.33003 15.2199 2.97003 15.2199 2.52003C15.2199 2.07003 15.5799 1.71003 16.0299 1.71003C16.4799 1.71003 16.8399 2.07003 16.8399 2.52003ZM13.9699 2.81003L13.4699 3.26003C13.2199 3.48003 12.8399 3.30003 12.8399 2.98003V2.08003C12.8399 1.75003 13.2299 1.58003 13.4699 1.80003L13.9699 2.25003C14.1399 2.40003 14.1399 2.67003 13.9699 2.82003V2.81003ZM19.1599 29.85C19.1599 30.18 18.7699 30.35 18.5299 30.13L18.0299 29.68C17.8599 29.53 17.8599 29.26 18.0299 29.11L18.5299 28.66C18.7799 28.44 19.1599 28.62 19.1599 28.94V29.84V29.85ZM19.0299 2.81003L18.5299 3.26003C18.2799 3.48003 17.8999 3.30003 17.8999 2.98003V2.08003C17.8999 1.75003 18.2899 1.58003 18.5299 1.80003L19.0299 2.25003C19.1999 2.40003 19.1999 2.67003 19.0299 2.82003V2.81003ZM16.0299 5.05003C16.1699 5.05003 16.2799 5.16003 16.2799 5.30003V26.63C16.2799 26.77 16.1699 26.88 16.0299 26.88C15.8899 26.88 15.7799 26.77 15.7799 26.63V5.30003C15.7799 5.16003 15.8899 5.05003 16.0299 5.05003Z" fill="url(#paint0_linear_8995_33394)"/>
<defs>
<linearGradient id="paint0_linear_8995_33394" x1="9.1338" y1="0.0300278" x2="27.6163" y2="2.35665" gradientUnits="userSpaceOnUse">
<stop stop-color="#B63AB4"/>
<stop offset="1" stop-color="#513B9F"/>
</linearGradient>
</defs>
</svg>
