<svg width="32" height="32" viewBox="0 0 32 32" fill="none" xmlns="http://www.w3.org/2000/svg">
<g clip-path="url(#clip0_8995_33398)">
<path d="M32.0096 6.95002L30.2596 5.20002V5.15002L32.0096 3.40002L30.2596 1.65002H1.89965H1.88965L0.139648 3.40002L1.87965 5.14002V5.21002L0.139648 6.95002L1.87965 8.69002V8.76002L0.139648 10.5L1.87965 12.24V12.31L0.139648 14.05L1.87965 15.79V15.86L0.139648 17.6L1.87965 19.34V19.41L0.139648 21.15L1.87965 22.89V22.96L0.139648 24.7L1.87965 26.44V26.51L0.139648 28.25L1.87965 29.99V30.01H30.2596L32.0096 28.24L30.2596 26.49V26.44L32.0096 24.69L30.2596 22.94V22.89L32.0096 21.14L30.2596 19.39V19.34L32.0096 17.59L30.2596 15.84V15.79L32.0096 14.04L30.2596 12.29V12.24L32.0096 10.49L30.2596 8.74002V8.69002L32.0096 6.94002V6.95002ZM29.4896 9.52002L30.4696 10.5L29.4896 11.48L29.1696 11.8V12.75L29.4896 13.07L30.4696 14.05L29.4896 15.03L29.1696 15.35V16.3L29.4896 16.62L30.4696 17.6L29.4896 18.58L29.1696 18.9V19.85L29.4896 20.17L30.4696 21.15L29.4896 22.13L29.1696 22.45V23.4L29.4896 23.72L30.4696 24.7L29.4896 25.68L29.1696 26V26.95L29.4896 27.27L30.4696 28.25L29.7896 28.93H2.34965L1.66965 28.25L2.63965 27.28L2.95965 26.96V25.99L2.63965 25.67L1.66965 24.7L2.63965 23.73L2.95965 23.41V22.44L2.63965 22.12L1.66965 21.15L2.63965 20.18L2.95965 19.86V18.89L2.63965 18.57L1.66965 17.6L2.63965 16.63L2.95965 16.31V15.34L2.63965 15.02L1.66965 14.05L2.63965 13.08L2.95965 12.76V11.79L2.63965 11.47L1.66965 10.5L2.63965 9.53002L2.95965 9.21002V8.24002L2.63965 7.92002L1.66965 6.95002L2.63965 5.98002L2.95965 5.66002V4.69002L2.63965 4.37002L1.66965 3.40002L2.33965 2.73002H29.8096L30.4796 3.40002L29.4996 4.38002L29.1796 4.70002V5.65002L29.4996 5.97002L30.4796 6.95002L29.4996 7.93002L29.1796 8.25002V9.20002L29.4996 9.52002H29.4896Z" fill="url(#paint0_linear_8995_33398)"/>
<path d="M16.08 5.29004C10.27 5.29004 5.54004 10.02 5.54004 15.83C5.54004 21.64 10.27 26.37 16.08 26.37C21.89 26.37 26.62 21.64 26.62 15.83C26.62 10.02 21.89 5.29004 16.08 5.29004ZM16.08 25.29C10.86 25.29 6.62004 21.06 6.62004 15.83C6.62004 10.6 10.85 6.37004 16.08 6.37004C21.31 6.37004 25.54 10.6 25.54 15.83C25.54 21.06 21.31 25.29 16.08 25.29Z" fill="url(#paint1_linear_8995_33398)"/>
<path d="M16.0805 10.33C16.3805 10.33 16.6205 10.09 16.6205 9.79C16.6205 9.49 16.3805 9.25 16.0805 9.25C12.4405 9.25 9.48047 12.21 9.48047 15.85C9.48047 19.49 12.4405 22.45 16.0805 22.45C16.3805 22.45 16.6205 22.21 16.6205 21.91C16.6205 21.61 16.3805 21.37 16.0805 21.37C13.0405 21.37 10.5705 18.9 10.5705 15.86C10.5705 12.82 13.0405 10.35 16.0805 10.35V10.33Z" fill="url(#paint2_linear_8995_33398)"/>
</g>
<defs>
<linearGradient id="paint0_linear_8995_33398" x1="2.92827" y1="1.65002" x2="36.2746" y2="10.6334" gradientUnits="userSpaceOnUse">
<stop stop-color="#B63AB4"/>
<stop offset="1" stop-color="#513B9F"/>
</linearGradient>
<linearGradient id="paint1_linear_8995_33398" x1="7.38454" y1="5.29004" x2="29.7561" y2="10.6531" gradientUnits="userSpaceOnUse">
<stop stop-color="#B63AB4"/>
<stop offset="1" stop-color="#513B9F"/>
</linearGradient>
<linearGradient id="paint2_linear_8995_33398" x1="10.1052" y1="9.25" x2="17.9857" y2="10.2719" gradientUnits="userSpaceOnUse">
<stop stop-color="#B63AB4"/>
<stop offset="1" stop-color="#513B9F"/>
</linearGradient>
<clipPath id="clip0_8995_33398">
<rect width="32" height="32" fill="white"/>
</clipPath>
</defs>
</svg>
