<svg width="32" height="32" viewBox="0 0 32 32" fill="none" xmlns="http://www.w3.org/2000/svg">
<path d="M31.0702 11.55C30.9102 11.44 30.7202 11.39 30.5302 11.31C30.5302 10.48 30.3002 9.76001 29.7302 9.21001C29.8102 8.89001 30.1002 8.63001 29.8202 8.22001C29.5902 8.44001 29.4002 8.63001 29.2402 8.79001H27.5702C27.5302 8.58001 27.5102 8.39001 27.4502 8.23001C27.4202 8.14001 27.2702 8.04001 27.1902 8.05001C27.1102 8.06001 26.9902 8.19001 26.9702 8.29001C26.9502 8.47001 27.0102 8.65001 26.9902 8.83001C26.9702 8.97001 26.9102 9.15001 26.8002 9.23001C26.4002 9.53001 25.9802 9.79001 25.5702 10.05C25.3002 9.62001 25.0802 9.14001 24.7502 8.77001C24.4202 8.41001 23.9902 8.14001 23.5902 7.83001C23.9202 7.24001 24.2402 6.64001 24.5702 6.04001C24.8102 5.94001 25.1602 6.10001 25.2602 5.66001C25.0602 5.57001 24.8702 5.48001 24.6702 5.39001C24.6202 4.89001 24.5602 4.39001 24.5102 3.93001C24.7802 3.68001 25.2302 3.69001 25.1802 3.13001C24.8702 3.19001 24.5902 3.24001 24.2602 3.29001C23.9602 2.43001 23.2102 2.10001 22.3902 1.75001C22.3902 1.43001 22.3902 1.12001 22.3902 0.79001C22.3902 0.61001 22.3902 0.41001 22.3302 0.25001C22.2902 0.15001 22.1402 0.0900098 22.0402 0.0100098C21.9702 0.10001 21.8702 0.18001 21.8502 0.28001C21.8202 0.41001 21.8502 0.56001 21.8502 0.70001C21.8502 1.04001 21.8502 1.38001 21.8502 1.70001C21.2002 1.85001 20.6202 1.99001 20.0202 2.14001C19.8802 1.76001 19.7602 1.39001 19.6102 1.05001C19.5702 0.96001 19.3902 0.94001 19.2702 0.89001C19.2302 1.01001 19.1302 1.14001 19.1502 1.25001C19.2002 1.53001 19.3002 1.79001 19.4002 2.06001C19.5002 2.34001 19.4702 2.54001 19.2202 2.74001C18.6102 3.23001 18.3802 3.90001 18.4102 4.67001C18.4502 5.91001 18.5502 7.14001 19.0502 8.29001C19.1402 8.50001 19.2302 8.69001 19.0002 8.89001C18.5502 9.29001 18.1102 9.70001 17.6602 10.12C17.4902 10.05 17.3102 9.93001 17.1202 9.91001C17.0002 9.89001 16.8502 9.99001 16.7202 10.04C16.7802 10.15 16.8102 10.3 16.9002 10.37C17.0302 10.48 17.2002 10.55 17.4102 10.67C16.7802 11.63 16.2302 12.59 16.1202 13.67H13.1702C13.1602 13.16 13.1602 12.7 13.1402 12.24C13.1402 12.03 13.1802 11.73 12.8802 11.72C12.5602 11.72 12.6202 12.02 12.6202 12.23C12.6102 12.73 12.6202 13.23 12.6202 13.76C12.1502 13.93 11.7102 14.09 11.1902 14.28C11.1002 12.62 10.8502 11.07 9.40022 10.12C9.60022 9.66001 10.1502 9.49001 10.1302 8.89001C9.47022 8.94001 9.24022 9.57001 8.75022 9.84001C7.97022 9.52001 7.17022 9.63001 6.37022 9.84001C6.30022 9.67001 6.25022 9.56001 6.22022 9.44001C6.14022 9.19001 6.09022 8.93001 5.98022 8.69001C5.94022 8.58001 5.79022 8.53001 5.69022 8.44001C5.62022 8.57001 5.52022 8.69001 5.49022 8.83001C5.47022 8.94001 5.54022 9.07001 5.57022 9.18001C5.65022 9.45001 5.72022 9.72001 5.81022 10.02C5.39022 10.26 4.98022 10.5 4.53022 10.76C4.34022 10.6 4.15022 10.42 3.93022 10.28C3.82022 10.21 3.60022 10.16 3.52022 10.22C3.33022 10.36 3.44022 10.54 3.58022 10.68C3.76022 10.86 3.94022 11.03 4.15022 11.22C3.40022 12.04 3.19022 13 3.15022 14.06C2.73022 14.17 2.32022 14.27 1.92022 14.37C1.70022 14.43 1.36022 14.39 1.43022 14.74C1.50022 15.06 1.81022 14.95 2.04022 14.91C2.43022 14.83 2.81022 14.73 3.14022 14.66C3.48022 15.22 3.75022 15.77 4.10022 16.25C4.35022 16.59 4.40022 16.86 4.21022 17.23C4.09022 17.45 3.97022 17.72 4.16022 18.11C4.43022 17.78 4.64022 17.52 4.84022 17.28C5.50022 17.81 6.15022 18.34 6.83022 18.88C6.73022 19.41 6.62022 19.95 6.51022 20.53C6.35022 20.47 6.24022 20.43 6.13022 20.39C5.96022 20.32 5.78022 20.31 5.74022 20.51C5.72022 20.63 5.83022 20.81 5.94022 20.89C6.11022 21.02 6.32022 21.09 6.57022 21.21C6.57022 21.66 6.58022 22.1 6.57022 22.54C6.56022 23 6.68022 23.46 6.51022 23.94C6.12022 23.98 5.74022 24.01 5.37022 24.07C5.27022 24.09 5.19022 24.23 5.10022 24.33C5.20022 24.41 5.28022 24.53 5.39022 24.57C5.51022 24.61 5.67022 24.58 5.80022 24.57C6.05022 24.56 6.31022 24.54 6.60022 24.52C6.68022 25.06 6.75022 25.57 6.82022 26.1C6.54022 26.2 6.31022 26.28 6.09022 26.36C5.93022 26.42 5.76022 26.52 5.86022 26.7C5.91022 26.8 6.12022 26.88 6.25022 26.86C6.48022 26.84 6.71022 26.74 6.93022 26.68C7.26022 27.29 7.57022 27.88 7.91022 28.53C7.66022 28.54 7.49022 28.55 7.32022 28.57C7.13022 28.58 6.93022 28.6 6.95022 28.85C6.96022 29.09 7.17022 29.1 7.35022 29.11C7.64022 29.11 7.94022 29.11 8.28022 29.11C8.38022 29.49 8.47022 29.84 8.57022 30.18C8.64022 30.43 8.72022 30.69 8.80022 30.93C8.94022 31.34 9.25022 31.54 9.65022 31.6C10.3402 31.71 11.0302 31.82 11.7202 31.91C13.5002 32.13 15.2602 31.91 17.0102 31.56C18.0802 31.34 18.8202 30.79 19.2402 29.76C19.5002 29.13 19.8002 28.51 20.0602 27.94C20.3402 27.79 20.6402 28 20.8602 27.67C20.6702 27.52 20.4902 27.38 20.3002 27.22C20.3902 26.4 20.4302 25.57 20.6802 24.8C21.0802 24.68 21.5702 25.07 21.8302 24.53C21.5702 24.15 21.1502 24.33 20.7502 24.12C21.0602 22.87 20.7902 21.59 20.7002 20.35C21.0202 20.29 21.2802 20.23 21.5902 20.17C21.3502 19.69 20.9102 19.82 20.6102 19.63C20.4702 19.07 20.3302 18.5 20.1702 17.89C20.7802 17.65 21.3502 17.43 21.8702 17.22C22.2702 17.62 22.1702 18.29 22.8102 18.44C22.9902 17.88 22.5402 17.47 22.5102 16.97C24.2102 16.28 25.4802 15.2 25.7902 13.23C26.4202 13.28 27.0002 13.32 27.5702 13.36C27.7002 13.75 27.5902 14.17 28.0402 14.45C28.1102 14.05 28.1702 13.71 28.2302 13.34C29.1502 13.2 29.9402 12.87 30.3202 11.92C30.5302 11.97 30.7002 12.03 30.8702 12.06C31.0402 12.09 31.2702 12.15 31.3102 11.91C31.3202 11.81 31.1602 11.65 31.0402 11.57L31.0702 11.55ZM19.0002 4.42001C19.0102 3.86001 19.1502 3.62001 19.6402 3.19001C19.8402 3.64001 19.8602 4.11001 20.2602 4.45001C20.5302 3.87001 20.1902 3.36001 20.2202 2.78001C20.7202 2.53001 21.2402 2.35001 21.8502 2.38001C21.9602 2.78001 21.8302 3.22001 22.1102 3.56001C22.2836 3.37334 22.4069 3.00001 22.4802 2.44001C22.9602 2.56001 23.3902 2.77001 23.6102 3.22001C23.8102 3.62001 23.9602 4.07001 24.0502 4.51001C24.2002 5.27001 24.1002 6.00001 23.6502 6.65001C23.4302 6.98001 23.2402 7.33001 23.0702 7.61001C22.4102 7.61001 21.8202 7.53001 21.2702 7.63001C20.7402 7.74001 20.2402 8.04001 19.6702 8.29001C19.5502 7.97001 19.4002 7.64001 19.3102 7.30001C19.0602 6.36001 18.9802 5.39001 19.0102 4.42001H19.0002ZM5.23022 16.8C5.15022 16.71 5.14022 16.55 5.12022 16.42C5.11022 16.35 5.15022 16.26 5.16022 16.18C5.22022 15.94 5.33022 15.66 5.05022 15.53C4.72022 15.38 4.74022 15.8 4.52022 15.99C4.25022 15.51 4.00022 15.06 3.73022 14.59C4.03022 14.41 4.28022 14.26 4.52022 14.12C4.52022 14.07 4.50022 14.03 4.50022 13.98C4.26022 13.93 4.02022 13.88 3.75022 13.82C3.75022 13.03 3.96022 12.33 4.49022 11.72C4.80022 11.73 4.95022 12.24 5.40022 11.96C5.27022 11.72 5.15022 11.49 4.98022 11.18C5.29022 11 5.61022 10.82 5.93022 10.64C6.14022 10.93 6.32022 11.18 6.52022 11.45C6.82022 11.07 6.57022 10.75 6.60022 10.43C7.15022 10.19 7.70022 10.16 8.25022 10.3C8.27022 10.36 8.28022 10.38 8.28022 10.4C8.25022 10.6 7.96022 10.8 8.25022 10.98C8.50022 11.13 8.63022 10.86 8.79022 10.72C8.83022 10.68 8.88022 10.65 8.96022 10.59C9.52022 10.84 9.96022 11.21 10.1602 11.86C9.99022 11.92 9.82022 11.95 9.70022 12.04C9.61022 12.11 9.54022 12.26 9.54022 12.37C9.54022 12.42 9.71022 12.52 9.81022 12.52C9.97022 12.52 10.1202 12.47 10.3102 12.44C10.7402 13.09 10.5702 13.84 10.6602 14.5C9.93022 15.06 9.21022 15.57 8.54022 16.13C7.88022 16.69 7.43022 17.44 7.08022 18.29C6.34022 17.86 5.74022 17.38 5.23022 16.78V16.8ZM20.2202 20.99C20.4702 22.39 20.3102 23.77 20.0302 25.15C19.9002 25.78 19.8402 26.43 19.7402 27.13C19.5102 27.12 19.3002 27.1 19.0902 27.09C18.9102 27.08 18.7002 27.05 18.6602 27.29C18.6202 27.57 18.8502 27.6 19.0502 27.63C19.1802 27.65 19.3202 27.68 19.5002 27.71C19.4602 27.86 19.4302 27.99 19.3802 28.11C19.1102 28.7 18.8402 29.29 18.5702 29.87C18.3202 30.4 17.9202 30.74 17.3602 30.88C15.2902 31.41 13.1902 31.61 11.0702 31.24C10.6802 31.17 10.2902 31.08 9.89022 31.05C9.53022 31.03 9.33022 30.86 9.24022 30.53C9.11022 30.06 9.00022 29.59 8.86022 29.06C9.04022 28.98 9.18022 28.92 9.33022 28.86C9.31022 28.78 9.31022 28.72 9.29022 28.67C9.28022 28.64 9.23022 28.6 9.20022 28.59C8.09022 28.34 7.96022 27.31 7.50022 26.5C7.86022 26.3 8.16022 26.13 8.52022 25.93C8.14022 25.56 7.78022 25.82 7.42022 25.81C7.22022 25.38 7.17022 24.9 7.18022 24.41C7.52022 24.17 8.02022 24.26 8.27022 23.83C7.94022 23.42 7.54022 23.81 7.17022 23.69C7.16022 23.54 7.14022 23.38 7.13022 23.22C7.13022 22.63 7.13022 22.05 7.13022 21.42C7.32022 21.39 7.54022 21.36 7.81022 21.33C7.72022 20.93 7.36022 20.92 7.10022 20.7C7.11022 20.54 7.11022 20.35 7.14022 20.15C7.35022 18.66 7.94022 17.35 9.08022 16.35C10.1002 15.45 11.2502 14.79 12.6002 14.36C12.6902 14.62 12.7702 14.85 12.8502 15.11C13.3002 14.99 13.1202 14.56 13.3202 14.25C14.6302 14.14 15.9802 14.07 17.2502 14.69C18.1402 15.12 18.7202 15.89 19.1102 16.76C19.4702 17.55 19.6702 18.4 19.9602 19.22C20.0802 19.57 19.7702 19.66 19.6502 19.83C19.6702 19.92 19.6702 19.98 19.6902 19.99C20.1502 20.17 20.1402 20.58 20.2102 20.97L20.2202 20.99ZM25.2202 13.17C25.0802 14.72 24.0702 15.65 22.7402 16.25C21.8702 16.64 20.9602 16.96 20.0102 17.33C19.3002 15.81 18.4602 14.41 16.7302 13.9C16.7002 13.02 16.9702 12.31 17.9102 11.01C18.1402 11.12 18.3702 11.22 18.6202 11.34C18.8002 10.91 18.4002 10.76 18.2602 10.45C18.2902 10.39 18.3302 10.29 18.3902 10.23C19.0602 9.67001 19.7102 9.06001 20.4302 8.56001C22.0402 7.43001 24.6702 8.39001 25.0902 10.64C25.2502 11.46 25.2802 12.33 25.2102 13.17H25.2202ZM29.8802 11.53C29.6802 12.28 29.1702 12.63 28.2002 12.72C28.1902 12.48 28.2002 12.27 28.1602 12.09C28.1302 11.98 28.0102 11.88 27.9002 11.84C27.8602 11.82 27.7002 11.97 27.6802 12.06C27.6302 12.27 27.6402 12.49 27.6102 12.79C27.0302 12.75 26.4702 12.71 25.8702 12.67C25.8202 12.06 25.7502 11.5 25.7302 10.94C25.7302 10.81 25.8302 10.63 25.9402 10.54C26.2602 10.27 26.6002 10.02 26.9502 9.75001C27.1002 9.93001 27.2202 10.08 27.3502 10.23C27.6402 10.05 27.5202 9.74001 27.6302 9.51001C28.3102 9.17001 28.8802 9.20001 29.3902 9.69001C29.9202 10.19 30.0602 10.83 29.8702 11.53H29.8802Z" fill="url(#paint0_linear_8995_33250)"/>
<path d="M10.4199 21.4501C10.6199 20.8601 10.8099 20.2701 10.9699 19.6801C10.9899 19.5901 10.8799 19.4001 10.7899 19.3501C10.6099 19.2701 10.4999 19.4301 10.4599 19.6001C10.3199 20.1401 10.1899 20.6901 10.0699 21.2401C10.0399 21.3601 10.0899 21.5001 10.1099 21.7101C10.2599 21.5901 10.3899 21.5401 10.4199 21.4501Z" fill="url(#paint1_linear_8995_33250)"/>
<path d="M14.8101 22.8701C14.7201 22.8501 14.5801 22.9101 14.5101 22.9801C14.4701 23.0301 14.4901 23.1801 14.5301 23.2501C14.5901 23.3401 14.7001 23.4401 14.8001 23.4701C15.4101 23.6701 16.0201 23.8301 16.6601 23.7301C16.6801 23.6701 16.7001 23.6201 16.7201 23.5601C16.5401 23.4601 16.3701 23.3401 16.1701 23.2701C15.7201 23.1201 15.2601 22.9901 14.8001 22.8701H14.8101Z" fill="url(#paint2_linear_8995_33250)"/>
<path d="M8.71998 19.35C8.63998 19.33 8.46998 19.42 8.44998 19.5C8.29998 20 8.15998 20.51 8.04998 21.02C8.01998 21.14 8.10998 21.28 8.13998 21.41C8.18998 21.41 8.23998 21.43 8.28998 21.43C8.67998 20.89 8.79998 20.24 8.91998 19.6C8.92998 19.53 8.80998 19.37 8.72998 19.35H8.71998Z" fill="url(#paint3_linear_8995_33250)"/>
<path d="M10.7105 24.1601C10.7105 24.0801 10.5605 23.9001 10.5205 23.9101C10.4105 23.9401 10.2405 24.0301 10.2205 24.1201C10.1105 24.7201 10.0005 25.3301 10.1805 26.0901C10.6605 25.4301 10.6505 24.7901 10.7005 24.1601H10.7105Z" fill="url(#paint4_linear_8995_33250)"/>
<path d="M17.8605 24.47C17.7505 24.46 17.5505 24.6 17.5105 24.71C17.3505 25.2 17.1505 25.7 17.2905 26.38C17.4605 26.19 17.5805 26.11 17.6205 26C17.7705 25.62 17.8905 25.24 18.0105 24.86C18.0605 24.69 18.0505 24.5 17.8505 24.48L17.8605 24.47Z" fill="url(#paint5_linear_8995_33250)"/>
<path d="M13.7703 18.73C13.6803 18.74 13.5503 18.8 13.5403 18.87C13.4203 19.4 13.3103 19.92 13.4203 20.52C13.8103 20.41 13.8803 20.17 13.9003 19.93C13.9403 19.57 13.9403 19.21 13.9403 18.85C13.9403 18.81 13.8203 18.72 13.7603 18.73H13.7703Z" fill="url(#paint6_linear_8995_33250)"/>
<path d="M16.6702 20.6899C16.5802 20.7099 16.4602 20.7699 16.4402 20.8399C16.3202 21.3599 16.1502 21.8799 16.4402 22.4299C16.7702 22.2599 16.7802 21.9599 16.8202 21.6999C16.8602 21.4099 16.8502 21.0999 16.8402 20.7999C16.8402 20.7599 16.7202 20.6899 16.6602 20.6999L16.6702 20.6899Z" fill="url(#paint7_linear_8995_33250)"/>
<path d="M11.1004 22.53C11.0204 22.51 10.8504 22.59 10.8204 22.67C10.7904 22.74 10.8504 22.94 10.9204 22.96C11.3804 23.17 11.8204 23.47 12.4804 23.36C12.1004 22.8 11.6104 22.65 11.1104 22.52L11.1004 22.53Z" fill="url(#paint8_linear_8995_33250)"/>
<path d="M11.9802 16.56C11.5302 16.35 11.1802 16.17 10.8202 16.03C10.7102 15.99 10.5702 16.03 10.4502 16.03C10.4702 16.17 10.4502 16.36 10.5202 16.46C10.7902 16.8 11.4302 16.87 11.9802 16.56Z" fill="url(#paint9_linear_8995_33250)"/>
<path d="M14.9304 27.88C14.8704 27.94 14.8204 28.06 14.8404 28.14C14.8604 28.22 14.9804 28.33 15.0404 28.32C15.5004 28.25 15.9804 28.27 16.4304 27.91C15.9904 27.63 15.2104 27.63 14.9304 27.88Z" fill="url(#paint10_linear_8995_33250)"/>
<path d="M9.51033 17.3501C9.43033 17.3501 9.30033 17.4301 9.29033 17.5001C9.20033 17.9401 8.99033 18.3701 9.11033 18.8901C9.46033 18.8401 9.57033 18.6201 9.62033 18.3901C9.69033 18.1101 9.71033 17.8101 9.72033 17.5101C9.72033 17.4501 9.59033 17.3501 9.51033 17.3501Z" fill="url(#paint11_linear_8995_33250)"/>
<path d="M17.3896 19.0701C17.0796 19.0601 16.7696 19.1001 16.4596 19.1401C16.4096 19.1401 16.3396 19.3001 16.3496 19.3801C16.3596 19.4601 16.4696 19.5701 16.5396 19.5701C16.9996 19.5901 17.4796 19.6801 17.9496 19.2501C17.7596 19.1901 17.5796 19.0701 17.3896 19.0601V19.0701Z" fill="url(#paint12_linear_8995_33250)"/>
<path d="M10.1396 26.97C10.1996 27.09 10.2196 27.28 10.2996 27.31C10.7396 27.49 11.1896 27.54 11.6796 27.47C11.3996 26.93 10.9096 26.76 10.1396 26.96V26.97Z" fill="url(#paint13_linear_8995_33250)"/>
<path d="M16.8801 15.2801C16.8801 15.2101 16.7901 15.0601 16.7301 15.0601C16.6301 15.0601 16.4701 15.1101 16.4401 15.1801C16.2701 15.6001 16.0501 16.0201 16.1701 16.5901C16.7401 16.2701 16.8201 15.7801 16.8701 15.2801H16.8801Z" fill="url(#paint14_linear_8995_33250)"/>
<path d="M13.8505 16.99C14.3105 17.11 14.7705 17.31 15.3905 17.1C14.9305 16.58 14.4305 16.55 13.9205 16.56C13.8505 16.56 13.7505 16.68 13.7305 16.75C13.7205 16.83 13.7905 16.98 13.8405 17L13.8505 16.99Z" fill="url(#paint15_linear_8995_33250)"/>
<path d="M12.9803 28.3501C12.9203 28.3501 12.8403 28.4201 12.8103 28.4801C12.6303 28.8301 12.8903 29.4701 13.2703 29.6701C13.3803 29.3701 13.3703 28.6701 13.2303 28.4801C13.1803 28.4101 13.0703 28.3601 12.9803 28.3601V28.3501Z" fill="url(#paint16_linear_8995_33250)"/>
<path d="M15.7001 28.9499C15.6201 28.9399 15.4901 29.0099 15.4601 29.0699C15.3401 29.3999 15.2501 29.7499 15.4701 30.0899C15.8201 29.8399 15.9901 29.4599 15.8801 29.1399C15.8501 29.0599 15.7601 28.9599 15.6901 28.9499H15.7001Z" fill="url(#paint17_linear_8995_33250)"/>
<path d="M11.1403 29.1699C11.0603 29.1699 10.9003 29.2899 10.9003 29.3599C10.8703 29.6699 10.8903 29.9699 10.8903 30.2799C10.9503 30.2899 11.0103 30.2999 11.0703 30.3099C11.3803 30.0799 11.4303 29.7399 11.3703 29.3799C11.3503 29.2999 11.2203 29.1699 11.1503 29.1699H11.1403Z" fill="url(#paint18_linear_8995_33250)"/>
<path d="M13.3098 25.5C13.2298 25.5 13.0898 25.62 13.0698 25.71C13.0098 26.06 12.9798 26.42 13.3998 26.72C13.5698 26.34 13.5998 26.03 13.5298 25.72C13.5098 25.63 13.3798 25.5 13.3098 25.5Z" fill="url(#paint19_linear_8995_33250)"/>
<path d="M18.7497 21.6701C18.6597 21.6501 18.4997 21.7301 18.4697 21.8101C18.4397 21.8901 18.4897 22.0601 18.5697 22.1101C18.8197 22.2901 19.0897 22.3801 19.4297 22.1701C19.2997 21.7801 19.0197 21.7201 18.7497 21.6701Z" fill="url(#paint20_linear_8995_33250)"/>
<path d="M21.4399 12.55C21.3399 12.55 21.1799 12.62 21.1599 12.7C20.9999 13.19 20.8299 13.68 21.0099 14.24C21.1199 14.22 21.1699 14.22 21.1899 14.2C21.5799 13.79 21.5299 13.25 21.6199 12.74C21.6299 12.68 21.4999 12.55 21.4399 12.55Z" fill="url(#paint21_linear_8995_33250)"/>
<path d="M22.4596 14.1999C22.0796 14.5999 21.6696 14.9799 21.6396 15.7099C22.2696 15.4399 22.5196 14.9699 22.7696 14.5199C22.8096 14.4499 22.7396 14.2999 22.6796 14.2099C22.6596 14.1699 22.4996 14.1599 22.4696 14.2099L22.4596 14.1999Z" fill="url(#paint22_linear_8995_33250)"/>
<path d="M21.4404 10.6801C21.3604 10.7001 21.2504 10.8201 21.2604 10.8801C21.2704 10.9801 21.3504 11.1301 21.4404 11.1501C21.8704 11.2901 22.3104 11.4501 22.8304 11.2701C22.5504 10.8901 21.7704 10.5801 21.4404 10.6801Z" fill="url(#paint23_linear_8995_33250)"/>
<path d="M23.5202 13.2601C23.4302 13.2201 23.2802 13.3101 23.1602 13.3401C23.2102 13.4701 23.2302 13.6701 23.3302 13.7301C23.6802 13.9501 24.0702 14.1201 24.5902 13.9801C24.3302 13.5001 23.9002 13.4201 23.5302 13.2601H23.5202Z" fill="url(#paint24_linear_8995_33250)"/>
<path d="M19.9396 14.98C19.8796 15 19.8296 15.18 19.8596 15.23C20.0696 15.63 20.2496 16.06 20.8496 16.23C20.7896 15.67 20.5596 15.3 20.2496 14.99C20.1896 14.93 20.0296 14.93 19.9396 14.97V14.98Z" fill="url(#paint25_linear_8995_33250)"/>
<path d="M21.2296 9.05996C21.5096 9.24996 22.0996 9.13996 22.4396 8.84996C22.0896 8.53996 21.6796 8.56996 21.2696 8.60996C21.1996 8.60996 21.0996 8.73996 21.0996 8.80996C21.0896 8.88996 21.1596 8.99996 21.2296 9.04996V9.05996Z" fill="url(#paint26_linear_8995_33250)"/>
<path d="M19.3201 12.9699C19.2401 12.8999 19.0801 12.9299 18.9601 12.9199C18.9601 13.0499 18.8901 13.1999 18.9501 13.2999C19.1101 13.5699 19.3601 13.7199 19.7701 13.7399C19.7701 13.3399 19.5401 13.1499 19.3301 12.9699H19.3201Z" fill="url(#paint27_linear_8995_33250)"/>
<path d="M7.42011 12.87C7.34011 12.87 7.17011 13.02 7.18011 13.06C7.21011 13.17 7.30011 13.34 7.39011 13.35C7.75011 13.41 8.13011 13.5 8.50011 13.17C8.18011 12.76 7.77011 12.88 7.42011 12.86V12.87Z" fill="url(#paint28_linear_8995_33250)"/>
<path d="M6.60959 14.31C6.51959 14.32 6.39959 14.39 6.37959 14.46C6.29959 14.85 6.22959 15.25 6.48959 15.61C6.81959 15.34 6.96959 14.74 6.78959 14.43C6.74959 14.37 6.65959 14.3 6.60959 14.31Z" fill="url(#paint29_linear_8995_33250)"/>
<path d="M21.2498 6.22003C21.2398 6.14003 21.1498 6.03003 21.0798 6.01003C21.0098 5.99003 20.8598 6.03003 20.8298 6.10003C20.6398 6.46003 20.4498 6.84003 20.6098 7.29003C20.9898 7.10003 21.3098 6.56003 21.2498 6.23003V6.22003Z" fill="url(#paint30_linear_8995_33250)"/>
<path d="M21.8797 5.34003C22.2197 5.43003 22.5597 5.46003 22.8797 5.13003C22.5697 4.85003 22.2397 4.85003 21.9197 4.89003C21.8397 4.90003 21.7197 5.02003 21.7197 5.07003C21.7197 5.16003 21.7997 5.32003 21.8797 5.34003Z" fill="url(#paint31_linear_8995_33250)"/>
<path d="M28.7803 10.2099C28.6703 10.2499 28.5303 10.3799 28.5303 10.4699C28.5303 10.8199 28.5803 11.1799 28.6103 11.5599C29.0403 11.3199 29.2003 10.8399 29.0203 10.4199C28.9803 10.3299 28.8303 10.1899 28.7803 10.2099Z" fill="url(#paint32_linear_8995_33250)"/>
<defs>
<linearGradient id="paint0_linear_8995_33250" x1="4.03625" y1="0.0100083" x2="35.9777" y2="7.1649" gradientUnits="userSpaceOnUse">
<stop stop-color="#B63AB4"/>
<stop offset="1" stop-color="#513B9F"/>
</linearGradient>
<linearGradient id="paint1_linear_8995_33250" x1="10.1403" y1="19.3289" x2="11.155" y2="19.422" gradientUnits="userSpaceOnUse">
<stop stop-color="#B63AB4"/>
<stop offset="1" stop-color="#513B9F"/>
</linearGradient>
<linearGradient id="paint2_linear_8995_33250" x1="14.6836" y1="22.8662" x2="16.5283" y2="23.9696" gradientUnits="userSpaceOnUse">
<stop stop-color="#B63AB4"/>
<stop offset="1" stop-color="#513B9F"/>
</linearGradient>
<linearGradient id="paint3_linear_8995_33250" x1="8.12065" y1="19.3472" x2="9.09454" y2="19.4454" gradientUnits="userSpaceOnUse">
<stop stop-color="#B63AB4"/>
<stop offset="1" stop-color="#513B9F"/>
</linearGradient>
<linearGradient id="paint4_linear_8995_33250" x1="10.1397" y1="23.9097" x2="10.8384" y2="23.9577" gradientUnits="userSpaceOnUse">
<stop stop-color="#B63AB4"/>
<stop offset="1" stop-color="#513B9F"/>
</linearGradient>
<linearGradient id="paint5_linear_8995_33250" x1="17.3125" y1="24.4695" x2="18.1934" y2="24.5571" gradientUnits="userSpaceOnUse">
<stop stop-color="#B63AB4"/>
<stop offset="1" stop-color="#513B9F"/>
</linearGradient>
<linearGradient id="paint6_linear_8995_33250" x1="13.4245" y1="18.7292" x2="14.0553" y2="18.777" gradientUnits="userSpaceOnUse">
<stop stop-color="#B63AB4"/>
<stop offset="1" stop-color="#513B9F"/>
</linearGradient>
<linearGradient id="paint7_linear_8995_33250" x1="16.33" y1="20.6899" x2="16.9645" y2="20.7397" gradientUnits="userSpaceOnUse">
<stop stop-color="#B63AB4"/>
<stop offset="1" stop-color="#513B9F"/>
</linearGradient>
<linearGradient id="paint8_linear_8995_33250" x1="10.9584" y1="22.52" x2="12.4998" y2="23.2337" gradientUnits="userSpaceOnUse">
<stop stop-color="#B63AB4"/>
<stop offset="1" stop-color="#513B9F"/>
</linearGradient>
<linearGradient id="paint9_linear_8995_33250" x1="10.5841" y1="16.0122" x2="11.9666" y2="16.6923" gradientUnits="userSpaceOnUse">
<stop stop-color="#B63AB4"/>
<stop offset="1" stop-color="#513B9F"/>
</linearGradient>
<linearGradient id="paint10_linear_8995_33250" x1="14.9755" y1="27.696" x2="16.2773" y2="28.4928" gradientUnits="userSpaceOnUse">
<stop stop-color="#B63AB4"/>
<stop offset="1" stop-color="#513B9F"/>
</linearGradient>
<linearGradient id="paint11_linear_8995_33250" x1="9.13075" y1="17.3501" x2="9.8486" y2="17.4223" gradientUnits="userSpaceOnUse">
<stop stop-color="#B63AB4"/>
<stop offset="1" stop-color="#513B9F"/>
</linearGradient>
<linearGradient id="paint12_linear_8995_33250" x1="16.4887" y1="19.0601" x2="17.6696" y2="19.9128" gradientUnits="userSpaceOnUse">
<stop stop-color="#B63AB4"/>
<stop offset="1" stop-color="#513B9F"/>
</linearGradient>
<linearGradient id="paint13_linear_8995_33250" x1="10.2744" y1="26.8789" x2="11.5519" y2="27.6378" gradientUnits="userSpaceOnUse">
<stop stop-color="#B63AB4"/>
<stop offset="1" stop-color="#513B9F"/>
</linearGradient>
<linearGradient id="paint14_linear_8995_33250" x1="16.2009" y1="15.0601" x2="17.025" y2="15.1562" gradientUnits="userSpaceOnUse">
<stop stop-color="#B63AB4"/>
<stop offset="1" stop-color="#513B9F"/>
</linearGradient>
<linearGradient id="paint15_linear_8995_33250" x1="13.8748" y1="16.5586" x2="15.2106" y2="17.3986" gradientUnits="userSpaceOnUse">
<stop stop-color="#B63AB4"/>
<stop offset="1" stop-color="#513B9F"/>
</linearGradient>
<linearGradient id="paint16_linear_8995_33250" x1="12.8038" y1="28.3501" x2="13.4617" y2="28.421" gradientUnits="userSpaceOnUse">
<stop stop-color="#B63AB4"/>
<stop offset="1" stop-color="#513B9F"/>
</linearGradient>
<linearGradient id="paint17_linear_8995_33250" x1="15.3865" y1="28.949" x2="16.0251" y2="29.0265" gradientUnits="userSpaceOnUse">
<stop stop-color="#B63AB4"/>
<stop offset="1" stop-color="#513B9F"/>
</linearGradient>
<linearGradient id="paint18_linear_8995_33250" x1="10.9283" y1="29.1699" x2="11.4927" y2="29.2303" gradientUnits="userSpaceOnUse">
<stop stop-color="#B63AB4"/>
<stop offset="1" stop-color="#513B9F"/>
</linearGradient>
<linearGradient id="paint19_linear_8995_33250" x1="13.0815" y1="25.5" x2="13.6698" y2="25.5612" gradientUnits="userSpaceOnUse">
<stop stop-color="#B63AB4"/>
<stop offset="1" stop-color="#513B9F"/>
</linearGradient>
<linearGradient id="paint20_linear_8995_33250" x1="18.5457" y1="21.667" x2="19.5009" y2="22.0222" gradientUnits="userSpaceOnUse">
<stop stop-color="#B63AB4"/>
<stop offset="1" stop-color="#513B9F"/>
</linearGradient>
<linearGradient id="paint21_linear_8995_33250" x1="20.9928" y1="12.55" x2="21.7574" y2="12.6246" gradientUnits="userSpaceOnUse">
<stop stop-color="#B63AB4"/>
<stop offset="1" stop-color="#513B9F"/>
</linearGradient>
<linearGradient id="paint22_linear_8995_33250" x1="21.7396" y1="14.176" x2="22.9814" y2="14.3976" gradientUnits="userSpaceOnUse">
<stop stop-color="#B63AB4"/>
<stop offset="1" stop-color="#513B9F"/>
</linearGradient>
<linearGradient id="paint23_linear_8995_33250" x1="21.3972" y1="10.6611" x2="22.7546" y2="11.4028" gradientUnits="userSpaceOnUse">
<stop stop-color="#B63AB4"/>
<stop offset="1" stop-color="#513B9F"/>
</linearGradient>
<linearGradient id="paint24_linear_8995_33250" x1="23.2853" y1="13.25" x2="24.6309" y2="13.8406" gradientUnits="userSpaceOnUse">
<stop stop-color="#B63AB4"/>
<stop offset="1" stop-color="#513B9F"/>
</linearGradient>
<linearGradient id="paint25_linear_8995_33250" x1="19.938" y1="14.9421" x2="21.0216" y2="15.1436" gradientUnits="userSpaceOnUse">
<stop stop-color="#B63AB4"/>
<stop offset="1" stop-color="#513B9F"/>
</linearGradient>
<linearGradient id="paint26_linear_8995_33250" x1="21.216" y1="8.58545" x2="22.3567" y2="9.22995" gradientUnits="userSpaceOnUse">
<stop stop-color="#B63AB4"/>
<stop offset="1" stop-color="#513B9F"/>
</linearGradient>
<linearGradient id="paint27_linear_8995_33250" x1="18.9997" y1="12.9199" x2="19.8928" y2="13.1404" gradientUnits="userSpaceOnUse">
<stop stop-color="#B63AB4"/>
<stop offset="1" stop-color="#513B9F"/>
</linearGradient>
<linearGradient id="paint28_linear_8995_33250" x1="7.29522" y1="12.8582" x2="8.40853" y2="13.4987" gradientUnits="userSpaceOnUse">
<stop stop-color="#B63AB4"/>
<stop offset="1" stop-color="#513B9F"/>
</linearGradient>
<linearGradient id="paint29_linear_8995_33250" x1="6.35564" y1="14.3091" x2="6.97743" y2="14.3732" gradientUnits="userSpaceOnUse">
<stop stop-color="#B63AB4"/>
<stop offset="1" stop-color="#513B9F"/>
</linearGradient>
<linearGradient id="paint30_linear_8995_33250" x1="20.6117" y1="6.00488" x2="21.3918" y2="6.1078" gradientUnits="userSpaceOnUse">
<stop stop-color="#B63AB4"/>
<stop offset="1" stop-color="#513B9F"/>
</linearGradient>
<linearGradient id="paint31_linear_8995_33250" x1="21.8212" y1="4.87109" x2="22.8413" y2="5.40722" gradientUnits="userSpaceOnUse">
<stop stop-color="#B63AB4"/>
<stop offset="1" stop-color="#513B9F"/>
</linearGradient>
<linearGradient id="paint32_linear_8995_33250" x1="28.5795" y1="10.208" x2="29.2049" y2="10.2704" gradientUnits="userSpaceOnUse">
<stop stop-color="#B63AB4"/>
<stop offset="1" stop-color="#513B9F"/>
</linearGradient>
</defs>
</svg>
