<svg width="32" height="32" viewBox="0 0 32 32" fill="none" xmlns="http://www.w3.org/2000/svg">
<g clip-path="url(#clip0_8995_33340)">
<path d="M15.5298 31.9301C15.4498 31.9301 15.3698 31.9101 15.2998 31.8701C13.7798 31.0701 12.3298 30.1301 10.9798 29.0701C7.86979 26.6601 5.69979 24.0601 4.52979 21.3101C3.20979 18.2101 3.82979 15.1001 6.10979 13.3701C8.61979 11.4901 12.2798 11.8801 15.5298 14.3701C18.7798 11.8901 22.4398 11.4901 24.9398 13.3801C27.2298 15.1101 27.8598 18.2201 26.5198 21.3201C23.7398 27.8301 16.0698 31.7201 15.7498 31.8701C15.6798 31.9101 15.5998 31.9301 15.5298 31.9301ZM9.77979 13.2501C8.68979 13.2301 7.62979 13.5701 6.75979 14.2201C4.86979 15.6401 4.38979 18.2701 5.49979 20.9001C6.86979 24.1101 9.57979 26.6601 11.6198 28.2301C12.8498 29.1901 14.1598 30.0601 15.5398 30.8101C16.8498 30.1001 23.2098 26.4401 25.5698 20.9001C26.6998 18.2601 26.1998 15.6401 24.3098 14.2101C22.1198 12.5601 18.8098 13.0401 15.8698 15.4401C15.6798 15.6001 15.3998 15.6001 15.2098 15.4401C13.4398 13.9801 11.5098 13.2401 9.78979 13.2401L9.77979 13.2501Z" fill="url(#paint0_linear_8995_33340)"/>
<path d="M9.58957 13.25C9.29957 13.25 9.05957 13.01 9.05957 12.72V6.21C9.19957 2.64 12.2096 -0.13 15.7796 9.68575e-08C19.1496 0.14 21.8496 2.83 21.9796 6.2V8.48C21.9796 8.77 21.7396 9.01 21.4496 9.01C21.1596 9.01 20.9196 8.77 20.9196 8.48V6.2C20.7896 3.21 18.2596 0.9 15.2696 1.03C12.4696 1.15 10.2196 3.4 10.0996 6.2V12.71C10.0996 13 9.85957 13.24 9.56957 13.24L9.58957 13.25Z" fill="url(#paint1_linear_8995_33340)"/>
<path d="M11.9499 13.41C11.6599 13.41 11.4199 13.17 11.4199 12.88V6.31996C11.4199 4.04996 13.2599 2.20996 15.5299 2.20996C17.7999 2.20996 19.6399 4.04996 19.6399 6.31996V8.48996C19.6399 8.77996 19.3999 9.01996 19.1099 9.01996C18.8199 9.01996 18.5799 8.77996 18.5799 8.48996V6.31996C18.5799 4.62996 17.2099 3.26996 15.5299 3.26996C13.8399 3.26996 12.4799 4.63996 12.4799 6.31996V12.88C12.4799 13.17 12.2399 13.41 11.9499 13.41Z" fill="url(#paint2_linear_8995_33340)"/>
<path d="M15.5299 27.3199C14.7099 27.3199 14.0399 26.6499 14.0399 25.8299V23.0499C12.6599 22.2299 12.2199 20.4399 13.0399 19.0699C13.8599 17.6999 15.6499 17.2499 17.0199 18.0699C18.3999 18.8899 18.8399 20.6799 18.0199 22.0499C17.7699 22.4599 17.4299 22.7999 17.0199 23.0499V25.8299C17.0199 26.6499 16.3499 27.3199 15.5299 27.3199ZM15.5299 18.6999C14.5099 18.6799 13.6599 19.4799 13.6399 20.4999C13.6199 21.2599 14.0699 21.9599 14.7799 22.2499L15.0899 22.3899V25.8399C15.0899 26.0799 15.2899 26.2799 15.5299 26.2799C15.7699 26.2799 15.9599 26.0899 15.9699 25.8399V22.3899L16.2799 22.2499C17.2199 21.8599 17.6699 20.7799 17.2699 19.8299C16.9799 19.1299 16.2899 18.6799 15.5299 18.6899V18.6999Z" fill="url(#paint3_linear_8995_33340)"/>
<path d="M20.2803 10.44C19.3403 10.44 18.5703 9.67997 18.5703 8.72997V8.49997C18.5703 8.20997 18.8103 7.96997 19.1003 7.96997C19.3903 7.96997 19.6303 8.20997 19.6303 8.49997V8.72997C19.6303 9.08997 19.9203 9.37997 20.2803 9.37997C20.6403 9.37997 20.9303 9.08997 20.9303 8.72997V8.49997C20.9303 8.20997 21.1703 7.96997 21.4603 7.96997C21.7503 7.96997 21.9903 8.20997 21.9903 8.49997V8.72997C21.9903 9.66997 21.2203 10.44 20.2803 10.44Z" fill="url(#paint4_linear_8995_33340)"/>
</g>
<defs>
<linearGradient id="paint0_linear_8995_33340" x1="5.88972" y1="12.1899" x2="30.1631" y2="19.0793" gradientUnits="userSpaceOnUse">
<stop stop-color="#B63AB4"/>
<stop offset="1" stop-color="#513B9F"/>
</linearGradient>
<linearGradient id="paint1_linear_8995_33340" x1="10.1901" y1="-0.00439514" x2="23.9389" y2="3.20841" gradientUnits="userSpaceOnUse">
<stop stop-color="#B63AB4"/>
<stop offset="1" stop-color="#513B9F"/>
</linearGradient>
<linearGradient id="paint2_linear_8995_33340" x1="12.1392" y1="2.20996" x2="21.0872" y2="3.78429" gradientUnits="userSpaceOnUse">
<stop stop-color="#B63AB4"/>
<stop offset="1" stop-color="#513B9F"/>
</linearGradient>
<linearGradient id="paint3_linear_8995_33340" x1="13.1358" y1="17.6602" x2="19.517" y2="18.5793" gradientUnits="userSpaceOnUse">
<stop stop-color="#B63AB4"/>
<stop offset="1" stop-color="#513B9F"/>
</linearGradient>
<linearGradient id="paint4_linear_8995_33340" x1="18.8696" y1="7.96997" x2="22.3268" y2="9.11752" gradientUnits="userSpaceOnUse">
<stop stop-color="#B63AB4"/>
<stop offset="1" stop-color="#513B9F"/>
</linearGradient>
<clipPath id="clip0_8995_33340">
<rect width="32" height="32" fill="white"/>
</clipPath>
</defs>
</svg>
