<svg width="32" height="32" viewBox="0 0 32 32" fill="none" xmlns="http://www.w3.org/2000/svg">
<path d="M16.3296 31.99C16.2496 31.99 16.1696 31.97 16.0996 31.94C14.6096 31.15 13.1896 30.23 11.8596 29.19C8.8096 26.82 6.6796 24.27 5.5296 21.57C4.2396 18.53 4.8496 15.47 7.0796 13.78C9.5396 11.93 13.1296 12.32 16.3296 14.75C19.5196 12.32 23.1096 11.93 25.5596 13.78C27.8096 15.48 28.4196 18.53 27.1096 21.57C24.3796 27.96 16.8596 31.78 16.5396 31.92C16.4696 31.96 16.3996 31.98 16.3296 31.99ZM10.6896 13.65C9.6196 13.63 8.5796 13.97 7.7196 14.6C5.8596 16 5.3896 18.57 6.4896 21.16C7.8296 24.31 10.4996 26.81 12.4996 28.37C13.7096 29.31 14.9896 30.15 16.3396 30.89C17.6296 30.2 23.8696 26.6 26.1796 21.16C27.2896 18.57 26.7996 16 24.9496 14.6C22.7996 12.98 19.5496 13.46 16.6696 15.81C16.4796 15.96 16.2096 15.96 16.0196 15.81C14.2796 14.39 12.3996 13.66 10.7096 13.66L10.6896 13.65Z" fill="url(#paint0_linear_8995_33333)"/>
<path d="M22.6795 13.1299H21.6395V6.74995C21.7695 3.81995 19.4995 1.33995 16.5695 1.20995C13.6395 1.07995 11.1595 3.34995 11.0295 6.27995C11.0295 6.43995 11.0295 6.58995 11.0295 6.74995V13.1299H9.98955V6.74995C9.84955 3.24995 12.5695 0.289946 16.0795 0.149946C19.5795 0.00994602 22.5395 2.72995 22.6795 6.23995C22.6795 6.40995 22.6795 6.57995 22.6795 6.74995V13.1299Z" fill="url(#paint1_linear_8995_33333)"/>
<path d="M20.36 13.2901H19.32V6.85006C19.32 5.20006 17.98 3.85006 16.33 3.85006C14.68 3.85006 13.33 5.19006 13.33 6.84006V13.2801H12.29V6.84006C12.29 4.61006 14.09 2.81006 16.32 2.81006C18.55 2.81006 20.35 4.61006 20.35 6.84006V13.2801L20.36 13.2901Z" fill="url(#paint2_linear_8995_33333)"/>
<path d="M16.3304 27.4599C15.5204 27.4599 14.8704 26.7999 14.8704 25.9999V23.2699C13.5204 22.4599 13.0804 20.7099 13.8904 19.3599C14.7004 18.0099 16.4504 17.5699 17.8004 18.3799C19.1504 19.1899 19.5904 20.9399 18.7804 22.2899C18.5404 22.6899 18.2004 23.0299 17.8004 23.2699V25.9999C17.8004 26.8099 17.1404 27.4599 16.3404 27.4599H16.3304ZM16.3304 18.9899C15.3304 18.9699 14.5004 19.7599 14.4804 20.7599C14.4604 21.5099 14.9104 22.1799 15.5904 22.4699L15.9004 22.6099V25.9899C15.9004 26.2299 16.0904 26.4199 16.3304 26.4199C16.5704 26.4199 16.7604 26.2299 16.7604 25.9899V22.5999L17.0704 22.4599C17.9904 22.0699 18.4204 21.0099 18.0404 20.0899C17.7504 19.4099 17.0804 18.9699 16.3404 18.9799L16.3304 18.9899Z" fill="url(#paint3_linear_8995_33333)"/>
<defs>
<linearGradient id="paint0_linear_8995_33333" x1="6.86772" y1="12.6196" x2="30.6834" y2="19.3781" gradientUnits="userSpaceOnUse">
<stop stop-color="#B63AB4"/>
<stop offset="1" stop-color="#513B9F"/>
</linearGradient>
<linearGradient id="paint1_linear_8995_33333" x1="11.0952" y1="0.144775" x2="24.6006" y2="3.31007" gradientUnits="userSpaceOnUse">
<stop stop-color="#B63AB4"/>
<stop offset="1" stop-color="#513B9F"/>
</linearGradient>
<linearGradient id="paint2_linear_8995_33333" x1="12.9962" y1="2.81006" x2="21.7544" y2="4.4268" gradientUnits="userSpaceOnUse">
<stop stop-color="#B63AB4"/>
<stop offset="1" stop-color="#513B9F"/>
</linearGradient>
<linearGradient id="paint3_linear_8995_33333" x1="13.9833" y1="17.9739" x2="20.2524" y2="18.8773" gradientUnits="userSpaceOnUse">
<stop stop-color="#B63AB4"/>
<stop offset="1" stop-color="#513B9F"/>
</linearGradient>
</defs>
</svg>
