<svg width="32" height="32" viewBox="0 0 32 32" fill="none" xmlns="http://www.w3.org/2000/svg">
<g clip-path="url(#clip0_8995_33246)">
<path d="M4.43996 17.4V15.72C4.43996 15.72 4.43996 15.71 4.43996 15.7V9.40999C4.43996 9.13999 4.65996 8.92999 4.91996 8.92999C5.17996 8.92999 5.39996 9.14999 5.39996 9.40999V14.98L7.81996 13.94V11.35C7.81996 11.08 8.03996 10.87 8.29996 10.87C8.55996 10.87 8.77996 11.09 8.77996 11.35V14.26C8.77996 14.45 8.65996 14.63 8.48996 14.71L5.38996 16.04V18.13C5.38996 18.13 5.38996 18.14 5.38996 18.15V20.63L10.51 18.19C10.6 18.15 10.7 18.13 10.8 18.15C10.8 18.15 10.8 18.15 10.81 18.15C10.81 18.15 10.81 18.15 10.82 18.15C10.87 18.16 10.91 18.18 10.95 18.2L15.57 20.63C15.78 17.34 18.52 14.74 21.86 14.74C25.2 14.74 28.16 17.56 28.16 21.04V21.43L31.75 23.03C31.99 23.14 32.1 23.43 32 23.67C31.9 23.91 31.6 24.02 31.36 23.92L23.22 20.3L22.87 22.77L24.58 24.05C24.74 24.17 24.81 24.37 24.76 24.56L24.28 26.5C24.22 26.76 23.95 26.92 23.69 26.85C23.43 26.79 23.27 26.52 23.34 26.26L23.75 24.63L22.07 23.37C21.93 23.26 21.86 23.09 21.88 22.91L22.26 20.27L17.63 21.7L20.17 23.04C20.41 23.16 20.5 23.46 20.37 23.69C20.25 23.93 19.95 24.02 19.72 23.89L11.1 19.36L10.76 21.4L12.09 23.17C12.17 23.28 12.2 23.42 12.18 23.56L11.7 25.98C11.65 26.24 11.39 26.41 11.13 26.36C10.87 26.31 10.7 26.05 10.75 25.79L11.19 23.58L9.86996 21.81C9.78996 21.7 9.75996 21.57 9.77996 21.44L10.11 19.45L5.40996 21.69V25.88C5.40996 26.15 5.18996 26.36 4.92996 26.36C4.66996 26.36 4.44996 26.14 4.44996 25.88V22.15L0.779957 23.9C0.539957 24.02 0.249957 23.91 0.129957 23.67C0.00995731 23.43 0.119957 23.14 0.359957 23.02L4.44996 21.07V18.44L1.34996 17.11C1.16996 17.03 1.05996 16.86 1.05996 16.66V12.3C1.05996 12.03 1.27996 11.82 1.53996 11.82C1.79996 11.82 2.01996 12.04 2.01996 12.3V16.34L4.43996 17.38V17.4ZM21.88 15.71C18.94 15.71 16.55 18.1 16.55 21.01L22.71 19.13C22.82 19.1 22.94 19.1 23.05 19.15L27.21 21C27.19 18.08 24.81 15.71 21.88 15.71ZM21.4 7.46999C21.4 7.19999 21.62 6.98999 21.88 6.98999C22.14 6.98999 22.36 7.20999 22.36 7.46999V11.35C22.36 11.62 22.14 11.83 21.88 11.83C21.62 11.83 21.4 11.61 21.4 11.35V7.46999ZM31.82 11.79L29.08 14.53C28.62 14.99 27.94 14.3 28.39 13.84L31.13 11.1C31.59 10.64 32.27 11.33 31.82 11.79ZM12.63 11.1L15.37 13.84C15.83 14.3 15.14 14.98 14.68 14.53L11.94 11.79C11.48 11.33 12.17 10.65 12.63 11.1Z" fill="url(#paint0_linear_8995_33246)"/>
</g>
<defs>
<linearGradient id="paint0_linear_8995_33246" x1="2.87719" y1="6.98999" x2="34.1017" y2="19.0243" gradientUnits="userSpaceOnUse">
<stop stop-color="#B63AB4"/>
<stop offset="1" stop-color="#513B9F"/>
</linearGradient>
<clipPath id="clip0_8995_33246">
<rect width="32" height="32" fill="white"/>
</clipPath>
</defs>
</svg>
