<svg width="32" height="32" viewBox="0 0 32 32" fill="none" xmlns="http://www.w3.org/2000/svg">
<path d="M27.3655 4.63448C33.5448 10.9241 33.5448 21.0759 27.3655 27.3655C21.0759 33.5448 10.9241 33.5448 4.63448 27.3655C-1.54483 21.0759 -1.54483 10.9241 4.63448 4.63448C10.9241 -1.54483 21.0759 -1.54483 27.3655 4.63448ZM26.2621 5.73793C20.6345 0.110345 11.3655 0.110345 5.73793 5.73793C0.110345 11.3655 0.110345 20.6345 5.73793 26.2621C11.3655 32 20.6345 32 26.2621 26.2621C32 20.6345 32 11.3655 26.2621 5.73793Z" fill="url(#paint0_linear_17_1735)"/>
<path d="M13.2413 13.0207L9.931 9.60001L6.51031 13.0207L7.50342 14.1241L9.931 11.6966L12.2482 14.0138L13.2413 13.0207Z" fill="url(#paint1_linear_17_1735)"/>
<path d="M18.7586 13.0207L22.069 9.60001L25.4896 13.0207L24.4965 14.1241L22.069 11.6966L19.7517 14.0138L18.7586 13.0207Z" fill="url(#paint2_linear_17_1735)"/>
<path d="M16.5517 20.7448L15.4483 21.7379L16.5517 22.731L15.7793 23.5034L13.9034 21.7379L15.0069 20.6345L13.9034 19.6414L15.7793 17.8759L16.5517 18.6483L15.4483 19.6414L16.5517 20.7448Z" fill="url(#paint3_linear_17_1735)"/>
<defs>
<linearGradient id="paint0_linear_17_1735" x1="2.8" y1="-1.46508e-06" x2="36.7607" y2="8.14125" gradientUnits="userSpaceOnUse">
<stop stop-color="#B63AB4"/>
<stop offset="1" stop-color="#513B9F"/>
</linearGradient>
<linearGradient id="paint1_linear_17_1735" x1="7.09928" y1="9.60001" x2="13.8008" y2="11.9902" gradientUnits="userSpaceOnUse">
<stop stop-color="#B63AB4"/>
<stop offset="1" stop-color="#513B9F"/>
</linearGradient>
<linearGradient id="paint2_linear_17_1735" x1="19.3476" y1="9.60001" x2="26.049" y2="11.9902" gradientUnits="userSpaceOnUse">
<stop stop-color="#B63AB4"/>
<stop offset="1" stop-color="#513B9F"/>
</linearGradient>
<linearGradient id="paint3_linear_17_1735" x1="14.1352" y1="17.8759" x2="17.0699" y2="18.2069" gradientUnits="userSpaceOnUse">
<stop stop-color="#B63AB4"/>
<stop offset="1" stop-color="#513B9F"/>
</linearGradient>
</defs>
</svg>
