<svg width="32" height="32" viewBox="0 0 32 32" fill="none" xmlns="http://www.w3.org/2000/svg">
<g clip-path="url(#clip0_8995_33413)">
<path d="M31.1595 11.16C30.3695 8.25995 28.7795 5.40995 26.2495 3.67995C23.8595 2.04995 20.2895 0.689953 17.5095 0.129953C14.4995 -0.480047 11.2295 0.819953 8.50952 1.98995C5.39952 3.32995 2.82952 5.48995 0.659524 8.05995C-0.300476 9.18995 1.32952 10.84 2.29952 9.69995C4.83952 6.67995 7.80952 4.55995 11.5695 3.30995C13.4595 2.67995 15.2895 2.00995 17.2995 2.44995C19.0695 2.83995 20.8095 3.68995 22.4895 4.35995C30.5695 7.59995 31.3695 18.73 26.0195 24.83C23.5995 27.6 20.2295 29.33 16.5495 29.61C12.8495 29.88 7.71952 28.65 6.01952 24.99C4.39952 21.5 4.71952 15.88 7.47952 12.99C10.0595 10.29 14.9295 8.86995 18.4695 10.12C23.2295 11.81 22.3195 19.53 18.4195 21.79C16.4695 22.92 13.3495 22.72 11.7995 20.94C10.8995 19.9 10.7395 18.5 11.2495 17.26C11.5095 16.63 14.0995 14.06 15.0795 15.46C15.9295 16.67 17.9395 15.52 17.0795 14.29C14.2295 10.21 8.54952 14.99 8.61952 18.77C8.70952 23.74 14.5995 25.86 18.6795 24.22C23.1795 22.41 24.9695 16.23 23.4895 11.88C21.6595 6.49995 14.2995 6.74995 10.0795 8.61995C4.78952 10.97 2.30952 15.88 2.82952 21.66C3.35952 27.45 7.30952 30.82 12.8995 31.74C24.5695 33.65 34.2195 22.43 31.1495 11.15L31.1595 11.16Z" fill="url(#paint0_linear_8995_33413)"/>
</g>
<defs>
<linearGradient id="paint0_linear_8995_33413" x1="3.11105" y1="-0.0257583" x2="36.4606" y2="7.81374" gradientUnits="userSpaceOnUse">
<stop stop-color="#B63AB4"/>
<stop offset="1" stop-color="#513B9F"/>
</linearGradient>
<clipPath id="clip0_8995_33413">
<rect width="32" height="32" fill="white"/>
</clipPath>
</defs>
</svg>
