<svg width="32" height="32" viewBox="0 0 32 32" fill="none" xmlns="http://www.w3.org/2000/svg">
<g clip-path="url(#clip0_8995_1871)">
<path d="M0.360487 27.69C0.490487 27.77 0.610487 27.79 0.740487 27.79C0.990487 27.79 1.27049 27.66 1.39049 27.41C2.50049 25.45 4.38049 23.97 6.57049 23.36C6.97049 23.26 7.20049 22.83 7.10049 22.43C7.00049 22.03 6.57049 21.8 6.17049 21.9C3.61049 22.63 1.40049 24.36 0.0904874 26.65C-0.109513 27.03 0.0104874 27.48 0.370487 27.68L0.360487 27.69Z" fill="url(#paint0_linear_8995_1871)"/>
<path d="M28.1097 14.85C28.1097 13.29 27.4297 11.86 26.2297 10.88C25.8997 10.63 25.4297 10.65 25.1697 10.98C24.9197 11.31 24.9397 11.78 25.2697 12.04C26.1197 12.74 26.5997 13.75 26.5997 14.85C26.5997 16.86 24.9697 18.49 22.9597 18.49C22.3097 18.49 21.6497 18.31 21.0997 17.99C20.7497 17.79 20.2697 17.89 20.0697 18.24C19.8697 18.59 19.9697 19.07 20.3197 19.27C21.0997 19.75 22.0297 20 22.9297 20C25.7897 19.97 28.1097 17.69 28.1097 14.85Z" fill="url(#paint1_linear_8995_1871)"/>
<path d="M25.6701 21.91C25.2701 21.81 24.8401 22.04 24.7401 22.44C24.6401 22.84 24.8701 23.27 25.2701 23.37C27.4301 23.97 29.3201 25.46 30.4501 27.42C30.6001 27.67 30.8501 27.8 31.1001 27.8C31.2301 27.8 31.3501 27.77 31.4801 27.7C31.8301 27.5 31.9601 27.05 31.7601 26.67C30.4501 24.38 28.2401 22.65 25.6801 21.92L25.6701 21.91Z" fill="url(#paint2_linear_8995_1871)"/>
<path d="M15.9201 20.8601C11.8001 20.8601 7.9801 23.1001 5.9401 26.6601C5.7401 27.0101 5.8601 27.4901 6.2201 27.6901C6.3501 27.7701 6.4701 27.7901 6.6001 27.7901C6.8501 27.7901 7.1301 27.6601 7.2501 27.4101C9.0101 24.2901 12.3301 22.3601 15.9201 22.3601C19.5101 22.3601 22.8101 24.2901 24.5901 27.4101C24.7901 27.7601 25.2401 27.8901 25.6201 27.6901C25.9701 27.4901 26.1001 27.0401 25.9001 26.6601C23.8601 23.0901 20.0501 20.8601 15.9201 20.8601Z" fill="url(#paint3_linear_8995_1871)"/>
<path d="M8.62977 11.2099H8.87977C8.87977 11.3899 8.84977 11.5399 8.84977 11.7099C8.84977 15.5799 12.0198 18.7499 15.8898 18.7499C19.7598 18.7499 22.9298 15.5799 22.9298 11.7099C22.9298 7.83992 19.7898 4.66992 15.9198 4.66992C12.7298 4.66992 10.0398 6.80992 9.18976 9.69992H8.55977C5.86977 9.87992 3.75977 12.1399 3.75977 14.8299C3.75977 16.3899 4.45977 17.8499 5.66977 18.8299C5.81977 18.9599 5.96977 19.0099 6.14977 19.0099C6.37977 19.0099 6.57977 18.9099 6.72977 18.7299C6.97977 18.3999 6.92977 17.9299 6.62977 17.6699C5.77977 16.9699 5.26977 15.9399 5.26977 14.8599C5.23977 12.9499 6.74977 11.3399 8.63977 11.2199L8.62977 11.2099ZM15.9198 6.17992C18.9598 6.17992 21.4498 8.66992 21.4498 11.7099C21.4498 14.7499 18.9598 17.2399 15.9198 17.2399C12.8798 17.2399 10.3898 14.7499 10.3898 11.7099C10.3898 8.66992 12.8798 6.17992 15.9198 6.17992Z" fill="url(#paint4_linear_8995_1871)"/>
</g>
<defs>
<linearGradient id="paint0_linear_8995_1871" x1="0.617986" y1="21.8767" x2="8.00241" y2="24.0111" gradientUnits="userSpaceOnUse">
<stop stop-color="#B63AB4"/>
<stop offset="1" stop-color="#513B9F"/>
</linearGradient>
<linearGradient id="paint1_linear_8995_1871" x1="20.6802" y1="10.7102" x2="29.4313" y2="12.5488" gradientUnits="userSpaceOnUse">
<stop stop-color="#B63AB4"/>
<stop offset="1" stop-color="#513B9F"/>
</linearGradient>
<linearGradient id="paint2_linear_8995_1871" x1="25.3413" y1="21.8867" x2="32.7327" y2="24.0254" gradientUnits="userSpaceOnUse">
<stop stop-color="#B63AB4"/>
<stop offset="1" stop-color="#513B9F"/>
</linearGradient>
<linearGradient id="paint3_linear_8995_1871" x1="7.60693" y1="20.8601" x2="22.8262" y2="31.4688" gradientUnits="userSpaceOnUse">
<stop stop-color="#B63AB4"/>
<stop offset="1" stop-color="#513B9F"/>
</linearGradient>
<linearGradient id="paint4_linear_8995_1871" x1="5.43714" y1="4.66992" x2="24.9472" y2="10.9223" gradientUnits="userSpaceOnUse">
<stop stop-color="#B63AB4"/>
<stop offset="1" stop-color="#513B9F"/>
</linearGradient>
<clipPath id="clip0_8995_1871">
<rect width="32" height="32" fill="white"/>
</clipPath>
</defs>
</svg>
