<svg width="32" height="32" viewBox="0 0 32 32" fill="none" xmlns="http://www.w3.org/2000/svg">
<path d="M7.4098 5.88992C7.3798 5.81992 7.3398 5.74992 7.2998 5.67992C7.2598 5.60992 7.1998 5.54992 7.1498 5.48992C6.8598 5.19992 6.4398 5.06992 6.0298 5.14992C5.9498 5.16992 5.8798 5.18992 5.7998 5.21992C5.7298 5.24992 5.6598 5.28992 5.5898 5.32992C5.5298 5.36992 5.4598 5.42992 5.3998 5.47992C5.3498 5.53992 5.2898 5.59992 5.2498 5.66992C5.2098 5.73992 5.1698 5.80992 5.1398 5.87992C5.1098 5.94992 5.0898 6.02992 5.0698 6.10992C5.0598 6.18992 5.0498 6.26992 5.0498 6.34992C5.0498 6.66992 5.1798 6.98992 5.4098 7.22992C5.4698 7.27992 5.5298 7.33992 5.5998 7.37992C5.6698 7.41992 5.7398 7.45992 5.8098 7.48992C5.8898 7.51992 5.9598 7.53992 6.0398 7.55992C6.1198 7.56992 6.1998 7.57992 6.2798 7.57992C6.6098 7.57992 6.9198 7.44992 7.1598 7.21992C7.2098 7.15992 7.2698 7.09992 7.3098 7.02992C7.3498 6.95992 7.3898 6.88992 7.4198 6.80992C7.4498 6.73992 7.4698 6.65992 7.4898 6.57992C7.4998 6.49992 7.5098 6.41992 7.5098 6.33992C7.5098 6.25992 7.5098 6.17992 7.4898 6.09992C7.4798 6.01992 7.4498 5.93992 7.4198 5.86992L7.4098 5.88992Z" fill="url(#paint0_linear_8995_33051)"/>
<path d="M12.3002 5.88995C12.2702 5.81995 12.2402 5.74995 12.1902 5.67995C12.1502 5.60995 12.1002 5.54995 12.0402 5.48995C11.9902 5.43995 11.9202 5.37995 11.8502 5.33995C11.7902 5.29995 11.7102 5.25995 11.6402 5.22995C11.5702 5.19995 11.4902 5.17995 11.4102 5.15995C11.2502 5.12995 11.0902 5.12995 10.9302 5.15995C10.8502 5.17995 10.7702 5.19995 10.7002 5.22995C10.6302 5.25995 10.5502 5.29995 10.4902 5.33995C10.4202 5.37995 10.3602 5.43995 10.3002 5.48995C10.2402 5.54995 10.1902 5.60995 10.1502 5.67995C10.1102 5.74995 10.0702 5.81995 10.0402 5.88995C10.0102 5.95995 9.9902 6.03995 9.9702 6.11995C9.9502 6.19995 9.9502 6.27995 9.9502 6.35995C9.9502 6.43995 9.9502 6.51995 9.9702 6.59995C9.9802 6.67995 10.0102 6.74995 10.0402 6.82995C10.0702 6.90995 10.1102 6.97995 10.1502 7.04995C10.1902 7.10995 10.2402 7.17995 10.3002 7.23995C10.5302 7.46995 10.8502 7.59995 11.1802 7.59995C11.5102 7.59995 11.8202 7.46995 12.0502 7.23995C12.2802 7.00995 12.4202 6.68995 12.4202 6.35995C12.4202 6.27995 12.4202 6.19995 12.4002 6.11995C12.3902 6.03995 12.3602 5.95995 12.3302 5.88995H12.3002Z" fill="url(#paint1_linear_8995_33051)"/>
<path d="M20.9502 7.59992C21.2702 7.59992 21.5902 7.46992 21.8202 7.23992C22.0502 7.00992 22.1802 6.68992 22.1802 6.35992C22.1802 6.27992 22.1802 6.19992 22.1602 6.11992C22.1502 6.03992 22.1202 5.95992 22.0902 5.88992C22.0602 5.81992 22.0202 5.74992 21.9802 5.67992C21.9402 5.60992 21.8902 5.54992 21.8302 5.48992C21.5402 5.19992 21.1202 5.06992 20.7202 5.14992C20.6402 5.16992 20.5602 5.18992 20.4902 5.21992C20.4202 5.24992 20.3402 5.28992 20.2802 5.32992C20.2102 5.36992 20.1502 5.42992 20.0902 5.47992C20.0302 5.53992 19.9802 5.59992 19.9402 5.66992C19.9002 5.73992 19.8602 5.80992 19.8302 5.87992C19.8002 5.94992 19.7802 6.02992 19.7602 6.10992C19.7502 6.18992 19.7402 6.26992 19.7402 6.34992C19.7402 6.66992 19.8702 6.98992 20.1102 7.22992C20.3402 7.45992 20.6602 7.58992 20.9902 7.58992L20.9502 7.59992Z" fill="url(#paint2_linear_8995_33051)"/>
<path d="M26.9899 5.88995C26.9599 5.81995 26.9199 5.74995 26.8799 5.67995C26.8399 5.60995 26.7799 5.54995 26.7299 5.48995C26.6699 5.43995 26.6099 5.37995 26.5399 5.33995C26.4699 5.29995 26.3999 5.25995 26.3299 5.22995C26.2499 5.19995 26.1799 5.17995 26.0999 5.15995C25.9399 5.12995 25.7699 5.12995 25.6099 5.15995C25.5299 5.17995 25.4499 5.19995 25.3799 5.22995C25.3099 5.25995 25.2399 5.29995 25.1699 5.33995C25.0999 5.37995 25.0399 5.43995 24.9799 5.48995C24.9299 5.54995 24.8699 5.60995 24.8299 5.67995C24.7899 5.74995 24.7499 5.81995 24.7199 5.88995C24.6899 5.95995 24.6699 6.03995 24.6499 6.11995C24.6299 6.19995 24.6299 6.27995 24.6299 6.35995C24.6299 6.67995 24.7599 6.99995 24.9899 7.23995C25.2199 7.46995 25.5399 7.59995 25.8699 7.59995C26.1999 7.59995 26.5099 7.46995 26.7499 7.23995C26.7999 7.17995 26.8599 7.11995 26.8999 7.04995C26.9399 6.97995 26.9799 6.90995 27.0099 6.82995C27.0399 6.75995 27.0599 6.67995 27.0799 6.59995C27.0999 6.51995 27.0999 6.43995 27.0999 6.35995C27.0999 6.27995 27.0999 6.19995 27.0799 6.11995C27.0699 6.03995 27.0399 5.95995 27.0099 5.88995H26.9899Z" fill="url(#paint3_linear_8995_33051)"/>
<path d="M2.51039 11.18C2.48039 11.11 2.44039 11.04 2.40039 10.97C2.35039 10.9 2.30039 10.84 2.24039 10.78C1.95039 10.49 1.53039 10.36 1.13039 10.44C1.05039 10.45 0.970391 10.48 0.900391 10.51C0.830391 10.54 0.750391 10.58 0.690391 10.62C0.620391 10.66 0.560391 10.72 0.500391 10.77C0.440391 10.83 0.390391 10.89 0.350391 10.96C0.310391 11.03 0.270391 11.1 0.240391 11.17C0.210391 11.24 0.190391 11.32 0.170391 11.4C0.150391 11.48 0.150391 11.56 0.150391 11.64C0.150391 11.97 0.280391 12.28 0.510391 12.52C0.740391 12.75 1.06039 12.88 1.39039 12.88C1.47039 12.88 1.55039 12.88 1.63039 12.86C1.70039 12.85 1.78039 12.82 1.86039 12.79C1.93039 12.76 2.01039 12.72 2.07039 12.68C2.14039 12.64 2.20039 12.58 2.26039 12.53C2.49039 12.3 2.63039 11.98 2.63039 11.65C2.63039 11.57 2.63039 11.49 2.61039 11.41C2.60039 11.33 2.57039 11.25 2.54039 11.18H2.51039Z" fill="url(#paint4_linear_8995_33051)"/>
<path d="M7.4098 11.1801C7.3798 11.1101 7.3398 11.0401 7.2998 10.9701C7.2598 10.9001 7.1998 10.8401 7.1498 10.7801C6.6898 10.3201 5.8598 10.3201 5.3998 10.7801C5.3498 10.8401 5.2898 10.9001 5.2498 10.9701C5.2098 11.0301 5.1698 11.1101 5.1398 11.1801C5.1098 11.2501 5.0898 11.3301 5.0698 11.4101C5.0598 11.4901 5.0498 11.5701 5.0498 11.6501C5.0498 11.9801 5.1798 12.2901 5.4098 12.5301C5.6398 12.7601 5.9598 12.8901 6.2898 12.8901C6.6198 12.8901 6.9298 12.7601 7.1698 12.5301C7.3998 12.3001 7.5298 11.9801 7.5298 11.6501C7.5298 11.5701 7.5298 11.4901 7.5098 11.4101C7.4998 11.3301 7.4698 11.2501 7.4398 11.1801H7.4098Z" fill="url(#paint5_linear_8995_33051)"/>
<path d="M12.3002 11.18C12.2702 11.11 12.2302 11.04 12.1902 10.97C12.1502 10.9 12.1002 10.84 12.0402 10.78C11.9902 10.73 11.9202 10.67 11.8502 10.63C11.7902 10.59 11.7102 10.55 11.6402 10.52C11.5702 10.49 11.4902 10.47 11.4102 10.45C11.2502 10.42 11.0902 10.42 10.9302 10.45C10.8502 10.46 10.7702 10.49 10.7002 10.52C10.6302 10.55 10.5502 10.59 10.4902 10.63C10.4202 10.67 10.3602 10.73 10.3002 10.78C10.2402 10.84 10.1902 10.9 10.1502 10.97C10.1102 11.04 10.0702 11.11 10.0402 11.18C10.0102 11.25 9.9902 11.33 9.9702 11.41C9.9602 11.49 9.9502 11.57 9.9502 11.65C9.9502 11.98 10.0802 12.29 10.3102 12.53C10.3602 12.58 10.4302 12.64 10.5002 12.68C10.5602 12.72 10.6402 12.76 10.7102 12.79C10.7802 12.82 10.8602 12.84 10.9402 12.86C11.0202 12.87 11.1002 12.88 11.1802 12.88C11.2602 12.88 11.3402 12.88 11.4202 12.86C11.5002 12.85 11.5802 12.82 11.6502 12.79C11.7202 12.76 11.8002 12.72 11.8602 12.68C11.9302 12.64 11.9902 12.58 12.0502 12.53C12.2802 12.3 12.4202 11.98 12.4202 11.65C12.4202 11.57 12.4202 11.49 12.4002 11.41C12.3802 11.33 12.3602 11.25 12.3302 11.18H12.3002Z" fill="url(#paint6_linear_8995_33051)"/>
<path d="M17.1998 11.1801C17.1698 11.1101 17.1298 11.0301 17.0898 10.9701C17.0498 10.9001 16.9898 10.8401 16.9398 10.7801C16.4698 10.3201 15.6498 10.3201 15.1898 10.7801C15.1398 10.8401 15.0798 10.9001 15.0398 10.9701C14.9998 11.0401 14.9598 11.1101 14.9298 11.1801C14.8998 11.2501 14.8798 11.3301 14.8598 11.4101C14.8498 11.4901 14.8398 11.5701 14.8398 11.6501C14.8398 11.9801 14.9698 12.2901 15.1998 12.5301C15.4298 12.7601 15.7498 12.8901 16.0798 12.8901C16.4098 12.8901 16.7198 12.7601 16.9598 12.5301C17.1898 12.3001 17.3198 11.9801 17.3198 11.6501C17.3198 11.5701 17.3198 11.4901 17.2998 11.4101C17.2898 11.3301 17.2598 11.2501 17.2298 11.1801H17.1998Z" fill="url(#paint7_linear_8995_33051)"/>
<path d="M22.0902 11.18C22.0602 11.11 22.0202 11.04 21.9802 10.97C21.9402 10.9 21.8902 10.84 21.8302 10.78C21.5402 10.49 21.1202 10.36 20.7202 10.44C20.6402 10.45 20.5602 10.48 20.4902 10.51C20.4202 10.54 20.3402 10.58 20.2802 10.62C20.2102 10.66 20.1502 10.72 20.0902 10.77C20.0302 10.83 19.9802 10.89 19.9402 10.96C19.9002 11.03 19.8602 11.1 19.8302 11.17C19.8002 11.24 19.7702 11.32 19.7602 11.4C19.7502 11.48 19.7402 11.56 19.7402 11.64C19.7402 11.97 19.8702 12.28 20.1102 12.52C20.3402 12.75 20.6602 12.88 20.9902 12.88C21.0702 12.88 21.1502 12.88 21.2302 12.86C21.3102 12.85 21.3902 12.82 21.4602 12.79C21.5302 12.76 21.6102 12.72 21.6702 12.68C21.7402 12.64 21.8002 12.58 21.8602 12.53C22.0902 12.3 22.2302 11.98 22.2302 11.65C22.2302 11.57 22.2302 11.49 22.2102 11.41C22.1902 11.33 22.1702 11.25 22.1402 11.18H22.0902Z" fill="url(#paint8_linear_8995_33051)"/>
<path d="M26.9899 11.18C26.9599 11.11 26.9199 11.04 26.8799 10.97C26.8399 10.9 26.7799 10.84 26.7299 10.78C26.6699 10.73 26.6099 10.67 26.5399 10.63C26.4699 10.59 26.3999 10.55 26.3299 10.52C26.2499 10.49 26.1799 10.47 26.0999 10.45C25.6899 10.37 25.2699 10.5 24.9799 10.79C24.9299 10.85 24.8699 10.91 24.8299 10.98C24.7899 11.05 24.7499 11.12 24.7199 11.19C24.6899 11.26 24.6699 11.34 24.6499 11.42C24.6399 11.5 24.6299 11.58 24.6299 11.66C24.6299 11.99 24.7599 12.3 24.9899 12.54C25.0499 12.59 25.1099 12.65 25.1799 12.69C25.2499 12.73 25.3199 12.77 25.3899 12.8C25.4599 12.83 25.5399 12.85 25.6199 12.87C25.6999 12.88 25.7799 12.89 25.8599 12.89C25.9399 12.89 26.0199 12.89 26.0999 12.87C26.1799 12.86 26.2499 12.83 26.3299 12.8C26.3999 12.77 26.4699 12.73 26.5399 12.69C26.5999 12.65 26.6699 12.59 26.7299 12.54C26.9599 12.31 27.0899 11.99 27.0899 11.66C27.0899 11.58 27.0899 11.5 27.0699 11.42C27.0599 11.34 27.0299 11.26 26.9999 11.19L26.9899 11.18Z" fill="url(#paint9_linear_8995_33051)"/>
<path d="M31.9503 11.42C31.9403 11.34 31.9103 11.26 31.8803 11.19C31.8503 11.12 31.8103 11.05 31.7703 10.98C31.7303 10.91 31.6803 10.85 31.6203 10.79C31.5703 10.74 31.5003 10.68 31.4303 10.64C31.3703 10.6 31.2903 10.56 31.2203 10.53C31.1503 10.5 31.0703 10.48 30.9903 10.46C30.8303 10.43 30.6703 10.43 30.5103 10.46C30.4303 10.47 30.3503 10.5 30.2803 10.53C30.2103 10.56 30.1303 10.6 30.0703 10.64C30.0003 10.68 29.9403 10.74 29.8803 10.79C29.8303 10.85 29.7703 10.91 29.7303 10.98C29.6903 11.05 29.6503 11.12 29.6203 11.19C29.5903 11.26 29.5703 11.34 29.5503 11.42C29.5403 11.5 29.5303 11.58 29.5303 11.66C29.5303 11.99 29.6603 12.3 29.9003 12.54C30.1403 12.78 30.4503 12.9 30.7703 12.9C30.8503 12.9 30.9303 12.9 31.0103 12.88C31.0903 12.87 31.1703 12.84 31.2403 12.81C31.3103 12.78 31.3903 12.74 31.4503 12.7C31.5203 12.66 31.5803 12.6 31.6403 12.55C31.8703 12.32 32.0003 12 32.0003 11.67C32.0003 11.59 32.0003 11.51 31.9803 11.43L31.9503 11.42Z" fill="url(#paint10_linear_8995_33051)"/>
<path d="M6.02027 15.74C5.94027 15.75 5.87027 15.78 5.79027 15.81C5.72027 15.84 5.65027 15.88 5.58027 15.92C5.52027 15.96 5.45027 16.02 5.39027 16.07C5.16027 16.3 5.03027 16.62 5.03027 16.95C5.03027 17.03 5.03027 17.11 5.05027 17.19C5.06027 17.27 5.09027 17.34 5.12027 17.42C5.15027 17.5 5.19027 17.57 5.23027 17.64C5.27027 17.7 5.33027 17.77 5.38027 17.83C5.61027 18.06 5.93027 18.19 6.26027 18.19C6.59027 18.19 6.90027 18.06 7.14027 17.83C7.19027 17.77 7.25027 17.71 7.29027 17.64C7.33027 17.57 7.37027 17.5 7.40027 17.42C7.43027 17.35 7.45027 17.27 7.47027 17.19C7.48027 17.11 7.49027 17.03 7.49027 16.95C7.49027 16.62 7.36027 16.3 7.13027 16.07C6.84027 15.78 6.42027 15.65 6.01027 15.73L6.02027 15.74Z" fill="url(#paint11_linear_8995_33051)"/>
<path d="M11.8397 15.92C11.7797 15.88 11.6997 15.84 11.6297 15.81C11.5597 15.78 11.4797 15.76 11.3997 15.74C11.2397 15.71 11.0797 15.71 10.9197 15.74C10.8397 15.75 10.7597 15.78 10.6897 15.81C10.6197 15.84 10.5397 15.88 10.4797 15.92C10.4097 15.96 10.3497 16.02 10.2897 16.07C10.0597 16.3 9.92969 16.62 9.92969 16.95C9.92969 17.28 10.0597 17.59 10.2897 17.83C10.5197 18.06 10.8397 18.19 11.1697 18.19C11.2497 18.19 11.3297 18.19 11.4097 18.17C11.4897 18.15 11.5697 18.13 11.6397 18.1C11.7097 18.07 11.7897 18.03 11.8497 17.99C11.9197 17.95 11.9797 17.89 12.0397 17.84C12.2697 17.61 12.4097 17.29 12.4097 16.96C12.4097 16.63 12.2797 16.32 12.0397 16.08C11.9897 16.03 11.9197 15.97 11.8497 15.93L11.8397 15.92Z" fill="url(#paint12_linear_8995_33051)"/>
<path d="M16.7403 15.92C16.6703 15.88 16.6003 15.84 16.5303 15.81C16.4603 15.78 16.3803 15.76 16.3003 15.74C16.1403 15.71 15.9703 15.71 15.8103 15.74C15.7303 15.75 15.6503 15.78 15.5803 15.81C15.5103 15.84 15.4403 15.88 15.3703 15.92C15.3003 15.96 15.2403 16.02 15.1803 16.07C14.9503 16.3 14.8203 16.62 14.8203 16.95C14.8203 17.03 14.8203 17.11 14.8403 17.19C14.8503 17.27 14.8803 17.34 14.9103 17.42C14.9403 17.5 14.9803 17.57 15.0203 17.64C15.0603 17.7 15.1203 17.77 15.1703 17.83C15.2303 17.88 15.2903 17.94 15.3603 17.98C15.4303 18.02 15.5003 18.06 15.5703 18.09C15.6403 18.12 15.7203 18.14 15.8003 18.16C15.8803 18.17 15.9603 18.18 16.0403 18.18C16.3703 18.18 16.6803 18.05 16.9203 17.82C17.1503 17.59 17.2803 17.27 17.2803 16.94C17.2803 16.61 17.1503 16.29 16.9203 16.06C16.8603 16.01 16.8003 15.95 16.7303 15.91L16.7403 15.92Z" fill="url(#paint13_linear_8995_33051)"/>
<path d="M21.6405 15.92C21.5805 15.88 21.5005 15.84 21.4305 15.81C21.3605 15.78 21.2805 15.76 21.2005 15.74C21.0405 15.71 20.8805 15.71 20.7205 15.74C20.6405 15.75 20.5605 15.78 20.4905 15.81C20.4205 15.84 20.3405 15.88 20.2805 15.92C20.2105 15.96 20.1505 16.02 20.0905 16.07C19.8605 16.3 19.7305 16.62 19.7305 16.95C19.7305 17.03 19.7305 17.11 19.7505 17.19C19.7705 17.27 19.7905 17.34 19.8205 17.42C19.8505 17.5 19.8905 17.57 19.9305 17.64C19.9705 17.7 20.0205 17.77 20.0805 17.83C20.3105 18.06 20.6305 18.19 20.9505 18.19C21.2705 18.19 21.6005 18.06 21.8305 17.83C21.8905 17.77 21.9405 17.71 21.9805 17.64C22.0205 17.57 22.0605 17.5 22.0905 17.42C22.1205 17.35 22.1405 17.27 22.1605 17.19C22.1705 17.11 22.1805 17.03 22.1805 16.95C22.1805 16.62 22.0505 16.3 21.8205 16.07C21.7705 16.02 21.7005 15.96 21.6305 15.92H21.6405Z" fill="url(#paint14_linear_8995_33051)"/>
<path d="M26.5404 15.92C26.4704 15.88 26.4004 15.84 26.3204 15.81C26.2504 15.78 26.1704 15.76 26.0904 15.74C25.9304 15.71 25.7604 15.71 25.6004 15.74C25.5204 15.75 25.4404 15.78 25.3704 15.81C25.3004 15.84 25.2304 15.88 25.1604 15.92C25.0904 15.96 25.0304 16.02 24.9704 16.07C24.7404 16.3 24.6104 16.62 24.6104 16.95C24.6104 17.03 24.6104 17.11 24.6304 17.19C24.6404 17.27 24.6704 17.34 24.7004 17.42C24.7304 17.5 24.7704 17.57 24.8104 17.64C24.8504 17.7 24.9104 17.77 24.9604 17.83C25.1904 18.06 25.5104 18.19 25.8404 18.19C26.1704 18.19 26.4804 18.06 26.7204 17.83C26.9504 17.6 27.0804 17.28 27.0804 16.95C27.0804 16.62 26.9504 16.31 26.7204 16.07C26.6604 16.02 26.6004 15.96 26.5304 15.92H26.5404Z" fill="url(#paint15_linear_8995_33051)"/>
<path d="M11.8397 21.2201C11.7797 21.1801 11.6997 21.1401 11.6297 21.1101C11.5597 21.0801 11.4797 21.0601 11.3997 21.0401C10.9997 20.9601 10.5697 21.0901 10.2897 21.3801C10.0597 21.6101 9.92969 21.9301 9.92969 22.2601C9.92969 22.3401 9.92969 22.4201 9.94969 22.5001C9.96969 22.5801 9.98969 22.6501 10.0197 22.7301C10.0497 22.8101 10.0897 22.8801 10.1297 22.9501C10.1697 23.0101 10.2197 23.0801 10.2797 23.1401C10.3297 23.1901 10.3997 23.2501 10.4697 23.2901C10.5297 23.3301 10.6097 23.3701 10.6797 23.4001C10.7497 23.4301 10.8297 23.4501 10.9097 23.4701C10.9897 23.4901 11.0697 23.5001 11.1497 23.5001C11.4797 23.5001 11.7997 23.3701 12.0297 23.1401C12.2597 22.9101 12.3997 22.5901 12.3997 22.2601C12.3997 21.9301 12.2697 21.6101 12.0297 21.3801C11.9797 21.3201 11.9097 21.2701 11.8397 21.2301V21.2201Z" fill="url(#paint16_linear_8995_33051)"/>
<path d="M15.1803 21.3699C14.9503 21.5999 14.8203 21.9199 14.8203 22.2499C14.8203 22.3299 14.8203 22.4099 14.8403 22.4899C14.8503 22.5699 14.8803 22.6399 14.9103 22.7199C14.9403 22.7999 14.9803 22.8699 15.0203 22.9399C15.0603 22.9999 15.1203 23.0699 15.1703 23.1299C15.2303 23.1799 15.2903 23.2399 15.3603 23.2799C15.4303 23.3199 15.5003 23.3599 15.5703 23.3899C15.6403 23.4199 15.7203 23.4399 15.8003 23.4599C15.8803 23.4799 15.9603 23.4899 16.0403 23.4899C16.3703 23.4899 16.6803 23.3599 16.9203 23.1299C17.1503 22.8999 17.2803 22.5799 17.2803 22.2499C17.2803 21.9199 17.1503 21.6099 16.9203 21.3699C16.4603 20.9099 15.6303 20.9099 15.1703 21.3699H15.1803Z" fill="url(#paint17_linear_8995_33051)"/>
<path d="M20.7105 21.04C20.6305 21.05 20.5505 21.08 20.4805 21.11C20.4105 21.14 20.3305 21.18 20.2705 21.22C20.2005 21.26 20.1405 21.31 20.0805 21.37C20.0205 21.43 19.9705 21.49 19.9305 21.56C19.8905 21.62 19.8505 21.7 19.8205 21.77C19.7905 21.84 19.7705 21.92 19.7505 22C19.7405 22.08 19.7305 22.16 19.7305 22.24C19.7305 22.32 19.7305 22.4 19.7505 22.48C19.7705 22.56 19.7905 22.63 19.8205 22.71C19.8505 22.79 19.8905 22.86 19.9305 22.93C19.9705 22.99 20.0205 23.06 20.0805 23.12C20.3105 23.35 20.6305 23.48 20.9505 23.48C21.0305 23.48 21.1105 23.47 21.1905 23.45C21.2705 23.44 21.3505 23.41 21.4205 23.38C21.4905 23.35 21.5705 23.31 21.6305 23.27C21.7005 23.22 21.7605 23.17 21.8205 23.12C21.8805 23.06 21.9305 23 21.9705 22.93C22.0105 22.86 22.0505 22.79 22.0805 22.71C22.1105 22.64 22.1305 22.56 22.1505 22.48C22.1705 22.4 22.1705 22.32 22.1705 22.24C22.1705 21.91 22.0405 21.59 21.8105 21.36C21.5205 21.07 21.1005 20.94 20.7005 21.02L20.7105 21.04Z" fill="url(#paint18_linear_8995_33051)"/>
<path d="M16.7403 26.5101C16.6703 26.4701 16.6003 26.4301 16.5303 26.4001C16.4603 26.3701 16.3803 26.3501 16.3003 26.3301C15.8903 26.2501 15.4703 26.3801 15.1803 26.6701C14.9503 26.9001 14.8203 27.2201 14.8203 27.5501C14.8203 27.6301 14.8203 27.7101 14.8403 27.7901C14.8503 27.8701 14.8803 27.9401 14.9103 28.0201C14.9403 28.0901 14.9803 28.1701 15.0203 28.2401C15.0603 28.3001 15.1203 28.3701 15.1703 28.4301C15.2303 28.4801 15.2903 28.5401 15.3603 28.5801C15.4303 28.6201 15.5003 28.6601 15.5703 28.6901C15.6403 28.7201 15.7203 28.7401 15.8003 28.7601C15.8803 28.7801 15.9603 28.7801 16.0403 28.7801C16.1203 28.7801 16.2003 28.7801 16.2803 28.7601C16.3603 28.7501 16.4403 28.7201 16.5103 28.6901C16.5803 28.6601 16.6503 28.6201 16.7203 28.5801C16.7903 28.5401 16.8503 28.4801 16.9103 28.4301C16.9603 28.3701 17.0203 28.3101 17.0603 28.2401C17.1003 28.1701 17.1403 28.1001 17.1703 28.0201C17.2003 27.9501 17.2203 27.8701 17.2403 27.7901C17.2603 27.7101 17.2603 27.6301 17.2603 27.5501C17.2603 27.2201 17.1303 26.9001 16.9003 26.6701C16.8403 26.6101 16.7803 26.5601 16.7103 26.5201L16.7403 26.5101Z" fill="url(#paint19_linear_8995_33051)"/>
<defs>
<linearGradient id="paint0_linear_8995_33051" x1="5.26505" y1="5.12671" x2="7.87499" y2="5.75411" gradientUnits="userSpaceOnUse">
<stop stop-color="#B63AB4"/>
<stop offset="1" stop-color="#513B9F"/>
</linearGradient>
<linearGradient id="paint1_linear_8995_33051" x1="10.1663" y1="5.13745" x2="12.7868" y2="5.76756" gradientUnits="userSpaceOnUse">
<stop stop-color="#B63AB4"/>
<stop offset="1" stop-color="#513B9F"/>
</linearGradient>
<linearGradient id="paint2_linear_8995_33051" x1="19.9537" y1="5.12671" x2="22.547" y2="5.74003" gradientUnits="userSpaceOnUse">
<stop stop-color="#B63AB4"/>
<stop offset="1" stop-color="#513B9F"/>
</linearGradient>
<linearGradient id="paint3_linear_8995_33051" x1="24.846" y1="5.13745" x2="27.4665" y2="5.76756" gradientUnits="userSpaceOnUse">
<stop stop-color="#B63AB4"/>
<stop offset="1" stop-color="#513B9F"/>
</linearGradient>
<linearGradient id="paint4_linear_8995_33051" x1="0.367391" y1="10.4167" x2="2.99739" y2="11.0515" gradientUnits="userSpaceOnUse">
<stop stop-color="#B63AB4"/>
<stop offset="1" stop-color="#513B9F"/>
</linearGradient>
<linearGradient id="paint5_linear_8995_33051" x1="5.2668" y1="10.4351" x2="7.89583" y2="11.0717" gradientUnits="userSpaceOnUse">
<stop stop-color="#B63AB4"/>
<stop offset="1" stop-color="#513B9F"/>
</linearGradient>
<linearGradient id="paint6_linear_8995_33051" x1="10.1663" y1="10.4275" x2="12.7856" y2="11.0599" gradientUnits="userSpaceOnUse">
<stop stop-color="#B63AB4"/>
<stop offset="1" stop-color="#513B9F"/>
</linearGradient>
<linearGradient id="paint7_linear_8995_33051" x1="15.0568" y1="10.4351" x2="17.6859" y2="11.0717" gradientUnits="userSpaceOnUse">
<stop stop-color="#B63AB4"/>
<stop offset="1" stop-color="#513B9F"/>
</linearGradient>
<linearGradient id="paint8_linear_8995_33051" x1="19.9581" y1="10.4167" x2="22.5975" y2="11.0564" gradientUnits="userSpaceOnUse">
<stop stop-color="#B63AB4"/>
<stop offset="1" stop-color="#513B9F"/>
</linearGradient>
<linearGradient id="paint9_linear_8995_33051" x1="24.8451" y1="10.4268" x2="27.4562" y2="11.0519" gradientUnits="userSpaceOnUse">
<stop stop-color="#B63AB4"/>
<stop offset="1" stop-color="#513B9F"/>
</linearGradient>
<linearGradient id="paint10_linear_8995_33051" x1="29.7464" y1="10.4375" x2="32.3669" y2="11.0676" gradientUnits="userSpaceOnUse">
<stop stop-color="#B63AB4"/>
<stop offset="1" stop-color="#513B9F"/>
</linearGradient>
<linearGradient id="paint11_linear_8995_33051" x1="5.24552" y1="15.7068" x2="7.85889" y2="16.3274" gradientUnits="userSpaceOnUse">
<stop stop-color="#B63AB4"/>
<stop offset="1" stop-color="#513B9F"/>
</linearGradient>
<linearGradient id="paint12_linear_8995_33051" x1="10.1467" y1="15.7175" x2="12.7778" y2="16.3502" gradientUnits="userSpaceOnUse">
<stop stop-color="#B63AB4"/>
<stop offset="1" stop-color="#513B9F"/>
</linearGradient>
<linearGradient id="paint13_linear_8995_33051" x1="15.0356" y1="15.7175" x2="17.6466" y2="16.3428" gradientUnits="userSpaceOnUse">
<stop stop-color="#B63AB4"/>
<stop offset="1" stop-color="#513B9F"/>
</linearGradient>
<linearGradient id="paint14_linear_8995_33051" x1="19.9448" y1="15.7175" x2="22.5475" y2="16.3358" gradientUnits="userSpaceOnUse">
<stop stop-color="#B63AB4"/>
<stop offset="1" stop-color="#513B9F"/>
</linearGradient>
<linearGradient id="paint15_linear_8995_33051" x1="24.8265" y1="15.7175" x2="27.4481" y2="16.3454" gradientUnits="userSpaceOnUse">
<stop stop-color="#B63AB4"/>
<stop offset="1" stop-color="#513B9F"/>
</linearGradient>
<linearGradient id="paint16_linear_8995_33051" x1="10.1458" y1="21.0168" x2="12.7687" y2="21.6423" gradientUnits="userSpaceOnUse">
<stop stop-color="#B63AB4"/>
<stop offset="1" stop-color="#513B9F"/>
</linearGradient>
<linearGradient id="paint17_linear_8995_33051" x1="15.0356" y1="21.0249" x2="17.6469" y2="21.6496" gradientUnits="userSpaceOnUse">
<stop stop-color="#B63AB4"/>
<stop offset="1" stop-color="#513B9F"/>
</linearGradient>
<linearGradient id="paint18_linear_8995_33051" x1="19.944" y1="20.9968" x2="22.5383" y2="21.6079" gradientUnits="userSpaceOnUse">
<stop stop-color="#B63AB4"/>
<stop offset="1" stop-color="#513B9F"/>
</linearGradient>
<linearGradient id="paint19_linear_8995_33051" x1="15.0338" y1="26.3069" x2="17.6271" y2="26.9202" gradientUnits="userSpaceOnUse">
<stop stop-color="#B63AB4"/>
<stop offset="1" stop-color="#513B9F"/>
</linearGradient>
</defs>
</svg>
