<svg width="32" height="32" viewBox="0 0 32 32" fill="none" xmlns="http://www.w3.org/2000/svg">
<path d="M8.28027 28.2099C8.28027 29.4899 9.28027 30.5299 10.5203 30.5299H20.8903C22.1203 30.5299 23.1303 29.4899 23.1303 28.2099V25.6499H8.29027V28.2099H8.28027Z" fill="url(#paint0_linear_8995_33209)"/>
<path d="M21.4904 0.950029H19.4904V0.890029C19.4904 0.410029 18.8904 0.0300293 18.1504 0.0300293H12.9104C12.1704 0.0300293 11.5704 0.420029 11.5704 0.890029V0.950029H9.90043C8.27043 0.950029 6.94043 2.27003 6.94043 3.91003V29.04C6.94043 30.67 8.26043 32 9.90043 32H21.4804C23.1104 32 24.4404 30.68 24.4404 29.04V3.90003C24.4404 2.27003 23.1204 0.940029 21.4804 0.940029L21.4904 0.950029ZM23.7504 28.41C23.7504 29.95 22.5304 31.2 21.0304 31.2H10.3704C8.87043 31.2 7.65043 29.95 7.65043 28.41V4.72003C7.65043 3.18003 8.87043 1.93003 10.3704 1.93003H21.0304C22.5304 1.93003 23.7504 3.18003 23.7504 4.72003V28.41Z" fill="url(#paint1_linear_8995_33209)"/>
<defs>
<linearGradient id="paint0_linear_8995_33209" x1="9.57965" y1="25.6499" x2="20.4568" y2="33.5847" gradientUnits="userSpaceOnUse">
<stop stop-color="#B63AB4"/>
<stop offset="1" stop-color="#513B9F"/>
</linearGradient>
<linearGradient id="paint1_linear_8995_33209" x1="8.47168" y1="0.0300278" x2="27.7788" y2="2.56357" gradientUnits="userSpaceOnUse">
<stop stop-color="#B63AB4"/>
<stop offset="1" stop-color="#513B9F"/>
</linearGradient>
</defs>
</svg>
