<svg width="32" height="32" viewBox="0 0 32 32" fill="none" xmlns="http://www.w3.org/2000/svg">
<path d="M16 25.9556C17.3746 25.9556 18.4889 24.8412 18.4889 23.4667C18.4889 22.0921 17.3746 20.9778 16 20.9778C14.6254 20.9778 13.5111 22.0921 13.5111 23.4667C13.5111 24.8412 14.6254 25.9556 16 25.9556Z" fill="url(#paint0_linear_2_1672)"/>
<path d="M25.2409 11.7333H20.2631C19.8706 11.7333 19.552 12.0519 19.552 12.4444C19.552 12.837 19.8706 13.1556 20.2631 13.1556H25.2409C25.6334 13.1556 25.952 12.837 25.952 12.4444C25.952 12.0519 25.6338 11.7333 25.2409 11.7333Z" fill="url(#paint1_linear_2_1672)"/>
<path d="M11.7298 11.7333H6.752C6.35947 11.7333 6.04089 12.0519 6.04089 12.4444C6.04089 12.837 6.35947 13.1556 6.752 13.1556H11.7298C12.1223 13.1556 12.4409 12.837 12.4409 12.4444C12.4409 12.0519 12.1227 11.7333 11.7298 11.7333Z" fill="url(#paint2_linear_2_1672)"/>
<path d="M27.3603 4.63972C33.5466 10.9385 33.5466 21.174 27.3603 27.3603C21.174 33.5466 10.9385 33.5466 4.63972 27.3603C-1.54657 21.174 -1.54657 10.9385 4.63972 4.63972C10.9385 -1.54657 21.174 -1.54657 27.3603 4.63972ZM26.348 5.7645C20.6116 0.0281195 11.3884 0.0281195 5.7645 5.7645C0.0281195 11.3884 0.0281195 20.6116 5.7645 26.348C11.3884 31.9719 20.6116 31.9719 26.348 26.348C31.9719 20.6116 31.9719 11.3884 26.348 5.7645Z" fill="url(#paint3_linear_2_1672)"/>
<defs>
<linearGradient id="paint0_linear_2_1672" x1="13.9467" y1="20.9778" x2="19.2294" y2="22.2442" gradientUnits="userSpaceOnUse">
<stop stop-color="#B63AB4"/>
<stop offset="1" stop-color="#513B9F"/>
</linearGradient>
<linearGradient id="paint1_linear_2_1672" x1="20.112" y1="11.7333" x2="23.4315" y2="15.3143" gradientUnits="userSpaceOnUse">
<stop stop-color="#B63AB4"/>
<stop offset="1" stop-color="#513B9F"/>
</linearGradient>
<linearGradient id="paint2_linear_2_1672" x1="6.60089" y1="11.7333" x2="9.92036" y2="15.3143" gradientUnits="userSpaceOnUse">
<stop stop-color="#B63AB4"/>
<stop offset="1" stop-color="#513B9F"/>
</linearGradient>
<linearGradient id="paint3_linear_2_1672" x1="2.8" y1="-1.46508e-06" x2="36.7607" y2="8.14125" gradientUnits="userSpaceOnUse">
<stop stop-color="#B63AB4"/>
<stop offset="1" stop-color="#513B9F"/>
</linearGradient>
</defs>
</svg>
