<svg width="32" height="32" viewBox="0 0 32 32" fill="none" xmlns="http://www.w3.org/2000/svg">
<g clip-path="url(#clip0_8995_33214)">
<path d="M27.2703 4.76996C21.3703 -1.10004 11.9403 -1.45004 5.62029 3.95996C5.28029 4.25996 5.01029 4.52996 4.76029 4.75996C4.51029 4.98996 4.24029 5.28996 3.96029 5.61996C-1.76971 12.31 -0.989712 22.36 5.69029 28.08C11.6503 33.19 20.4403 33.19 26.4103 28.08C26.7503 27.79 27.0203 27.51 27.2703 27.28C27.5203 27.05 27.7803 26.76 28.0703 26.42C33.4903 20.1 33.1403 10.67 27.2703 4.76996ZM27.2103 25.69C26.9303 26.01 26.7003 26.26 26.4603 26.5C26.2203 26.74 25.9703 26.97 25.6503 27.25C19.5003 32.63 10.1603 32 4.79029 25.85C-0.0897121 20.27 -0.0797119 11.93 4.82029 6.35996C5.09029 6.04996 5.33029 5.78996 5.56029 5.54996C5.79029 5.30996 6.05029 5.07996 6.37029 4.79996C12.5003 -0.580041 21.8403 0.0199585 27.2303 6.15996C32.1403 11.75 32.1303 20.12 27.2103 25.7V25.69Z" fill="url(#paint0_linear_8995_33214)"/>
<path d="M25.6796 6.35999C20.6596 1.38999 12.6896 1.03999 7.25957 5.55999C7.13957 5.65999 7.05957 5.80999 7.05957 5.96999C7.05957 6.12999 7.10957 6.27999 7.21957 6.39999L13.1296 12.35L15.5096 14.73L18.8496 18.06L19.2496 18.46L20.0596 19.27L23.6896 22.89L25.6196 24.83C25.7296 24.94 25.8696 25 26.0196 24.99C26.1796 24.99 26.3296 24.91 26.4296 24.79C30.9596 19.37 30.6296 11.38 25.6696 6.34999L25.6796 6.35999ZM13.1696 10.77C13.4796 10.49 13.8896 10.34 14.3096 10.34H19.4296V12.28C19.4296 13.09 18.7696 13.75 17.9596 13.75H16.1596L14.6696 12.26L13.1796 10.77H13.1696ZM23.9296 21.53L21.8396 19.44H22.2696C23.2096 19.44 23.9796 20.2 23.9796 21.15C23.9796 21.28 23.9596 21.41 23.9296 21.54V21.53ZM20.5896 18.19L20.1196 17.73L17.2796 14.89H19.9996C20.9396 14.91 21.6896 15.68 21.6796 16.62C21.6696 17.32 21.2296 17.94 20.5696 18.19H20.5996H20.5896ZM25.9796 23.58L24.7996 22.41C24.9996 22.02 25.1096 21.59 25.1096 21.15C25.1096 19.58 23.8396 18.31 22.2696 18.31C22.6396 17.82 22.8396 17.22 22.8396 16.6C22.8396 15.07 21.6296 13.81 20.0996 13.76C20.3996 13.33 20.5596 12.81 20.5696 12.29V9.77999C20.5696 9.46999 20.3196 9.20999 19.9996 9.20999H14.3096C13.5896 9.20999 12.8996 9.48999 12.3696 9.97999L8.45957 6.06999C13.9696 1.89999 21.8196 2.99999 25.9796 8.50999C29.3496 12.97 29.3496 19.13 25.9796 23.59V23.58Z" fill="url(#paint1_linear_8995_33214)"/>
<path d="M21.75 22.5699L21.53 22.3499L17.65 18.4699L13.1 13.9199L6.39002 7.20991C6.28002 7.09991 6.12002 7.03991 5.96002 7.04991C5.80002 7.04991 5.65002 7.12991 5.55002 7.24991C0.720019 12.9999 1.45002 21.5899 7.20002 26.4399C9.67002 28.5199 12.79 29.6599 16.02 29.6499C19.22 29.6599 22.32 28.5399 24.78 26.4799C24.9 26.3799 24.98 26.2299 24.98 26.0699C24.98 25.9099 24.93 25.7599 24.82 25.6399L21.76 22.5699H21.75ZM10.33 16.5999C10.33 15.6599 11.09 14.8899 12.04 14.8899H12.47L14.02 16.4399L15.88 18.2999H12.04C11.1 18.2999 10.33 17.5399 10.33 16.5899V16.5999ZM12.03 19.4399H17.01L20.42 22.8499H9.75002C8.81002 22.8499 8.04002 22.0899 8.04002 21.1399C8.04002 20.1899 8.80002 19.4299 9.75002 19.4299H12.02L12.03 19.4399ZM7.17002 24.8699C2.78002 20.4399 2.30002 13.4599 6.03002 8.46991L11.39 13.8299C10.1 14.1299 9.19002 15.2799 9.19002 16.5999C9.19002 17.2199 9.39002 17.8199 9.76002 18.3099C8.19002 18.3099 6.92002 19.5799 6.92002 21.1499C6.92002 22.7199 8.19002 23.9899 9.76002 23.9899H21.57L23.57 25.9999C18.58 29.7399 11.6 29.2599 7.17002 24.8699Z" fill="url(#paint2_linear_8995_33214)"/>
</g>
<defs>
<linearGradient id="paint0_linear_8995_33214" x1="2.90574" y1="0.123778" x2="36.6443" y2="8.21238" gradientUnits="userSpaceOnUse">
<stop stop-color="#B63AB4"/>
<stop offset="1" stop-color="#513B9F"/>
</linearGradient>
<linearGradient id="paint1_linear_8995_33214" x1="9.03361" y1="2.38818" x2="32.9813" y2="8.11829" gradientUnits="userSpaceOnUse">
<stop stop-color="#B63AB4"/>
<stop offset="1" stop-color="#513B9F"/>
</linearGradient>
<linearGradient id="paint2_linear_8995_33214" x1="4.3369" y1="7.04883" x2="28.3431" y2="12.8092" gradientUnits="userSpaceOnUse">
<stop stop-color="#B63AB4"/>
<stop offset="1" stop-color="#513B9F"/>
</linearGradient>
<clipPath id="clip0_8995_33214">
<rect width="32" height="32" fill="white"/>
</clipPath>
</defs>
</svg>
