<svg width="32" height="32" viewBox="0 0 32 32" fill="none" xmlns="http://www.w3.org/2000/svg">
<path fill-rule="evenodd" clip-rule="evenodd" d="M11.1302 11.2299C10.9602 10.4399 10.2502 9.83989 9.41016 9.83989H7.17016C6.20016 9.83989 5.41016 10.6299 5.41016 11.5999V22.7799C5.41016 23.7499 6.20016 24.5399 7.17016 24.5399H9.41016C10.2602 24.5399 10.9702 23.9399 11.1302 23.1399H20.9002C22.0002 23.1399 22.9902 22.4599 23.3702 21.4299L25.8602 14.7999C26.1602 13.9899 26.0502 13.0799 25.5602 12.3699C25.0702 11.6599 24.2602 11.2299 23.3902 11.2299H19.5602V7.88989C19.5602 7.28989 19.3202 6.71989 18.9002 6.29989C18.4802 5.87989 17.9102 5.63989 17.3102 5.63989C16.6202 5.63989 15.9902 6.02989 15.6802 6.64989C15.3802 7.24989 14.9502 8.10989 14.5402 8.92989C13.8802 10.2399 12.5902 11.1099 11.1402 11.2199L11.1302 11.2299ZM10.4402 11.5999V22.7799C10.4402 23.3499 9.98016 23.8199 9.40016 23.8199H7.16016C6.59016 23.8199 6.12016 23.3599 6.12016 22.7799V11.5999C6.12016 11.0299 6.58016 10.5599 7.16016 10.5599H9.40016C9.97016 10.5599 10.4402 11.0199 10.4402 11.5999ZM11.1702 22.4299V11.9499C12.8802 11.8199 14.4002 10.8099 15.1802 9.25989C15.5902 8.43989 16.0202 7.57989 16.3202 6.97989C16.5102 6.60989 16.8902 6.36989 17.3102 6.36989C17.7202 6.36989 18.1002 6.52989 18.3902 6.81989C18.6802 7.10989 18.8402 7.48989 18.8402 7.89989V11.5999C18.8402 11.7999 19.0002 11.9599 19.2002 11.9599H23.3902C24.0202 11.9599 24.6102 12.2699 24.9702 12.7899C25.3302 13.3099 25.4102 13.9699 25.1902 14.5599L22.7002 21.1899C22.4202 21.9399 21.7002 22.4299 20.9002 22.4299H11.1702Z" fill="url(#paint0_linear_8995_33130)"/>
<path fill-rule="evenodd" clip-rule="evenodd" d="M3.1802 5.8899C3.1302 5.7499 2.9902 5.6499 2.8402 5.6499C2.6902 5.6499 2.5502 5.7399 2.5002 5.8899L2.0702 7.0599C1.9902 7.2699 1.8202 7.4399 1.6102 7.5199L0.440195 7.9499C0.300195 7.9999 0.200195 8.1399 0.200195 8.2899C0.200195 8.4399 0.290195 8.5799 0.440195 8.6299L1.6102 9.0599C1.8202 9.1399 1.9902 9.3099 2.0702 9.5199L2.5002 10.6899C2.5502 10.8299 2.6902 10.9299 2.8402 10.9299C2.9902 10.9299 3.1302 10.8399 3.1802 10.6899L3.6102 9.5199C3.6902 9.3099 3.8602 9.1399 4.0702 9.0599L5.2402 8.6299C5.3802 8.5799 5.4802 8.4399 5.4802 8.2899C5.4802 8.1399 5.3902 7.9999 5.2402 7.9499L4.0702 7.5199C3.8602 7.4399 3.6902 7.2699 3.6102 7.0599L3.1802 5.8899ZM2.8402 7.0499L2.9302 7.2999C3.0802 7.7099 3.4002 8.0299 3.8102 8.1799L4.0602 8.2699L3.8102 8.3599C3.4002 8.5099 3.0802 8.8299 2.9302 9.2399L2.8402 9.4899L2.7502 9.2399C2.6002 8.8299 2.2802 8.5099 1.8702 8.3599L1.6202 8.2699L1.8702 8.1799C2.2802 8.0299 2.6002 7.7099 2.7502 7.2999L2.8402 7.0499Z" fill="url(#paint1_linear_8995_33130)"/>
<path fill-rule="evenodd" clip-rule="evenodd" d="M28.2701 2.70997C28.2201 2.56997 28.0801 2.46997 27.9301 2.46997C27.7801 2.46997 27.6401 2.55997 27.5901 2.70997C27.5901 2.70997 27.1801 3.80997 26.8901 4.60997C26.7401 5.01997 26.4201 5.33997 26.0101 5.48997L24.1101 6.18997C23.9701 6.23997 23.8701 6.37997 23.8701 6.52997C23.8701 6.67997 23.9601 6.81997 24.1101 6.86997C24.1101 6.86997 25.2101 7.27997 26.0101 7.56997C26.4201 7.71997 26.7401 8.03997 26.8901 8.44997L27.5901 10.35C27.6401 10.49 27.7801 10.59 27.9301 10.59C28.0801 10.59 28.2201 10.5 28.2701 10.35C28.2701 10.35 28.6801 9.24997 28.9701 8.44997C29.1201 8.03997 29.4401 7.71997 29.8501 7.56997L31.7501 6.86997C31.8901 6.81997 31.9901 6.67997 31.9901 6.52997C31.9901 6.37997 31.9001 6.23997 31.7501 6.18997C31.7501 6.18997 30.6501 5.77997 29.8501 5.48997C29.4401 5.33997 29.1201 5.01997 28.9701 4.60997L28.2701 2.70997ZM27.9301 3.87997L28.2901 4.85997C28.5101 5.45997 28.9901 5.93997 29.5901 6.15997L30.5701 6.51997L29.5901 6.87997C28.9901 7.09997 28.5101 7.57997 28.2901 8.17997L27.9301 9.15997L27.5701 8.17997C27.3501 7.57997 26.8701 7.09997 26.2701 6.87997L25.2901 6.51997L26.2701 6.15997C26.8701 5.93997 27.3501 5.45997 27.5701 4.85997L27.9301 3.87997Z" fill="url(#paint2_linear_8995_33130)"/>
<path fill-rule="evenodd" clip-rule="evenodd" d="M25.1404 22.5501C25.0904 22.4101 24.9504 22.3101 24.8004 22.3101C24.6504 22.3101 24.5104 22.4001 24.4604 22.5501L23.8804 24.1101C23.7604 24.4301 23.5104 24.6701 23.2004 24.7901L21.6404 25.3701C21.5004 25.4201 21.4004 25.5601 21.4004 25.7101C21.4004 25.8601 21.4904 26.0001 21.6404 26.0501L23.2004 26.6301C23.5204 26.7501 23.7604 27.0001 23.8804 27.3101L24.4604 28.8701C24.5104 29.0101 24.6504 29.1101 24.8004 29.1101C24.9504 29.1101 25.0904 29.0201 25.1404 28.8701L25.7204 27.3101C25.8404 26.9901 26.0904 26.7501 26.4004 26.6301L27.9604 26.0501C28.1004 26.0001 28.2004 25.8601 28.2004 25.7101C28.2004 25.5601 28.1104 25.4201 27.9604 25.3701L26.4004 24.7901C26.0804 24.6701 25.8404 24.4201 25.7204 24.1101L25.1404 22.5501ZM24.8004 23.7101L25.0404 24.3501C25.2304 24.8601 25.6304 25.2701 26.1504 25.4601L26.7904 25.7001L26.1504 25.9401C25.6404 26.1301 25.2304 26.5301 25.0404 27.0501L24.8004 27.6901L24.5604 27.0501C24.3704 26.5401 23.9704 26.1301 23.4504 25.9401L22.8104 25.7001L23.4504 25.4601C23.9604 25.2701 24.3704 24.8701 24.5604 24.3501L24.8004 23.7101Z" fill="url(#paint3_linear_8995_33130)"/>
<defs>
<linearGradient id="paint0_linear_8995_33130" x1="7.21407" y1="5.63989" x2="28.8699" y2="11.3028" gradientUnits="userSpaceOnUse">
<stop stop-color="#B63AB4"/>
<stop offset="1" stop-color="#513B9F"/>
</linearGradient>
<linearGradient id="paint1_linear_8995_33130" x1="0.662195" y1="5.6499" x2="6.2657" y2="6.99321" gradientUnits="userSpaceOnUse">
<stop stop-color="#B63AB4"/>
<stop offset="1" stop-color="#513B9F"/>
</linearGradient>
<linearGradient id="paint2_linear_8995_33130" x1="24.5806" y1="2.46997" x2="33.1981" y2="4.53581" gradientUnits="userSpaceOnUse">
<stop stop-color="#B63AB4"/>
<stop offset="1" stop-color="#513B9F"/>
</linearGradient>
<linearGradient id="paint3_linear_8995_33130" x1="21.9954" y1="22.3101" x2="29.212" y2="24.0401" gradientUnits="userSpaceOnUse">
<stop stop-color="#B63AB4"/>
<stop offset="1" stop-color="#513B9F"/>
</linearGradient>
</defs>
</svg>
