<svg width="32" height="32" viewBox="0 0 32 32" fill="none" xmlns="http://www.w3.org/2000/svg">
<g clip-path="url(#clip0_8995_1892)">
<path d="M0.22043 28.71L10.5804 31.9C10.5804 31.9 10.6604 31.92 10.7004 31.92C10.7404 31.92 10.7804 31.92 10.8204 31.9L21.1304 28.73H31.4304C31.6504 28.73 31.8304 28.55 31.8304 28.33V0.42002C31.8304 0.20002 31.6504 0.0200195 31.4304 0.0200195H21.0704C21.0704 0.0200195 20.9904 0.0200195 20.9504 0.0400195L10.7004 3.19002L0.46043 0.0400195C0.34043 1.95317e-05 0.21043 0.0300195 0.10043 0.10002C0.000429682 0.18002 -0.0595703 0.30002 -0.0595703 0.42002V28.32C-0.0595703 28.49 0.0504297 28.65 0.22043 28.7V28.71ZM0.74043 25.84C0.98043 25.93 1.34043 26.06 1.82043 26.21C1.86043 26.22 1.90043 26.23 1.94043 26.23C2.11043 26.23 2.27043 26.12 2.32043 25.95C2.38043 25.74 2.27043 25.52 2.06043 25.45C1.56043 25.3 1.18043 25.16 0.96043 25.07C0.89043 25.04 0.81043 25.04 0.74043 25.06V16.51C0.88043 16.38 1.13043 16.15 1.49043 15.83C1.66043 15.68 1.67043 15.43 1.53043 15.27C1.38043 15.1 1.13043 15.09 0.97043 15.23C0.89043 15.3 0.81043 15.37 0.74043 15.43V6.95002C2.05043 7.46002 3.72043 8.58002 4.81043 11.03C4.94043 11.33 5.08043 11.62 5.23043 11.91C4.96043 12.1 4.69043 12.29 4.44043 12.47C4.26043 12.6 4.22043 12.85 4.35043 13.03C4.43043 13.14 4.55043 13.19 4.67043 13.19C4.75043 13.19 4.83043 13.17 4.90043 13.11C5.12043 12.95 5.36043 12.78 5.60043 12.62C6.90043 15.02 8.50043 16.82 10.3004 17.98V26.3C10.3004 26.3 10.2204 26.28 10.1704 26.29C9.78043 26.33 9.39043 26.35 9.00043 26.37C8.78043 26.37 8.61043 26.56 8.62043 26.78C8.62043 27 8.80043 27.16 9.02043 27.16C9.02043 27.16 9.02043 27.16 9.03043 27.16C9.44043 27.15 9.84043 27.12 10.2504 27.08C10.2704 27.08 10.2804 27.07 10.3004 27.06V30.97L0.74043 28.03V25.83V25.84ZM11.1004 3.91002L20.6704 0.96002V4.68002C20.6704 4.68002 20.6704 4.68002 20.6604 4.68002C20.2704 4.78002 19.8804 4.88002 19.4904 4.99002C19.2804 5.05002 19.1504 5.27002 19.2104 5.48002C19.2604 5.66002 19.4204 5.77002 19.5904 5.77002C19.6304 5.77002 19.6604 5.77002 19.7004 5.76002C20.0204 5.67002 20.3404 5.59002 20.6604 5.51002V17.83C19.1204 18.42 17.3504 18.71 15.3504 18.71C13.8404 18.71 12.4104 18.31 11.0904 17.55V3.91002H11.1004ZM15.3604 19.5C17.3304 19.5 19.1004 19.21 20.6704 18.65V22.43C20.5904 22.41 20.5004 22.41 20.4204 22.45C20.0504 22.62 19.6904 22.79 19.3304 22.97C19.1304 23.07 19.0504 23.31 19.1504 23.51C19.2204 23.65 19.3604 23.73 19.5104 23.73C19.5704 23.73 19.6304 23.72 19.6904 23.69C20.0104 23.53 20.3404 23.37 20.6704 23.22V28.04L11.1004 30.98V18.45C12.4304 19.14 13.8504 19.5 15.3604 19.5ZM21.4704 27.93V18.34C23.9704 17.25 25.9204 15.39 27.2904 12.78C28.6304 10.23 29.9804 8.50002 31.0404 7.39002V19C30.8804 19.03 30.4904 19.12 29.9404 19.26C29.7304 19.31 29.6004 19.53 29.6504 19.74C29.6904 19.92 29.8604 20.04 30.0404 20.04C30.0704 20.04 30.1004 20.04 30.1404 20.03C30.5404 19.93 30.8504 19.86 31.0504 19.81V27.93H21.4804H21.4704ZM31.0404 3.77002C30.9204 3.77002 30.7904 3.75002 30.6704 3.74002C30.4504 3.73002 30.2604 3.89002 30.2504 4.11002C30.2404 4.33002 30.4004 4.52002 30.6204 4.53002C30.7604 4.53002 30.9004 4.55002 31.0404 4.56002V6.24002C29.8904 7.34002 28.2204 9.28002 26.5904 12.39C25.3504 14.76 23.6604 16.44 21.4704 17.47V0.82002H31.0404V3.77002ZM10.3104 3.91002V8.79002C10.3104 8.79002 10.2404 8.80002 10.2104 8.82002C9.85043 9.02002 9.50043 9.21002 9.16043 9.41002C8.97043 9.52002 8.90043 9.76002 9.01043 9.95002C9.08043 10.08 9.22043 10.15 9.36043 10.15C9.43043 10.15 9.50043 10.13 9.56043 10.1C9.80043 9.96002 10.0604 9.82002 10.3104 9.68002V17.02C8.43043 15.67 6.81043 13.54 5.54043 10.7C4.26043 7.82002 2.23043 6.61002 0.74043 6.09002V0.96002L10.3104 3.90002V3.91002Z" fill="url(#paint0_linear_8995_1892)"/>
</g>
<defs>
<linearGradient id="paint0_linear_8995_1892" x1="2.7308" y1="0.0200181" x2="36.5759" y2="8.13102" gradientUnits="userSpaceOnUse">
<stop stop-color="#B63AB4"/>
<stop offset="1" stop-color="#513B9F"/>
</linearGradient>
<clipPath id="clip0_8995_1892">
<rect width="32" height="32" fill="white"/>
</clipPath>
</defs>
</svg>
