<svg width="32" height="32" viewBox="0 0 32 32" fill="none" xmlns="http://www.w3.org/2000/svg">
<g clip-path="url(#clip0_8995_33290)">
<path d="M31.9804 5.51992L27.6804 1.23992C27.5104 1.06992 27.2304 1.06992 27.0604 1.23992L22.7604 5.51992C22.5804 5.67992 22.5504 5.95992 22.7104 6.13992C22.8703 6.31992 23.1504 6.34992 23.3304 6.18992C23.3504 6.17992 23.3603 6.15992 23.3804 6.13992L26.9304 2.60992V25.8099C27.0104 28.6699 24.7604 31.0499 21.9104 31.1299C19.0504 31.2099 16.6704 28.9599 16.5904 26.1099C16.5904 26.0099 16.5904 25.9099 16.5904 25.8099V5.84992C16.6804 2.50992 14.0404 -0.28008 10.7004 -0.37008C7.36035 -0.46008 4.57035 2.17992 4.48035 5.51992C4.48035 5.62992 4.48035 5.73992 4.48035 5.84992V29.0499L0.930352 25.4999C0.760352 25.3299 0.480352 25.3299 0.300352 25.4999C0.130352 25.6699 0.130352 25.9499 0.300352 26.1299L4.60035 30.4299C4.77035 30.5999 5.05035 30.5999 5.22035 30.4299L9.52035 26.1299C9.68035 25.9499 9.66035 25.6699 9.47035 25.5099C9.31035 25.3699 9.06035 25.3699 8.90035 25.5099L5.35035 29.0599V5.84992C5.27035 2.98992 7.52035 0.60992 10.3704 0.52992C13.2304 0.44992 15.6104 2.69992 15.6904 5.54992C15.6904 5.64992 15.6904 5.74992 15.6904 5.84992V25.8099C15.6004 29.1499 18.2404 31.9399 21.5804 32.0299C24.9204 32.1199 27.7104 29.4799 27.8004 26.1399C27.8004 26.0299 27.8004 25.9199 27.8004 25.8099V2.60992L31.3504 6.15992C31.5304 6.32992 31.8104 6.32992 31.9804 6.14992C32.1504 5.96992 32.1504 5.68992 31.9704 5.51992H31.9804Z" fill="url(#paint0_linear_8995_33290)"/>
</g>
<defs>
<linearGradient id="paint0_linear_8995_33290" x1="2.96706" y1="-0.372316" x2="36.9106" y2="7.64665" gradientUnits="userSpaceOnUse">
<stop stop-color="#B63AB4"/>
<stop offset="1" stop-color="#513B9F"/>
</linearGradient>
<clipPath id="clip0_8995_33290">
<rect width="32" height="32" fill="white"/>
</clipPath>
</defs>
</svg>
