<svg width="32" height="32" viewBox="0 0 32 32" fill="none" xmlns="http://www.w3.org/2000/svg">
<path fill-rule="evenodd" clip-rule="evenodd" d="M27.5598 7.20996C29.6698 7.20996 31.8298 8.72996 31.9098 11.01C31.9098 11.01 31.9198 11.02 31.9198 11.03C31.9198 11.09 31.9198 11.16 31.8998 11.21C31.8998 11.24 31.8798 11.27 31.8698 11.29L28.2198 21.47C28.1398 21.76 28.0298 22.04 27.9198 22.3L27.8998 22.37C27.8998 22.37 27.8698 22.43 27.8398 22.46C27.3198 23.62 26.5398 24.55 25.6298 25.26C23.9298 26.59 21.8098 27.24 19.9598 27.24H0.449838C0.039838 27.24 -0.0401619 26.88 0.169838 26.62L15.5998 9.66996C15.7498 9.48996 15.8298 9.45996 16.0098 9.44996L23.8998 9.47996C24.0498 9.31996 24.1798 9.14996 24.3098 8.97996C25.0698 7.73996 26.2898 7.20996 27.5498 7.20996H27.5598ZM27.5998 7.92996C26.5698 7.92996 25.5498 8.34996 24.9298 9.37996C23.7198 10.79 22.5198 12.28 21.3298 13.71C21.7898 13.55 22.2798 13.43 22.7698 13.39C22.9298 13.38 23.0998 13.38 23.2698 13.38C24.4298 13.38 25.6098 13.74 26.5598 14.53C27.5698 15.37 28.2898 16.7 28.4898 18.53L31.1798 11.07C31.1298 9.23996 29.3298 7.94996 27.5998 7.93996V7.92996ZM16.1198 10.18L1.26984 26.52H19.9298C21.6098 26.47 23.6198 25.91 25.1698 24.7C26.0098 24.05 26.6998 23.21 27.1698 22.17C27.1698 22.16 27.1698 22.15 27.1798 22.14L27.5298 21.17C27.6998 20.52 27.7998 19.8 27.7898 19C27.6698 17.1 26.9898 15.86 26.0698 15.1C25.1498 14.33 23.9698 14.03 22.8198 14.13C21.6698 14.23 20.5598 14.74 19.8098 15.51C19.7098 15.61 19.6298 15.71 19.5398 15.8C18.9698 16.53 18.6898 17.47 18.8998 18.59C19.4598 20.8 20.8998 21.58 22.1798 21.52C23.4598 21.46 24.5798 20.56 24.5398 19.03C24.4598 18.04 24.1298 17.46 23.7698 17.15C23.3998 16.84 22.9698 16.78 22.5698 16.87C22.1698 16.97 21.8398 17.23 21.6798 17.57C21.5298 17.91 21.5198 18.34 21.8898 18.87C21.9998 19.03 21.9498 19.27 21.7898 19.38C21.6298 19.49 21.3898 19.44 21.2798 19.28C20.7998 18.58 20.7398 17.84 20.9998 17.26C21.2598 16.69 21.7898 16.29 22.3898 16.14C22.9898 15.99 23.6898 16.1 24.2398 16.57C24.7898 17.03 25.1798 17.83 25.2698 18.97C25.3198 20.89 23.8298 22.16 22.2098 22.24C20.5798 22.32 18.7998 21.23 18.1798 18.75C17.8598 17.04 18.3998 16.18 18.9998 15.29L23.2698 10.21L16.0998 10.18H16.1198Z" fill="url(#paint0_linear_8995_1854)"/>
<defs>
<linearGradient id="paint0_linear_8995_1854" x1="2.84556" y1="7.20996" x2="34.0636" y2="19.1146" gradientUnits="userSpaceOnUse">
<stop stop-color="#B63AB4"/>
<stop offset="1" stop-color="#513B9F"/>
</linearGradient>
</defs>
</svg>
