<svg width="32" height="32" viewBox="0 0 32 32" fill="none" xmlns="http://www.w3.org/2000/svg">
<g clip-path="url(#clip0_8995_1756)">
<path d="M16.0196 8.65967C18.0596 8.65967 19.8996 9.48967 21.2396 10.8197C22.5796 12.1497 23.3996 13.9997 23.3996 16.0397C23.3996 18.0797 22.5696 19.9197 21.2396 21.2597C19.9096 22.5997 18.0596 23.4197 16.0196 23.4197C13.9796 23.4197 12.1396 22.5897 10.7996 21.2597C9.45965 19.9297 8.63965 18.0797 8.63965 16.0397C8.63965 13.9997 9.46965 12.1597 10.7996 10.8197C12.1296 9.47967 13.9796 8.65967 16.0196 8.65967ZM20.5296 11.5197C19.3796 10.3697 17.7796 9.64967 16.0196 9.64967C14.2596 9.64967 12.6596 10.3597 11.5096 11.5197C10.3596 12.6697 9.63965 14.2697 9.63965 16.0297C9.63965 17.7897 10.3496 19.3897 11.5096 20.5397C12.6596 21.6897 14.2596 22.4097 16.0196 22.4097C17.7796 22.4097 19.3796 21.6997 20.5296 20.5397C21.6796 19.3897 22.3996 17.7897 22.3996 16.0297C22.3996 14.2697 21.6896 12.6697 20.5296 11.5197Z" fill="url(#paint0_linear_8995_1756)"/>
<path d="M16.2998 0.569824C16.2998 0.289824 16.0798 0.0698242 15.7998 0.0698242C15.5198 0.0698242 15.2998 0.289824 15.2998 0.569824V5.76982C15.2998 6.04982 15.5198 6.26982 15.7998 6.26982C16.0798 6.26982 16.2998 6.04982 16.2998 5.76982V0.569824Z" fill="url(#paint1_linear_8995_1756)"/>
<path d="M23.9898 2.7899C24.1298 2.5499 24.0498 2.2499 23.8098 2.1099C23.5698 1.9699 23.2698 2.0499 23.1298 2.2899L20.5298 6.7899C20.3898 7.0299 20.4698 7.3299 20.7098 7.4699C20.9498 7.6099 21.2498 7.5299 21.3898 7.2899L23.9898 2.7899Z" fill="url(#paint2_linear_8995_1756)"/>
<path d="M29.5497 8.54998C29.7897 8.40998 29.8697 8.10998 29.7297 7.86998C29.5897 7.62998 29.2897 7.54998 29.0497 7.68998L24.5497 10.29C24.3097 10.43 24.2297 10.73 24.3697 10.97C24.5097 11.21 24.8097 11.29 25.0497 11.15L29.5497 8.54998Z" fill="url(#paint3_linear_8995_1756)"/>
<path d="M31.4793 16.3198C31.7593 16.3198 31.9793 16.0998 31.9793 15.8198C31.9793 15.5398 31.7593 15.3198 31.4793 15.3198H26.2793C25.9993 15.3198 25.7793 15.5398 25.7793 15.8198C25.7793 16.0998 25.9993 16.3198 26.2793 16.3198H31.4793Z" fill="url(#paint4_linear_8995_1756)"/>
<path d="M29.2694 24.0098C29.5094 24.1498 29.8094 24.0698 29.9494 23.8298C30.0894 23.5898 30.0094 23.2898 29.7694 23.1498L25.2694 20.5498C25.0294 20.4098 24.7294 20.4898 24.5894 20.7298C24.4494 20.9698 24.5294 21.2698 24.7694 21.4098L29.2694 24.0098Z" fill="url(#paint5_linear_8995_1756)"/>
<path d="M23.4999 29.5599C23.6399 29.7999 23.9399 29.8799 24.1799 29.7399C24.4199 29.5999 24.4999 29.2999 24.3599 29.0599L21.7599 24.5599C21.6199 24.3199 21.3199 24.2399 21.0799 24.3799C20.8399 24.5199 20.7599 24.8199 20.8999 25.0599L23.4999 29.5599Z" fill="url(#paint6_linear_8995_1756)"/>
<path d="M15.7295 31.49C15.7295 31.77 15.9495 31.99 16.2295 31.99C16.5095 31.99 16.7295 31.77 16.7295 31.49V26.29C16.7295 26.01 16.5095 25.79 16.2295 25.79C15.9495 25.79 15.7295 26.01 15.7295 26.29V31.49Z" fill="url(#paint7_linear_8995_1756)"/>
<path d="M8.03959 29.2797C7.89959 29.5197 7.97959 29.8196 8.21959 29.9596C8.45959 30.0996 8.75959 30.0197 8.89959 29.7797L11.4996 25.2797C11.6396 25.0397 11.5596 24.7397 11.3196 24.5997C11.0796 24.4597 10.7796 24.5397 10.6396 24.7797L8.03959 29.2797Z" fill="url(#paint8_linear_8995_1756)"/>
<path d="M2.48912 23.52C2.24912 23.66 2.16912 23.96 2.30912 24.2C2.44912 24.44 2.74912 24.52 2.98912 24.38L7.48912 21.78C7.72912 21.64 7.80912 21.34 7.66912 21.1C7.52912 20.86 7.22912 20.78 6.98912 20.92L2.48912 23.52Z" fill="url(#paint9_linear_8995_1756)"/>
<path d="M0.55957 15.75C0.27957 15.75 0.0595703 15.97 0.0595703 16.25C0.0595703 16.53 0.27957 16.75 0.55957 16.75H5.75957C6.03957 16.75 6.25957 16.53 6.25957 16.25C6.25957 15.97 6.03957 15.75 5.75957 15.75H0.55957Z" fill="url(#paint10_linear_8995_1756)"/>
<path d="M2.7694 8.05961C2.5294 7.91961 2.2294 7.99961 2.0894 8.23961C1.9494 8.47961 2.0294 8.77961 2.2694 8.91961L6.7694 11.5196C7.0094 11.6596 7.3094 11.5796 7.4494 11.3396C7.5894 11.0996 7.5094 10.7996 7.2694 10.6596L2.7694 8.05961Z" fill="url(#paint11_linear_8995_1756)"/>
<path d="M8.52947 2.49987C8.38947 2.25987 8.08947 2.17987 7.84947 2.31987C7.60947 2.45987 7.52947 2.75987 7.66947 2.99987L10.2695 7.49987C10.4095 7.73987 10.7095 7.81987 10.9495 7.67987C11.1895 7.53987 11.2695 7.23987 11.1295 6.99987L8.52947 2.49987Z" fill="url(#paint12_linear_8995_1756)"/>
</g>
<defs>
<linearGradient id="paint0_linear_8995_1756" x1="9.93115" y1="8.65967" x2="25.5955" y2="12.4148" gradientUnits="userSpaceOnUse">
<stop stop-color="#B63AB4"/>
<stop offset="1" stop-color="#513B9F"/>
</linearGradient>
<linearGradient id="paint1_linear_8995_1756" x1="15.3873" y1="0.0698239" x2="16.5079" y2="0.113152" gradientUnits="userSpaceOnUse">
<stop stop-color="#B63AB4"/>
<stop offset="1" stop-color="#513B9F"/>
</linearGradient>
<linearGradient id="paint2_linear_8995_1756" x1="20.7757" y1="2.04102" x2="24.7164" y2="2.65922" gradientUnits="userSpaceOnUse">
<stop stop-color="#B63AB4"/>
<stop offset="1" stop-color="#513B9F"/>
</linearGradient>
<linearGradient id="paint3_linear_8995_1756" x1="24.7818" y1="7.62109" x2="30.2218" y2="9.61388" gradientUnits="userSpaceOnUse">
<stop stop-color="#B63AB4"/>
<stop offset="1" stop-color="#513B9F"/>
</linearGradient>
<linearGradient id="paint4_linear_8995_1756" x1="26.3218" y1="15.3198" x2="28.49" y2="18.5425" gradientUnits="userSpaceOnUse">
<stop stop-color="#B63AB4"/>
<stop offset="1" stop-color="#513B9F"/>
</linearGradient>
<linearGradient id="paint5_linear_8995_1756" x1="25.0016" y1="20.481" x2="30.4415" y2="22.4737" gradientUnits="userSpaceOnUse">
<stop stop-color="#B63AB4"/>
<stop offset="1" stop-color="#513B9F"/>
</linearGradient>
<linearGradient id="paint6_linear_8995_1756" x1="21.1459" y1="24.311" x2="25.0865" y2="24.9292" gradientUnits="userSpaceOnUse">
<stop stop-color="#B63AB4"/>
<stop offset="1" stop-color="#513B9F"/>
</linearGradient>
<linearGradient id="paint7_linear_8995_1756" x1="15.817" y1="25.79" x2="16.9376" y2="25.8334" gradientUnits="userSpaceOnUse">
<stop stop-color="#B63AB4"/>
<stop offset="1" stop-color="#513B9F"/>
</linearGradient>
<linearGradient id="paint8_linear_8995_1756" x1="8.28551" y1="24.5308" x2="12.2262" y2="25.149" gradientUnits="userSpaceOnUse">
<stop stop-color="#B63AB4"/>
<stop offset="1" stop-color="#513B9F"/>
</linearGradient>
<linearGradient id="paint9_linear_8995_1756" x1="2.72129" y1="20.8511" x2="8.16122" y2="22.8439" gradientUnits="userSpaceOnUse">
<stop stop-color="#B63AB4"/>
<stop offset="1" stop-color="#513B9F"/>
</linearGradient>
<linearGradient id="paint10_linear_8995_1756" x1="0.60207" y1="15.75" x2="2.77029" y2="18.9726" gradientUnits="userSpaceOnUse">
<stop stop-color="#B63AB4"/>
<stop offset="1" stop-color="#513B9F"/>
</linearGradient>
<linearGradient id="paint11_linear_8995_1756" x1="2.50156" y1="7.99072" x2="7.94149" y2="9.98351" gradientUnits="userSpaceOnUse">
<stop stop-color="#B63AB4"/>
<stop offset="1" stop-color="#513B9F"/>
</linearGradient>
<linearGradient id="paint12_linear_8995_1756" x1="7.91539" y1="2.25098" x2="11.8561" y2="2.86918" gradientUnits="userSpaceOnUse">
<stop stop-color="#B63AB4"/>
<stop offset="1" stop-color="#513B9F"/>
</linearGradient>
<clipPath id="clip0_8995_1756">
<rect width="32" height="32" fill="white"/>
</clipPath>
</defs>
</svg>
