<svg width="20" height="20" viewBox="0 0 20 20" fill="none" xmlns="http://www.w3.org/2000/svg">
<g clip-path="url(#clip0_26_6954)">
<path d="M16.4545 0.2689L3.63047 8.52325C3.56849 8.56313 3.57073 8.65442 3.63455 8.69126L7.36315 10.844C7.37505 10.8508 7.38538 10.8601 7.39347 10.8712C7.40156 10.8823 7.40725 10.895 7.41015 10.9084C7.41305 10.9218 7.41312 10.9357 7.41033 10.9492C7.40755 10.9626 7.40198 10.9753 7.39398 10.9865L2.18917 18.2555C2.12561 18.3443 2.23233 18.4552 2.32346 18.395L15.4558 9.72366C15.5168 9.68335 15.5141 9.59287 15.4508 9.55627L11.8208 7.4605C11.809 7.45369 11.7987 7.44451 11.7907 7.43353C11.7826 7.42256 11.7769 7.41003 11.7739 7.39674C11.771 7.38345 11.7708 7.36969 11.7734 7.35632C11.776 7.34296 11.7814 7.33028 11.7891 7.31909L16.5888 0.407824C16.6501 0.319321 16.5452 0.210601 16.4545 0.2689Z" fill="#F89F4F"/>
<path d="M16.5887 0.407838C16.6501 0.319319 16.5452 0.210598 16.4546 0.26892L3.63047 8.52325C3.56849 8.56313 3.57073 8.65441 3.63455 8.69126L7.36315 10.844C7.37505 10.8508 7.38538 10.8601 7.39347 10.8712C7.40157 10.8823 7.40725 10.895 7.41015 10.9084C7.41306 10.9218 7.41312 10.9357 7.41033 10.9492C7.40755 10.9626 7.40198 10.9753 7.39398 10.9865L2.18918 18.2555C2.12561 18.3443 2.23233 18.4552 2.32346 18.395L5.98055 15.9802L9.7792 10.675C9.7872 10.6638 9.79277 10.6511 9.79555 10.6376C9.79834 10.6242 9.79828 10.6103 9.79537 10.5969C9.79247 10.5834 9.78679 10.5708 9.77869 10.5597C9.7706 10.5486 9.76027 10.5393 9.74838 10.5324L7.26811 9.10045C6.91184 8.89476 6.8995 8.38489 7.24545 8.16224L14.4029 3.55525L16.5887 0.407838Z" fill="#FFCC3D"/>
<path d="M17.5939 7.41752C17.5385 7.38547 17.4931 7.3387 17.4627 7.28238C17.4323 7.22607 17.4181 7.16242 17.4217 7.09852C17.4252 7.03462 17.4465 6.97296 17.483 6.92041C17.5195 6.86785 17.5699 6.82646 17.6286 6.80082L18.9775 6.21103C19.0616 6.17426 19.1569 6.1724 19.2424 6.20587C19.3279 6.23934 19.3965 6.30539 19.4333 6.3895C19.4701 6.4736 19.4719 6.56887 19.4385 6.65434C19.405 6.73981 19.3389 6.80849 19.2548 6.84526L17.9059 7.43504C17.8561 7.45681 17.802 7.46657 17.7478 7.46353C17.6936 7.46048 17.6409 7.44472 17.5939 7.41752ZM11.5983 19.5499C11.5513 19.5229 11.5113 19.4851 11.4815 19.4397C11.4518 19.3943 11.4332 19.3425 11.4272 19.2885L11.2635 17.8254C11.2533 17.7342 11.2797 17.6426 11.337 17.5709C11.3943 17.4992 11.4777 17.4532 11.5689 17.443C11.6601 17.4328 11.7517 17.4592 11.8234 17.5165C11.8951 17.5738 11.9412 17.6572 11.9514 17.7484L12.1151 19.2116C12.1222 19.2752 12.1115 19.3395 12.0843 19.3974C12.057 19.4553 12.0143 19.5046 11.9607 19.5396C11.9072 19.5747 11.845 19.5942 11.781 19.596C11.717 19.5978 11.6538 19.5819 11.5983 19.5499ZM17.9448 14.7328L16.8913 14.1245C16.7257 14.029 16.6691 13.8173 16.7646 13.6518C16.8602 13.4862 17.0718 13.4295 17.2374 13.5251L18.2909 14.1333C18.4565 14.2289 18.5131 14.4406 18.4176 14.6061C18.322 14.7716 18.1104 14.8284 17.9448 14.7328ZM8.32883 2.06832C8.28178 2.04125 8.24178 2.00347 8.21204 1.95806C8.18231 1.91265 8.16369 1.86088 8.15769 1.80694L7.99396 0.34379C7.98891 0.298622 7.9928 0.2529 8.00542 0.209236C8.01804 0.165572 8.03913 0.12482 8.06749 0.0893073C8.12478 0.0175867 8.20821 -0.0284393 8.29943 -0.0386457C8.39065 -0.0488521 8.4822 -0.0224025 8.55392 0.0348841C8.62564 0.0921706 8.67166 0.175602 8.68187 0.266823L8.84559 1.72997C8.85271 1.79357 8.84205 1.85791 8.8148 1.91582C8.78755 1.97373 8.74477 2.02295 8.69123 2.05801C8.63768 2.09306 8.57546 2.11259 8.51149 2.11441C8.44751 2.11623 8.38428 2.10027 8.32883 2.06832ZM0.819613 13.3268C0.764211 13.2948 0.71878 13.248 0.688369 13.1917C0.657958 13.1354 0.643757 13.0717 0.647346 13.0078C0.650936 12.9439 0.672174 12.8823 0.7087 12.8297C0.745226 12.7772 0.795611 12.7358 0.854252 12.7101L2.20323 12.1203C2.24488 12.1021 2.2897 12.0923 2.33514 12.0914C2.38058 12.0905 2.42575 12.0986 2.46808 12.1152C2.5104 12.1318 2.54904 12.1565 2.5818 12.188C2.61456 12.2195 2.64079 12.2572 2.659 12.2988C2.6772 12.3405 2.68703 12.3853 2.68792 12.4307C2.6888 12.4762 2.68073 12.5213 2.66415 12.5637C2.64758 12.606 2.62284 12.6446 2.59133 12.6774C2.55982 12.7101 2.52217 12.7364 2.48053 12.7546L1.13155 13.3444C1.08183 13.3661 1.02768 13.3759 0.973488 13.3729C0.919294 13.3698 0.86658 13.354 0.819613 13.3268ZM2.87164 6.03028L1.81815 5.42205C1.73866 5.37616 1.68066 5.30056 1.6569 5.2119C1.63314 5.12324 1.64558 5.02877 1.69147 4.94928C1.73737 4.86978 1.81296 4.81178 1.90163 4.78802C1.99029 4.76426 2.08476 4.7767 2.16425 4.8226L3.21773 5.43082C3.29722 5.47672 3.35523 5.55231 3.37899 5.64097C3.40274 5.72964 3.39031 5.82411 3.34441 5.9036C3.29852 5.98309 3.22292 6.0411 3.13426 6.06485C3.0456 6.08861 2.95113 6.07617 2.87164 6.03028Z" fill="#FFCC3D"/>
</g>
<defs>
<clipPath id="clip0_26_6954">
<rect width="20" height="20" fill="white"/>
</clipPath>
</defs>
</svg>
