<svg width="20" height="20" viewBox="0 0 20 20" fill="none" xmlns="http://www.w3.org/2000/svg">
<path d="M9.71738 20C9.66726 20 9.61723 19.9996 9.5673 19.9987C3.40469 19.8949 -0.117619 12.9205 3.39066 7.86352L8.34996 0.714961C8.50323 0.494244 8.70767 0.313925 8.9458 0.189418C9.18393 0.0649106 9.44867 -8.05041e-05 9.71738 8.1672e-08C9.98609 -8.40977e-05 10.2508 0.0649058 10.489 0.189413C10.7271 0.313921 10.9315 0.494242 11.0848 0.714961L16.0441 7.86348C19.5524 12.9205 16.03 19.8949 9.8675 19.9987C9.81754 19.9996 9.7675 20 9.71738 20Z" fill="#C62F3A"/>
<path d="M11.0871 19.8847C10.6841 19.954 10.2764 19.9921 9.86754 19.9987C9.75794 20.0005 9.64831 20.0004 9.53871 19.9982C3.38934 19.8742 -0.110195 12.9099 3.39074 7.86348L8.35008 0.714961C8.50335 0.494244 8.70779 0.313925 8.94592 0.189418C9.18405 0.0649106 9.44879 -8.05109e-05 9.7175 7.48503e-08L9.73387 7.81999e-05C10.5139 0.00773445 10.9623 0.891836 10.5186 1.53199L6.12996 7.86348C2.86031 12.5765 5.69742 18.9546 11.0871 19.8847Z" fill="#A32932"/>
<path d="M14.51 15.6522C14.51 16.3726 13.9248 16.9565 13.2029 16.9565C12.481 16.9565 11.8958 16.3726 11.8958 15.6522C11.8958 14.9318 12.481 14.3478 13.2029 14.3478C13.9248 14.3478 14.51 14.9318 14.51 15.6522ZM14.9457 11.7391C14.4644 11.7391 14.0743 12.1284 14.0743 12.6087C14.0743 13.089 14.4644 13.4783 14.9457 13.4783C15.4269 13.4783 15.8171 13.089 15.8171 12.6087C15.8171 12.1284 15.4269 11.7391 14.9457 11.7391Z" fill="#DD3744"/>
</svg>
