<svg width="32" height="32" viewBox="0 0 32 32" fill="none" xmlns="http://www.w3.org/2000/svg">
<g clip-path="url(#clip0_47_5682)">
<path d="M29.8026 31.1951C28.8732 30.9449 28.0867 30.4087 27.5148 29.6223C26.0492 27.7635 23.5827 27.0485 21.3664 27.8349C19.5433 28.5141 17.5057 27.9064 16.3261 26.3693C15.8614 25.7616 15.2537 25.2612 14.5745 24.9037C15.4682 24.4748 16.2189 23.7956 16.7908 22.9734L20.8659 17.0037C24.1904 12.1064 22.9035 5.42182 18.0062 2.09738C13.1089 -1.22705 6.42429 0.0598245 3.09986 4.95711C0.63334 8.60327 0.63334 13.3576 3.09986 17.0037C6.71027 21.901 7.17497 24.153 9.99895 25.1897L7.3537 29.7295H16.5406L14.4315 26.0834C14.8247 26.3693 15.1822 26.6911 15.5039 27.0843C16.9695 28.9431 19.4361 29.658 21.6524 28.8716C23.4754 28.1924 25.513 28.8001 26.6926 30.3372C27.3718 31.2666 28.3727 31.9101 29.4809 32.2318C29.7668 32.3033 30.0528 32.1603 30.16 31.8743C30.2673 31.5883 30.0886 31.3024 29.8026 31.1951C29.8026 31.2309 29.8026 31.2309 29.8026 31.1951ZM3.99352 16.396C0.990807 11.9992 2.17044 5.99376 6.56728 2.99105C10.9641 -0.011668 16.9695 1.16797 19.9723 5.5648C22.1886 8.81775 22.1886 13.1073 19.9723 16.396L15.8971 22.4015C14.4315 24.582 11.4646 25.1182 9.31977 23.6526C8.06864 22.7947 8.06864 22.187 3.99352 16.396ZM9.24827 28.6571L11.1071 25.4399C11.7148 25.5472 12.2867 25.5472 12.8944 25.4399L14.7533 28.6571H9.24827Z" fill="url(#paint0_linear_47_5682)"/>
<path fill-rule="evenodd" clip-rule="evenodd" d="M2.89302 4.81673C6.29481 -0.194509 13.1348 -1.5116 18.1466 1.89057C23.1579 5.29236 24.4749 12.1324 21.0728 17.1442L16.9973 23.1144L16.996 23.1162C16.4905 23.8429 15.8477 24.4658 15.0888 24.9126C15.6379 25.2599 16.1298 25.7011 16.5247 26.2175C17.6388 27.669 19.5611 28.2408 21.2791 27.6007L21.2828 27.5993C23.6007 26.7769 26.1796 27.5251 27.7111 29.4675L27.7171 29.4752C28.1893 30.1244 28.8152 30.5915 29.5526 30.8553V30.8344L29.8904 30.9611C30.2687 31.103 30.5626 31.5128 30.3941 31.9621C30.2415 32.3693 29.8272 32.5761 29.4202 32.4743L29.4111 32.4721C28.2582 32.1373 27.2085 31.4657 26.4926 30.4872C25.3782 29.0372 23.4569 28.4661 21.7396 29.1059L21.736 29.1073C19.5434 29.8853 17.1172 29.2578 15.5649 27.5435L16.974 29.9796H6.91869L9.63601 25.316C8.32421 24.7688 7.51585 23.93 6.64004 22.6886C6.29472 22.1991 5.935 21.6413 5.52947 21.0124C5.39022 20.7965 5.24557 20.5721 5.09425 20.3393C4.50024 19.4255 3.7972 18.371 2.89863 17.1521L2.89262 17.1439C0.368863 13.4132 0.36926 8.5475 2.89302 4.81673ZM29.7247 31.4331C28.7477 31.167 27.9185 30.6006 27.3156 29.7735C25.916 28.0015 23.5645 27.3211 21.4518 28.07C19.5243 28.7871 17.3726 28.1436 16.1278 26.5216C15.6864 25.9444 15.1072 25.4666 14.4581 25.125L14.0182 24.8935L14.4663 24.6784C15.3159 24.2706 16.0345 23.6226 16.585 22.8315C16.5852 22.8313 16.5854 22.831 16.5856 22.8307L20.6591 16.8633C23.9058 12.0806 22.6491 5.55134 17.8658 2.30426C13.0831 -0.942386 6.55399 0.314187 3.30685 5.09733C0.89859 8.65747 0.897677 13.2986 3.30412 16.8595C4.2093 18.0876 4.91734 19.1497 5.51347 20.0668C5.66792 20.3044 5.81445 20.5317 5.9547 20.7492C6.35821 21.3749 6.70978 21.9201 7.0486 22.4004C7.95375 23.6834 8.73932 24.461 10.0851 24.955L10.3651 25.0578L7.78872 29.4796H16.1072L14.2151 26.2086L14.5786 25.8812C14.9861 26.1776 15.36 26.5136 15.6974 26.926L15.7003 26.9295C17.0996 28.7042 19.4528 29.386 21.567 28.6367C23.4945 27.9195 25.6462 28.5631 26.891 30.185L26.8945 30.1897C27.5359 31.0673 28.4852 31.6814 29.5455 31.9903C29.709 32.0292 29.8647 31.95 29.926 31.7866C29.9712 31.666 29.9106 31.5074 29.7247 31.4331ZM19.7657 5.7056C16.8395 1.4211 10.9892 0.274005 6.70827 3.19753C2.42406 6.12334 1.27665 11.9728 4.19901 16.2537C5.71281 18.4049 6.66688 19.8446 7.32875 20.8434C7.55808 21.1895 7.75233 21.4826 7.92263 21.734C8.58227 22.708 8.87406 23.0438 9.46082 23.4462C11.4928 24.8348 14.3027 24.3255 15.6897 22.262L15.6903 22.2611L19.7649 16.2564C19.765 16.2563 19.7649 16.2564 19.7649 16.2564C21.9245 13.0517 21.9237 8.8731 19.7657 5.7056ZM6.42629 2.78463C10.939 -0.297222 17.0994 0.914863 20.1787 5.42385C22.4532 8.76217 22.4525 13.1631 20.1796 16.5358L16.1046 22.541C16.1045 22.5411 16.1048 22.5408 16.1046 22.541C14.5602 24.8381 11.4361 25.4016 9.17872 23.859C8.51457 23.4036 8.18045 23.0063 7.50865 22.0144C7.33553 21.7588 7.13942 21.4629 6.90859 21.1145C6.24651 20.1155 5.29882 18.6854 3.78907 16.5399L3.78705 16.5371C0.705201 12.0244 1.91731 5.86394 6.42629 2.78463ZM10.9782 25.1633L11.1505 25.1938C11.7295 25.2959 12.272 25.2959 12.851 25.1938L13.0233 25.1633L15.1864 28.9072H8.8151L10.9782 25.1633ZM11.2374 25.7141L9.68145 28.4072H14.3201L12.7641 25.7141C12.2488 25.7891 11.7527 25.7891 11.2374 25.7141Z" fill="url(#paint1_linear_47_5682)"/>
<path d="M15.0027 4.34969C14.7524 4.63566 14.8597 5.02888 15.1814 5.20761C16.79 5.95829 18.0054 7.4239 18.4343 9.28272C18.5773 9.99766 18.6131 10.7483 18.5058 11.4275C18.4701 11.6777 18.6488 11.9637 18.899 12.0352C19.2208 12.1067 19.5425 11.928 19.5782 11.6063C19.6855 10.7841 19.6855 9.92616 19.5067 9.06825C19.042 6.8877 17.5764 5.13612 15.6818 4.24245C15.4316 4.13521 15.1814 4.17096 15.0027 4.34969Z" fill="url(#paint2_linear_47_5682)"/>
<path fill-rule="evenodd" clip-rule="evenodd" d="M14.8259 4.17298C15.0873 3.91156 15.4504 3.87135 15.7803 4.01273L15.7886 4.01626L15.7885 4.01641C17.7512 4.94219 19.2697 6.75665 19.7512 9.0162L19.7515 9.01732C19.9369 9.90716 19.9362 10.7931 19.8264 11.6365C19.7688 12.1402 19.2732 12.3745 18.8448 12.2793L18.8375 12.2777L18.8304 12.2757C18.6365 12.2203 18.4828 12.0866 18.3846 11.9332C18.2867 11.7801 18.2306 11.5865 18.2583 11.3922L18.2589 11.3886C18.3605 10.745 18.3276 10.026 18.1899 9.33543C17.7774 7.55262 16.6129 6.1516 15.0757 5.43422L15.0677 5.43049L15.06 5.42621C14.6238 5.1839 14.4416 4.61135 14.8145 4.18513L14.82 4.17887L14.8259 4.17298ZM15.1854 4.52067C15.0656 4.66456 15.0977 4.87095 15.296 4.98529C16.9705 5.77003 18.2326 7.29685 18.6779 9.22657L18.6796 9.23374L18.6795 9.23376C18.827 9.97115 18.8654 10.7513 18.7531 11.4644C18.753 11.4651 18.7529 11.4658 18.7528 11.4666L18.5058 11.4276L18.7533 11.4629C18.7532 11.4634 18.7532 11.4639 18.7531 11.4644C18.7456 11.5201 18.7611 11.5939 18.8058 11.6637C18.8489 11.7311 18.9068 11.7753 18.9613 11.7929C18.9586 11.7924 18.956 11.7918 18.9533 11.7912L18.899 12.0353L18.9677 11.7949C18.9656 11.7943 18.9634 11.7936 18.9613 11.7929C19.1712 11.8358 19.3146 11.7149 19.3298 11.5787L19.3303 11.574L19.3303 11.574C19.4347 10.7738 19.4339 9.94489 19.2621 9.11984C19.2621 9.12003 19.2622 9.12022 19.2622 9.12042L19.5067 9.06832L19.262 9.1193C19.262 9.11948 19.2621 9.11966 19.2621 9.11984C18.8144 7.02024 17.4037 5.33278 15.5795 4.47068C15.5808 4.47122 15.5821 4.47176 15.5834 4.4723L15.6818 4.24252L15.5752 4.46862C15.5766 4.46931 15.5781 4.47 15.5795 4.47068C15.4143 4.40115 15.2804 4.42994 15.1854 4.52067Z" fill="url(#paint3_linear_47_5682)"/>
</g>
<defs>
<linearGradient id="paint0_linear_47_5682" x1="3.78235" y1="0.249999" x2="34.804" y2="6.97592" gradientUnits="userSpaceOnUse">
<stop stop-color="#B63AB4"/>
<stop offset="1" stop-color="#513B9F"/>
</linearGradient>
<linearGradient id="paint1_linear_47_5682" x1="3.57624" y1="-1.48798e-06" x2="35.1304" y2="6.85278" gradientUnits="userSpaceOnUse">
<stop stop-color="#B63AB4"/>
<stop offset="1" stop-color="#513B9F"/>
</linearGradient>
<linearGradient id="paint2_linear_47_5682" x1="15.2833" y1="4.18213" x2="20.5437" y2="4.9493" gradientUnits="userSpaceOnUse">
<stop stop-color="#B63AB4"/>
<stop offset="1" stop-color="#513B9F"/>
</linearGradient>
<linearGradient id="paint3_linear_47_5682" x1="15.076" y1="3.93237" x2="20.8775" y2="4.81129" gradientUnits="userSpaceOnUse">
<stop stop-color="#B63AB4"/>
<stop offset="1" stop-color="#513B9F"/>
</linearGradient>
<clipPath id="clip0_47_5682">
<rect width="32" height="32" fill="white"/>
</clipPath>
</defs>
</svg>
