<svg width="20" height="20" viewBox="0 0 20 20" fill="none" xmlns="http://www.w3.org/2000/svg">
<path d="M13.1535 17.0223C13.1535 18.3913 12.2299 19.544 10.9723 19.8922C10.7131 19.9639 10.4453 20.0001 10.1764 19.9999C8.53193 19.9999 7.19876 18.6669 7.19876 17.0223L10.1811 15.4897L13.1535 17.0223Z" fill="#E58E13"/>
<path d="M13.0093 17.9408C12.7028 18.8868 11.9354 19.6257 10.9721 19.8922C10.3665 19.7247 9.83843 19.3707 9.45359 18.896C9.14339 18.5132 9.42324 17.9408 9.91593 17.9408H13.0093ZM17.8636 14.0452L11.4667 15.4286L2.48839 14.0452C3.19292 14.0452 3.59132 13.6767 3.81745 13.0656C4.91136 10.1155 1.99784 1.51746 10.1762 1.51746C18.3546 1.51746 15.4407 10.1155 16.5346 13.0656C16.7612 13.6767 17.1595 14.0452 17.8636 14.0452H17.8636Z" fill="#FFCC3D"/>
<path d="M19.3522 15.534C19.3522 16.356 18.6857 17.0224 17.8637 17.0224H2.48848C2.07754 17.0224 1.70527 16.856 1.43594 16.5865C1.16648 16.3172 1 15.9449 1 15.534C1 14.7118 1.66648 14.0453 2.48848 14.0453H17.8637C18.2747 14.0453 18.6469 14.2119 18.9163 14.4812C19.1857 14.7508 19.3522 15.1229 19.3522 15.534Z" fill="#E58E13"/>
<path d="M16.5347 13.0656H8.54351C7.68202 13.0656 6.99308 12.3526 7.01975 11.4914C7.13237 7.84818 6.55132 1.58673 10.1166 1.51794C0.330025 1.56857 6.58597 14.0453 2.48882 14.0453H17.8637C17.1596 14.0453 16.7613 13.6767 16.5347 13.0656Z" fill="#E58E13"/>
<path d="M19.3522 15.534C19.3522 16.356 18.6857 17.0224 17.8637 17.0224H6.79025C6.37915 17.0224 6.00685 16.856 5.73751 16.5865C5.46822 16.3172 5.30157 15.9449 5.30157 15.534C5.30157 14.7118 5.9681 14.0453 6.79025 14.0453H17.8637C18.2746 14.0453 18.6469 14.2119 18.9162 14.4812C19.1857 14.7508 19.3522 15.1229 19.3522 15.534H19.3522Z" fill="#FFCC3D"/>
<path d="M11.6894 1.63148C11.6926 1.59395 11.6938 1.55594 11.6938 1.5175C11.6938 0.67961 11.0144 0 10.1763 0C9.33806 0 8.65884 0.67961 8.65884 1.5175C8.65884 1.55594 8.66009 1.59395 8.6633 1.63148" fill="#E58E13"/>
</svg>
