<svg width="20" height="20" viewBox="0 0 20 20" fill="none" xmlns="http://www.w3.org/2000/svg">
<g clip-path="url(#clip0_26_6986)">
<path d="M0.00697327 9.95174C0.00697327 15.3704 4.41389 19.5792 9.5894 19.6251C12.8871 19.6543 16.5161 17.7281 17.5764 15.1872C17.4106 14.9687 17.1047 14.8566 16.8064 15.0174C15.6108 15.662 14.2355 16.0162 12.7749 15.9854C8.30561 15.8912 4.76467 12.2286 4.81393 7.75857C4.83787 5.58798 5.71182 3.62166 7.11846 2.17626C7.56467 1.71779 7.08541 0.974311 6.48151 1.18548C2.81799 2.46654 0.16002 5.88849 0.00697327 9.95174Z" fill="#FFB300"/>
<path d="M9.24273 2.95508C9.24273 3.3507 9.4564 3.44469 9.74004 3.56L10.9441 3.93426L9.24101 6.28707L9.2423 6.28531C9.2423 6.71645 9.54136 6.89047 9.74023 6.89047H12.1511C12.3556 6.89047 12.6484 6.70434 12.6484 6.28555C12.5363 6.13219 12.3556 6.03215 12.1511 6.03215H10.9471L12.6503 3.67934C12.7168 3.58735 12.7567 3.47875 12.7655 3.36553C12.7742 3.25232 12.7515 3.13888 12.6999 3.03775C12.6483 2.93661 12.5697 2.85171 12.4728 2.79242C12.376 2.73312 12.2646 2.70173 12.1511 2.70172H9.74004C9.53554 2.70172 9.35484 2.80172 9.24273 2.95508ZM13.2295 9.16512C13.1764 9.48594 13.4077 9.6852 13.7268 9.77004L14.9323 10.1443L14.9304 10.145L13.2278 12.4972L13.2291 12.4954C13.2291 12.9274 13.5281 13.1005 13.727 13.1005H16.1379C16.3423 13.1005 16.6352 12.9851 16.6352 12.4956C16.523 12.3422 16.3423 12.2422 16.1379 12.2422H14.9339L16.6371 9.88938C16.7037 9.79739 16.7436 9.68878 16.7523 9.57555C16.7611 9.46232 16.7384 9.34887 16.6868 9.24772C16.6351 9.14657 16.5565 9.06166 16.4597 9.00237C16.3628 8.94308 16.2514 8.91171 16.1379 8.91172H13.7268C13.5223 8.91172 13.3416 9.01176 13.2295 9.16512ZM16.3641 0.85832L18.1766 1.23258L15.8652 4.42578L15.8664 4.42402C15.8664 4.79613 16.1655 5.02918 16.3644 5.02918H19.3836C19.588 5.02918 19.8809 4.79609 19.8809 4.42426C19.7688 4.2709 19.588 4.1709 19.3836 4.1709H17.5713L19.8827 0.977695C19.9493 0.885702 19.9892 0.777094 19.998 0.663862C20.0068 0.55063 19.9841 0.437177 19.9324 0.336028C19.8808 0.23488 19.8022 0.14997 19.7053 0.0906724C19.6084 0.0313749 19.4971 -3.9919e-06 19.3835 3.80901e-10H16.3641C16.1596 3.80901e-10 15.9789 0.100039 15.8668 0.253398C15.8668 0.670234 16.0935 0.805899 16.3641 0.85832Z" fill="#B28CEA"/>
<path d="M9.58962 19.2735C4.41411 19.2277 0.194341 15.0826 0.007232 9.95178C0.00262576 10.0718 0.0002165 10.1919 5.43963e-06 10.3121C-0.0055805 15.6102 4.29169 19.9524 9.58962 19.9994C12.8943 20.0286 15.8203 18.4012 17.5879 15.8974C17.7598 15.6539 17.7224 15.3795 17.5766 15.1873C15.8079 17.6821 12.8874 19.3028 9.58962 19.2735Z" fill="#FDC854"/>
<path d="M16.1376 12.7481H13.7268C13.6296 12.7481 13.5339 12.7251 13.4474 12.681C13.3609 12.637 13.286 12.5731 13.2288 12.4945L13.2275 12.4963C13.1609 12.5883 13.121 12.6969 13.1123 12.8101C13.1035 12.9234 13.1262 13.0368 13.1778 13.138C13.2295 13.2391 13.3081 13.324 13.405 13.3833C13.5018 13.4426 13.6132 13.474 13.7268 13.474H16.1376C16.478 13.474 16.7539 13.198 16.7539 12.8577C16.7539 12.7218 16.7094 12.5967 16.635 12.4948C16.5228 12.6481 16.3421 12.7481 16.1376 12.7481ZM13.7414 10.1435H14.9321L15.226 9.73751C15.3225 9.60419 15.2272 9.41767 15.0627 9.41767H13.7266C13.5221 9.41767 13.3414 9.31763 13.2293 9.16431C13.141 9.28446 13.0995 9.43266 13.1127 9.58118C13.1403 9.90212 13.4193 10.1435 13.7414 10.1435Z" fill="#4B399C"/>
<path d="M9.755 3.93401H10.9443L11.2381 3.52804C11.3346 3.39472 11.2394 3.20819 11.0748 3.20819H9.74015C9.53566 3.20819 9.35496 3.10815 9.24285 2.95483C9.15455 3.07498 9.11308 3.22319 9.12621 3.37171C9.15386 3.69269 9.43285 3.93401 9.755 3.93401ZM12.1512 6.53866H9.74031C9.6432 6.53862 9.54748 6.51563 9.46094 6.47155C9.37441 6.42748 9.29952 6.36359 9.24238 6.28507L9.24109 6.28683C9.17452 6.37882 9.13465 6.48742 9.1259 6.60064C9.11714 6.71385 9.13984 6.82729 9.19148 6.92843C9.24311 7.02956 9.32169 7.11446 9.41853 7.17377C9.51537 7.23307 9.62671 7.26446 9.74027 7.26448H12.1511C12.4915 7.26448 12.7674 6.98855 12.7674 6.64819C12.7674 6.51764 12.7258 6.3905 12.6484 6.2853C12.5364 6.43862 12.3557 6.53866 12.1512 6.53866Z" fill="#4B399C"/>
<path d="M16.3796 1.23199H18.1772L18.4711 0.826011C18.5675 0.692691 18.4723 0.506167 18.3077 0.506167H16.3647C16.1602 0.506167 15.9795 0.406128 15.8674 0.252808C15.7791 0.372957 15.7376 0.521164 15.7507 0.669683C15.7784 0.99062 16.0574 1.23199 16.3796 1.23199ZM19.3841 4.67699H16.365C16.2679 4.67695 16.1721 4.65395 16.0856 4.60988C15.9991 4.56581 15.9242 4.50191 15.867 4.4234L15.8657 4.42515C15.7991 4.51714 15.7592 4.62574 15.7504 4.73898C15.7417 4.85221 15.7644 4.96567 15.816 5.06682C15.8677 5.16797 15.9463 5.25288 16.0431 5.31217C16.14 5.37145 16.2514 5.40281 16.365 5.40277H19.3841C19.7245 5.40277 20.0004 5.12683 20.0004 4.78648C20.0005 4.65593 19.9588 4.52878 19.8814 4.42359C19.7693 4.57699 19.5886 4.67699 19.3841 4.67699Z" fill="#4B399C"/>
</g>
<defs>
<clipPath id="clip0_26_6986">
<rect width="20" height="20" fill="white"/>
</clipPath>
</defs>
</svg>
