<svg width="20" height="20" viewBox="0 0 20 20" fill="none" xmlns="http://www.w3.org/2000/svg">
<path fill-rule="evenodd" clip-rule="evenodd" d="M9.99996 3.31899C12.3533 0.330134 16.26 0.52108 18.2949 2.25098C20.4639 4.09478 20.6158 7.78007 18.4498 11.4674C17.023 14.0556 13.3919 16.6683 10.3471 18.3939C10.2412 18.4539 10.1216 18.4855 9.99996 18.4855C9.87829 18.4855 9.75869 18.4539 9.65284 18.3939C6.60805 16.6683 2.97697 14.0556 1.55015 11.4674C-0.615814 7.78007 -0.463823 4.09482 1.70504 2.25098C3.73994 0.521119 7.64668 0.330134 9.99996 3.31899Z" fill="#F26083"/>
<path fill-rule="evenodd" clip-rule="evenodd" d="M1.31172 2.62976C0.372046 4.62567 0.667227 7.45924 2.3324 10.294C3.75922 12.8823 7.3903 15.495 10.4351 17.2206C10.5409 17.2806 10.6605 17.3121 10.7822 17.3121C10.9039 17.3121 11.0235 17.2806 11.1293 17.2206C13.7283 15.7476 16.7546 13.6282 18.4716 11.429L18.4498 11.4674C17.023 14.0556 13.3919 16.6684 10.3471 18.394C10.2412 18.454 10.1216 18.4855 9.99996 18.4855C9.87828 18.4855 9.75869 18.454 9.65283 18.394C6.60805 16.6684 2.97697 14.0556 1.55015 11.4674C-0.476302 8.01757 -0.473799 4.56954 1.31172 2.62976Z" fill="#DC5A79"/>
</svg>
