<svg width="30" height="30" viewBox="0 0 30 30" fill="none" xmlns="http://www.w3.org/2000/svg">
<path fill-rule="evenodd" clip-rule="evenodd" d="M8.73802 4C4.96914 4 2.32288 6.13593 1.64283 6.74091C1.20067 7.13426 1 7.67436 1 8.18463V24.3266C1 25.2432 1.59535 25.8699 2.17349 26.1422C2.74637 26.4121 3.5555 26.4626 4.24619 25.9776C5.16282 25.3341 6.75607 24.4856 8.73802 24.4856C11.1497 24.4856 12.9802 25.7433 13.6958 26.3306C13.7489 26.3743 13.8039 26.4149 13.8603 26.4524C14.1304 26.7802 14.5406 26.9904 15 26.9904C15.4594 26.9904 15.8696 26.7802 16.1397 26.4524C16.1961 26.4149 16.2511 26.3743 16.3042 26.3306C17.0198 25.7433 18.8503 24.4856 21.262 24.4856C23.2439 24.4856 24.8372 25.3341 25.7538 25.9776C26.4445 26.4626 27.2536 26.4121 27.8265 26.1422C28.4046 25.8699 29 25.2432 29 24.3266V8.18463C29 7.67436 28.7993 7.13426 28.3572 6.74091C27.6771 6.13593 25.0309 4 21.262 4C18.3992 4 16.1871 5.23292 15 6.08039C13.8129 5.23292 11.6008 4 8.73802 4ZM3.95208 22.7177V8.66041C4.75177 8.04343 6.49176 6.95208 8.73802 6.95208C10.9759 6.95208 12.7134 8.03509 13.524 8.66044V22.7176C12.3026 22.0944 10.6685 21.5335 8.73802 21.5335C6.80469 21.5335 5.16974 22.0964 3.95208 22.7177ZM16.476 22.7176V8.66044C17.2866 8.03509 19.0241 6.95208 21.262 6.95208C23.5082 6.95208 25.2482 8.04343 26.0479 8.66041V22.7177C24.8303 22.0964 23.1953 21.5335 21.262 21.5335C19.3315 21.5335 17.6974 22.0944 16.476 22.7176Z" fill="url(#paint0_linear_68_12791)"/>
<defs>
<linearGradient id="paint0_linear_68_12791" x1="3.45" y1="4" x2="32.4051" y2="12.4538" gradientUnits="userSpaceOnUse">
<stop stop-color="#B63AB4"/>
<stop offset="1" stop-color="#513B9F"/>
</linearGradient>
</defs>
</svg>
