<svg width="87" height="64" viewBox="0 0 87 64" fill="none" xmlns="http://www.w3.org/2000/svg">
<mask id="mask0_590_19726" style="mask-type:alpha" maskUnits="userSpaceOnUse" x="28" y="17" width="31" height="30">
<rect x="28.625" y="17" width="30" height="30" fill="#D9D9D9"/>
</mask>
<g mask="url(#mask0_590_19726)">
<path fill-rule="evenodd" clip-rule="evenodd" d="M37.0622 21C33.2934 21 30.6471 23.1359 29.967 23.7409C29.5249 24.1343 29.3242 24.6744 29.3242 25.1846V41.3266C29.3242 42.2432 29.9196 42.8699 30.4977 43.1422C31.0706 43.4121 31.8797 43.4626 32.5704 42.9776C33.487 42.3341 35.0803 41.4856 37.0622 41.4856C39.4739 41.4856 41.3044 42.7433 42.02 43.3306C42.0732 43.3743 42.1281 43.4149 42.1845 43.4524C42.4546 43.7802 42.8649 43.9904 43.3242 43.9904C43.7836 43.9904 44.1938 43.7802 44.4639 43.4524C44.5203 43.4149 44.5753 43.3743 44.6284 43.3306C45.344 42.7433 47.1745 41.4856 49.5862 41.4856C51.5682 41.4856 53.1614 42.3341 54.078 42.9776C54.7687 43.4626 55.5778 43.4121 56.1507 43.1422C56.7289 42.8699 57.3242 42.2432 57.3242 41.3266V25.1846C57.3242 24.6744 57.1236 24.1343 56.6814 23.7409C56.0013 23.1359 53.3551 21 49.5862 21C46.7234 21 44.5113 22.2329 43.3242 23.0804C42.1371 22.2329 39.925 21 37.0622 21ZM32.2763 39.7177V25.6604C33.076 25.0434 34.816 23.9521 37.0622 23.9521C39.3002 23.9521 41.0377 25.0351 41.8482 25.6604V39.7176C40.6268 39.0944 38.9927 38.5335 37.0622 38.5335C35.1289 38.5335 33.494 39.0964 32.2763 39.7177ZM44.8003 39.7176V25.6604C45.6108 25.0351 47.3483 23.9521 49.5862 23.9521C51.8325 23.9521 53.5724 25.0434 54.3721 25.6604V39.7177C53.1545 39.0964 51.5195 38.5335 49.5862 38.5335C47.6557 38.5335 46.0216 39.0944 44.8003 39.7176Z" fill="url(#paint0_linear_590_19726)"/>
</g>
<path d="M26.2856 60.096C24.4736 60.096 23.2736 58.968 23.2736 57.276V54.312C23.2736 52.62 24.4736 51.504 26.2856 51.504C28.0856 51.504 29.2856 52.584 29.2856 54.204C29.2856 54.288 29.2256 54.336 29.1056 54.348L28.0856 54.408C27.9656 54.42 27.8936 54.384 27.8936 54.348V54.276C27.8936 53.328 27.2576 52.704 26.2856 52.704C25.3136 52.704 24.6656 53.328 24.6656 54.276V57.336C24.6656 58.272 25.3136 58.896 26.2856 58.896C27.2576 58.896 27.8936 58.272 27.8936 57.336C27.8936 57.252 27.9656 57.192 28.0856 57.204L29.0936 57.252C29.2136 57.264 29.2856 57.276 29.2856 57.312V57.372C29.2856 59.016 28.0856 60.096 26.2856 60.096ZM33.2506 60.096C31.9906 60.096 31.0186 59.412 30.6706 58.284C30.5386 57.9 30.4666 57.396 30.4666 56.916C30.4666 56.424 30.5386 55.92 30.6586 55.548C31.0186 54.432 31.9786 53.772 33.2626 53.772C34.4866 53.772 35.4106 54.432 35.7826 55.536C35.9266 55.92 35.9986 56.424 35.9986 56.904C35.9986 57.372 35.9266 57.876 35.7946 58.272C35.4346 59.412 34.4866 60.096 33.2506 60.096ZM33.2506 58.896C33.8386 58.896 34.2826 58.536 34.4626 57.936C34.5586 57.66 34.5946 57.288 34.5946 56.928C34.5946 56.532 34.5466 56.172 34.4746 55.92C34.2946 55.32 33.8386 54.972 33.2266 54.972C32.6146 54.972 32.1706 55.32 31.9906 55.92C31.9186 56.172 31.8706 56.532 31.8706 56.928C31.8706 57.3 31.9186 57.684 31.9906 57.936C32.1706 58.536 32.6266 58.896 33.2506 58.896ZM40.2543 53.772C41.5503 53.772 42.4023 54.588 42.4023 55.92V59.808C42.4023 59.928 42.3303 60 42.2103 60H41.2023C41.0823 60 41.0103 59.928 41.0103 59.808V56.208C41.0103 55.476 40.5543 54.972 39.8583 54.972C39.1743 54.972 38.7063 55.464 38.7063 56.196V59.808C38.7063 59.928 38.6343 60 38.5143 60H37.5063C37.3863 60 37.3143 59.928 37.3143 59.808V54.06C37.3143 53.94 37.3863 53.868 37.5063 53.868H38.5143C38.6343 53.868 38.7063 53.94 38.7063 54.06V54.384C38.7063 54.444 38.7423 54.468 38.7783 54.42C39.1263 53.976 39.6183 53.772 40.2543 53.772ZM46.1337 60.072C44.5977 60.072 43.6137 59.34 43.6137 58.368V58.308C43.6137 58.188 43.6857 58.116 43.8057 58.116H44.7657C44.8857 58.116 44.9577 58.152 44.9577 58.2V58.284C44.9577 58.68 45.4257 59.028 46.1217 59.028C46.7697 59.028 47.2017 58.728 47.2017 58.332C47.2017 57.828 46.4937 57.744 45.7017 57.48C44.7417 57.192 43.6737 56.808 43.6737 55.632C43.6737 54.492 44.6457 53.796 46.0617 53.796C47.5377 53.796 48.5097 54.552 48.5097 55.62C48.5097 55.704 48.4377 55.764 48.3177 55.764H47.3937C47.2737 55.764 47.2017 55.74 47.2017 55.692V55.62C47.2017 55.224 46.7817 54.888 46.0617 54.888C45.4497 54.888 45.0057 55.116 45.0057 55.548C45.0057 56.04 45.6777 56.16 46.4817 56.388C47.4777 56.676 48.5937 57.048 48.5937 58.248C48.5937 59.4 47.6097 60.072 46.1337 60.072ZM50.5633 53.1C50.0353 53.1 49.6633 52.74 49.6633 52.224C49.6633 51.72 50.0353 51.36 50.5633 51.36C51.0913 51.36 51.4513 51.72 51.4513 52.224C51.4513 52.74 51.0913 53.1 50.5633 53.1ZM50.0593 60C49.9393 60 49.8673 59.928 49.8673 59.808V54.06C49.8673 53.94 49.9393 53.868 50.0593 53.868H51.0673C51.1873 53.868 51.2593 53.94 51.2593 54.06V59.808C51.2593 59.928 51.1873 60 51.0673 60H50.0593ZM56.5859 54.06C56.5859 53.94 56.6579 53.868 56.7779 53.868H57.7859C57.9059 53.868 57.9779 53.94 57.9779 54.06V59.592C57.9779 62.04 56.0819 62.532 54.1739 62.352C54.0539 62.34 54.0059 62.268 54.0059 62.136L54.0419 61.248C54.0419 61.128 54.1259 61.068 54.2579 61.08C55.8059 61.212 56.5859 60.864 56.5859 59.556V59.484C56.5859 59.424 56.5499 59.4 56.5019 59.448C56.2019 59.76 55.7699 59.964 55.1219 59.964C54.1859 59.964 53.1539 59.52 52.7939 58.356C52.6739 57.924 52.6379 57.42 52.6379 56.904C52.6379 56.34 52.6739 55.812 52.8299 55.38C53.1419 54.432 53.9579 53.772 55.0379 53.772C55.6979 53.772 56.1659 53.976 56.5019 54.312C56.5499 54.36 56.5859 54.336 56.5859 54.276V54.06ZM56.5019 57.96C56.5619 57.732 56.5859 57.54 56.5859 56.892C56.5859 56.256 56.5619 56.088 56.4899 55.848C56.3699 55.344 55.9739 54.972 55.3499 54.972C54.7379 54.972 54.3539 55.356 54.1859 55.848C54.0899 56.076 54.0419 56.4 54.0419 56.904C54.0419 57.432 54.0899 57.768 54.1619 57.948C54.3179 58.44 54.7379 58.824 55.3619 58.824C56.0099 58.824 56.3819 58.44 56.5019 57.96ZM59.6199 60C59.4999 60 59.4279 59.928 59.4279 59.808V51.792C59.4279 51.672 59.4999 51.6 59.6199 51.6H60.6279C60.7479 51.6 60.8199 51.672 60.8199 51.792V59.808C60.8199 59.928 60.7479 60 60.6279 60H59.6199ZM63.1258 53.1C62.5978 53.1 62.2258 52.74 62.2258 52.224C62.2258 51.72 62.5978 51.36 63.1258 51.36C63.6538 51.36 64.0138 51.72 64.0138 52.224C64.0138 52.74 63.6538 53.1 63.1258 53.1ZM62.6218 60C62.5018 60 62.4298 59.928 62.4298 59.808V54.06C62.4298 53.94 62.5018 53.868 62.6218 53.868H63.6298C63.7498 53.868 63.8218 53.94 63.8218 54.06V59.808C63.8218 59.928 63.7498 60 63.6298 60H62.6218Z" fill="url(#paint1_linear_590_19726)"/>
<defs>
<linearGradient id="paint0_linear_590_19726" x1="43.3242" y1="21" x2="43.3242" y2="43.9904" gradientUnits="userSpaceOnUse">
<stop stop-color="white"/>
<stop offset="1" stop-color="#FFE6EE"/>
</linearGradient>
<linearGradient id="paint1_linear_590_19726" x1="43.625" y1="47" x2="43.625" y2="63" gradientUnits="userSpaceOnUse">
<stop stop-color="white"/>
<stop offset="1" stop-color="#FFE6EE"/>
</linearGradient>
</defs>
</svg>
