<svg width="12" height="10" viewBox="0 0 12 10" fill="none" xmlns="http://www.w3.org/2000/svg">
<path d="M5.60713 1.58475L5.99998 2.08369L6.39282 1.58475C7.49542 0.184389 9.31447 0.283594 10.2383 1.06899L10.2383 1.069C11.1593 1.85191 11.3532 3.56839 10.2163 5.50379L10.2161 5.5037L10.2095 5.51566C9.86264 6.14487 9.22456 6.8119 8.43744 7.4518C7.67503 8.07163 6.80417 8.64094 5.99998 9.10003C5.19579 8.64094 4.32494 8.07163 3.56253 7.4518C2.77542 6.8119 2.13733 6.14487 1.79046 5.51566L1.79062 5.51557L1.78371 5.5038C0.646826 3.56841 0.840661 1.85193 1.76162 1.06899C2.68549 0.283608 4.50456 0.184397 5.60713 1.58475Z" fill="#F26083" stroke="white"/>
</svg>
