<svg width="24" height="20" viewBox="0 0 24 20" fill="none" xmlns="http://www.w3.org/2000/svg">
<path fill-rule="evenodd" clip-rule="evenodd" d="M8.17701 16.954C9.12579 17.2083 10.0808 17.2687 11.0001 17.1596V19.1712C9.90845 19.273 8.78046 19.1863 7.65937 18.8859C2.59139 17.5279 -0.416173 12.3187 0.941789 7.25068C2.29975 2.1827 7.50901 -0.824864 12.577 0.533097C16.4551 1.57223 19.1267 4.86651 19.559 8.62695L21.893 6.29289C22.2835 5.90237 22.9167 5.90237 23.3072 6.29289C23.6978 6.68342 23.6978 7.31658 23.3072 7.70711L19.3072 11.7071L18.6001 12.4142L17.893 11.7071L13.893 7.70711C13.5025 7.31658 13.5025 6.68342 13.893 6.29289C14.2835 5.90237 14.9167 5.90237 15.3072 6.29289L17.5235 8.50914C17.0642 5.68585 15.0016 3.25331 12.0593 2.46495C8.0583 1.39287 3.94572 3.76727 2.87364 7.76832C1.80156 11.7694 4.17596 15.8819 8.17701 16.954Z" fill="url(#paint0_linear_5232_45856)"/>
<defs>
<linearGradient id="paint0_linear_5232_45856" x1="2.62686" y1="0.20703" x2="26.4213" y2="7.10558" gradientUnits="userSpaceOnUse">
<stop stop-color="#B63AB4"/>
<stop offset="1" stop-color="#513B9F"/>
</linearGradient>
</defs>
</svg>
