<svg width="16" height="16" viewBox="0 0 16 16" fill="none" xmlns="http://www.w3.org/2000/svg">
<path fill-rule="evenodd" clip-rule="evenodd" d="M15.3859 15.3859C14.8782 15.8936 14.0551 15.8936 13.5474 15.3859L8.13333 9.97181L2.71924 15.3859C2.21156 15.8936 1.38844 15.8936 0.880762 15.3859C0.37308 14.8782 0.37308 14.0551 0.880762 13.5474L6.29486 8.13333L0.880762 2.71924C0.373079 2.21156 0.373079 1.38844 0.880762 0.880761C1.38844 0.37308 2.21156 0.37308 2.71924 0.880761L8.13333 6.29486L13.5474 0.880762C14.0551 0.37308 14.8782 0.37308 15.3859 0.880762C15.8936 1.38844 15.8936 2.21156 15.3859 2.71924L9.97181 8.13333L15.3859 13.5474C15.8936 14.0551 15.8936 14.8782 15.3859 15.3859Z" fill="white"/>
</svg>
