<svg width="28" height="28" viewBox="0 0 28 28" fill="none" xmlns="http://www.w3.org/2000/svg">
<path d="M26.8475 11.4388L25.38 10.0872L25.7491 8.12527C25.8887 7.37938 25.461 6.64705 24.7453 6.40746L22.8592 5.77006L22.4 3.82623C22.229 3.08938 21.5403 2.59665 20.7885 2.66445L18.8079 2.85432L17.6015 1.26309C17.1468 0.661854 16.3141 0.490074 15.6614 0.860758L13.9283 1.84172L12.1862 0.883361C11.5245 0.521718 10.6962 0.702539 10.2506 1.30829L9.06671 2.91308L7.08156 2.75034C6.32982 2.68706 5.6501 3.19336 5.48355 3.9302L5.0514 5.87856L3.17429 6.53856C2.46306 6.78719 2.04443 7.52855 2.19298 8.26992L2.5891 10.2273L1.13963 11.597C0.590455 12.1169 0.509429 12.9622 0.946071 13.577L2.09845 15.2044L1.32869 17.0488C1.0361 17.745 1.30619 18.5541 1.9544 18.9384L3.66946 19.9555L3.71447 21.9536C3.73248 22.7085 4.29966 23.3369 5.0514 23.4228L7.02755 23.6488L7.87832 25.457C8.20243 26.1396 8.97668 26.4832 9.69241 26.2572L11.592 25.6559L13.1 26.9578C13.6717 27.4506 14.518 27.4461 15.0807 26.9443L16.5707 25.6198L18.4748 26.1939C19.195 26.4109 19.9693 26.0628 20.2799 25.3711L21.1081 23.5539L23.0798 23.3007C23.827 23.2058 24.3897 22.5684 24.3987 21.8135L24.4167 19.8154L26.1183 18.7757C26.762 18.3824 27.0185 17.5732 26.7169 16.877L25.9247 15.0417L27.0591 13.4007C27.4867 12.7769 27.3922 11.9361 26.8385 11.4207L26.8475 11.4388ZM16.053 24.1144C10.2506 25.24 4.66878 21.271 3.8045 15.3988C2.99424 9.90184 6.67193 4.69418 12.1007 3.63637C17.9031 2.51076 23.4849 6.47979 24.3492 12.352C25.1594 17.8489 21.4817 23.0566 16.053 24.1144ZM19.4066 12.7046C21.0001 14.9965 20.64 18.0569 18.5468 19.9781C17.3449 21.0811 15.7469 21.6869 14.0498 21.6869C12.3528 21.6869 10.7548 21.0811 9.55287 19.9781C7.45969 18.0569 7.09507 14.9965 8.69309 12.7046L14.0543 5.82431L19.4156 12.7046H19.4066Z" fill="url(#paint0_linear_154_5426)"/>
<defs>
<linearGradient id="paint0_linear_154_5426" x1="7.23912" y1="25.4073" x2="20.6572" y2="2.26154" gradientUnits="userSpaceOnUse">
<stop stop-color="#F6ED78"/>
<stop offset="1" stop-color="#FBB80A"/>
</linearGradient>
</defs>
</svg>
