<svg width="117" height="146" viewBox="0 0 117 146" fill="none" xmlns="http://www.w3.org/2000/svg">
<path d="M101.891 129.909H21.7082C20.0901 129.909 18.7783 131.229 18.7783 132.857V142.804C18.7783 144.432 20.0901 145.752 21.7082 145.752H101.891C103.509 145.752 104.82 144.432 104.82 142.804V132.857C104.82 131.229 103.509 129.909 101.891 129.909Z" fill="#FFE52C"/>
<path d="M104.82 132.929H18.7783V142.731H104.82V132.929Z" fill="#FFB41D"/>
<path opacity="0.03" d="M25.6941 132.929H22.7305V142.731H25.6941V132.929Z" fill="black"/>
<path opacity="0.03" d="M31.9578 132.929H28.9941V142.731H31.9578V132.929Z" fill="black"/>
<path opacity="0.03" d="M38.2224 132.929H35.2588V142.731H38.2224V132.929Z" fill="black"/>
<path opacity="0.03" d="M44.4871 132.929H41.5234V142.731H44.4871V132.929Z" fill="black"/>
<path opacity="0.03" d="M50.7508 132.929H47.7871V142.731H50.7508V132.929Z" fill="black"/>
<path opacity="0.03" d="M57.0213 132.929H54.0576V142.731H57.0213V132.929Z" fill="black"/>
<path opacity="0.03" d="M63.2859 132.929H60.3223V142.731H63.2859V132.929Z" fill="black"/>
<path opacity="0.03" d="M69.5506 132.929H66.5869V142.731H69.5506V132.929Z" fill="black"/>
<path opacity="0.03" d="M75.8152 132.929H72.8516V142.731H75.8152V132.929Z" fill="black"/>
<path opacity="0.03" d="M82.0799 132.929H79.1162V142.731H82.0799V132.929Z" fill="black"/>
<path opacity="0.03" d="M88.3445 132.929H85.3809V142.731H88.3445V132.929Z" fill="black"/>
<path opacity="0.03" d="M94.6082 132.929H91.6445V142.731H94.6082V132.929Z" fill="black"/>
<path opacity="0.03" d="M100.874 132.929H97.9102V142.731H100.874V132.929Z" fill="black"/>
<path d="M101.523 101.175V111.123C101.523 112.752 100.213 114.07 98.5936 114.07H18.4065C16.7873 114.07 15.4766 112.752 15.4766 111.123V101.175C15.4766 99.5461 16.7873 98.2275 18.4065 98.2275H98.5936C100.213 98.2275 101.523 99.5461 101.523 101.175Z" fill="#FFE52C"/>
<path d="M101.519 101.248H15.4766V111.05H101.519V101.248Z" fill="#FFB41D"/>
<path opacity="0.03" d="M22.3933 101.248H19.4297V111.05H22.3933V101.248Z" fill="black"/>
<path opacity="0.03" d="M28.657 101.248H25.6934V111.05H28.657V101.248Z" fill="black"/>
<path opacity="0.03" d="M34.9207 101.248H31.957V111.05H34.9207V101.248Z" fill="black"/>
<path opacity="0.03" d="M41.1863 101.248H38.2227V111.05H41.1863V101.248Z" fill="black"/>
<path opacity="0.03" d="M47.45 101.248H44.4863V111.05H47.45V101.248Z" fill="black"/>
<path opacity="0.03" d="M53.7146 101.248H50.751V111.05H53.7146V101.248Z" fill="black"/>
<path opacity="0.03" d="M59.9803 101.248H57.0166V111.05H59.9803V101.248Z" fill="black"/>
<path opacity="0.03" d="M66.2439 101.248H63.2803V111.05H66.2439V101.248Z" fill="black"/>
<path opacity="0.03" d="M72.5086 101.248H69.5449V111.05H72.5086V101.248Z" fill="black"/>
<path opacity="0.03" d="M78.7742 101.248H75.8105V111.05H78.7742V101.248Z" fill="black"/>
<path opacity="0.03" d="M85.0437 101.248H82.0801V111.05H85.0437V101.248Z" fill="black"/>
<path opacity="0.03" d="M91.3084 101.248H88.3447V111.05H91.3084V101.248Z" fill="black"/>
<path opacity="0.03" d="M97.574 101.248H94.6104V111.05H97.574V101.248Z" fill="black"/>
<path d="M97.7706 117.014V126.962C97.7706 128.595 96.4598 129.909 94.8406 129.909H14.6535C13.0344 129.909 11.7236 128.59 11.7236 126.962V117.014C11.7236 115.385 13.0344 114.066 14.6535 114.066H94.8406C96.4598 114.066 97.7706 115.385 97.7706 117.014Z" fill="#FFE52C"/>
<path d="M97.7706 117.091H11.7236V126.888H97.7706V117.091Z" fill="#FFB41D"/>
<path opacity="0.03" d="M18.6384 117.091H15.6748V126.893H18.6384V117.091Z" fill="black"/>
<path opacity="0.03" d="M24.9031 117.091H21.9395V126.893H24.9031V117.091Z" fill="black"/>
<path opacity="0.03" d="M31.1668 117.091H28.2031V126.893H31.1668V117.091Z" fill="black"/>
<path opacity="0.03" d="M37.4324 117.091H34.4688V126.893H37.4324V117.091Z" fill="black"/>
<path opacity="0.03" d="M43.6961 117.091H40.7324V126.893H43.6961V117.091Z" fill="black"/>
<path opacity="0.03" d="M49.9666 117.091H47.0029V126.893H49.9666V117.091Z" fill="black"/>
<path opacity="0.03" d="M56.2303 117.091H53.2666V126.893H56.2303V117.091Z" fill="black"/>
<path opacity="0.03" d="M62.4959 117.091H59.5322V126.893H62.4959V117.091Z" fill="black"/>
<path opacity="0.03" d="M68.7596 117.091H65.7959V126.893H68.7596V117.091Z" fill="black"/>
<path opacity="0.03" d="M75.0242 117.091H72.0605V126.893H75.0242V117.091Z" fill="black"/>
<path opacity="0.03" d="M81.2898 117.091H78.3262V126.893H81.2898V117.091Z" fill="black"/>
<path opacity="0.03" d="M87.5535 117.091H84.5898V126.893H87.5535V117.091Z" fill="black"/>
<path opacity="0.03" d="M93.8172 117.091H90.8535V126.893H93.8172V117.091Z" fill="black"/>
<path opacity="0.05" d="M97.7703 116.989V120.141L93.8187 119.825L90.8551 119.588L87.5541 119.326L84.5905 119.089L81.2895 118.822L78.3259 118.584L75.0249 118.318L72.0612 118.08L68.7603 117.814L65.7966 117.576L62.4957 117.309L59.532 117.072L59.3923 117.062L18.4072 114.042H94.8404C96.4595 114.042 97.7703 115.361 97.7703 116.989Z" fill="black"/>
<path d="M87.75 88.2757C103.904 72.0247 103.904 45.6765 87.75 29.4255C71.5957 13.1744 45.4043 13.1744 29.25 29.4255C13.0957 45.6765 13.0957 72.0247 29.25 88.2757C45.4043 104.527 71.5957 104.527 87.75 88.2757Z" fill="#FFAA22"/>
<path opacity="0.03" d="M99.8657 58.8497C99.8657 81.8331 81.3466 100.463 58.5 100.463V17.2314C81.3466 17.2314 99.8657 35.8615 99.8657 58.8449V58.8497Z" fill="black"/>
<path d="M88.7182 66.6899C93.02 49.9083 82.9841 32.7961 66.3024 28.4686C49.6207 24.1411 32.6103 34.237 28.3085 51.0186C24.0068 67.8002 34.0427 84.9124 50.7244 89.2399C67.4061 93.5675 84.4165 83.4714 88.7182 66.6899Z" fill="#FFB41D"/>
<path d="M95.8661 42.6384C95.2493 42.6384 94.6565 42.2893 94.3722 41.6882C93.606 40.0642 92.7145 38.479 91.7314 36.9713C91.2303 36.2005 91.4423 35.1728 92.2085 34.6686C92.9747 34.1644 93.9963 34.3777 94.4975 35.1485C95.5625 36.7822 96.5215 38.4984 97.3552 40.2581C97.7503 41.0871 97.3985 42.0809 96.5745 42.4784C96.3431 42.5899 96.1022 42.6384 95.8661 42.6384Z" fill="#FFDA00"/>
<path d="M90.1704 33.7376C89.6982 33.7376 89.2307 33.534 88.903 33.1462C86.667 30.4702 84.0889 28.0996 81.2457 26.0975C80.4988 25.5691 80.3157 24.5316 80.841 23.7802C81.3662 23.0288 82.3975 22.8446 83.1444 23.373C86.2237 25.54 89.0139 28.1093 91.433 31.0034C92.0209 31.7064 91.9293 32.7583 91.2306 33.3498C90.9222 33.6115 90.5415 33.7424 90.1656 33.7424L90.1704 33.7376Z" fill="#FFDA00"/>
<path d="M58.5 102.126C47.0069 102.126 36.2028 97.622 28.0781 89.4486C19.9534 81.2752 15.4766 70.4065 15.4766 58.8445C15.4766 47.2826 19.9534 36.4138 28.0781 28.2404C36.2028 20.0671 47.0069 15.5635 58.5 15.5635C65.4104 15.5635 72.2774 17.2505 78.3637 20.4452C79.1733 20.8718 79.4865 21.8753 79.0672 22.6897C78.6432 23.5042 77.6457 23.8193 76.8361 23.3975C71.222 20.45 64.8803 18.8939 58.5 18.8939C36.6028 18.8939 18.7872 36.8162 18.7872 58.8445C18.7872 80.8729 36.6028 98.7952 58.5 98.7952C80.3973 98.7952 98.2129 80.8729 98.2129 58.8445C98.2129 54.5833 97.5479 50.3851 96.2419 46.376C95.9576 45.5034 96.4299 44.5629 97.2973 44.2769C98.1647 43.9909 99.0995 44.466 99.3839 45.3386C100.801 49.6871 101.519 54.2294 101.519 58.8445C101.519 70.4065 97.0419 81.2752 88.9172 89.4486C80.7924 97.622 69.9884 102.126 58.4952 102.126H58.5Z" fill="#FFDA00"/>
<path d="M90.1991 52.6346L86.6234 49.3236L87.5246 44.5146C87.8667 42.687 86.821 40.8933 85.0814 40.3019L80.4841 38.7409L79.3661 33.9755C78.9469 32.1673 77.2699 30.9602 75.4387 31.1298L70.6149 31.5952L67.6754 27.6928C66.567 26.219 64.5382 25.7973 62.948 26.7087L58.7266 29.1132L54.4811 26.762C52.8668 25.8748 50.8525 26.3208 49.7634 27.8043L46.8769 31.7358L42.0386 31.3383C40.2074 31.1832 38.5497 32.4242 38.1449 34.2324L37.0944 39.0075L32.5212 40.6267C30.7864 41.2375 29.7696 43.0554 30.131 44.8685L31.0948 49.6678L27.5626 53.0273C26.2229 54.3023 26.0253 56.3723 27.0903 57.8799L29.8997 61.8697L28.0252 66.3927C27.312 68.0991 27.9722 70.0818 29.548 71.0223L33.726 73.5141L33.8368 78.4103C33.8802 80.2622 35.2632 81.7989 37.0944 82.0122L41.9085 82.5649L43.9807 86.9958C44.771 88.6683 46.6552 89.5118 48.3996 88.9591L53.0258 87.4854L56.6978 90.6752C58.0905 91.8823 60.153 91.8726 61.5216 90.6413L65.1503 87.3933L69.7909 88.7991C71.545 89.3324 73.434 88.4792 74.1906 86.7825L76.2097 82.3273L81.0142 81.7068C82.8357 81.4741 84.2043 79.9131 84.2284 78.0613L84.2718 73.165L88.4161 70.6151C89.9822 69.6504 90.6087 67.6676 89.8762 65.9612L87.9438 61.4625L90.7051 57.4388C91.746 55.9117 91.5146 53.8466 90.1702 52.5862L90.1943 52.6298L90.1991 52.6346ZM63.8973 83.7041C49.7586 86.4625 36.1595 76.733 34.0537 62.3399C32.0779 48.8679 41.0411 36.0988 54.2643 33.5101C68.403 30.7517 82.0021 40.4812 84.1079 54.8743C86.0837 68.3463 77.1205 81.1154 63.8973 83.7041ZM72.0702 55.7372C75.9543 61.3558 75.0773 68.8553 69.974 73.5674C67.0441 76.2725 63.1504 77.7559 59.0158 77.7559C54.8811 77.7559 50.9874 76.2725 48.0575 73.5674C42.959 68.8602 42.0675 61.3558 45.9612 55.7372L59.0254 38.8718L72.0654 55.7372H72.0702Z" fill="#FFDA00"/>
</svg>
