<svg width="29" height="28" viewBox="0 0 29 28" fill="none" xmlns="http://www.w3.org/2000/svg">
<rect x="0.5" width="28" height="28" rx="14" fill="white"/>
<path d="M21.1207 12.564C21.1207 12.5393 21.0959 12.5393 21.0959 12.5143L15.8309 5.13829C15.592 4.81555 15.2142 4.625 14.8126 4.625C14.411 4.625 14.0332 4.81556 13.7943 5.13829L8.52929 12.5143C8.52929 12.5391 8.50452 12.5391 8.50452 12.564C7.92001 13.5731 7.61653 14.7203 7.62518 15.8863C7.63401 17.0524 7.95468 18.1947 8.55406 19.195C9.38994 20.6836 10.7289 21.8255 12.3308 22.4159C13.9327 23.0062 15.6924 23.0062 17.2942 22.4159C18.8961 21.8256 20.2351 20.6836 21.0709 19.195C21.6704 18.1947 21.991 17.0524 21.9998 15.8863C22.0085 14.7203 21.7052 13.5731 21.1207 12.564Z" fill="#C62F3A"/>
</svg>
