<svg width="25" height="32" viewBox="0 0 25 32" fill="none" xmlns="http://www.w3.org/2000/svg">
<path d="M23.4708 13.933C23.4708 13.8895 23.4277 13.8895 23.4277 13.8457L14.2711 0.900821C13.8557 0.334418 13.1986 0 12.5002 0C11.8018 0 11.1448 0.334434 10.7293 0.900821L1.57268 13.8457C1.57268 13.8892 1.5296 13.8892 1.5296 13.933C0.513057 15.704 -0.0147272 17.7172 0.000312673 19.7637C0.015678 21.8101 0.573348 23.8149 1.61575 25.5703C3.06945 28.1828 5.39801 30.1869 8.18394 31.2231C10.9699 32.259 14.0303 32.259 16.8161 31.2231C19.602 30.187 21.9305 28.1829 23.3843 25.5703C24.4267 23.8148 24.9843 21.8101 24.9997 19.7637C25.0147 17.7172 24.4873 15.704 23.4708 13.933Z" fill="#C62F3A"/>
</svg>
