<?xml version="1.0" standalone="no"?>
<!DOCTYPE svg PUBLIC "-//W3C//DTD SVG 20010904//EN"
 "http://www.w3.org/TR/2001/REC-SVG-20010904/DTD/svg10.dtd">
<svg version="1.0" xmlns="http://www.w3.org/2000/svg"
 width="72.000000pt" height="72.000000pt" viewBox="0 0 72.000000 72.000000"
 preserveAspectRatio="xMidYMid meet">

<g transform="translate(0.000000,72.000000) scale(0.100000,-0.100000)"
fill="#000000" stroke="none">
<path d="M277 556 c-87 -32 -155 -105 -178 -189 -16 -60 -9 -92 21 -92 19 0
26 6 28 25 12 93 56 159 127 191 72 33 161 20 221 -33 43 -38 64 -77 73 -137
5 -41 9 -46 31 -46 24 0 25 3 24 51 -2 87 -59 171 -147 215 -52 27 -149 34
-200 15z"/>
<path d="M315 441 c-36 -16 -67 -58 -72 -99 -17 -128 166 -183 222 -66 24 52
19 90 -18 130 -34 37 -92 53 -132 35z m85 -71 c11 -11 20 -28 20 -38 0 -29
-29 -62 -56 -62 -29 0 -64 32 -64 60 0 11 9 29 20 40 11 11 29 20 40 20 11 0
29 -9 40 -20z"/>
</g>
</svg>
