<?xml version="1.0" standalone="no"?>
<!DOCTYPE svg PUBLIC "-//W3C//DTD SVG 20010904//EN"
 "http://www.w3.org/TR/2001/REC-SVG-20010904/DTD/svg10.dtd">
<svg version="1.0" xmlns="http://www.w3.org/2000/svg"
 width="72.000000pt" height="72.000000pt" viewBox="0 0 72.000000 72.000000"
 preserveAspectRatio="xMidYMid meet">

<g transform="translate(0.000000,72.000000) scale(0.100000,-0.100000)"
fill="#000000" stroke="none">
<path d="M101 561 c-17 -11 -9 -88 14 -134 20 -41 20 -43 -21 -93 -38 -46 -40
-74 -5 -74 11 0 34 18 53 39 l33 40 42 -25 42 -25 -26 -54 c-28 -57 -26 -85 7
-85 14 0 28 17 50 60 29 58 31 60 70 60 39 0 41 -2 70 -60 22 -43 36 -60 50
-60 33 0 35 28 8 84 l-26 52 42 27 41 26 35 -41 c24 -27 42 -39 55 -37 32 7
28 32 -11 77 -23 27 -34 49 -31 60 3 9 13 35 21 57 18 46 21 101 6 110 -19 12
-50 -6 -50 -28 0 -174 -215 -270 -346 -155 -43 38 -64 77 -73 137 -6 47 -22
60 -50 42z"/>
</g>
</svg>
