<svg width="14" height="14" viewBox="0 0 14 14" fill="none" xmlns="http://www.w3.org/2000/svg">
<path fill-rule="evenodd" clip-rule="evenodd" d="M2 0C0.89543 0 0 0.895432 0 2V8.88889C0 9.99346 0.895432 10.8889 2 10.8889H8.88889C9.99346 10.8889 10.8889 9.99346 10.8889 8.88889V2C10.8889 0.89543 9.99346 0 8.88889 0H2ZM2 2L8.88889 2L8.88889 8.88889L2 8.88889V2ZM13.8519 3.96296C13.8519 3.41068 13.4041 2.96296 12.8519 2.96296C12.2996 2.96296 11.8519 3.41068 11.8519 3.96296V10.8519C11.8519 11.4041 11.4041 11.8519 10.8519 11.8519H3.96296C3.41068 11.8519 2.96296 12.2996 2.96296 12.8519C2.96296 13.4041 3.41068 13.8519 3.96296 13.8519H10.8519C12.5087 13.8519 13.8519 12.5087 13.8519 10.8519V3.96296Z" fill="white"/>
</svg>
