<svg width="24" height="24" viewBox="0 0 24 24" fill="none" xmlns="http://www.w3.org/2000/svg">
<path fill-rule="evenodd" clip-rule="evenodd" d="M5 5.5C5 3.567 6.567 2 8.5 2C10.433 2 12 3.567 12 5.5C12 3.567 13.567 2 15.5 2C17.433 2 19 3.567 19 5.5C19 6.0368 18.8792 6.54537 18.6632 7H20C21.1046 7 22 7.89543 22 9V11C22 12.1046 21.1046 13 20 13V19C20 20.6569 18.6569 22 17 22H7C5.34315 22 4 20.6569 4 19V13C2.89543 13 2 12.1046 2 11V9C2 7.89543 2.89543 7 4 7H5.33682C5.12085 6.54537 5 6.0368 5 5.5ZM15.5 9H13V11H19H20V9H15.5ZM15.5 7C16.3284 7 17 6.32843 17 5.5C17 4.67157 16.3284 4 15.5 4C14.6716 4 14 4.67157 14 5.5V7H15.5ZM10 5.5V7H8.5C7.67157 7 7 6.32843 7 5.5C7 4.67157 7.67157 4 8.5 4C9.32843 4 10 4.67157 10 5.5ZM4 9H8.5H11V11H5H4V9ZM6 19V13H11V20H7C6.44772 20 6 19.5523 6 19ZM13 20H17C17.5523 20 18 19.5523 18 19V13H13V20Z" fill="#1F2D4F"/>
</svg>
