<svg width="127" height="154" viewBox="0 0 127 154" fill="none" xmlns="http://www.w3.org/2000/svg">
<g clip-path="url(#clip0_6650_71580)">
<path d="M33.923 35.0884C43.2398 23.6748 53.4067 12.9723 64.367 3.11659H61.7601C70.4081 10.7144 78.4442 19.1251 86.0608 27.739C92.9634 35.5513 99.4919 43.7249 105.295 52.3839C111.098 61.043 116.323 70.2213 119.667 80.0996C123.328 90.9376 124.099 102.216 120.086 113.121C119.01 116.034 117.933 118.811 116.267 121.453C114.691 123.937 112.855 126.217 110.883 128.396C107.925 131.647 104.683 134.662 101.237 137.405C101.045 137.563 100.852 137.71 100.648 137.868C100.421 138.037 101.033 137.586 100.659 137.868C99.5486 138.658 98.4379 139.449 97.2931 140.182C94.3575 142.079 91.2632 143.739 88.067 145.15C81.2891 148.13 73.9104 149.891 66.5091 150.298C53.2367 151.009 40.0549 147.216 28.9813 139.945C17.9077 132.675 8.23953 121.397 4.95258 108.335C1.2576 93.6809 6.12002 78.5191 12.9886 65.5701C14.7567 62.251 16.6836 59.0109 18.7011 55.8385C19.9819 53.8403 16.7856 52.0001 15.5161 53.987C7.23078 66.97 0.0675011 81.8495 -0.000504629 97.5645C-0.0685104 112.331 7.21944 125.788 17.8283 135.768C27.7572 145.116 40.6329 151.449 54.1774 153.368C68.9007 155.457 84.066 152.262 96.8624 144.743C105.125 139.889 112.617 133.002 118.16 125.224C122.047 119.76 124.461 113.121 125.686 106.562C126.785 100.692 126.785 94.855 125.776 88.9845C123.985 78.5869 119.452 68.7198 114.193 59.6431C108.639 50.047 102.042 41.0719 94.9922 32.5257C85.7661 21.3378 75.7239 10.6806 64.911 0.994165C64.7297 0.836112 64.5483 0.666769 64.367 0.508717C63.5962 -0.168653 62.5421 -0.191232 61.7601 0.508717C50.7885 10.3644 40.6216 21.0669 31.3162 32.4806C29.8314 34.2982 32.4269 36.906 33.923 35.0771V35.0884Z" fill="url(#paint0_linear_6650_71580)"/>
<path d="M10.9825 55.1617C10.0077 55.1617 8.99899 54.2924 8.6363 53.1747C7.71822 50.1265 7.77489 46.7736 8.02425 43.5786C8.17159 41.7949 8.33027 40.0224 8.78364 38.2952C9.14634 36.9743 10.1098 36.263 11.4359 36.263C13.2267 36.263 13.7821 38.7016 12.1499 39.458C12.0479 39.5031 12.1046 39.6612 12.0479 39.7628C11.7419 42.4045 11.5945 45.0463 11.6966 47.7332C12.7166 45.1479 15.8789 38.3403 18.0211 36.455C18.4858 36.0486 18.9958 35.8905 19.5512 35.8905C20.4693 35.8905 21.3874 36.455 21.6934 37.5162C21.9994 38.5322 22.0561 39.6047 22.1014 40.7111C22.8608 38.9838 24.595 36.1953 26.3858 35.4276C26.7485 35.2244 27.0999 35.168 27.4626 35.168C29.6501 35.168 30.4208 37.6629 30.7268 39.379C31.3389 43.3867 31.3842 47.4509 31.2369 51.5152C31.1349 52.6893 30.7722 54.0553 29.3441 54.0553C28.324 54.0553 27.4059 53.1973 27.6099 52.0232C27.8139 50.962 27.6099 45.5204 27.5646 44.4592C27.5192 42.6303 27.4626 40.8579 27.0999 39.0741C26.1364 40.2482 25.3657 41.5691 24.7537 42.9351C23.8356 44.9108 23.1669 46.9429 22.3508 48.9299C22.0448 49.8895 21.376 50.7588 20.3106 50.7588C19.2452 50.7588 18.7238 50.1491 18.5198 49.2347C18.3725 48.8283 18.4178 46.9542 18.4745 46.5478C18.5198 44.8205 18.5765 43.1496 18.5765 41.4223C17.4544 43.2512 16.4343 45.1818 15.5729 47.1574C15.2102 48.0267 13.374 52.9489 12.864 53.7618C12.5126 54.473 11.8439 55.1391 10.9825 55.1391V55.1617Z" fill="#8E3FAF"/>
<path d="M41.2223 65.3224C40.4629 65.3224 39.6921 64.8595 39.4881 63.8999C39.3408 63.1435 39.8395 60.0954 39.9982 59.3841C40.6555 55.5231 41.5283 51.7637 42.5484 48.0043C41.6303 48.6139 40.4062 49.2236 39.2841 49.2236C38.7287 49.2236 38.1167 49.0768 37.55 48.772C35.6571 47.8576 33.4696 43.6917 33.2089 41.8628C33.1069 41.3548 33.2089 39.7291 33.4696 39.2211C33.7756 38.6115 34.331 38.3066 34.8977 38.3066C35.6571 38.3066 36.4279 38.8147 36.5752 39.7291C36.7339 40.3387 36.3712 40.9484 36.5299 41.5129C36.6772 41.9644 37.652 43.6466 37.856 44.053C38.1167 44.403 38.8307 45.4755 39.1821 45.6335C39.3408 45.7351 39.6921 45.5884 39.8395 45.4868C41.1656 44.832 42.2877 43.6014 43.2058 42.3821C43.6705 41.7274 44.0218 40.9597 44.6906 40.4968C45.0419 40.2484 45.6086 40.192 46.0167 40.2936C47.2408 40.5532 47.8075 41.9193 47.3428 43.0821C47.3428 43.2401 47.2974 43.3418 47.2974 43.4885C47.0934 45.0578 45.0533 53.6491 44.7019 55.1731C44.0898 57.9165 43.5798 60.6598 43.0131 63.4032C43.0131 64.5208 42.401 65.3337 41.2223 65.3337V65.3224Z" fill="#8E3FAF"/>
<path d="M8.72656 108.582H30.3411L31.9279 99.6518H30.1484L30.0464 99.9002C28.9923 102.632 27.7455 104.416 26.3741 105.308C24.9799 106.211 23.2345 106.674 21.1036 106.674C19.9248 106.674 19.1428 106.527 18.8708 106.346C18.6101 106.2 18.4174 105.827 18.4174 105.082V87.2785C18.4174 85.9915 18.8254 85.8109 19.1201 85.6302C19.4601 85.3593 20.2875 85.2012 21.727 85.1674H22.101V83.5078H8.72656V85.1561H9.08926C10.1093 85.2238 10.8007 85.3706 11.0841 85.5399C11.6168 85.8334 11.8888 86.3528 11.9115 87.3237V104.766C11.9002 105.748 11.6168 106.267 11.0501 106.572C10.7327 106.742 10.064 106.877 9.11193 106.911H8.7379V108.57L8.72656 108.582Z" fill="#142358"/>
<path d="M32.7441 106.923H33.1182C34.1043 106.9 34.7956 106.765 35.147 106.595C35.7251 106.279 36.0198 105.76 36.0311 104.766V87.3241C36.0311 86.3306 35.7251 85.8113 35.1923 85.5291C34.8863 85.3597 34.1609 85.2129 33.1182 85.1791H32.7441V83.5195H46.1073V85.1678H45.7446C44.6452 85.213 43.8858 85.3597 43.5911 85.5178C43.047 85.8113 42.7523 86.3306 42.741 87.3354V104.778C42.741 105.726 42.9903 106.234 43.3984 106.471C43.8631 106.765 44.6338 106.934 45.7219 106.934H46.1073V108.593H32.7441V106.934V106.923Z" fill="#142358"/>
<path d="M47.5465 106.934H47.9205C49.2126 106.888 49.9607 106.606 50.1874 106.29C50.4934 105.906 50.6748 105.297 50.6748 104.405V87.5156C49.6547 86.3528 48.9973 85.6641 48.7933 85.4948C48.6119 85.3367 48.3399 85.2238 47.9545 85.1787L47.6145 85.1335V83.5078H55.8092L67.7782 98.0487V88.3397C67.7782 87.1656 67.5515 86.3866 67.2115 85.9802C66.8941 85.5964 66.1007 85.2803 64.8086 85.1787L64.4573 85.1561V83.5191H72.9693V85.1335L72.652 85.1787C71.5639 85.348 70.8498 85.6077 70.5891 85.8447C70.3738 86.0028 70.1471 86.6237 70.1584 87.6849V109.282H68.5943L53.0436 90.3944V103.75C53.0436 104.822 53.2023 105.545 53.4403 105.895C53.8144 106.471 54.6418 106.866 56.0812 106.922H56.4439V108.582H47.5352V106.934H47.5465Z" fill="#142358"/>
<path d="M74.2955 106.934H74.6582C75.6556 106.877 76.3584 106.731 76.6871 106.539C77.2084 106.245 77.4918 105.715 77.5031 104.766V87.3241C77.4918 86.3419 77.1971 85.8339 76.653 85.5403C76.3697 85.371 75.667 85.2242 74.6582 85.1791H74.2955V83.5195H95.8533V91.5351H94.2212L94.1645 91.2302C93.7225 88.9498 92.9631 87.4596 91.9883 86.6919C91.0363 85.9242 89.1094 85.4839 86.2532 85.4952C85.1878 85.4726 84.519 85.642 84.4057 85.7548C84.2584 85.8565 84.0997 86.1839 84.0997 86.8274V94.809C85.9018 94.7864 87.0693 94.4026 87.6133 93.8043C88.248 93.1495 88.8147 91.806 89.1888 89.8078L89.2454 89.503H90.8662V102.362H89.2228L89.1774 102.034C88.9281 100.025 88.3954 98.6587 87.704 97.9249C87.0806 97.2588 85.8792 96.8411 84.0883 96.796V105.128C84.0883 105.839 84.2697 106.211 84.519 106.369C84.7457 106.55 85.5165 106.719 86.7179 106.708C88.9621 106.708 90.7642 106.268 92.147 105.421C93.4958 104.597 94.7539 102.983 95.876 100.567L95.978 100.341H97.6895L96.0914 108.593H74.2842V106.945L74.2955 106.934Z" fill="#142358"/>
<path d="M99.7637 99.8108V99.4382H101.498L101.566 99.7317C102.133 102.373 103.039 104.248 104.241 105.399C105.465 106.562 106.825 107.115 108.389 107.115C109.942 107.115 110.951 106.72 111.529 105.997C112.163 105.218 112.458 104.428 112.458 103.593C112.458 102.599 112.152 101.843 111.517 101.233C111.109 100.849 110.18 100.262 108.763 99.5624L106.474 98.3996C104.161 97.2481 102.507 96.0852 101.509 94.8998C100.512 93.7031 100.013 92.2129 100.024 90.4856C100.024 88.6342 100.682 86.8956 101.974 85.3151C103.3 83.6894 105.34 82.8878 107.981 82.8991C109.33 82.8991 110.633 83.1023 111.891 83.5087C113.081 83.9039 113.864 84.0958 113.864 84.0845C114.181 84.0845 114.306 83.9942 114.362 83.9152C114.476 83.7458 114.589 83.4974 114.668 83.1475L114.748 82.8652H116.504V91.4678H114.816L114.748 91.1856C114.294 89.4131 113.501 87.9116 112.345 86.6472C111.211 85.3941 109.897 84.807 108.287 84.7957C107.154 84.7957 106.326 85.1006 105.714 85.6763C105.091 86.2859 104.796 86.9633 104.796 87.8213C104.796 88.8938 105.091 89.6164 105.646 90.0905C106.213 90.6098 107.641 91.4565 109.863 92.5629L112.526 93.8951C113.739 94.5047 114.725 95.1934 115.473 95.961C116.856 97.3835 117.559 99.1447 117.559 101.188C117.559 103.096 116.799 104.902 115.337 106.562C113.818 108.289 111.427 109.102 108.242 109.102C107.494 109.102 106.746 109.034 105.998 108.899C105.238 108.752 104.49 108.538 103.765 108.244L103.096 107.996C102.949 107.962 102.801 107.917 102.643 107.894C102.541 107.86 102.439 107.86 102.348 107.86C102.053 107.86 101.963 107.928 101.917 108.007C101.815 108.176 101.702 108.447 101.6 108.82L101.532 109.102H99.809V99.822" fill="#142358"/>
</g>
<defs>
<linearGradient id="paint0_linear_6650_71580" x1="22.226" y1="24.815" x2="91.8792" y2="145.931" gradientUnits="userSpaceOnUse">
<stop stop-color="#6942C7"/>
<stop offset="0.3" stop-color="#932F8E"/>
<stop offset="0.99" stop-color="#FD0002"/>
<stop offset="1" stop-color="#FF0000"/>
</linearGradient>
<clipPath id="clip0_6650_71580">
<rect width="127" height="154" fill="white"/>
</clipPath>
</defs>
</svg>
