<svg width="86" height="64" viewBox="0 0 86 64" fill="none" xmlns="http://www.w3.org/2000/svg">
<mask id="mask0_938_14181" style="mask-type:alpha" maskUnits="userSpaceOnUse" x="27" y="17" width="31" height="30">
<rect x="27.5742" y="17" width="30" height="30" fill="#D9D9D9"/>
</mask>
<g mask="url(#mask0_938_14181)">
<path d="M42.5742 34.7812C42.2201 34.7812 41.918 34.6508 41.668 34.39C41.418 34.13 41.293 33.8333 41.293 33.5C41.293 33.1458 41.418 32.8383 41.668 32.5775C41.918 32.3175 42.2201 32.1875 42.5742 32.1875C42.9284 32.1875 43.2305 32.3175 43.4805 32.5775C43.7305 32.8383 43.8555 33.1458 43.8555 33.5C43.8555 33.8333 43.7305 34.13 43.4805 34.39C43.2305 34.6508 42.9284 34.7812 42.5742 34.7812ZM37.5742 34.7812C37.2201 34.7812 36.918 34.6508 36.668 34.39C36.418 34.13 36.293 33.8333 36.293 33.5C36.293 33.1458 36.418 32.8383 36.668 32.5775C36.918 32.3175 37.2201 32.1875 37.5742 32.1875C37.9284 32.1875 38.2305 32.3175 38.4805 32.5775C38.7305 32.8383 38.8555 33.1458 38.8555 33.5C38.8555 33.8333 38.7305 34.13 38.4805 34.39C38.2305 34.6508 37.9284 34.7812 37.5742 34.7812ZM47.5742 34.7812C47.2201 34.7812 46.918 34.6508 46.668 34.39C46.418 34.13 46.293 33.8333 46.293 33.5C46.293 33.1458 46.418 32.8383 46.668 32.5775C46.918 32.3175 47.2201 32.1875 47.5742 32.1875C47.9284 32.1875 48.2305 32.3175 48.4805 32.5775C48.7305 32.8383 48.8555 33.1458 48.8555 33.5C48.8555 33.8333 48.7305 34.13 48.4805 34.39C48.2305 34.6508 47.9284 34.7812 47.5742 34.7812ZM42.5742 39.6875C42.2201 39.6875 41.918 39.5571 41.668 39.2962C41.418 39.0362 41.293 38.7396 41.293 38.4062C41.293 38.0521 41.418 37.7446 41.668 37.4837C41.918 37.2237 42.2201 37.0938 42.5742 37.0938C42.9284 37.0938 43.2305 37.2237 43.4805 37.4837C43.7305 37.7446 43.8555 38.0521 43.8555 38.4062C43.8555 38.7396 43.7305 39.0362 43.4805 39.2962C43.2305 39.5571 42.9284 39.6875 42.5742 39.6875ZM37.5742 39.6875C37.2201 39.6875 36.918 39.5571 36.668 39.2962C36.418 39.0362 36.293 38.7396 36.293 38.4062C36.293 38.0521 36.418 37.7446 36.668 37.4837C36.918 37.2237 37.2201 37.0938 37.5742 37.0938C37.9284 37.0938 38.2305 37.2237 38.4805 37.4837C38.7305 37.7446 38.8555 38.0521 38.8555 38.4062C38.8555 38.7396 38.7305 39.0362 38.4805 39.2962C38.2305 39.5571 37.9284 39.6875 37.5742 39.6875ZM47.5742 39.6875C47.2201 39.6875 46.918 39.5571 46.668 39.2962C46.418 39.0362 46.293 38.7396 46.293 38.4062C46.293 38.0521 46.418 37.7446 46.668 37.4837C46.918 37.2237 47.2201 37.0938 47.5742 37.0938C47.9284 37.0938 48.2305 37.2237 48.4805 37.4837C48.7305 37.7446 48.8555 38.0521 48.8555 38.4062C48.8555 38.7396 48.7305 39.0362 48.4805 39.2962C48.2305 39.5571 47.9284 39.6875 47.5742 39.6875ZM34.0117 44.8125C33.1576 44.8125 32.4338 44.5158 31.8405 43.9225C31.2463 43.3283 30.9492 42.6042 30.9492 41.75V24.625C30.9492 23.7708 31.2463 23.0467 31.8405 22.4525C32.4338 21.8592 33.1576 21.5625 34.0117 21.5625H34.7617V19.0312H37.4805V21.5625H47.6992V19.0312H50.3867V21.5625H51.1367C51.9909 21.5625 52.7146 21.8592 53.308 22.4525C53.9021 23.0467 54.1992 23.7708 54.1992 24.625V41.75C54.1992 42.6042 53.9021 43.3283 53.308 43.9225C52.7146 44.5158 51.9909 44.8125 51.1367 44.8125H34.0117ZM34.0117 42.125H51.1367C51.2201 42.125 51.3034 42.0833 51.3867 42C51.4701 41.9167 51.5117 41.8333 51.5117 41.75V29.25H33.6367V41.75C33.6367 41.8333 33.6784 41.9167 33.7617 42C33.8451 42.0833 33.9284 42.125 34.0117 42.125Z" fill="url(#paint0_linear_938_14181)"/>
</g>
<path d="M34.7532 60.12C32.9292 60.12 31.7052 58.944 31.7052 57.168V54.432C31.7052 52.68 32.9292 51.504 34.7532 51.504C36.5892 51.504 37.8132 52.68 37.8132 54.432V57.168C37.8132 58.944 36.5892 60.12 34.7532 60.12ZM34.7532 58.92C35.7612 58.92 36.4212 58.248 36.4212 57.216V54.42C36.4212 53.388 35.7612 52.704 34.7532 52.704C33.7572 52.704 33.0972 53.388 33.0972 54.42V57.216C33.0972 58.248 33.7572 58.92 34.7532 58.92ZM42.9863 54.06C42.9863 53.94 43.0583 53.868 43.1783 53.868H44.1863C44.3063 53.868 44.3783 53.94 44.3783 54.06V59.592C44.3783 62.04 42.4823 62.532 40.5743 62.352C40.4543 62.34 40.4063 62.268 40.4063 62.136L40.4423 61.248C40.4423 61.128 40.5263 61.068 40.6583 61.08C42.2063 61.212 42.9863 60.864 42.9863 59.556V59.484C42.9863 59.424 42.9503 59.4 42.9023 59.448C42.6023 59.76 42.1703 59.964 41.5223 59.964C40.5863 59.964 39.5543 59.52 39.1943 58.356C39.0743 57.924 39.0383 57.42 39.0383 56.904C39.0383 56.34 39.0743 55.812 39.2303 55.38C39.5423 54.432 40.3583 53.772 41.4383 53.772C42.0983 53.772 42.5663 53.976 42.9023 54.312C42.9503 54.36 42.9863 54.336 42.9863 54.276V54.06ZM42.9023 57.96C42.9623 57.732 42.9863 57.54 42.9863 56.892C42.9863 56.256 42.9623 56.088 42.8903 55.848C42.7703 55.344 42.3743 54.972 41.7503 54.972C41.1383 54.972 40.7543 55.356 40.5863 55.848C40.4903 56.076 40.4423 56.4 40.4423 56.904C40.4423 57.432 40.4903 57.768 40.5623 57.948C40.7183 58.44 41.1383 58.824 41.7623 58.824C42.4103 58.824 42.7823 58.44 42.9023 57.96ZM49.5723 54.06C49.5723 53.94 49.6443 53.868 49.7643 53.868H50.7723C50.8923 53.868 50.9643 53.94 50.9643 54.06V59.592C50.9643 62.04 49.0683 62.532 47.1603 62.352C47.0403 62.34 46.9923 62.268 46.9923 62.136L47.0283 61.248C47.0283 61.128 47.1123 61.068 47.2443 61.08C48.7923 61.212 49.5723 60.864 49.5723 59.556V59.484C49.5723 59.424 49.5363 59.4 49.4883 59.448C49.1883 59.76 48.7563 59.964 48.1083 59.964C47.1723 59.964 46.1403 59.52 45.7803 58.356C45.6603 57.924 45.6243 57.42 45.6243 56.904C45.6243 56.34 45.6603 55.812 45.8163 55.38C46.1283 54.432 46.9443 53.772 48.0243 53.772C48.6843 53.772 49.1523 53.976 49.4883 54.312C49.5363 54.36 49.5723 54.336 49.5723 54.276V54.06ZM49.4883 57.96C49.5483 57.732 49.5723 57.54 49.5723 56.892C49.5723 56.256 49.5483 56.088 49.4763 55.848C49.3563 55.344 48.9603 54.972 48.3363 54.972C47.7243 54.972 47.3403 55.356 47.1723 55.848C47.0763 56.076 47.0283 56.4 47.0283 56.904C47.0283 57.432 47.0763 57.768 47.1483 57.948C47.3043 58.44 47.7243 58.824 48.3483 58.824C48.9963 58.824 49.3683 58.44 49.4883 57.96ZM53.1942 53.1C52.6662 53.1 52.2942 52.74 52.2942 52.224C52.2942 51.72 52.6662 51.36 53.1942 51.36C53.7222 51.36 54.0822 51.72 54.0822 52.224C54.0822 52.74 53.7222 53.1 53.1942 53.1ZM52.6902 60C52.5702 60 52.4982 59.928 52.4982 59.808V54.06C52.4982 53.94 52.5702 53.868 52.6902 53.868H53.6982C53.8182 53.868 53.8902 53.94 53.8902 54.06V59.808C53.8902 59.928 53.8182 60 53.6982 60H52.6902Z" fill="url(#paint1_linear_938_14181)"/>
<defs>
<linearGradient id="paint0_linear_938_14181" x1="32.9836" y1="19.0312" x2="57.9111" y2="24.4203" gradientUnits="userSpaceOnUse">
<stop stop-color="#B63AB4"/>
<stop offset="1" stop-color="#513B9F"/>
</linearGradient>
<linearGradient id="paint1_linear_938_14181" x1="32.975" y1="47" x2="56.8253" y2="55.5763" gradientUnits="userSpaceOnUse">
<stop stop-color="#B63AB4"/>
<stop offset="1" stop-color="#513B9F"/>
</linearGradient>
</defs>
</svg>
