<svg width="30" height="30" viewBox="0 0 30 30" fill="none" xmlns="http://www.w3.org/2000/svg">
<path d="M14.625 17.75C14.2708 17.75 13.9687 17.6196 13.7187 17.3587C13.4687 17.0987 13.3438 16.8021 13.3438 16.4687C13.3438 16.1146 13.4687 15.8071 13.7187 15.5462C13.9687 15.2862 14.2708 15.1562 14.625 15.1562C14.9792 15.1562 15.2813 15.2862 15.5313 15.5462C15.7813 15.8071 15.9062 16.1146 15.9062 16.4687C15.9062 16.8021 15.7813 17.0987 15.5313 17.3587C15.2813 17.6196 14.9792 17.75 14.625 17.75ZM9.625 17.75C9.27083 17.75 8.96875 17.6196 8.71875 17.3587C8.46875 17.0987 8.34375 16.8021 8.34375 16.4687C8.34375 16.1146 8.46875 15.8071 8.71875 15.5462C8.96875 15.2862 9.27083 15.1562 9.625 15.1562C9.97917 15.1562 10.2813 15.2862 10.5313 15.5462C10.7813 15.8071 10.9062 16.1146 10.9062 16.4687C10.9062 16.8021 10.7813 17.0987 10.5313 17.3587C10.2813 17.6196 9.97917 17.75 9.625 17.75ZM19.625 17.75C19.2708 17.75 18.9687 17.6196 18.7187 17.3587C18.4687 17.0987 18.3438 16.8021 18.3438 16.4687C18.3438 16.1146 18.4687 15.8071 18.7187 15.5462C18.9687 15.2862 19.2708 15.1562 19.625 15.1562C19.9792 15.1562 20.2813 15.2862 20.5313 15.5462C20.7813 15.8071 20.9062 16.1146 20.9062 16.4687C20.9062 16.8021 20.7813 17.0987 20.5313 17.3587C20.2813 17.6196 19.9792 17.75 19.625 17.75ZM14.625 22.6562C14.2708 22.6562 13.9687 22.5258 13.7187 22.265C13.4687 22.005 13.3438 21.7083 13.3438 21.375C13.3438 21.0208 13.4687 20.7133 13.7187 20.4525C13.9687 20.1925 14.2708 20.0625 14.625 20.0625C14.9792 20.0625 15.2813 20.1925 15.5313 20.4525C15.7813 20.7133 15.9062 21.0208 15.9062 21.375C15.9062 21.7083 15.7813 22.005 15.5313 22.265C15.2813 22.5258 14.9792 22.6562 14.625 22.6562ZM9.625 22.6562C9.27083 22.6562 8.96875 22.5258 8.71875 22.265C8.46875 22.005 8.34375 21.7083 8.34375 21.375C8.34375 21.0208 8.46875 20.7133 8.71875 20.4525C8.96875 20.1925 9.27083 20.0625 9.625 20.0625C9.97917 20.0625 10.2813 20.1925 10.5313 20.4525C10.7813 20.7133 10.9062 21.0208 10.9062 21.375C10.9062 21.7083 10.7813 22.005 10.5313 22.265C10.2813 22.5258 9.97917 22.6562 9.625 22.6562ZM19.625 22.6562C19.2708 22.6562 18.9687 22.5258 18.7187 22.265C18.4687 22.005 18.3438 21.7083 18.3438 21.375C18.3438 21.0208 18.4687 20.7133 18.7187 20.4525C18.9687 20.1925 19.2708 20.0625 19.625 20.0625C19.9792 20.0625 20.2813 20.1925 20.5313 20.4525C20.7813 20.7133 20.9062 21.0208 20.9062 21.375C20.9062 21.7083 20.7813 22.005 20.5313 22.265C20.2813 22.5258 19.9792 22.6562 19.625 22.6562ZM6.0625 27.7812C5.20833 27.7812 4.48458 27.4846 3.89125 26.8913C3.29708 26.2971 3 25.5729 3 24.7187V7.59375C3 6.73958 3.29708 6.01542 3.89125 5.42125C4.48458 4.82792 5.20833 4.53125 6.0625 4.53125H6.8125V2H9.53125V4.53125H19.75V2H22.4375V4.53125H23.1875C24.0417 4.53125 24.7654 4.82792 25.3587 5.42125C25.9529 6.01542 26.25 6.73958 26.25 7.59375V24.7187C26.25 25.5729 25.9529 26.2971 25.3587 26.8913C24.7654 27.4846 24.0417 27.7812 23.1875 27.7812H6.0625ZM6.0625 25.0938H23.1875C23.2708 25.0938 23.3542 25.0521 23.4375 24.9688C23.5208 24.8854 23.5625 24.8021 23.5625 24.7187V12.2188H5.6875V24.7187C5.6875 24.8021 5.72917 24.8854 5.8125 24.9688C5.89583 25.0521 5.97917 25.0938 6.0625 25.0938Z" fill="url(#paint0_linear_68_12814)"/>
<defs>
<linearGradient id="paint0_linear_68_12814" x1="5.03437" y1="2" x2="29.9619" y2="7.38905" gradientUnits="userSpaceOnUse">
<stop stop-color="#B63AB4"/>
<stop offset="1" stop-color="#513B9F"/>
</linearGradient>
</defs>
</svg>
