<svg width="65" height="94" viewBox="0 0 65 94" fill="none" xmlns="http://www.w3.org/2000/svg">
<g filter="url(#filter0_d_7271_16457)">
<mask id="path-1-inside-1_7271_16457" fill="white">
<path fill-rule="evenodd" clip-rule="evenodd" d="M24 0C12.9543 0 4 8.95429 4 20V57.547C4 68.5927 12.9543 77.547 24 77.547H24.3213C24.7957 77.547 25.1999 77.8691 25.5159 78.223L31.0081 84.3741C31.8033 85.2647 33.1967 85.2647 33.9919 84.3741L39.4841 78.223C39.8001 77.8691 40.2043 77.547 40.6787 77.547H41C52.0457 77.547 61 68.5927 61 57.547V20C61 8.95431 52.0457 0 41 0H24Z"/>
</mask>
<path d="M31.0081 84.3741L28.0244 87.0382L28.0245 87.0382L31.0081 84.3741ZM33.9919 84.3741L36.9756 87.0382H36.9756L33.9919 84.3741ZM8 20C8 11.1634 15.1634 4 24 4V-4C10.7452 -4 0 6.74515 0 20H8ZM8 57.547V20H0V57.547H8ZM24 73.547C15.1634 73.547 8 66.3836 8 57.547H0C0 70.8018 10.7452 81.547 24 81.547V73.547ZM24.3213 73.547H24V81.547H24.3213V73.547ZM33.9919 81.71L28.4996 75.5588L22.5322 80.8871L28.0244 87.0382L33.9919 81.71ZM31.0082 81.71C31.8034 80.8194 33.1967 80.8194 33.9918 81.71L28.0245 87.0382C30.41 89.71 34.59 89.71 36.9756 87.0382L31.0082 81.71ZM36.5004 75.5588L31.0081 81.71L36.9756 87.0382L42.4678 80.8871L36.5004 75.5588ZM41 73.547H40.6787V81.547H41V73.547ZM57 57.547C57 66.3836 49.8366 73.547 41 73.547V81.547C54.2548 81.547 65 70.8019 65 57.547H57ZM57 20V57.547H65V20H57ZM41 4C49.8366 4 57 11.1634 57 20H65C65 6.74517 54.2548 -4 41 -4V4ZM24 4H41V-4H24V4ZM42.4678 80.8871C42.4675 80.8875 42.4445 80.9135 42.3983 80.9546C42.3529 80.9951 42.2674 81.066 42.1401 81.1455C41.8859 81.3042 41.3787 81.547 40.6787 81.547V73.547C38.3888 73.547 36.9619 75.042 36.5005 75.5588L42.4678 80.8871ZM24.3213 81.547C23.6213 81.547 23.1141 81.3042 22.8599 81.1455C22.7326 81.066 22.6471 80.9951 22.6017 80.9546C22.5555 80.9135 22.5325 80.8875 22.5322 80.8871L28.4996 75.5588C28.0381 75.042 26.6112 73.547 24.3213 73.547V81.547Z" fill="url(#paint0_radial_7271_16457)" mask="url(#path-1-inside-1_7271_16457)"/>
<path d="M31.0081 84.3741L28.0244 87.0382L28.0245 87.0382L31.0081 84.3741ZM33.9919 84.3741L36.9756 87.0382H36.9756L33.9919 84.3741ZM8 20C8 11.1634 15.1634 4 24 4V-4C10.7452 -4 0 6.74515 0 20H8ZM8 57.547V20H0V57.547H8ZM24 73.547C15.1634 73.547 8 66.3836 8 57.547H0C0 70.8018 10.7452 81.547 24 81.547V73.547ZM24.3213 73.547H24V81.547H24.3213V73.547ZM33.9919 81.71L28.4996 75.5588L22.5322 80.8871L28.0244 87.0382L33.9919 81.71ZM31.0082 81.71C31.8034 80.8194 33.1967 80.8194 33.9918 81.71L28.0245 87.0382C30.41 89.71 34.59 89.71 36.9756 87.0382L31.0082 81.71ZM36.5004 75.5588L31.0081 81.71L36.9756 87.0382L42.4678 80.8871L36.5004 75.5588ZM41 73.547H40.6787V81.547H41V73.547ZM57 57.547C57 66.3836 49.8366 73.547 41 73.547V81.547C54.2548 81.547 65 70.8019 65 57.547H57ZM57 20V57.547H65V20H57ZM41 4C49.8366 4 57 11.1634 57 20H65C65 6.74517 54.2548 -4 41 -4V4ZM24 4H41V-4H24V4ZM42.4678 80.8871C42.4675 80.8875 42.4445 80.9135 42.3983 80.9546C42.3529 80.9951 42.2674 81.066 42.1401 81.1455C41.8859 81.3042 41.3787 81.547 40.6787 81.547V73.547C38.3888 73.547 36.9619 75.042 36.5005 75.5588L42.4678 80.8871ZM24.3213 81.547C23.6213 81.547 23.1141 81.3042 22.8599 81.1455C22.7326 81.066 22.6471 80.9951 22.6017 80.9546C22.5555 80.9135 22.5325 80.8875 22.5322 80.8871L28.4996 75.5588C28.0381 75.042 26.6112 73.547 24.3213 73.547V81.547Z" fill="url(#paint1_radial_7271_16457)" mask="url(#path-1-inside-1_7271_16457)"/>
<path d="M31.0081 84.3741L28.0244 87.0382L28.0245 87.0382L31.0081 84.3741ZM33.9919 84.3741L36.9756 87.0382H36.9756L33.9919 84.3741ZM8 20C8 11.1634 15.1634 4 24 4V-4C10.7452 -4 0 6.74515 0 20H8ZM8 57.547V20H0V57.547H8ZM24 73.547C15.1634 73.547 8 66.3836 8 57.547H0C0 70.8018 10.7452 81.547 24 81.547V73.547ZM24.3213 73.547H24V81.547H24.3213V73.547ZM33.9919 81.71L28.4996 75.5588L22.5322 80.8871L28.0244 87.0382L33.9919 81.71ZM31.0082 81.71C31.8034 80.8194 33.1967 80.8194 33.9918 81.71L28.0245 87.0382C30.41 89.71 34.59 89.71 36.9756 87.0382L31.0082 81.71ZM36.5004 75.5588L31.0081 81.71L36.9756 87.0382L42.4678 80.8871L36.5004 75.5588ZM41 73.547H40.6787V81.547H41V73.547ZM57 57.547C57 66.3836 49.8366 73.547 41 73.547V81.547C54.2548 81.547 65 70.8019 65 57.547H57ZM57 20V57.547H65V20H57ZM41 4C49.8366 4 57 11.1634 57 20H65C65 6.74517 54.2548 -4 41 -4V4ZM24 4H41V-4H24V4ZM42.4678 80.8871C42.4675 80.8875 42.4445 80.9135 42.3983 80.9546C42.3529 80.9951 42.2674 81.066 42.1401 81.1455C41.8859 81.3042 41.3787 81.547 40.6787 81.547V73.547C38.3888 73.547 36.9619 75.042 36.5005 75.5588L42.4678 80.8871ZM24.3213 81.547C23.6213 81.547 23.1141 81.3042 22.8599 81.1455C22.7326 81.066 22.6471 80.9951 22.6017 80.9546C22.5555 80.9135 22.5325 80.8875 22.5322 80.8871L28.4996 75.5588C28.0381 75.042 26.6112 73.547 24.3213 73.547V81.547Z" fill="white" mask="url(#path-1-inside-1_7271_16457)"/>
</g>
<defs>
<filter id="filter0_d_7271_16457" x="0" y="0" width="65" height="93.042" filterUnits="userSpaceOnUse" color-interpolation-filters="sRGB">
<feFlood flood-opacity="0" result="BackgroundImageFix"/>
<feColorMatrix in="SourceAlpha" type="matrix" values="0 0 0 0 0 0 0 0 0 0 0 0 0 0 0 0 0 0 127 0" result="hardAlpha"/>
<feOffset dy="4"/>
<feGaussianBlur stdDeviation="2"/>
<feComposite in2="hardAlpha" operator="out"/>
<feColorMatrix type="matrix" values="0 0 0 0 0.568627 0 0 0 0 0.376471 0 0 0 0 0.843137 0 0 0 0.12 0"/>
<feBlend mode="normal" in2="BackgroundImageFix" result="effect1_dropShadow_7271_16457"/>
<feBlend mode="normal" in="SourceGraphic" in2="effect1_dropShadow_7271_16457" result="shape"/>
</filter>
<radialGradient id="paint0_radial_7271_16457" cx="0" cy="0" r="1" gradientUnits="userSpaceOnUse" gradientTransform="translate(-3.84028 -10.8454) rotate(54.3731) scale(78.6526 147.452)">
<stop stop-color="#F2E1EB"/>
<stop offset="1" stop-color="white" stop-opacity="0"/>
</radialGradient>
<radialGradient id="paint1_radial_7271_16457" cx="0" cy="0" r="1" gradientUnits="userSpaceOnUse" gradientTransform="translate(65.719 98.7506) rotate(-121.274) scale(82.8142 134.383)">
<stop stop-color="white"/>
<stop offset="1" stop-color="#F6E8FF"/>
</radialGradient>
</defs>
</svg>
