<svg width="24" height="24" viewBox="0 0 24 24" fill="none" xmlns="http://www.w3.org/2000/svg">
<g opacity="0.5">
<path fill-rule="evenodd" clip-rule="evenodd" d="M12 5C10.3431 5 9 6.34315 9 8V9L15 9V8C15 6.34315 13.6569 5 12 5ZM7 8L7 9C5.34315 9 4 10.3431 4 12L4 18C4 19.6569 5.34315 21 7 21H17C18.6569 21 20 19.6569 20 18V12C20 10.3431 18.6569 9 17 9V8C17 5.23858 14.7614 3 12 3C9.23858 3 7 5.23858 7 8ZM7 11C6.44772 11 6 11.4477 6 12L6 18C6 18.5523 6.44772 19 7 19H17C17.5523 19 18 18.5523 18 18V12C18 11.4477 17.5523 11 17 11L7 11ZM13 14C13 13.4477 12.5523 13 12 13C11.4477 13 11 13.4477 11 14V16C11 16.5523 11.4477 17 12 17C12.5523 17 13 16.5523 13 16V14Z" fill="black"/>
</g>
</svg>
