<svg width="261" height="318" viewBox="0 0 261 318" fill="none" xmlns="http://www.w3.org/2000/svg">
<g clip-path="url(#clip0_6650_71543)">
<path d="M17.4902 220.764H62.0814L65.355 202.325H61.6839L61.4735 202.837C59.2989 208.479 56.7268 212.162 53.8974 214.004C51.0213 215.869 47.4204 216.825 43.0244 216.825C40.5925 216.825 38.9791 216.522 38.4179 216.149C37.8801 215.846 37.4826 215.076 37.4826 213.538V176.775C37.4826 174.117 38.3244 173.744 38.9324 173.371C39.6338 172.811 41.3408 172.485 44.3104 172.415H45.0821V168.988H17.4902V172.392H18.2385C20.3429 172.532 21.7693 172.835 22.3539 173.184C23.4529 173.791 24.0141 174.863 24.0608 176.868V212.885C24.0374 214.913 23.4529 215.985 22.2837 216.615C21.629 216.965 20.2494 217.244 18.2853 217.314H17.5136V220.741L17.4902 220.764Z" fill="white"/>
<path d="M67.0156 217.338H67.7873C69.8216 217.291 71.2479 217.011 71.9728 216.662C73.1653 216.009 73.7733 214.937 73.7967 212.885V176.868C73.7967 174.816 73.1653 173.744 72.0663 173.161C71.435 172.812 69.9385 172.509 67.7873 172.439H67.0156V169.012H94.5841V172.415H93.8358C91.5677 172.509 90.001 172.812 89.3931 173.138C88.2707 173.744 87.6627 174.816 87.6393 176.891V212.908C87.6393 214.867 88.1538 215.916 88.9956 216.405C89.9543 217.011 91.5443 217.361 93.7891 217.361H94.5841V220.788H67.0156V217.361V217.338Z" fill="white"/>
<path d="M97.5537 217.361H98.3253C100.991 217.268 102.534 216.685 103.002 216.032C103.633 215.239 104.007 213.981 104.007 212.139V177.264C101.903 174.863 100.547 173.441 100.126 173.091C99.7517 172.765 99.1905 172.532 98.3954 172.438L97.694 172.345V168.988H114.6L139.292 199.014V178.966C139.292 176.541 138.824 174.933 138.123 174.094C137.468 173.301 135.831 172.648 133.166 172.438L132.441 172.392V169.012H150.002V172.345L149.347 172.438C147.102 172.788 145.629 173.324 145.091 173.814C144.647 174.14 144.179 175.422 144.203 177.614V222.21H140.976L108.894 183.209V210.787C108.894 213.001 109.222 214.493 109.713 215.216C110.484 216.405 112.191 217.221 115.161 217.338H115.909V220.764H97.5303V217.361H97.5537Z" fill="white"/>
<path d="M152.761 217.361H153.509C155.567 217.244 157.016 216.941 157.694 216.545C158.77 215.939 159.355 214.843 159.378 212.885V176.868C159.355 174.84 158.747 173.791 157.624 173.185C157.04 172.835 155.59 172.532 153.509 172.439H152.761V169.012H197.235V185.563H193.868L193.751 184.934C192.839 180.225 191.272 177.148 189.261 175.562C187.297 173.977 183.322 173.068 177.43 173.091C175.232 173.045 173.852 173.394 173.618 173.628C173.314 173.837 172.987 174.513 172.987 175.842V192.324C176.705 192.277 179.113 191.485 180.236 190.249C181.545 188.897 182.714 186.123 183.486 181.997L183.603 181.367H186.946V207.92H183.556L183.462 207.244C182.948 203.094 181.849 200.273 180.423 198.758C179.137 197.383 176.658 196.52 172.964 196.427V213.631C172.964 215.1 173.338 215.869 173.852 216.195C174.32 216.568 175.91 216.918 178.388 216.895C183.018 216.895 186.736 215.986 189.589 214.237C192.371 212.535 194.967 209.202 197.282 204.213L197.492 203.747H201.023L197.726 220.788H152.737V217.384L152.761 217.361Z" fill="white"/>
<path d="M205.278 202.652V201.882H208.856L208.996 202.488C210.165 207.943 212.036 211.813 214.515 214.191C217.04 216.592 219.846 217.734 223.073 217.734C226.276 217.734 228.357 216.919 229.55 215.427C230.859 213.818 231.467 212.186 231.467 210.461C231.467 208.41 230.836 206.848 229.526 205.589C228.685 204.796 226.767 203.584 223.844 202.139L219.121 199.738C214.351 197.36 210.937 194.959 208.879 192.511C206.822 190.04 205.793 186.963 205.816 183.396C205.816 179.573 207.172 175.983 209.838 172.719C212.574 169.362 216.783 167.707 222.231 167.73C225.013 167.73 227.703 168.15 230.298 168.989C232.753 169.805 234.367 170.201 234.367 170.178C235.021 170.178 235.279 169.991 235.395 169.828C235.629 169.478 235.863 168.966 236.027 168.243L236.191 167.66H239.815V185.424H236.331L236.191 184.841C235.255 181.181 233.618 178.081 231.233 175.47C228.895 172.882 226.183 171.67 222.862 171.647C220.524 171.647 218.817 172.276 217.554 173.465C216.268 174.724 215.66 176.122 215.66 177.894C215.66 180.109 216.268 181.601 217.414 182.58C218.583 183.652 221.529 185.401 226.112 187.685L231.607 190.436C234.109 191.695 236.144 193.117 237.687 194.702C240.54 197.639 241.989 201.276 241.989 205.496C241.989 209.435 240.423 213.165 237.406 216.592C234.273 220.159 229.339 221.837 222.769 221.837C221.225 221.837 219.682 221.698 218.139 221.418C216.572 221.115 215.029 220.672 213.532 220.066L212.153 219.553C211.849 219.483 211.545 219.39 211.218 219.343C211.007 219.273 210.797 219.273 210.61 219.273C210.002 219.273 209.815 219.413 209.721 219.576C209.511 219.926 209.277 220.485 209.066 221.255L208.926 221.837H205.372V202.675" fill="white"/>
<path d="M69.985 72.4539C89.2058 48.8854 110.18 26.7855 132.792 6.43411H127.413C145.255 22.1231 161.833 39.4906 177.546 57.2777C191.787 73.4097 205.255 90.2876 217.227 108.168C229.199 126.048 239.979 145.001 246.877 165.399C254.429 187.779 256.019 211.067 247.742 233.587C245.52 239.601 243.299 245.336 239.862 250.791C236.612 255.92 232.824 260.629 228.755 265.128C222.652 271.842 215.965 278.066 208.856 283.731C208.459 284.058 208.061 284.361 207.64 284.687C207.173 285.037 208.435 284.104 207.664 284.687C205.372 286.319 203.081 287.951 200.719 289.466C194.663 293.382 188.279 296.809 181.685 299.723C167.702 305.878 152.48 309.514 137.211 310.354C109.829 311.822 82.6352 303.989 59.7901 288.976C36.945 273.963 16.9994 250.675 10.2183 223.703C2.5955 193.444 12.6268 162.135 26.7968 135.396C30.4445 128.543 34.4196 121.852 38.5818 115.301C41.2241 111.175 34.6301 107.375 32.0112 111.478C14.9183 138.287 0.140294 169.012 -2.95223e-06 201.463C-0.1403 231.955 14.8949 259.743 36.7813 280.351C57.2647 299.653 83.8277 312.731 111.77 316.695C142.145 321.007 173.431 314.41 199.83 298.884C216.876 288.86 232.333 274.639 243.767 258.577C251.787 247.294 256.768 233.587 259.293 220.043C261.561 207.92 261.561 195.868 259.48 183.746C255.786 162.275 246.432 141.901 235.583 123.158C224.125 103.342 210.516 84.8093 195.972 67.1621C176.938 44.0598 156.221 22.0532 133.914 2.05144C133.54 1.72507 133.166 1.37539 132.792 1.04902C131.201 -0.349704 129.027 -0.396328 127.413 1.04902C104.779 21.4005 83.8043 43.5003 64.607 67.0688C61.5438 70.8221 66.8985 76.2071 69.985 72.4306V72.4539Z" fill="white"/>
<path d="M22.6585 113.903C20.6475 113.903 18.5665 112.108 17.8182 109.8C15.9242 103.506 16.0411 96.582 16.5555 89.9847C16.8595 86.3014 17.1869 82.6414 18.1222 79.0746C18.8704 76.3471 20.858 74.8785 23.5938 74.8785C27.2883 74.8785 28.434 79.9139 25.0669 81.4758C24.8565 81.569 24.9734 81.8954 24.8565 82.1052C24.2251 87.5602 23.8978 93.0152 24.1316 98.5635C26.236 93.2251 32.7599 79.1679 37.1792 75.2748C38.1379 74.4355 39.1902 74.1092 40.3359 74.1092C42.23 74.1092 44.124 75.2748 44.7553 77.4661C45.3866 79.5642 45.5036 81.7788 45.5971 84.0634C47.1637 80.4967 50.7413 74.7386 54.4358 73.1534C55.1841 72.7337 55.909 72.6172 56.6572 72.6172C61.1701 72.6172 62.7601 77.7692 63.3915 81.3126C64.6542 89.5884 64.7477 97.9807 64.4437 106.373C64.2333 108.798 63.485 111.618 60.5388 111.618C58.4343 111.618 56.5403 109.847 56.9612 107.422C57.3821 105.231 56.9612 93.9944 56.8676 91.803C56.7741 88.0265 56.6572 84.3665 55.909 80.6832C53.9214 83.1076 52.3314 85.8351 51.0687 88.6559C49.1747 92.7355 47.7951 96.9317 46.1115 101.035C45.4802 103.016 44.124 104.811 41.9026 104.811C39.6812 104.811 38.629 103.552 38.2081 101.664C37.9041 100.825 37.9976 96.955 38.1146 96.1158C38.2081 92.549 38.325 89.0988 38.325 85.5321C36.0101 89.3086 33.9056 93.295 32.1285 97.3746C31.3803 99.1696 27.5923 109.334 26.54 111.012C25.8152 112.481 24.4356 113.856 22.6585 113.856V113.903Z" fill="white"/>
<path d="M85.0438 134.883C83.4771 134.883 81.8871 133.928 81.4662 131.946C81.1622 130.384 82.1911 124.09 82.5184 122.621C83.8747 114.649 85.6751 106.886 87.7796 99.1227C85.8856 100.382 83.3602 101.64 81.0453 101.64C79.8996 101.64 78.6369 101.337 77.4677 100.708C73.5628 98.8197 69.0499 90.2175 68.5121 86.441C68.3016 85.3919 68.5121 82.035 69.0499 80.9859C69.6812 79.7271 70.827 79.0977 71.9961 79.0977C73.5628 79.0977 75.1528 80.1467 75.4568 82.035C75.7842 83.2938 75.0359 84.5527 75.3633 85.7183C75.6673 86.6508 77.6782 90.1243 78.0991 90.9635C78.6369 91.6862 80.11 93.9008 80.8349 94.2272C81.1622 94.437 81.8871 94.1339 82.1911 93.9241C84.9269 92.572 87.2418 90.031 89.1358 87.5133C90.0945 86.1612 90.8194 84.576 92.199 83.6202C92.9238 83.1073 94.093 82.9908 94.9348 83.2006C97.4601 83.7368 98.6293 86.5575 97.6706 88.9587C97.6706 89.285 97.577 89.4948 97.577 89.7979C97.1561 93.0383 92.9472 110.779 92.2223 113.926C90.9597 119.591 89.9074 125.256 88.7383 130.92C88.7383 133.228 87.4756 134.907 85.0438 134.907V134.883Z" fill="white"/>
</g>
<defs>
<clipPath id="clip0_6650_71543">
<rect width="261" height="318" fill="white"/>
</clipPath>
</defs>
</svg>
