<svg width="262" height="321" viewBox="0 0 262 321" fill="none" xmlns="http://www.w3.org/2000/svg">
<path d="M81.3677 32.1047L85.615 27.2316C85.8536 26.9689 86.2831 27.1122 86.307 27.4466L87.0944 33.8485C87.1183 34.1351 86.8558 34.374 86.5695 34.2784L81.5347 32.7258C81.2484 32.6302 81.1529 32.2958 81.3438 32.0808L81.3677 32.1047ZM97.8321 47.0821C97.9515 47.3449 98.3094 47.3927 98.5003 47.1777L102.748 42.3046C102.986 42.0419 102.795 41.6358 102.437 41.6358L95.9948 41.7313C95.7085 41.7313 95.5176 42.0419 95.6369 42.3046L97.8321 47.0821ZM97.7606 55.7055L96.2096 60.7458C96.1141 61.0324 96.3527 61.2952 96.6391 61.2713L103.034 60.483C103.368 60.4352 103.511 60.0053 103.249 59.7903L98.381 55.5383C98.1662 55.3472 97.8083 55.4428 97.7367 55.7294L97.7606 55.7055ZM64.2589 36.6433C64.2828 36.93 64.6168 37.0972 64.8555 36.93L69.3653 34.2068C69.6039 34.0635 69.6278 33.7051 69.3653 33.5379L64.068 29.8354C63.7817 29.6443 63.3999 29.8593 63.4476 30.2176L64.2351 36.6194L64.2589 36.6433ZM74.8296 72.5223L69.7948 70.9696C69.5085 70.8741 69.246 71.1129 69.2699 71.3996L70.0573 77.8014C70.105 78.1359 70.5345 78.2792 70.7493 78.0164L74.9966 73.1434C75.1875 72.9284 75.0921 72.5701 74.8057 72.4984L74.8296 72.5223ZM91.9622 68.4375C91.9383 68.1509 91.6043 67.9837 91.3657 68.1509L86.8558 70.8741C86.6172 71.0174 86.5934 71.3757 86.8558 71.5429L92.1531 75.2455C92.4394 75.4366 92.8212 75.2216 92.7735 74.8633L91.9861 68.4614L91.9622 68.4375ZM58.389 57.9987C58.2697 57.736 57.9118 57.6882 57.7209 57.9032L53.4735 62.7762C53.2349 63.039 53.4258 63.4451 53.7837 63.4451L60.2263 63.3495C60.5127 63.3495 60.7036 63.039 60.5842 62.7762L58.389 57.9987ZM58.5322 49.1603L60.0832 44.1201C60.1786 43.8334 59.94 43.5707 59.6536 43.5946L53.2587 44.3828C52.9247 44.4306 52.7815 44.8606 53.044 45.0756L57.8879 49.3276C58.1026 49.5187 58.4606 49.4231 58.5322 49.1365V49.1603ZM73.4218 67.6493C81.7256 70.2052 90.5544 65.5472 93.1076 57.2104C95.6607 48.8976 91.0077 40.0592 82.6801 37.5033C74.3524 34.9473 65.5475 39.6054 62.9943 47.9421C60.4411 56.2788 65.0941 65.0933 73.4218 67.6493Z" fill="url(#paint0_linear_7_17337)"/>
<path d="M239.499 251.679C239.666 251.798 239.738 252.013 239.69 252.228L238.902 254.712C238.855 254.856 239.022 254.975 239.141 254.88L241.241 253.327C241.408 253.207 241.646 253.207 241.813 253.327L243.937 254.856C244.056 254.951 244.224 254.832 244.176 254.688L243.341 252.204C243.269 252.013 243.341 251.774 243.508 251.655L245.607 250.102C245.727 250.006 245.655 249.815 245.512 249.815H242.911C242.696 249.815 242.505 249.696 242.458 249.505L241.623 247.021C241.575 246.877 241.384 246.877 241.336 247.021L240.549 249.505C240.477 249.696 240.31 249.839 240.095 249.839H237.495C237.351 249.839 237.28 250.054 237.399 250.15L239.523 251.679H239.499Z" fill="url(#paint1_linear_7_17337)"/>
<path d="M259.113 271.219H256.512C256.297 271.219 256.106 271.099 256.058 270.908L255.223 268.424C255.175 268.281 254.985 268.281 254.937 268.424L254.149 270.908C254.078 271.099 253.911 271.243 253.696 271.243H251.095C250.952 271.243 250.88 271.458 251 271.553L253.123 273.082C253.29 273.201 253.362 273.416 253.314 273.631L252.527 276.116C252.479 276.259 252.646 276.378 252.765 276.283L254.865 274.73C255.032 274.611 255.271 274.611 255.438 274.73L257.562 276.259C257.681 276.355 257.848 276.235 257.8 276.092L256.965 273.607C256.893 273.416 256.965 273.177 257.132 273.058L259.232 271.505C259.351 271.41 259.28 271.219 259.136 271.219H259.113Z" fill="url(#paint2_linear_7_17337)"/>
<path d="M238.401 268.4C238.568 268.52 238.64 268.735 238.592 268.95L237.805 271.434C237.757 271.577 237.924 271.697 238.043 271.601L240.143 270.049C240.31 269.929 240.549 269.929 240.716 270.049L242.84 271.577C242.959 271.673 243.126 271.553 243.078 271.41L242.243 268.926C242.171 268.735 242.243 268.496 242.41 268.376L244.51 266.824C244.629 266.728 244.558 266.537 244.414 266.537H241.813C241.599 266.537 241.408 266.418 241.36 266.227L240.525 263.742C240.477 263.599 240.286 263.599 240.239 263.742L239.451 266.227C239.38 266.418 239.213 266.561 238.998 266.561H236.397C236.254 266.561 236.182 266.776 236.301 266.872L238.425 268.4H238.401Z" fill="url(#paint3_linear_7_17337)"/>
<path d="M254.627 282.517C253.72 282.732 252.814 282.9 251.859 282.995C239.833 284.285 229.071 275.566 227.783 263.527C227.138 257.531 228.976 251.846 232.483 247.498C232.674 247.26 232.436 246.925 232.126 247.021C222.247 250.413 215.78 260.589 217.665 271.505C219.527 282.326 229.381 290.209 240.334 289.612C246.108 289.301 251.191 286.817 254.89 283.019C255.104 282.804 254.889 282.422 254.603 282.494L254.627 282.517Z" fill="url(#paint4_linear_7_17337)"/>
<path d="M102.152 30.0984C118.926 12.4933 131 1.60059 131 1.60059C131 1.60059 260.807 116.117 260.807 204.405C260.807 216.182 258.159 230.419 253.339 241.813M59.1292 79.9038C29.1591 118.673 1.19336 163.414 1.19336 204.405C1.19336 259.776 59.3201 319.806 131 319.806C161.662 319.806 189.819 309.247 212.034 292.837" stroke="url(#paint5_linear_7_17337)" stroke-miterlimit="10"/>
<path d="M23.5516 216.038H66.1684L69.2943 198.361H65.7866L65.5957 198.839C63.5197 204.237 61.062 207.796 58.3418 209.564C55.5977 211.356 52.1378 212.263 47.962 212.263C45.6474 212.263 44.0964 211.977 43.5476 211.618C43.0465 211.308 42.6647 210.591 42.6647 209.11V173.828C42.6647 171.272 43.476 170.914 44.0487 170.556C44.7407 170.006 46.3394 169.72 49.179 169.648H49.9187V166.352H23.5516V169.624H24.2675C26.2718 169.744 27.6558 170.054 28.1808 170.389C29.2307 170.986 29.7795 171.989 29.8034 173.924V208.489C29.7795 210.424 29.2068 211.451 28.0853 212.072C27.4411 212.407 26.1525 212.669 24.2436 212.741H23.5039V216.038H23.5516Z" fill="white"/>
<path d="M70.8696 212.741H71.6093C73.5421 212.693 74.926 212.431 75.618 212.096C76.7634 211.475 77.336 210.424 77.3838 208.465V173.9C77.3838 171.941 76.7872 170.89 75.7135 170.341C75.1169 170.006 73.6852 169.72 71.6093 169.648H70.8696V166.352H97.2366V169.624H96.5207C94.3493 169.72 92.8699 170.006 92.2734 170.317C91.1996 170.89 90.6269 171.917 90.6031 173.924V208.489C90.6031 210.376 91.1042 211.379 91.8916 211.857C92.7983 212.431 94.3255 212.765 96.473 212.765H97.2127V216.038H70.8457V212.765L70.8696 212.741Z" fill="white"/>
<path d="M100.075 212.765H100.815C103.344 212.669 104.824 212.12 105.301 211.499C105.897 210.735 106.279 209.516 106.279 207.772V174.306C104.251 172.013 102.962 170.627 102.557 170.293C102.199 169.982 101.65 169.767 100.91 169.672L100.242 169.6V166.375H116.397L139.996 195.184V175.93C139.996 173.589 139.566 172.061 138.874 171.249C138.254 170.484 136.679 169.863 134.15 169.648L133.458 169.6V166.352H150.256V169.529L149.612 169.624C147.464 169.959 146.056 170.484 145.555 170.938C145.126 171.248 144.696 172.467 144.696 174.593V217.375H141.618L110.98 179.967V206.435C110.98 208.561 111.29 209.994 111.767 210.687C112.507 211.833 114.13 212.622 116.969 212.741H117.685V216.014H100.123V212.765H100.075Z" fill="white"/>
<path d="M152.81 212.765H153.525C155.506 212.669 156.89 212.359 157.534 211.977C158.584 211.403 159.109 210.352 159.133 208.465V173.9C159.109 171.965 158.536 170.938 157.463 170.365C156.89 170.03 155.53 169.744 153.525 169.648H152.81V166.352H195.331V182.237H192.11L191.99 181.616C191.131 177.101 189.628 174.139 187.695 172.634C185.81 171.129 182.016 170.221 176.409 170.245C174.309 170.197 172.973 170.532 172.758 170.747C172.472 170.962 172.161 171.607 172.161 172.849V188.662C175.717 188.615 178.007 187.85 179.105 186.68C180.37 185.366 181.467 182.714 182.207 178.749L182.326 178.128H185.524V203.592H182.279L182.207 202.923C181.706 198.934 180.68 196.235 179.296 194.778C178.055 193.464 175.693 192.628 172.161 192.532V209.062C172.161 210.472 172.519 211.212 173.02 211.523C173.474 211.881 175.001 212.216 177.363 212.192C181.801 212.192 185.357 211.332 188.053 209.66C190.726 208.011 193.207 204.834 195.402 200.033L195.593 199.603H198.958L195.808 215.966H152.81V212.717V212.765Z" fill="white"/>
<path d="M203.015 198.648V197.907H206.451L206.57 198.505C207.692 203.736 209.481 207.462 211.843 209.732C214.253 212.025 216.926 213.124 220.004 213.148C223.058 213.148 225.039 212.359 226.184 210.926C227.449 209.373 228.022 207.821 228.022 206.172C228.022 204.19 227.401 202.709 226.16 201.49C225.373 200.726 223.512 199.579 220.72 198.17L216.186 195.853C211.629 193.56 208.383 191.267 206.403 188.926C204.446 186.561 203.468 183.599 203.468 180.183C203.468 176.528 204.78 173.064 207.31 169.935C209.911 166.71 213.943 165.134 219.145 165.134C221.794 165.134 224.371 165.54 226.852 166.352C229.191 167.14 230.718 167.522 230.742 167.499C231.386 167.499 231.601 167.331 231.72 167.164C231.959 166.83 232.15 166.328 232.341 165.635L232.508 165.086H235.967V182.118H232.651L232.508 181.544C231.625 178.033 230.05 175.071 227.783 172.539C225.54 170.055 222.939 168.884 219.789 168.884C217.57 168.884 215.924 169.505 214.707 170.652C213.49 171.846 212.893 173.208 212.893 174.904C212.893 177.03 213.49 178.463 214.588 179.395C215.709 180.422 218.525 182.118 222.891 184.291L228.141 186.943C230.551 188.161 232.484 189.499 233.963 191.028C236.683 193.846 238.067 197.334 238.067 201.371C238.067 205.145 236.564 208.728 233.701 212.025C230.718 215.441 225.993 217.065 219.718 217.065C218.238 217.065 216.783 216.922 215.279 216.659C213.776 216.372 212.297 215.942 210.865 215.369L209.553 214.867C209.266 214.796 208.98 214.724 208.646 214.676C208.431 214.629 208.24 214.605 208.073 214.605C207.477 214.605 207.31 214.748 207.214 214.891C207 215.226 206.785 215.751 206.594 216.516L206.451 217.089H203.038V198.696" fill="white"/>
<defs>
<linearGradient id="paint0_linear_7_17337" x1="59.5582" y1="33.944" x2="96.751" y2="71.0726" gradientUnits="userSpaceOnUse">
<stop stop-color="#F8E800"/>
<stop offset="1" stop-color="#FBB80A"/>
</linearGradient>
<linearGradient id="paint1_linear_7_17337" x1="241.479" y1="254.927" x2="241.479" y2="246.925" gradientUnits="userSpaceOnUse">
<stop stop-color="#E3F3F9"/>
<stop offset="1" stop-color="white"/>
</linearGradient>
<linearGradient id="paint2_linear_7_17337" x1="255.104" y1="276.331" x2="255.104" y2="268.328" gradientUnits="userSpaceOnUse">
<stop stop-color="#E3F3F9"/>
<stop offset="1" stop-color="white"/>
</linearGradient>
<linearGradient id="paint3_linear_7_17337" x1="240.406" y1="271.625" x2="240.406" y2="263.623" gradientUnits="userSpaceOnUse">
<stop stop-color="#E3F3F9"/>
<stop offset="1" stop-color="white"/>
</linearGradient>
<linearGradient id="paint4_linear_7_17337" x1="236.182" y1="289.66" x2="236.182" y2="247.021" gradientUnits="userSpaceOnUse">
<stop stop-color="#E3F3F9"/>
<stop offset="1" stop-color="white"/>
</linearGradient>
<linearGradient id="paint5_linear_7_17337" x1="0.00028116" y1="160.5" x2="262" y2="160.5" gradientUnits="userSpaceOnUse">
<stop stop-color="white"/>
<stop offset="0.09" stop-color="#FFFEF7"/>
<stop offset="0.22" stop-color="#FFFBE3"/>
<stop offset="0.37" stop-color="#FFF7C2"/>
<stop offset="0.55" stop-color="#FFF194"/>
<stop offset="0.74" stop-color="#FFE95A"/>
<stop offset="0.95" stop-color="#FFE013"/>
<stop offset="1" stop-color="#FFDE00"/>
</linearGradient>
</defs>
</svg>
