<svg width="21" height="24" viewBox="0 0 21 24" fill="none" xmlns="http://www.w3.org/2000/svg">
<path d="M10.7186 17.0624C8.38533 17.0624 6.49658 14.9984 6.32278 12.3828L3.09591 9.53276C2.67171 10.141 2.28134 10.784 1.96635 11.4871C1.89598 11.6462 1.85932 11.8219 1.85932 12.0002C1.85932 12.1784 1.89598 12.3542 1.96635 12.5133C3.63454 16.2331 6.93708 18.7499 10.7186 18.7499C11.5464 18.7499 12.3449 18.6093 13.1146 18.3822L11.5184 16.9707C11.2548 17.0289 10.9871 17.0596 10.7186 17.0624ZM20.3721 19.105L16.9715 16.1013C18.0045 15.1063 18.8541 13.8866 19.4708 12.5129C19.5412 12.3538 19.5779 12.1781 19.5779 11.9998C19.5779 11.8216 19.5412 11.6458 19.4708 11.4867C17.8026 7.76688 14.5001 5.25007 10.7186 5.25007C9.13483 5.25226 7.5768 5.70793 6.18681 6.57545L2.27335 3.11857C2.22231 3.07318 2.16396 3.03974 2.10161 3.02014C2.03926 3.00054 1.97415 2.99518 1.90999 3.00435C1.84582 3.01353 1.78387 3.03706 1.72767 3.07361C1.67147 3.11016 1.62212 3.159 1.58245 3.21736L0.978599 4.10574C0.898496 4.22351 0.862603 4.37282 0.878813 4.52083C0.895023 4.66884 0.962009 4.80342 1.06504 4.89499L19.1638 20.8814C19.2149 20.9268 19.2732 20.9603 19.3356 20.9799C19.3979 20.9995 19.463 21.0048 19.5272 20.9956C19.5913 20.9865 19.6533 20.9629 19.7095 20.9264C19.7657 20.8898 19.815 20.841 19.8547 20.7826L20.4589 19.8943C20.5389 19.7764 20.5748 19.6271 20.5585 19.4791C20.5423 19.3311 20.4752 19.1965 20.3721 19.105ZM14.7206 14.1129L13.5117 13.0448C13.6135 12.7086 13.6675 12.3558 13.6717 12C13.6777 11.4791 13.5767 10.9638 13.3768 10.4956C13.177 10.0274 12.8838 9.61923 12.5209 9.30397C12.158 8.98871 11.7355 8.77512 11.2873 8.68035C10.839 8.58558 10.3776 8.61227 9.94001 8.75828C10.1255 9.04553 10.2258 9.39301 10.2264 9.75002C10.2218 9.86883 10.2059 9.98671 10.179 10.1016L7.91468 8.10156C8.70124 7.35035 9.69353 6.93842 10.7186 6.93755C11.3004 6.93718 11.8765 7.06787 12.4141 7.32215C12.9517 7.57644 13.4401 7.94932 13.8515 8.41948C14.2629 8.88965 14.5892 9.44788 14.8117 10.0622C15.0342 10.6766 15.1485 11.3351 15.1482 12C15.1482 12.7604 14.9855 13.4692 14.7206 14.1132V14.1129Z" fill="white"/>
</svg>
