<svg width="38" height="38" viewBox="0 0 38 38" fill="none" xmlns="http://www.w3.org/2000/svg">
<path d="M29.8843 14.6549L14.8577 6.03716C14.0445 5.56763 13.1216 5.32166 12.1827 5.32424C11.2438 5.32682 10.3222 5.57785 9.51172 6.05184C8.7012 6.52583 8.03056 7.20589 7.56792 8.02294C7.10529 8.84 6.86713 9.76494 6.87765 10.7038V28.0016C6.87765 29.4126 7.43815 30.7657 8.43584 31.7634C9.43354 32.7611 10.7867 33.3216 12.1977 33.3216C13.1317 33.32 14.0489 33.0733 14.8577 32.606L29.8843 23.9883C30.6917 23.521 31.3621 22.8496 31.8281 22.0414C32.2941 21.2332 32.5395 20.3167 32.5395 19.3838C32.5395 18.4509 32.2941 17.5344 31.8281 16.7263C31.3621 15.9181 30.6917 15.2467 29.8843 14.7794V14.6549ZM28.3288 21.1727L13.3021 29.9149C12.9653 30.1058 12.5848 30.2061 12.1977 30.2061C11.8105 30.2061 11.43 30.1058 11.0932 29.9149C10.7574 29.721 10.4785 29.4421 10.2846 29.1063C10.0907 28.7704 9.9887 28.3894 9.98876 28.0016V10.6416C9.9887 10.2538 10.0907 9.87281 10.2846 9.53694C10.4785 9.20108 10.7574 8.92217 11.0932 8.72827C11.4314 8.54029 11.8108 8.43876 12.1977 8.43271C12.5843 8.44065 12.9632 8.54205 13.3021 8.72827L28.3288 17.4083C28.6647 17.6021 28.9437 17.881 29.1377 18.2168C29.3317 18.5527 29.4339 18.9337 29.4339 19.3216C29.4339 19.7095 29.3317 20.0905 29.1377 20.4264C28.9437 20.7622 28.6647 21.0411 28.3288 21.2349V21.1727Z" fill="white"/>
</svg>
