<svg width="24" height="24" viewBox="0 0 24 24" fill="none" xmlns="http://www.w3.org/2000/svg">
<path fill-rule="evenodd" clip-rule="evenodd" d="M22.3019 12C22.3019 12.718 21.7198 13.3 21.0018 13.3L13.3452 13.3L13.3452 20.9567C13.3452 21.6747 12.7631 22.2567 12.0452 22.2567C11.3272 22.2567 10.7452 21.6747 10.7452 20.9567L10.7452 13.3L3.08848 13.3C2.37051 13.3 1.78848 12.718 1.78848 12C1.78848 11.282 2.37051 10.7 3.08848 10.7L10.7452 10.7L10.7452 3.04331C10.7452 2.32534 11.3272 1.74331 12.0452 1.74331C12.7631 1.74331 13.3452 2.32534 13.3452 3.04331L13.3452 10.7L21.0019 10.7C21.7198 10.7 22.3019 11.282 22.3019 12Z" fill="url(#paint0_linear_2564_52120)"/>
<defs>
<linearGradient id="paint0_linear_2564_52120" x1="2.19458" y1="11.0554" x2="16.3976" y2="2.34528" gradientUnits="userSpaceOnUse">
<stop stop-color="#B63AB4"/>
<stop offset="1" stop-color="#513B9F"/>
</linearGradient>
</defs>
</svg>
