<svg width="30" height="30" viewBox="0 0 30 30" fill="none" xmlns="http://www.w3.org/2000/svg">
<path d="M28.4972 12.3151L26.956 10.8954L27.3437 8.83476C27.4902 8.05132 27.0411 7.28212 26.2894 7.03047L24.3085 6.36099L23.8263 4.3193C23.6466 3.54536 22.9233 3.02782 22.1338 3.09904L20.0536 3.29846L18.7866 1.62713C18.3091 0.995629 17.4344 0.815201 16.7489 1.20455L14.9288 2.23489L13.0992 1.22829C12.4042 0.848438 11.5343 1.03836 11.0662 1.67461L9.82287 3.36019L7.73796 3.18926C6.94844 3.12278 6.23456 3.65457 6.05963 4.42851L5.60577 6.47495L3.63433 7.16817C2.88736 7.42931 2.44768 8.208 2.6037 8.98669L3.01973 11.0426L1.49742 12.4813C0.920642 13.0273 0.835544 13.9152 1.29413 14.561L2.50442 16.2703L1.69598 18.2075C1.38868 18.9387 1.67234 19.7886 2.35313 20.1922L4.15438 21.2606L4.20165 23.3592C4.22056 24.1521 4.81625 24.8121 5.60577 24.9023L7.68123 25.1398L8.57476 27.039C8.91515 27.756 9.72831 28.1168 10.48 27.8794L12.4751 27.2479L14.0589 28.6154C14.6593 29.1329 15.5481 29.1282 16.1391 28.6011L17.7039 27.2099L19.7037 27.8129C20.4602 28.0408 21.2733 27.6752 21.5995 26.9488L22.4694 25.04L24.5401 24.7742C25.3249 24.6744 25.9159 24.005 25.9254 23.212L25.9443 21.1134L27.7313 20.0213C28.4074 19.6082 28.6769 18.7583 28.3601 18.0271L27.528 16.0994L28.7194 14.3758C29.1685 13.7206 29.0693 12.8374 28.4878 12.2961L28.4972 12.3151ZM17.1602 25.6288C11.0662 26.8111 5.20392 22.6423 4.29621 16.4745C3.44522 10.7008 7.30774 5.23094 13.0093 4.11988C19.1033 2.93761 24.9656 7.10644 25.8733 13.2742C26.7243 19.0479 22.8618 24.5178 17.1602 25.6288ZM20.6824 13.6446C22.356 16.0519 21.9777 19.2663 19.7794 21.2843C18.5171 22.4428 16.8387 23.0791 15.0564 23.0791C13.2741 23.0791 11.5957 22.4428 10.3335 21.2843C8.13508 19.2663 7.75214 16.0519 9.43047 13.6446L15.0611 6.41797L20.6918 13.6446H20.6824Z" fill="url(#paint0_linear_68_12816)"/>
<defs>
<linearGradient id="paint0_linear_68_12816" x1="3.45" y1="0.999999" x2="33.1656" y2="8.12359" gradientUnits="userSpaceOnUse">
<stop stop-color="#B63AB4"/>
<stop offset="1" stop-color="#513B9F"/>
</linearGradient>
</defs>
</svg>
