<svg width="87" height="64" viewBox="0 0 87 64" fill="none" xmlns="http://www.w3.org/2000/svg">
<mask id="mask0_938_14183" style="mask-type:alpha" maskUnits="userSpaceOnUse" x="28" y="17" width="31" height="30">
<rect x="28.0742" y="17" width="30" height="30" fill="#D9D9D9"/>
</mask>
<g mask="url(#mask0_938_14183)">
<path d="M56.2706 29.3151L54.7294 27.8954L55.1171 25.8348C55.2637 25.0513 54.8145 24.2821 54.0628 24.0305L52.0819 23.361L51.5997 21.3193C51.42 20.5454 50.6967 20.0278 49.9072 20.099L47.827 20.2985L46.56 18.6271C46.0825 17.9956 45.2079 17.8152 44.5224 18.2045L42.7022 19.2349L40.8726 18.2283C40.1776 17.8484 39.3077 18.0384 38.8397 18.6746L37.5963 20.3602L35.5114 20.1893C34.7219 20.1228 34.008 20.6546 33.8331 21.4285L33.3792 23.4749L31.4078 24.1682C30.6608 24.4293 30.2211 25.208 30.3771 25.9867L30.7932 28.0426L29.2709 29.4813C28.6941 30.0273 28.609 30.9152 29.0676 31.561L30.2779 33.2703L29.4694 35.2075C29.1621 35.9387 29.4458 36.7886 30.1266 37.1922L31.9278 38.2606L31.9751 40.3592C31.994 41.1521 32.5897 41.8121 33.3792 41.9023L35.4547 42.1398L36.3482 44.039C36.6886 44.756 37.5018 45.1168 38.2535 44.8794L40.2485 44.2479L41.8323 45.6154C42.4327 46.1329 43.3215 46.1282 43.9125 45.6011L45.4774 44.2099L47.4772 44.8129C48.2336 45.0408 49.0468 44.6752 49.373 43.9488L50.2429 42.04L52.3136 41.7742C53.0984 41.6744 53.6893 41.005 53.6988 40.212L53.7177 38.1134L55.5048 37.0213C56.1808 36.6082 56.4503 35.7583 56.1335 35.0271L55.3015 33.0994L56.4929 31.3758C56.942 30.7206 56.8427 29.8374 56.2612 29.2961L56.2706 29.3151ZM44.9337 42.6288C38.8397 43.8111 32.9774 39.6423 32.0696 33.4745C31.2187 27.7008 35.0812 22.2309 40.7828 21.1199C46.8767 19.9376 52.7391 24.1064 53.6468 30.2742C54.4978 36.0479 50.6353 41.5178 44.9337 42.6288ZM48.4558 30.6446C50.1294 33.0519 49.7512 36.2663 47.5528 38.2843C46.2905 39.4428 44.6122 40.0791 42.8298 40.0791C41.0475 40.0791 39.3692 39.4428 38.1069 38.2843C35.9085 36.2663 35.5256 33.0519 37.2039 30.6446L42.8346 23.418L48.4652 30.6446H48.4558Z" fill="url(#paint0_linear_938_14183)"/>
</g>
<path d="M32.1015 51.588C33.6255 51.588 34.6455 52.596 34.6455 54.096C34.6455 55.584 33.6015 56.568 32.0295 56.568H30.1215C30.0855 56.568 30.0495 56.592 30.0495 56.64V59.808C30.0495 59.928 29.9775 60 29.8575 60H28.8495C28.7295 60 28.6575 59.928 28.6575 59.808V51.78C28.6575 51.66 28.7295 51.588 28.8495 51.588H32.1015ZM31.8975 55.44C32.7135 55.44 33.2535 54.912 33.2535 54.132C33.2535 53.328 32.7135 52.788 31.8975 52.788H30.1215C30.0855 52.788 30.0495 52.812 30.0495 52.86V55.368C30.0495 55.404 30.0735 55.44 30.1215 55.44H31.8975ZM38.5902 53.796C38.8782 53.796 39.0702 53.856 39.2262 53.928C39.3222 53.976 39.3582 54.06 39.3342 54.168L39.1422 55.164C39.1182 55.296 39.0462 55.32 38.9142 55.284C38.7582 55.236 38.5422 55.212 38.3022 55.248C37.6542 55.284 37.1262 55.728 37.1262 56.46V59.808C37.1262 59.928 37.0542 60 36.9342 60H35.9262C35.8062 60 35.7342 59.928 35.7342 59.808V54.06C35.7342 53.94 35.8062 53.868 35.9262 53.868H36.9342C37.0542 53.868 37.1262 53.94 37.1262 54.06V54.528C37.1262 54.588 37.1622 54.612 37.1982 54.552C37.5102 54.084 37.9662 53.796 38.5902 53.796ZM42.8768 58.92C43.4768 58.896 43.9208 58.644 44.1848 58.26C44.2568 58.152 44.3528 58.128 44.4488 58.2L45.0248 58.656C45.1088 58.728 45.1448 58.812 45.0728 58.92C44.6168 59.64 43.8008 60.096 42.7448 60.096C41.4488 60.096 40.5968 59.436 40.2248 58.392C40.0688 57.96 39.9848 57.456 39.9848 56.904C39.9848 56.376 40.0088 55.992 40.1168 55.632C40.4168 54.504 41.3648 53.772 42.6488 53.772C44.2568 53.772 45.0368 54.708 45.2768 56.232C45.3248 56.532 45.3488 56.868 45.3608 57.216C45.3608 57.336 45.2888 57.408 45.1688 57.408H41.4488C41.4008 57.408 41.3768 57.432 41.3768 57.48C41.3768 57.696 41.4008 57.876 41.4488 58.008C41.6168 58.572 42.1328 58.92 42.8768 58.92ZM42.6368 54.972C42.0128 54.972 41.6288 55.308 41.4848 55.812C41.4368 55.956 41.4008 56.112 41.3888 56.316C41.3768 56.364 41.4008 56.388 41.4488 56.388H43.8608C43.9088 56.388 43.9328 56.364 43.9328 56.316C43.9088 56.136 43.8968 55.992 43.8608 55.884C43.7168 55.332 43.2848 54.972 42.6368 54.972ZM53.1967 53.772C54.4207 53.772 55.1647 54.552 55.1647 55.884V59.808C55.1647 59.928 55.0927 60 54.9727 60H53.9767C53.8567 60 53.7847 59.928 53.7847 59.808V56.172C53.7847 55.44 53.3527 54.972 52.7047 54.972C52.0567 54.972 51.5887 55.428 51.5887 56.16V59.808C51.5887 59.928 51.5167 60 51.3967 60H50.4007C50.2807 60 50.2087 59.928 50.2087 59.808V56.172C50.2087 55.44 49.7767 54.972 49.1167 54.972C48.5167 54.972 48.0967 55.344 48.0247 55.956V59.808C48.0247 59.928 47.9527 60 47.8327 60H46.8247C46.7047 60 46.6327 59.928 46.6327 59.808V54.06C46.6327 53.94 46.7047 53.868 46.8247 53.868H47.8327C47.9527 53.868 48.0247 53.94 48.0247 54.06V54.384C48.0247 54.444 48.0727 54.468 48.1087 54.408C48.4687 53.964 49.0087 53.772 49.6207 53.772C50.4127 53.772 51.0007 54.096 51.3247 54.696C51.3487 54.744 51.3967 54.744 51.4207 54.684C51.8047 54.048 52.4767 53.772 53.1967 53.772ZM57.3739 53.1C56.8459 53.1 56.4739 52.74 56.4739 52.224C56.4739 51.72 56.8459 51.36 57.3739 51.36C57.9019 51.36 58.2619 51.72 58.2619 52.224C58.2619 52.74 57.9019 53.1 57.3739 53.1ZM56.8699 60C56.7499 60 56.6779 59.928 56.6779 59.808V54.06C56.6779 53.94 56.7499 53.868 56.8699 53.868H57.8779C57.9979 53.868 58.0699 53.94 58.0699 54.06V59.808C58.0699 59.928 57.9979 60 57.8779 60H56.8699Z" fill="url(#paint1_linear_938_14183)"/>
<defs>
<linearGradient id="paint0_linear_938_14183" x1="42.7734" y1="18" x2="42.7734" y2="46" gradientUnits="userSpaceOnUse">
<stop stop-color="white"/>
<stop offset="1" stop-color="#FFE6EE"/>
</linearGradient>
<linearGradient id="paint1_linear_938_14183" x1="43.375" y1="47" x2="43.375" y2="63" gradientUnits="userSpaceOnUse">
<stop stop-color="white"/>
<stop offset="1" stop-color="#FFE6EE"/>
</linearGradient>
</defs>
</svg>
