<svg width="30" height="30" viewBox="0 0 30 30" fill="none" xmlns="http://www.w3.org/2000/svg">
<path d="M12.2 19.0334C11.7386 19.0334 11.3506 18.8776 11.036 18.5662C10.7213 18.2547 10.564 17.8706 10.564 17.4138C10.564 16.957 10.7213 16.5729 11.036 16.2614C11.3506 15.9499 11.7386 15.7942 12.2 15.7942C12.6614 15.7942 13.0494 15.9499 13.364 16.2614C13.6787 16.5729 13.836 16.957 13.836 17.4138C13.836 17.8706 13.6787 18.2547 13.364 18.5662C13.0494 18.8776 12.6614 19.0334 12.2 19.0334ZM19.8764 19.0334C19.415 19.0334 19.027 18.8776 18.7124 18.5662C18.3978 18.2547 18.2404 17.8706 18.2404 17.4138C18.2404 16.957 18.3978 16.5729 18.7124 16.2614C19.027 15.9499 19.415 15.7942 19.8764 15.7942C20.3378 15.7942 20.7258 15.9499 21.0405 16.2614C21.3551 16.5729 21.5124 16.957 21.5124 17.4138C21.5124 17.8706 21.3551 18.2547 21.0405 18.5662C20.7258 18.8776 20.3378 19.0334 19.8764 19.0334ZM16.0382 26.3215C18.8906 26.3215 21.3131 25.3352 23.3056 23.3626C25.2981 21.3901 26.2944 18.9918 26.2944 16.168C26.2944 15.6696 26.2629 15.1763 26.2 14.6879C26.1371 14.2004 26.0217 13.7386 25.8539 13.3026C25.4135 13.4064 24.9625 13.484 24.5011 13.5355C24.0397 13.5879 23.5678 13.614 23.0854 13.614C21.1558 13.614 19.3261 13.2037 17.5961 12.3831C15.8654 11.5634 14.3813 10.4164 13.1438 8.94216C12.4727 10.5825 11.5028 12.0152 10.2343 13.2403C8.965 14.4653 7.4809 15.3789 5.78202 15.9811V16.168C5.78202 18.9918 6.77828 21.3901 8.77079 23.3626C10.7633 25.3352 13.1858 26.3215 16.0382 26.3215ZM16.0382 29C14.2554 29 12.5725 28.6628 10.9894 27.9884C9.40545 27.3131 8.03167 26.3995 6.86804 25.2476C5.70358 24.0948 4.78073 22.7343 4.09951 21.1662C3.41744 19.599 3.0764 17.9329 3.0764 16.168C3.0764 15.5035 3.12884 14.8441 3.23371 14.1896C3.33858 13.5359 3.50637 12.908 3.73708 12.3059C2.89813 11.766 2.23242 11.0497 1.73996 10.1568C1.24665 9.264 1 8.27772 1 7.198C1 5.4746 1.60824 4.01075 2.82472 2.80645C4.0412 1.60215 5.51985 1 7.26067 1C8.33034 1 9.32156 1.25415 10.2343 1.76245C11.1463 2.27158 11.8854 2.9518 12.4517 3.80311C13.039 3.65777 13.6262 3.54357 14.2135 3.46051C14.8007 3.37746 15.409 3.33593 16.0382 3.33593C17.821 3.33593 19.5043 3.67313 21.0883 4.34754C22.6714 5.02278 24.0452 5.93639 25.2096 7.08837C26.3732 8.24117 27.2961 9.59622 27.9782 11.1535C28.6594 12.7108 29 14.3823 29 16.168C29 17.9329 28.6594 19.599 27.9782 21.1662C27.2961 22.7343 26.3732 24.0948 25.2096 25.2476C24.0452 26.3995 22.6764 27.3131 21.1034 27.9884C19.5303 28.6628 17.8419 29 16.0382 29Z" fill="url(#paint0_linear_68_12818)"/>
<defs>
<linearGradient id="paint0_linear_68_12818" x1="3.45" y1="0.999999" x2="33.1656" y2="8.12359" gradientUnits="userSpaceOnUse">
<stop stop-color="#B63AB4"/>
<stop offset="1" stop-color="#513B9F"/>
</linearGradient>
</defs>
</svg>
