<svg width="86" height="64" viewBox="0 0 86 64" fill="none" xmlns="http://www.w3.org/2000/svg">
<path d="M38.7254 36.0334C38.264 36.0334 37.876 35.8776 37.5613 35.5662C37.2467 35.2547 37.0894 34.8706 37.0894 34.4138C37.0894 33.957 37.2467 33.5729 37.5613 33.2614C37.876 32.9499 38.264 32.7942 38.7254 32.7942C39.1868 32.7942 39.5748 32.9499 39.8894 33.2614C40.204 33.5729 40.3613 33.957 40.3613 34.4138C40.3613 34.8706 40.204 35.2547 39.8894 35.5662C39.5748 35.8776 39.1868 36.0334 38.7254 36.0334ZM46.4018 36.0334C45.9404 36.0334 45.5524 35.8776 45.2378 35.5662C44.9231 35.2547 44.7658 34.8706 44.7658 34.4138C44.7658 33.957 44.9231 33.5729 45.2378 33.2614C45.5524 32.9499 45.9404 32.7942 46.4018 32.7942C46.8632 32.7942 47.2512 32.9499 47.5658 33.2614C47.8804 33.5729 48.0378 33.957 48.0378 34.4138C48.0378 34.8706 47.8804 35.2547 47.5658 35.5662C47.2512 35.8776 46.8632 36.0334 46.4018 36.0334ZM42.5636 43.3215C45.416 43.3215 47.8385 42.3352 49.831 40.3626C51.8235 38.3901 52.8198 35.9918 52.8198 33.168C52.8198 32.6696 52.7883 32.1763 52.7254 31.6879C52.6625 31.2004 52.5471 30.7386 52.3793 30.3026C51.9389 30.4064 51.4879 30.484 51.0265 30.5355C50.5651 30.5879 50.0932 30.614 49.6108 30.614C47.6812 30.614 45.8514 30.2037 44.1215 29.3831C42.3908 28.5634 40.9067 27.4164 39.6692 25.9422C38.998 27.5825 38.0282 29.0152 36.7597 30.2403C35.4904 31.4653 34.0063 32.3789 32.3074 32.9811V33.168C32.3074 35.9918 33.3037 38.3901 35.2962 40.3626C37.2887 42.3352 39.7112 43.3215 42.5636 43.3215ZM42.5636 46C40.7808 46 39.0979 45.6628 37.5148 44.9884C35.9308 44.3131 34.5571 43.3995 33.3934 42.2476C32.229 41.0948 31.3061 39.7343 30.6249 38.1662C29.9428 36.599 29.6018 34.9329 29.6018 33.168C29.6018 32.5035 29.6542 31.8441 29.7591 31.1896C29.864 30.5359 30.0318 29.908 30.2625 29.3059C29.4235 28.766 28.7578 28.0497 28.2653 27.1568C27.772 26.264 27.5254 25.2777 27.5254 24.198C27.5254 22.4746 28.1336 21.0108 29.3501 19.8065C30.5666 18.6022 32.0452 18 33.7861 18C34.8557 18 35.8469 18.2541 36.7597 18.7624C37.6717 19.2716 38.4108 19.9518 38.9771 20.8031C39.5643 20.6578 40.1516 20.5436 40.7389 20.4605C41.3261 20.3775 41.9344 20.3359 42.5636 20.3359C44.3464 20.3359 46.0297 20.6731 47.6137 21.3475C49.1968 22.0228 50.5705 22.9364 51.735 24.0884C52.8986 25.2412 53.8215 26.5962 54.5036 28.1535C55.1848 29.7108 55.5254 31.3823 55.5254 33.168C55.5254 34.9329 55.1848 36.599 54.5036 38.1662C53.8215 39.7343 52.8986 41.0948 51.735 42.2476C50.5705 43.3995 49.2018 44.3131 47.6288 44.9884C46.0557 45.6628 44.3673 46 42.5636 46Z" fill="url(#paint0_linear_1076_15694)"/>
<path d="M29.748 51.588C31.272 51.588 32.292 52.596 32.292 54.096C32.292 55.584 31.248 56.568 29.676 56.568H27.768C27.732 56.568 27.696 56.592 27.696 56.64V59.808C27.696 59.928 27.624 60 27.504 60H26.496C26.376 60 26.304 59.928 26.304 59.808V51.78C26.304 51.66 26.376 51.588 26.496 51.588H29.748ZM29.544 55.44C30.36 55.44 30.9 54.912 30.9 54.132C30.9 53.328 30.36 52.788 29.544 52.788H27.768C27.732 52.788 27.696 52.812 27.696 52.86V55.368C27.696 55.404 27.72 55.44 27.768 55.44H29.544ZM36.2367 53.796C36.5247 53.796 36.7167 53.856 36.8727 53.928C36.9687 53.976 37.0047 54.06 36.9807 54.168L36.7887 55.164C36.7647 55.296 36.6927 55.32 36.5607 55.284C36.4047 55.236 36.1887 55.212 35.9487 55.248C35.3007 55.284 34.7727 55.728 34.7727 56.46V59.808C34.7727 59.928 34.7007 60 34.5807 60H33.5727C33.4527 60 33.3807 59.928 33.3807 59.808V54.06C33.3807 53.94 33.4527 53.868 33.5727 53.868H34.5807C34.7007 53.868 34.7727 53.94 34.7727 54.06V54.528C34.7727 54.588 34.8087 54.612 34.8447 54.552C35.1567 54.084 35.6127 53.796 36.2367 53.796ZM40.3913 60.096C39.1313 60.096 38.1593 59.412 37.8113 58.284C37.6793 57.9 37.6073 57.396 37.6073 56.916C37.6073 56.424 37.6793 55.92 37.7993 55.548C38.1593 54.432 39.1193 53.772 40.4033 53.772C41.6273 53.772 42.5513 54.432 42.9233 55.536C43.0673 55.92 43.1393 56.424 43.1393 56.904C43.1393 57.372 43.0673 57.876 42.9353 58.272C42.5753 59.412 41.6273 60.096 40.3913 60.096ZM40.3913 58.896C40.9793 58.896 41.4233 58.536 41.6033 57.936C41.6993 57.66 41.7353 57.288 41.7353 56.928C41.7353 56.532 41.6873 56.172 41.6153 55.92C41.4353 55.32 40.9793 54.972 40.3673 54.972C39.7553 54.972 39.3113 55.32 39.1313 55.92C39.0593 56.172 39.0113 56.532 39.0113 56.928C39.0113 57.3 39.0593 57.684 39.1313 57.936C39.3113 58.536 39.7673 58.896 40.3913 58.896ZM47.47 53.856C47.59 53.856 47.662 53.928 47.662 54.048V54.9C47.662 55.02 47.59 55.092 47.47 55.092H46.342C46.306 55.092 46.27 55.116 46.27 55.164V59.808C46.27 59.928 46.198 60 46.078 60H45.07C44.95 60 44.878 59.928 44.878 59.808V55.164C44.878 55.116 44.854 55.092 44.806 55.092H44.122C44.002 55.092 43.93 55.02 43.93 54.9V54.048C43.93 53.928 44.002 53.856 44.122 53.856H44.806C44.854 53.856 44.878 53.832 44.878 53.784V53.58C44.878 52.056 45.406 51.588 47.074 51.6H47.446C47.566 51.6 47.638 51.672 47.638 51.792V52.536C47.638 52.656 47.566 52.728 47.446 52.728H47.182C46.486 52.728 46.27 52.956 46.27 53.676V53.784C46.27 53.832 46.294 53.856 46.342 53.856H47.47ZM49.6298 53.1C49.1018 53.1 48.7298 52.74 48.7298 52.224C48.7298 51.72 49.1018 51.36 49.6298 51.36C50.1578 51.36 50.5178 51.72 50.5178 52.224C50.5178 52.74 50.1578 53.1 49.6298 53.1ZM49.1258 60C49.0058 60 48.9338 59.928 48.9338 59.808V54.06C48.9338 53.94 49.0058 53.868 49.1258 53.868H50.1338C50.2538 53.868 50.3258 53.94 50.3258 54.06V59.808C50.3258 59.928 50.2538 60 50.1338 60H49.1258ZM52.1003 60C51.9803 60 51.9083 59.928 51.9083 59.808V51.792C51.9083 51.672 51.9803 51.6 52.1003 51.6H53.1083C53.2283 51.6 53.3003 51.672 53.3003 51.792V59.808C53.3003 59.928 53.2283 60 53.1083 60H52.1003ZM57.4303 60.096C56.1703 60.096 55.1983 59.412 54.8503 58.284C54.7183 57.9 54.6463 57.396 54.6463 56.916C54.6463 56.424 54.7183 55.92 54.8383 55.548C55.1983 54.432 56.1583 53.772 57.4423 53.772C58.6663 53.772 59.5903 54.432 59.9623 55.536C60.1063 55.92 60.1783 56.424 60.1783 56.904C60.1783 57.372 60.1063 57.876 59.9743 58.272C59.6143 59.412 58.6663 60.096 57.4303 60.096ZM57.4303 58.896C58.0183 58.896 58.4623 58.536 58.6423 57.936C58.7383 57.66 58.7743 57.288 58.7743 56.928C58.7743 56.532 58.7263 56.172 58.6543 55.92C58.4743 55.32 58.0183 54.972 57.4063 54.972C56.7943 54.972 56.3503 55.32 56.1703 55.92C56.0983 56.172 56.0503 56.532 56.0503 56.928C56.0503 57.3 56.0983 57.684 56.1703 57.936C56.3503 58.536 56.8063 58.896 57.4303 58.896Z" fill="url(#paint1_linear_1076_15694)"/>
<defs>
<linearGradient id="paint0_linear_1076_15694" x1="41.5254" y1="18" x2="41.5254" y2="46" gradientUnits="userSpaceOnUse">
<stop stop-color="white"/>
<stop offset="1" stop-color="#FFE6EE"/>
</linearGradient>
<linearGradient id="paint1_linear_1076_15694" x1="43.125" y1="47" x2="43.125" y2="63" gradientUnits="userSpaceOnUse">
<stop stop-color="white"/>
<stop offset="1" stop-color="#FFE6EE"/>
</linearGradient>
</defs>
</svg>
