<svg width="24" height="24" viewBox="0 0 24 24" fill="none" xmlns="http://www.w3.org/2000/svg">
<path fill-rule="evenodd" clip-rule="evenodd" d="M10.7208 1C9.85993 1 9.09565 1.55086 8.82342 2.36754L8.18233 4.29081L6.9233 4.92033L5.13904 4.32558C4.19482 4.01084 3.16285 4.43829 2.71773 5.32852L1.46713 7.82972C1.04538 8.67323 1.27018 9.69675 2.0066 10.2859L3.50003 11.4806V12.9338L2.2796 13.6661C1.38345 14.2038 1.05236 15.3407 1.51973 16.2755L2.71773 18.6715C3.16285 19.5617 4.19482 19.9892 5.13904 19.6744L6.81919 19.1144L8.17569 20.1318L8.82011 21.7428C9.12383 22.5021 9.85925 23 10.6771 23H13.323C14.1408 23 14.8762 22.5021 15.1799 21.7428L15.8244 20.1318L17.1809 19.1144L18.861 19.6744C19.8052 19.9892 20.8372 19.5617 21.2823 18.6715L22.5329 16.1703C22.9547 15.3268 22.7299 14.3033 21.9935 13.7141L20.5 12.5194V11.4806L21.9935 10.2859C22.7299 9.69675 22.9547 8.67323 22.5329 7.82972L21.2823 5.32852C20.8372 4.43829 19.8052 4.01084 18.861 4.32558L17.0768 4.92033L15.8177 4.29081L15.1766 2.36754C14.9044 1.55086 14.1401 1 13.2793 1H10.7208ZM10.7208 3H13.2793L13.9204 4.92327C14.0881 5.42648 14.4489 5.84245 14.9233 6.07967L16.1823 6.70919C16.6568 6.9464 17.206 6.98544 17.7092 6.8177L19.4935 6.22295L20.7441 8.72414L19.2506 9.91889C18.7762 10.2984 18.5 10.8731 18.5 11.4806V12.5194C18.5 13.1269 18.7762 13.7016 19.2506 14.0811L20.7441 15.2759L19.4935 17.7771L17.8133 17.217C17.1907 17.0095 16.5059 17.1206 15.9809 17.5144L14.6244 18.5317C14.3309 18.7518 14.1036 19.0484 13.9674 19.389L13.323 21H10.6771L10.0326 19.389C9.89642 19.0484 9.66915 18.7518 9.37569 18.5317L8.01919 17.5144C7.49416 17.1206 6.80935 17.0095 6.18673 17.217L4.50659 17.7771L3.30859 15.3811L4.52902 14.6488C5.13143 14.2873 5.50003 13.6363 5.50003 12.9338V11.4806C5.50003 10.8731 5.22385 10.2984 4.74942 9.91889L3.25599 8.72414L4.50659 6.22295L6.29084 6.8177C6.79405 6.98544 7.34329 6.9464 7.81772 6.70919L9.07676 6.07967C9.55119 5.84245 9.91196 5.42648 10.0797 4.92327L10.7208 3ZM15 12C15 13.6569 13.6569 15 12 15C10.3432 15 9.00003 13.6569 9.00003 12C9.00003 10.3431 10.3432 9 12 9C13.6569 9 15 10.3431 15 12Z" fill="#1F2D4F"/>
</svg>
