<svg width="20" height="20" viewBox="0 0 20 20" fill="none" xmlns="http://www.w3.org/2000/svg">
<path fill-rule="evenodd" clip-rule="evenodd" d="M13.4595 8.20693C13.8501 8.59746 14.4832 8.59746 14.8738 8.20693C15.2643 7.81641 15.2643 7.18324 14.8738 6.79272L10.7071 2.62605L9.99998 1.91895L9.29287 2.62605L5.12621 6.79272C4.73568 7.18324 4.73568 7.81641 5.12621 8.20693C5.51673 8.59746 6.1499 8.59746 6.54042 8.20693L8.99998 5.74737L8.99998 13.3332C8.99998 13.8854 9.44769 14.3332 9.99998 14.3332C10.5523 14.3332 11 13.8854 11 13.3332L11 5.74737L13.4595 8.20693ZM4.33331 11.6665C4.33331 11.1142 3.8856 10.6665 3.33331 10.6665C2.78103 10.6665 2.33331 11.1142 2.33331 11.6665V14.6665C2.33331 16.3233 3.67646 17.6665 5.33331 17.6665H14.6666C16.3235 17.6665 17.6666 16.3233 17.6666 14.6665V11.6665C17.6666 11.1142 17.2189 10.6665 16.6666 10.6665C16.1144 10.6665 15.6666 11.1142 15.6666 11.6665V14.6665C15.6666 15.2188 15.2189 15.6665 14.6666 15.6665H5.33331C4.78103 15.6665 4.33331 15.2188 4.33331 14.6665V11.6665Z" fill="url(#paint0_linear_7078_31575)"/>
<defs>
<linearGradient id="paint0_linear_7078_31575" x1="3.67498" y1="1.91894" x2="19.9938" y2="5.7281" gradientUnits="userSpaceOnUse">
<stop stop-color="#B63AB4"/>
<stop offset="1" stop-color="#513B9F"/>
</linearGradient>
</defs>
</svg>
