<svg width="24" height="40" viewBox="0 0 24 40" fill="none" xmlns="http://www.w3.org/2000/svg">
<path d="M17.2929 24.2929C17.6834 23.9024 18.3166 23.9024 18.7071 24.2929C19.0976 24.6834 19.0976 25.3166 18.7071 25.7071L12.7071 31.7071C12.3285 32.0857 11.7189 32.0989 11.3243 31.7372L5.32427 26.2372C4.91716 25.864 4.88965 25.2314 5.26285 24.8243C5.63604 24.4172 6.26861 24.3897 6.67572 24.7628L11.9699 29.6159L17.2929 24.2929Z" fill="white"/>
<path d="M6.70711 15.7071C6.31658 16.0976 5.68342 16.0976 5.29289 15.7071C4.90237 15.3166 4.90237 14.6834 5.29289 14.2929L11.2929 8.29289C11.6715 7.91432 12.2811 7.90107 12.6757 8.26285L18.6757 13.7628C19.0828 14.136 19.1103 14.7686 18.7372 15.1757C18.364 15.5828 17.7314 15.6103 17.3243 15.2372L12.0301 10.3841L6.70711 15.7071Z" fill="white"/>
</svg>
